G04 #@! TF.GenerationSoftware,KiCad,Pcbnew,9.0.3*
G04 #@! TF.CreationDate,2025-09-22T20:46:44+01:00*
G04 #@! TF.ProjectId,led_matrix,6c65645f-6d61-4747-9269-782e6b696361,rev?*
G04 #@! TF.SameCoordinates,Original*
G04 #@! TF.FileFunction,Copper,L2,Bot*
G04 #@! TF.FilePolarity,Positive*
%FSLAX46Y46*%
G04 Gerber Fmt 4.6, Leading zero omitted, Abs format (unit mm)*
G04 Created by KiCad (PCBNEW 9.0.3) date 2025-09-22 20:46:44*
%MOMM*%
%LPD*%
G01*
G04 APERTURE LIST*
G04 Aperture macros list*
%AMRoundRect*
0 Rectangle with rounded corners*
0 $1 Rounding radius*
0 $2 $3 $4 $5 $6 $7 $8 $9 X,Y pos of 4 corners*
0 Add a 4 corners polygon primitive as box body*
4,1,4,$2,$3,$4,$5,$6,$7,$8,$9,$2,$3,0*
0 Add four circle primitives for the rounded corners*
1,1,$1+$1,$2,$3*
1,1,$1+$1,$4,$5*
1,1,$1+$1,$6,$7*
1,1,$1+$1,$8,$9*
0 Add four rect primitives between the rounded corners*
20,1,$1+$1,$2,$3,$4,$5,0*
20,1,$1+$1,$4,$5,$6,$7,0*
20,1,$1+$1,$6,$7,$8,$9,0*
20,1,$1+$1,$8,$9,$2,$3,0*%
G04 Aperture macros list end*
G04 #@! TA.AperFunction,ComponentPad*
%ADD10RoundRect,0.250000X0.750000X-0.750000X0.750000X0.750000X-0.750000X0.750000X-0.750000X-0.750000X0*%
G04 #@! TD*
G04 #@! TA.AperFunction,ComponentPad*
%ADD11C,2.000000*%
G04 #@! TD*
G04 #@! TA.AperFunction,ComponentPad*
%ADD12C,1.524000*%
G04 #@! TD*
G04 #@! TA.AperFunction,ComponentPad*
%ADD13RoundRect,0.275000X0.275000X-0.975000X0.275000X0.975000X-0.275000X0.975000X-0.275000X-0.975000X0*%
G04 #@! TD*
G04 #@! TA.AperFunction,ComponentPad*
%ADD14RoundRect,0.275000X0.975000X0.275000X-0.975000X0.275000X-0.975000X-0.275000X0.975000X-0.275000X0*%
G04 #@! TD*
G04 #@! TA.AperFunction,ComponentPad*
%ADD15C,1.700000*%
G04 #@! TD*
G04 #@! TA.AperFunction,ComponentPad*
%ADD16R,1.378000X1.378000*%
G04 #@! TD*
G04 #@! TA.AperFunction,ComponentPad*
%ADD17C,1.378000*%
G04 #@! TD*
G04 #@! TA.AperFunction,ViaPad*
%ADD18C,0.600000*%
G04 #@! TD*
G04 #@! TA.AperFunction,Conductor*
%ADD19C,0.150000*%
G04 #@! TD*
G04 #@! TA.AperFunction,Conductor*
%ADD20C,0.600000*%
G04 #@! TD*
G04 APERTURE END LIST*
D10*
X84750000Y-145500000D03*
D11*
X84750000Y-141000000D03*
D12*
X81804200Y-122380000D03*
X79264200Y-122380000D03*
X76724200Y-122380000D03*
X74184200Y-122380000D03*
X71644200Y-122380000D03*
X69104200Y-122380000D03*
X66564200Y-122380000D03*
X66564200Y-137620000D03*
X69104200Y-137620000D03*
X71644200Y-137620000D03*
X74184200Y-137620000D03*
X76724200Y-137620000D03*
X79264200Y-137620000D03*
X81804200Y-137620000D03*
D13*
X74501700Y-125555000D03*
X76406700Y-125555000D03*
D14*
X64951300Y-133810000D03*
X64951300Y-135715000D03*
D15*
X82756700Y-128730000D03*
X82756700Y-131270000D03*
X80216700Y-128730000D03*
X80216700Y-131270000D03*
D16*
X31710000Y-114750000D03*
D17*
X34250000Y-114750000D03*
D18*
X59750000Y-131750000D03*
X67627900Y-85175000D03*
X64427900Y-85175000D03*
X59000000Y-85200000D03*
X70827900Y-85175000D03*
X79800000Y-85200000D03*
X74027900Y-85175000D03*
X77227900Y-85175000D03*
X61227900Y-85175000D03*
X73734200Y-107250000D03*
X76954200Y-107250000D03*
X82750000Y-107250000D03*
X80174200Y-107250000D03*
X70514200Y-107250000D03*
X62250000Y-107250000D03*
X67294200Y-107250000D03*
X64000000Y-107250000D03*
X67627900Y-88375000D03*
X64427900Y-88375000D03*
X82800000Y-88400000D03*
X74027900Y-88375000D03*
X61227900Y-88375000D03*
X78927900Y-88419500D03*
X70827900Y-88375000D03*
X58977900Y-88375000D03*
X67627900Y-91575000D03*
X70827900Y-91575000D03*
X75702900Y-91647400D03*
X61227900Y-91575000D03*
X82800000Y-91600000D03*
X58977900Y-91575000D03*
X64427900Y-91575000D03*
X80400000Y-91600000D03*
X61227900Y-94775000D03*
X80400000Y-94800000D03*
X82800000Y-94800000D03*
X58977900Y-94775000D03*
X64427900Y-94775000D03*
X72477900Y-94775000D03*
X67627900Y-94775000D03*
X77227900Y-94825000D03*
X77200000Y-98000000D03*
X69252900Y-97984318D03*
X64427900Y-97975000D03*
X61227900Y-97975000D03*
X74000000Y-98000000D03*
X82800000Y-98000000D03*
X80400000Y-98000000D03*
X58977900Y-97975000D03*
X70813950Y-101213950D03*
X66027900Y-101238097D03*
X82800000Y-101200000D03*
X74013950Y-101213950D03*
X58977900Y-101175000D03*
X77200000Y-101200000D03*
X80400000Y-101200000D03*
X61227900Y-101175000D03*
X74013950Y-104413950D03*
X77200000Y-104400000D03*
X58915250Y-104437650D03*
X67613950Y-104413950D03*
X80400000Y-104400000D03*
X82800000Y-104400000D03*
X62802900Y-104401460D03*
X70807705Y-104407705D03*
X32077334Y-85226460D03*
X38599434Y-85201460D03*
X45077334Y-85226460D03*
X30000000Y-85201460D03*
X41827334Y-85226460D03*
X35327334Y-85226460D03*
X50649434Y-85201460D03*
X48327334Y-85226460D03*
X41799434Y-88401460D03*
X38599434Y-88401460D03*
X32077334Y-88401460D03*
X45152334Y-88401460D03*
X53629334Y-88401460D03*
X35327334Y-88401460D03*
X30000000Y-88401460D03*
X49877334Y-88401460D03*
X53629334Y-91601460D03*
X50649434Y-91601460D03*
X38599434Y-91601460D03*
X35299434Y-91651460D03*
X41799434Y-91601460D03*
X30000000Y-91601460D03*
X32149434Y-91601460D03*
X46649434Y-91601460D03*
X32049434Y-94851460D03*
X43499434Y-94851460D03*
X50649434Y-94851460D03*
X38599434Y-94851460D03*
X53629334Y-94851460D03*
X47399434Y-94851460D03*
X35249434Y-94851460D03*
X30000000Y-94851460D03*
X35249434Y-98101460D03*
X32049434Y-98101460D03*
X30000000Y-98101460D03*
X44149434Y-98101460D03*
X53629334Y-98101460D03*
X40199434Y-98101460D03*
X50649434Y-98101460D03*
X47399434Y-98101460D03*
X31999434Y-101351460D03*
X44149434Y-101351460D03*
X47399434Y-101351460D03*
X30000000Y-101351460D03*
X50649434Y-101351460D03*
X36999434Y-101351460D03*
X53629334Y-101351460D03*
X40899434Y-101351460D03*
X38065222Y-107250000D03*
X54500000Y-107250000D03*
X48000000Y-107250000D03*
X44750000Y-107250000D03*
X41471534Y-107250000D03*
X32000000Y-107250000D03*
X51250000Y-107250000D03*
X35000000Y-107250000D03*
X50649434Y-104601460D03*
X33699434Y-104601460D03*
X30000000Y-104601460D03*
X40899434Y-104601460D03*
X44149434Y-104601460D03*
X47399434Y-104601460D03*
X53604334Y-104601460D03*
X37649434Y-104601460D03*
X85735100Y-114003904D03*
X62000000Y-139000000D03*
X44000000Y-147000000D03*
X46000000Y-138000000D03*
X45000000Y-122000000D03*
X35000000Y-136000000D03*
X28000000Y-136000000D03*
X51000000Y-140000000D03*
X28500000Y-98000000D03*
X34000000Y-147000000D03*
X85735100Y-122003904D03*
X61000000Y-125000000D03*
X54000000Y-140000000D03*
X74000000Y-147000000D03*
X34000000Y-117000000D03*
X78250000Y-114500000D03*
X38000000Y-133000000D03*
X56250000Y-135000000D03*
X79000000Y-147000000D03*
X85735100Y-118003904D03*
X78300000Y-141950000D03*
X63000000Y-123000000D03*
X68000000Y-147000000D03*
X85735100Y-110003904D03*
X35000000Y-138000000D03*
X36500000Y-128550000D03*
X36000000Y-117000000D03*
X51000000Y-146000000D03*
X49250000Y-114000000D03*
X31550000Y-128500000D03*
X40000000Y-124000000D03*
X54000000Y-123000000D03*
X53550000Y-119100000D03*
X58950000Y-145650000D03*
X28500000Y-94750000D03*
X78000000Y-132000000D03*
X28000000Y-125000000D03*
X41000000Y-139000000D03*
X73000000Y-132000000D03*
X42950000Y-132550000D03*
X38000000Y-129000000D03*
X56500000Y-115250000D03*
X39000000Y-138000000D03*
X85735100Y-126003904D03*
X54000000Y-127000000D03*
X68000000Y-132000000D03*
X28500000Y-85000000D03*
X39000000Y-142000000D03*
X58350000Y-124050000D03*
X55000000Y-146000000D03*
X45000000Y-124000000D03*
X33000000Y-130000000D03*
X43200000Y-140850000D03*
X39000000Y-147000000D03*
X51850000Y-119100000D03*
X46000000Y-131000000D03*
X43000000Y-131000000D03*
X36500000Y-131550000D03*
X40000000Y-131000000D03*
X49000000Y-147000000D03*
X28500000Y-101250000D03*
X28000000Y-112000000D03*
X29000000Y-147000000D03*
X49250000Y-136000000D03*
X28000000Y-127000000D03*
X46000000Y-132500000D03*
X39000000Y-136000000D03*
X55750000Y-111625000D03*
X53550000Y-117500000D03*
X82000000Y-126000000D03*
X28500000Y-104500000D03*
X41300000Y-141500000D03*
X46512500Y-122750000D03*
X36700000Y-121850000D03*
X28500000Y-91500000D03*
X85735100Y-134003904D03*
X33000000Y-127000000D03*
X28000000Y-117000000D03*
X79000000Y-126000000D03*
X55750000Y-114000000D03*
X28000000Y-131000000D03*
X85735100Y-130003904D03*
X40000000Y-132500000D03*
X48775453Y-143000000D03*
X28000000Y-121000000D03*
X36050000Y-142250000D03*
X51900000Y-117450000D03*
X28500000Y-88250000D03*
X62000000Y-145000000D03*
X40000000Y-122000000D03*
X46000000Y-144600000D03*
X49250000Y-116000000D03*
X49250000Y-120252000D03*
X57500000Y-120255000D03*
X52000000Y-109500000D03*
X57500000Y-116248000D03*
X51250000Y-111000000D03*
X52500000Y-111000000D03*
X53750000Y-109750000D03*
X56250000Y-120255000D03*
X56250000Y-116248000D03*
X59250000Y-138250000D03*
D19*
X79800000Y-85200000D02*
X59000000Y-85200000D01*
X70514200Y-107250000D02*
X67294200Y-107250000D01*
X76954200Y-107250000D02*
X73734200Y-107250000D01*
X64000000Y-107250000D02*
X62250000Y-107250000D01*
X80174200Y-107250000D02*
X76954200Y-107250000D01*
X73734200Y-107250000D02*
X70514200Y-107250000D01*
X82750000Y-107250000D02*
X80174200Y-107250000D01*
X67294200Y-107250000D02*
X64000000Y-107250000D01*
X59002900Y-88350000D02*
X58977900Y-88375000D01*
X74350000Y-88350000D02*
X59002900Y-88350000D01*
X74400000Y-88400000D02*
X74350000Y-88350000D01*
X74200000Y-88400000D02*
X79800000Y-88400000D01*
X79800000Y-88400000D02*
X82800000Y-88400000D01*
X82800000Y-91600000D02*
X59000000Y-91600000D01*
X82800000Y-94800000D02*
X82775000Y-94775000D01*
X82775000Y-94775000D02*
X58977900Y-94775000D01*
X77175000Y-97975000D02*
X59025000Y-97975000D01*
X82800000Y-98000000D02*
X77200000Y-98000000D01*
X59025000Y-97975000D02*
X59000000Y-98000000D01*
X77200000Y-98000000D02*
X77175000Y-97975000D01*
X59028917Y-101226017D02*
X58977900Y-101175000D01*
X70801883Y-101226017D02*
X59028917Y-101226017D01*
X70827900Y-101200000D02*
X70813950Y-101213950D01*
X70813950Y-101213950D02*
X70801883Y-101226017D01*
X77200000Y-101200000D02*
X70827900Y-101200000D01*
X82800000Y-101200000D02*
X77200000Y-101200000D01*
X58915250Y-104437650D02*
X58940358Y-104412542D01*
X58940358Y-104412542D02*
X82787458Y-104412542D01*
X82787458Y-104412542D02*
X82800000Y-104400000D01*
X67613950Y-104413950D02*
X67575000Y-104375000D01*
X30000000Y-85201460D02*
X50649434Y-85201460D01*
X53629334Y-88401460D02*
X49877334Y-88401460D01*
X38577334Y-88401460D02*
X41799434Y-88401460D01*
X32077334Y-88401460D02*
X35327334Y-88401460D01*
X45152334Y-88401460D02*
X49877334Y-88401460D01*
X41799434Y-88401460D02*
X45152334Y-88401460D01*
X30000000Y-88401460D02*
X32077334Y-88401460D01*
X35327334Y-88401460D02*
X38577334Y-88401460D01*
X41799434Y-91601460D02*
X30000000Y-91601460D01*
X50649434Y-91601460D02*
X46649434Y-91601460D01*
X50599434Y-91551460D02*
X50649434Y-91601460D01*
X41799434Y-91601460D02*
X46649434Y-91601460D01*
X53629334Y-91601460D02*
X50649434Y-91601460D01*
X50649434Y-94851460D02*
X47399434Y-94851460D01*
X47399434Y-94851460D02*
X30000000Y-94851460D01*
X53629334Y-94851460D02*
X50649434Y-94851460D01*
X40227334Y-98129360D02*
X40199434Y-98101460D01*
X40299434Y-98101460D02*
X40271534Y-98129360D01*
X40299434Y-98101460D02*
X44149434Y-98101460D01*
X40271534Y-98129360D02*
X40227334Y-98129360D01*
X47399434Y-98101460D02*
X44149434Y-98101460D01*
X30000000Y-98101460D02*
X40199434Y-98101460D01*
X50649434Y-98101460D02*
X47399434Y-98101460D01*
X53629334Y-98101460D02*
X50649434Y-98101460D01*
X53629334Y-101351460D02*
X50649434Y-101351460D01*
X44149434Y-101351460D02*
X40899434Y-101351460D01*
X47399434Y-101351460D02*
X44149434Y-101351460D01*
X40899434Y-101351460D02*
X36999434Y-101351460D01*
X30000000Y-101351460D02*
X36999434Y-101351460D01*
X50649434Y-101351460D02*
X47399434Y-101351460D01*
X41443068Y-107250000D02*
X38065222Y-107250000D01*
X44750000Y-107250000D02*
X41471534Y-107250000D01*
X54500000Y-107250000D02*
X51250000Y-107250000D01*
X38065222Y-107250000D02*
X35000000Y-107250000D01*
X41471534Y-107278466D02*
X41443068Y-107250000D01*
X41471534Y-107250000D02*
X41471534Y-107278466D01*
X48000000Y-107250000D02*
X44750000Y-107250000D01*
X51250000Y-107250000D02*
X48000000Y-107250000D01*
X32000000Y-107250000D02*
X35000000Y-107250000D01*
X40899434Y-104601460D02*
X37649434Y-104601460D01*
X33699434Y-104601460D02*
X33799434Y-104601460D01*
X47399434Y-104601460D02*
X44149434Y-104601460D01*
X50649434Y-104601460D02*
X47399434Y-104601460D01*
X44149434Y-104601460D02*
X40899434Y-104601460D01*
X33699434Y-104601460D02*
X37649434Y-104601460D01*
X30000000Y-104601460D02*
X33699434Y-104601460D01*
X53604334Y-104601460D02*
X50649434Y-104601460D01*
D20*
X49250000Y-120252000D02*
X49250000Y-116000000D01*
D19*
X51250000Y-110250000D02*
X52000000Y-109500000D01*
X57500000Y-116248000D02*
X57500000Y-120255000D01*
X51250000Y-111000000D02*
X51250000Y-110250000D01*
X52500000Y-111000000D02*
X53750000Y-109750000D01*
X56250000Y-116248000D02*
X56250000Y-120255000D01*
G04 #@! TA.AperFunction,Conductor*
G36*
X81558144Y-129383999D02*
G01*
X81597186Y-129429056D01*
X81601651Y-129437820D01*
X81726590Y-129609786D01*
X81876913Y-129760109D01*
X82048882Y-129885050D01*
X82057646Y-129889516D01*
X82108442Y-129937491D01*
X82125236Y-130005312D01*
X82102698Y-130071447D01*
X82057646Y-130110484D01*
X82048882Y-130114949D01*
X81876913Y-130239890D01*
X81726590Y-130390213D01*
X81601649Y-130562182D01*
X81596902Y-130571499D01*
X81548927Y-130622293D01*
X81481105Y-130639087D01*
X81414971Y-130616548D01*
X81375934Y-130571495D01*
X81371326Y-130562452D01*
X81331970Y-130508282D01*
X81331969Y-130508282D01*
X80616700Y-131223552D01*
X80616700Y-131217339D01*
X80589441Y-131115606D01*
X80536780Y-131024394D01*
X80462306Y-130949920D01*
X80371094Y-130897259D01*
X80269361Y-130870000D01*
X80263147Y-130870000D01*
X80978416Y-130154728D01*
X80924247Y-130115373D01*
X80924247Y-130115372D01*
X80915200Y-130110763D01*
X80864406Y-130062788D01*
X80847612Y-129994966D01*
X80870151Y-129928832D01*
X80915208Y-129889793D01*
X80924516Y-129885051D01*
X81003707Y-129827515D01*
X81096486Y-129760109D01*
X81096488Y-129760106D01*
X81096492Y-129760104D01*
X81246804Y-129609792D01*
X81246806Y-129609788D01*
X81246809Y-129609786D01*
X81371748Y-129437820D01*
X81371747Y-129437820D01*
X81371751Y-129437816D01*
X81376214Y-129429054D01*
X81424188Y-129378259D01*
X81492008Y-129361463D01*
X81558144Y-129383999D01*
G37*
G04 #@! TD.AperFunction*
G04 #@! TA.AperFunction,Conductor*
G36*
X86342538Y-82270185D02*
G01*
X86388293Y-82322989D01*
X86399499Y-82374500D01*
X86399499Y-140438013D01*
X86379814Y-140505052D01*
X86327010Y-140550807D01*
X86257852Y-140560751D01*
X86194296Y-140531726D01*
X86157568Y-140476331D01*
X86140568Y-140424008D01*
X86033343Y-140213567D01*
X85894517Y-140022490D01*
X85727510Y-139855483D01*
X85536433Y-139716657D01*
X85325996Y-139609433D01*
X85101368Y-139536446D01*
X84868097Y-139499500D01*
X84868092Y-139499500D01*
X84631908Y-139499500D01*
X84631903Y-139499500D01*
X84398631Y-139536446D01*
X84174003Y-139609433D01*
X83963566Y-139716657D01*
X83854550Y-139795862D01*
X83772490Y-139855483D01*
X83772488Y-139855485D01*
X83772487Y-139855485D01*
X83605485Y-140022487D01*
X83605485Y-140022488D01*
X83605483Y-140022490D01*
X83545862Y-140104550D01*
X83466657Y-140213566D01*
X83359433Y-140424003D01*
X83286446Y-140648631D01*
X83249500Y-140881902D01*
X83249500Y-141118097D01*
X83286446Y-141351368D01*
X83359433Y-141575996D01*
X83466657Y-141786433D01*
X83605483Y-141977510D01*
X83772490Y-142144517D01*
X83963567Y-142283343D01*
X84062991Y-142334002D01*
X84174003Y-142390566D01*
X84174005Y-142390566D01*
X84174008Y-142390568D01*
X84294412Y-142429689D01*
X84398631Y-142463553D01*
X84631903Y-142500500D01*
X84631908Y-142500500D01*
X84868097Y-142500500D01*
X85101368Y-142463553D01*
X85325992Y-142390568D01*
X85536433Y-142283343D01*
X85727510Y-142144517D01*
X85894517Y-141977510D01*
X86033343Y-141786433D01*
X86140568Y-141575992D01*
X86157569Y-141523666D01*
X86197004Y-141465993D01*
X86261363Y-141438794D01*
X86330209Y-141450708D01*
X86381685Y-141497951D01*
X86399499Y-141561986D01*
X86399499Y-144341489D01*
X86379814Y-144408528D01*
X86327010Y-144454283D01*
X86257852Y-144464227D01*
X86194296Y-144435202D01*
X86169962Y-144406588D01*
X86092712Y-144281344D01*
X85968656Y-144157288D01*
X85819334Y-144065186D01*
X85652797Y-144010001D01*
X85652795Y-144010000D01*
X85550010Y-143999500D01*
X83949998Y-143999500D01*
X83949981Y-143999501D01*
X83847203Y-144010000D01*
X83847200Y-144010001D01*
X83680668Y-144065185D01*
X83680663Y-144065187D01*
X83531342Y-144157289D01*
X83407289Y-144281342D01*
X83315187Y-144430663D01*
X83315186Y-144430666D01*
X83260001Y-144597203D01*
X83260001Y-144597204D01*
X83260000Y-144597204D01*
X83249500Y-144699983D01*
X83249500Y-146300001D01*
X83249501Y-146300018D01*
X83260000Y-146402796D01*
X83260001Y-146402799D01*
X83315185Y-146569331D01*
X83315187Y-146569336D01*
X83347286Y-146621377D01*
X83407288Y-146718656D01*
X83531344Y-146842712D01*
X83680666Y-146934814D01*
X83847203Y-146989999D01*
X83949991Y-147000500D01*
X85550008Y-147000499D01*
X85652797Y-146989999D01*
X85819334Y-146934814D01*
X85968656Y-146842712D01*
X86092712Y-146718656D01*
X86169963Y-146593411D01*
X86221907Y-146546689D01*
X86290869Y-146535466D01*
X86354952Y-146563309D01*
X86393809Y-146621377D01*
X86399499Y-146658510D01*
X86399500Y-147375500D01*
X86379816Y-147442539D01*
X86327012Y-147488294D01*
X86275500Y-147499500D01*
X27576606Y-147499500D01*
X27509567Y-147479815D01*
X27463812Y-147427011D01*
X27452606Y-147375696D01*
X27430624Y-133491441D01*
X63200800Y-133491441D01*
X63200800Y-134128558D01*
X63215457Y-134258648D01*
X63215459Y-134258658D01*
X63273177Y-134423604D01*
X63366153Y-134571576D01*
X63469396Y-134674819D01*
X63502881Y-134736142D01*
X63497897Y-134805834D01*
X63469396Y-134850181D01*
X63366153Y-134953423D01*
X63273177Y-135101395D01*
X63215459Y-135266341D01*
X63215457Y-135266351D01*
X63200800Y-135396441D01*
X63200800Y-136033558D01*
X63215457Y-136163648D01*
X63215459Y-136163657D01*
X63273178Y-136328606D01*
X63366153Y-136476576D01*
X63489724Y-136600147D01*
X63637694Y-136693122D01*
X63802643Y-136750841D01*
X63802649Y-136750841D01*
X63802651Y-136750842D01*
X63844050Y-136755506D01*
X63932742Y-136765499D01*
X63932745Y-136765500D01*
X63932748Y-136765500D01*
X65381146Y-136765500D01*
X65448185Y-136785185D01*
X65493940Y-136837989D01*
X65503884Y-136907147D01*
X65486877Y-136954284D01*
X65484415Y-136958300D01*
X65394194Y-137135367D01*
X65394193Y-137135370D01*
X65332787Y-137324362D01*
X65301700Y-137520639D01*
X65301700Y-137719360D01*
X65332787Y-137915637D01*
X65394193Y-138104629D01*
X65394194Y-138104632D01*
X65484274Y-138281422D01*
X65484413Y-138281694D01*
X65601219Y-138442464D01*
X65741736Y-138582981D01*
X65902506Y-138699787D01*
X65989349Y-138744035D01*
X66079567Y-138790005D01*
X66079570Y-138790006D01*
X66174066Y-138820709D01*
X66268564Y-138851413D01*
X66464839Y-138882500D01*
X66464840Y-138882500D01*
X66663560Y-138882500D01*
X66663561Y-138882500D01*
X66859836Y-138851413D01*
X67048832Y-138790005D01*
X67225894Y-138699787D01*
X67386664Y-138582981D01*
X67527181Y-138442464D01*
X67643987Y-138281694D01*
X67723715Y-138125218D01*
X67771690Y-138074423D01*
X67839511Y-138057628D01*
X67905646Y-138080165D01*
X67944684Y-138125218D01*
X68024413Y-138281694D01*
X68141219Y-138442464D01*
X68281736Y-138582981D01*
X68442506Y-138699787D01*
X68529349Y-138744035D01*
X68619567Y-138790005D01*
X68619570Y-138790006D01*
X68714066Y-138820709D01*
X68808564Y-138851413D01*
X69004839Y-138882500D01*
X69004840Y-138882500D01*
X69203560Y-138882500D01*
X69203561Y-138882500D01*
X69399836Y-138851413D01*
X69588832Y-138790005D01*
X69765894Y-138699787D01*
X69926664Y-138582981D01*
X70067181Y-138442464D01*
X70183987Y-138281694D01*
X70263715Y-138125218D01*
X70311690Y-138074423D01*
X70379511Y-138057628D01*
X70445646Y-138080165D01*
X70484684Y-138125218D01*
X70564413Y-138281694D01*
X70681219Y-138442464D01*
X70821736Y-138582981D01*
X70982506Y-138699787D01*
X71069349Y-138744035D01*
X71159567Y-138790005D01*
X71159570Y-138790006D01*
X71254066Y-138820709D01*
X71348564Y-138851413D01*
X71544839Y-138882500D01*
X71544840Y-138882500D01*
X71743560Y-138882500D01*
X71743561Y-138882500D01*
X71939836Y-138851413D01*
X72128832Y-138790005D01*
X72305894Y-138699787D01*
X72466664Y-138582981D01*
X72607181Y-138442464D01*
X72723987Y-138281694D01*
X72803715Y-138125218D01*
X72851690Y-138074423D01*
X72919511Y-138057628D01*
X72985646Y-138080165D01*
X73024684Y-138125218D01*
X73104413Y-138281694D01*
X73221219Y-138442464D01*
X73361736Y-138582981D01*
X73522506Y-138699787D01*
X73609349Y-138744035D01*
X73699567Y-138790005D01*
X73699570Y-138790006D01*
X73794066Y-138820709D01*
X73888564Y-138851413D01*
X74084839Y-138882500D01*
X74084840Y-138882500D01*
X74283560Y-138882500D01*
X74283561Y-138882500D01*
X74479836Y-138851413D01*
X74668832Y-138790005D01*
X74845894Y-138699787D01*
X75006664Y-138582981D01*
X75147181Y-138442464D01*
X75263987Y-138281694D01*
X75343715Y-138125218D01*
X75391690Y-138074423D01*
X75459511Y-138057628D01*
X75525646Y-138080165D01*
X75564684Y-138125218D01*
X75644413Y-138281694D01*
X75761219Y-138442464D01*
X75901736Y-138582981D01*
X76062506Y-138699787D01*
X76149349Y-138744035D01*
X76239567Y-138790005D01*
X76239570Y-138790006D01*
X76334066Y-138820709D01*
X76428564Y-138851413D01*
X76624839Y-138882500D01*
X76624840Y-138882500D01*
X76823560Y-138882500D01*
X76823561Y-138882500D01*
X77019836Y-138851413D01*
X77208832Y-138790005D01*
X77385894Y-138699787D01*
X77546664Y-138582981D01*
X77687181Y-138442464D01*
X77803987Y-138281694D01*
X77883996Y-138124667D01*
X77931969Y-138073872D01*
X77999790Y-138057077D01*
X78065925Y-138079614D01*
X78104965Y-138124668D01*
X78184841Y-138281432D01*
X78211930Y-138318715D01*
X78211931Y-138318716D01*
X78826552Y-137704094D01*
X78849992Y-137791571D01*
X78908511Y-137892930D01*
X78991270Y-137975689D01*
X79092629Y-138034208D01*
X79180105Y-138057647D01*
X78565483Y-138672268D01*
X78565483Y-138672269D01*
X78602767Y-138699358D01*
X78779762Y-138789542D01*
X78968677Y-138850924D01*
X79164879Y-138882000D01*
X79363521Y-138882000D01*
X79559720Y-138850924D01*
X79559723Y-138850924D01*
X79748637Y-138789542D01*
X79925625Y-138699362D01*
X79962916Y-138672268D01*
X79348295Y-138057647D01*
X79435771Y-138034208D01*
X79537130Y-137975689D01*
X79619889Y-137892930D01*
X79678408Y-137791571D01*
X79701847Y-137704094D01*
X80316468Y-138318715D01*
X80343564Y-138281422D01*
X80423434Y-138124669D01*
X80471408Y-138073872D01*
X80539229Y-138057077D01*
X80605364Y-138079614D01*
X80644403Y-138124667D01*
X80724413Y-138281694D01*
X80841219Y-138442464D01*
X80981736Y-138582981D01*
X81142506Y-138699787D01*
X81229349Y-138744035D01*
X81319567Y-138790005D01*
X81319570Y-138790006D01*
X81414066Y-138820709D01*
X81508564Y-138851413D01*
X81704839Y-138882500D01*
X81704840Y-138882500D01*
X81903560Y-138882500D01*
X81903561Y-138882500D01*
X82099836Y-138851413D01*
X82288832Y-138790005D01*
X82465894Y-138699787D01*
X82626664Y-138582981D01*
X82767181Y-138442464D01*
X82883987Y-138281694D01*
X82974205Y-138104632D01*
X83035613Y-137915636D01*
X83066700Y-137719361D01*
X83066700Y-137520639D01*
X83035613Y-137324364D01*
X82974205Y-137135368D01*
X82974205Y-137135367D01*
X82928235Y-137045149D01*
X82883987Y-136958306D01*
X82767181Y-136797536D01*
X82626664Y-136657019D01*
X82465894Y-136540213D01*
X82288832Y-136449994D01*
X82288829Y-136449993D01*
X82099837Y-136388587D01*
X82001698Y-136373043D01*
X81903561Y-136357500D01*
X81704839Y-136357500D01*
X81639414Y-136367862D01*
X81508562Y-136388587D01*
X81319570Y-136449993D01*
X81319567Y-136449994D01*
X81142505Y-136540213D01*
X80981733Y-136657021D01*
X80841221Y-136797533D01*
X80724413Y-136958305D01*
X80644404Y-137115331D01*
X80596429Y-137166127D01*
X80528608Y-137182922D01*
X80462473Y-137160384D01*
X80423434Y-137115331D01*
X80343558Y-136958567D01*
X80316468Y-136921283D01*
X79701847Y-137535904D01*
X79678408Y-137448429D01*
X79619889Y-137347070D01*
X79537130Y-137264311D01*
X79435771Y-137205792D01*
X79348294Y-137182352D01*
X79962916Y-136567731D01*
X79962915Y-136567730D01*
X79925632Y-136540641D01*
X79748637Y-136450457D01*
X79559722Y-136389075D01*
X79363521Y-136358000D01*
X79164879Y-136358000D01*
X78968679Y-136389075D01*
X78968676Y-136389075D01*
X78779762Y-136450457D01*
X78602764Y-136540643D01*
X78565483Y-136567729D01*
X78565482Y-136567730D01*
X79180106Y-137182352D01*
X79092629Y-137205792D01*
X78991270Y-137264311D01*
X78908511Y-137347070D01*
X78849992Y-137448429D01*
X78826552Y-137535905D01*
X78211930Y-136921282D01*
X78211929Y-136921283D01*
X78184841Y-136958566D01*
X78104964Y-137115332D01*
X78056990Y-137166127D01*
X77989169Y-137182922D01*
X77923034Y-137160384D01*
X77883996Y-137115332D01*
X77803987Y-136958306D01*
X77687181Y-136797536D01*
X77546664Y-136657019D01*
X77385894Y-136540213D01*
X77208832Y-136449994D01*
X77208829Y-136449993D01*
X77019837Y-136388587D01*
X76921698Y-136373043D01*
X76823561Y-136357500D01*
X76624839Y-136357500D01*
X76559414Y-136367862D01*
X76428562Y-136388587D01*
X76239570Y-136449993D01*
X76239567Y-136449994D01*
X76062505Y-136540213D01*
X75901733Y-136657021D01*
X75761221Y-136797533D01*
X75644413Y-136958305D01*
X75564685Y-137114780D01*
X75516710Y-137165576D01*
X75448889Y-137182371D01*
X75382754Y-137159833D01*
X75343715Y-137114780D01*
X75324379Y-137076832D01*
X75263987Y-136958306D01*
X75147181Y-136797536D01*
X75006664Y-136657019D01*
X74845894Y-136540213D01*
X74668832Y-136449994D01*
X74668829Y-136449993D01*
X74479837Y-136388587D01*
X74381698Y-136373043D01*
X74283561Y-136357500D01*
X74084839Y-136357500D01*
X74019414Y-136367862D01*
X73888562Y-136388587D01*
X73699570Y-136449993D01*
X73699567Y-136449994D01*
X73522505Y-136540213D01*
X73361733Y-136657021D01*
X73221221Y-136797533D01*
X73104413Y-136958305D01*
X73024685Y-137114780D01*
X72976710Y-137165576D01*
X72908889Y-137182371D01*
X72842754Y-137159833D01*
X72803715Y-137114780D01*
X72784379Y-137076832D01*
X72723987Y-136958306D01*
X72607181Y-136797536D01*
X72466664Y-136657019D01*
X72305894Y-136540213D01*
X72128832Y-136449994D01*
X72128829Y-136449993D01*
X71939837Y-136388587D01*
X71841698Y-136373043D01*
X71743561Y-136357500D01*
X71544839Y-136357500D01*
X71479414Y-136367862D01*
X71348562Y-136388587D01*
X71159570Y-136449993D01*
X71159567Y-136449994D01*
X70982505Y-136540213D01*
X70821733Y-136657021D01*
X70681221Y-136797533D01*
X70564413Y-136958305D01*
X70484685Y-137114780D01*
X70436710Y-137165576D01*
X70368889Y-137182371D01*
X70302754Y-137159833D01*
X70263715Y-137114780D01*
X70244379Y-137076832D01*
X70183987Y-136958306D01*
X70067181Y-136797536D01*
X69926664Y-136657019D01*
X69765894Y-136540213D01*
X69588832Y-136449994D01*
X69588829Y-136449993D01*
X69399837Y-136388587D01*
X69301698Y-136373043D01*
X69203561Y-136357500D01*
X69004839Y-136357500D01*
X68939414Y-136367862D01*
X68808562Y-136388587D01*
X68619570Y-136449993D01*
X68619567Y-136449994D01*
X68442505Y-136540213D01*
X68281733Y-136657021D01*
X68141221Y-136797533D01*
X68024413Y-136958305D01*
X67944685Y-137114780D01*
X67896710Y-137165576D01*
X67828889Y-137182371D01*
X67762754Y-137159833D01*
X67723715Y-137114780D01*
X67704379Y-137076832D01*
X67643987Y-136958306D01*
X67527181Y-136797536D01*
X67386664Y-136657019D01*
X67225894Y-136540213D01*
X67048832Y-136449994D01*
X67048829Y-136449993D01*
X66859837Y-136388586D01*
X66768334Y-136374094D01*
X66705199Y-136344165D01*
X66668268Y-136284853D01*
X66669266Y-136214990D01*
X66670675Y-136210711D01*
X66687141Y-136163657D01*
X66701800Y-136033552D01*
X66701800Y-135396448D01*
X66687141Y-135266343D01*
X66629422Y-135101394D01*
X66536447Y-134953424D01*
X66433204Y-134850181D01*
X66399719Y-134788858D01*
X66404703Y-134719166D01*
X66433204Y-134674819D01*
X66536447Y-134571576D01*
X66629422Y-134423606D01*
X66687141Y-134258657D01*
X66701800Y-134128552D01*
X66701800Y-133491448D01*
X66687141Y-133361343D01*
X66629422Y-133196394D01*
X66536447Y-133048424D01*
X66412876Y-132924853D01*
X66264906Y-132831878D01*
X66264905Y-132831877D01*
X66264904Y-132831877D01*
X66099958Y-132774159D01*
X66099948Y-132774157D01*
X65969858Y-132759500D01*
X65969852Y-132759500D01*
X63932748Y-132759500D01*
X63932741Y-132759500D01*
X63802651Y-132774157D01*
X63802641Y-132774159D01*
X63637695Y-132831877D01*
X63489723Y-132924853D01*
X63366153Y-133048423D01*
X63273177Y-133196395D01*
X63215459Y-133361341D01*
X63215457Y-133361351D01*
X63200800Y-133491441D01*
X27430624Y-133491441D01*
X27430619Y-133488165D01*
X27428798Y-132338207D01*
X27426931Y-131159077D01*
X27422917Y-128623713D01*
X78866200Y-128623713D01*
X78866200Y-128836286D01*
X78899453Y-129046239D01*
X78965144Y-129248414D01*
X79061651Y-129437820D01*
X79186590Y-129609786D01*
X79336913Y-129760109D01*
X79508879Y-129885048D01*
X79508881Y-129885049D01*
X79508884Y-129885051D01*
X79518193Y-129889794D01*
X79568990Y-129937766D01*
X79585787Y-130005587D01*
X79563252Y-130071722D01*
X79518205Y-130110760D01*
X79509146Y-130115376D01*
X79509140Y-130115380D01*
X79454982Y-130154727D01*
X79454982Y-130154728D01*
X80170254Y-130870000D01*
X80164039Y-130870000D01*
X80062306Y-130897259D01*
X79971094Y-130949920D01*
X79896620Y-131024394D01*
X79843959Y-131115606D01*
X79816700Y-131217339D01*
X79816700Y-131223554D01*
X79101428Y-130508282D01*
X79101427Y-130508282D01*
X79062080Y-130562439D01*
X78965604Y-130751782D01*
X78899942Y-130953869D01*
X78899942Y-130953872D01*
X78866700Y-131163753D01*
X78866700Y-131376246D01*
X78899942Y-131586127D01*
X78899942Y-131586130D01*
X78965604Y-131788217D01*
X79062075Y-131977550D01*
X79101428Y-132031716D01*
X79816700Y-131316445D01*
X79816700Y-131322661D01*
X79843959Y-131424394D01*
X79896620Y-131515606D01*
X79971094Y-131590080D01*
X80062306Y-131642741D01*
X80164039Y-131670000D01*
X80170254Y-131670000D01*
X79454982Y-132385269D01*
X79454982Y-132385270D01*
X79509149Y-132424624D01*
X79698482Y-132521095D01*
X79900570Y-132586757D01*
X80110454Y-132620000D01*
X80322946Y-132620000D01*
X80532827Y-132586757D01*
X80532830Y-132586757D01*
X80734917Y-132521095D01*
X80924254Y-132424622D01*
X80978416Y-132385270D01*
X80978417Y-132385270D01*
X80263146Y-131670000D01*
X80269361Y-131670000D01*
X80371094Y-131642741D01*
X80462306Y-131590080D01*
X80536780Y-131515606D01*
X80589441Y-131424394D01*
X80616700Y-131322661D01*
X80616700Y-131316446D01*
X81331970Y-132031717D01*
X81331970Y-132031716D01*
X81371322Y-131977555D01*
X81375932Y-131968507D01*
X81423905Y-131917709D01*
X81491725Y-131900912D01*
X81557861Y-131923447D01*
X81596904Y-131968504D01*
X81601649Y-131977817D01*
X81726590Y-132149786D01*
X81876913Y-132300109D01*
X82048879Y-132425048D01*
X82048881Y-132425049D01*
X82048884Y-132425051D01*
X82238288Y-132521557D01*
X82440457Y-132587246D01*
X82650413Y-132620500D01*
X82650414Y-132620500D01*
X82862986Y-132620500D01*
X82862987Y-132620500D01*
X83072943Y-132587246D01*
X83275112Y-132521557D01*
X83464516Y-132425051D01*
X83519272Y-132385269D01*
X83636486Y-132300109D01*
X83636488Y-132300106D01*
X83636492Y-132300104D01*
X83786804Y-132149792D01*
X83786806Y-132149788D01*
X83786809Y-132149786D01*
X83911748Y-131977820D01*
X83911750Y-131977817D01*
X83911751Y-131977816D01*
X84008257Y-131788412D01*
X84073946Y-131586243D01*
X84107200Y-131376287D01*
X84107200Y-131163713D01*
X84073946Y-130953757D01*
X84008257Y-130751588D01*
X83911751Y-130562184D01*
X83911749Y-130562181D01*
X83911748Y-130562179D01*
X83786809Y-130390213D01*
X83636486Y-130239890D01*
X83464520Y-130114951D01*
X83456300Y-130110763D01*
X83455754Y-130110485D01*
X83404959Y-130062512D01*
X83388163Y-129994692D01*
X83410699Y-129928556D01*
X83455754Y-129889515D01*
X83464516Y-129885051D01*
X83486489Y-129869086D01*
X83636486Y-129760109D01*
X83636488Y-129760106D01*
X83636492Y-129760104D01*
X83786804Y-129609792D01*
X83786806Y-129609788D01*
X83786809Y-129609786D01*
X83911748Y-129437820D01*
X83911747Y-129437820D01*
X83911751Y-129437816D01*
X84008257Y-129248412D01*
X84073946Y-129046243D01*
X84107200Y-128836287D01*
X84107200Y-128623713D01*
X84073946Y-128413757D01*
X84008257Y-128211588D01*
X83911751Y-128022184D01*
X83911749Y-128022181D01*
X83911748Y-128022179D01*
X83786809Y-127850213D01*
X83636486Y-127699890D01*
X83464520Y-127574951D01*
X83275114Y-127478444D01*
X83275113Y-127478443D01*
X83275112Y-127478443D01*
X83072943Y-127412754D01*
X83072941Y-127412753D01*
X83072940Y-127412753D01*
X82911657Y-127387208D01*
X82862987Y-127379500D01*
X82650413Y-127379500D01*
X82601742Y-127387208D01*
X82440460Y-127412753D01*
X82238285Y-127478444D01*
X82048879Y-127574951D01*
X81876913Y-127699890D01*
X81726590Y-127850213D01*
X81601649Y-128022182D01*
X81597184Y-128030946D01*
X81549209Y-128081742D01*
X81481388Y-128098536D01*
X81415253Y-128075998D01*
X81376216Y-128030946D01*
X81371750Y-128022182D01*
X81246809Y-127850213D01*
X81096486Y-127699890D01*
X80924520Y-127574951D01*
X80735114Y-127478444D01*
X80735113Y-127478443D01*
X80735112Y-127478443D01*
X80532943Y-127412754D01*
X80532941Y-127412753D01*
X80532940Y-127412753D01*
X80371657Y-127387208D01*
X80322987Y-127379500D01*
X80110413Y-127379500D01*
X80061742Y-127387208D01*
X79900460Y-127412753D01*
X79698285Y-127478444D01*
X79508879Y-127574951D01*
X79336913Y-127699890D01*
X79186590Y-127850213D01*
X79061651Y-128022179D01*
X78965144Y-128211585D01*
X78899453Y-128413760D01*
X78866200Y-128623713D01*
X27422917Y-128623713D01*
X27422910Y-128619037D01*
X27412874Y-122280639D01*
X65301700Y-122280639D01*
X65301700Y-122479360D01*
X65332787Y-122675637D01*
X65394193Y-122864629D01*
X65394194Y-122864632D01*
X65484413Y-123041694D01*
X65601219Y-123202464D01*
X65741736Y-123342981D01*
X65902506Y-123459787D01*
X65989349Y-123504035D01*
X66079567Y-123550005D01*
X66079570Y-123550006D01*
X66118236Y-123562569D01*
X66268564Y-123611413D01*
X66464839Y-123642500D01*
X66464840Y-123642500D01*
X66663560Y-123642500D01*
X66663561Y-123642500D01*
X66859836Y-123611413D01*
X67048832Y-123550005D01*
X67225894Y-123459787D01*
X67386664Y-123342981D01*
X67527181Y-123202464D01*
X67643987Y-123041694D01*
X67723715Y-122885218D01*
X67771690Y-122834423D01*
X67839511Y-122817628D01*
X67905646Y-122840165D01*
X67944684Y-122885218D01*
X68024413Y-123041694D01*
X68141219Y-123202464D01*
X68281736Y-123342981D01*
X68442506Y-123459787D01*
X68529349Y-123504035D01*
X68619567Y-123550005D01*
X68619570Y-123550006D01*
X68658236Y-123562569D01*
X68808564Y-123611413D01*
X69004839Y-123642500D01*
X69004840Y-123642500D01*
X69203560Y-123642500D01*
X69203561Y-123642500D01*
X69399836Y-123611413D01*
X69588832Y-123550005D01*
X69765894Y-123459787D01*
X69926664Y-123342981D01*
X70067181Y-123202464D01*
X70183987Y-123041694D01*
X70263715Y-122885218D01*
X70311690Y-122834423D01*
X70379511Y-122817628D01*
X70445646Y-122840165D01*
X70484684Y-122885218D01*
X70564413Y-123041694D01*
X70681219Y-123202464D01*
X70821736Y-123342981D01*
X70982506Y-123459787D01*
X71069349Y-123504035D01*
X71159567Y-123550005D01*
X71159570Y-123550006D01*
X71198236Y-123562569D01*
X71348564Y-123611413D01*
X71544839Y-123642500D01*
X71544840Y-123642500D01*
X71743560Y-123642500D01*
X71743561Y-123642500D01*
X71939836Y-123611413D01*
X72128832Y-123550005D01*
X72305894Y-123459787D01*
X72466664Y-123342981D01*
X72607181Y-123202464D01*
X72723987Y-123041694D01*
X72803715Y-122885218D01*
X72851690Y-122834423D01*
X72919511Y-122817628D01*
X72985646Y-122840165D01*
X73024684Y-122885218D01*
X73104413Y-123041694D01*
X73221219Y-123202464D01*
X73361736Y-123342981D01*
X73522506Y-123459787D01*
X73609349Y-123504035D01*
X73699567Y-123550005D01*
X73699570Y-123550006D01*
X73851274Y-123599297D01*
X73888564Y-123611413D01*
X73924455Y-123617097D01*
X73987587Y-123647025D01*
X74024519Y-123706336D01*
X74023523Y-123776199D01*
X73984914Y-123834432D01*
X73946012Y-123856611D01*
X73888094Y-123876878D01*
X73740123Y-123969853D01*
X73616553Y-124093423D01*
X73523577Y-124241395D01*
X73465859Y-124406341D01*
X73465857Y-124406351D01*
X73451200Y-124536441D01*
X73451200Y-126573558D01*
X73465857Y-126703648D01*
X73465859Y-126703657D01*
X73523578Y-126868606D01*
X73616553Y-127016576D01*
X73740124Y-127140147D01*
X73888094Y-127233122D01*
X74053043Y-127290841D01*
X74053049Y-127290841D01*
X74053051Y-127290842D01*
X74094450Y-127295506D01*
X74183142Y-127305499D01*
X74183145Y-127305500D01*
X74183148Y-127305500D01*
X74820255Y-127305500D01*
X74820256Y-127305499D01*
X74950357Y-127290841D01*
X75115306Y-127233122D01*
X75263276Y-127140147D01*
X75366875Y-127036547D01*
X75428194Y-127003065D01*
X75497886Y-127008049D01*
X75542234Y-127036550D01*
X75645437Y-127139753D01*
X75793313Y-127232669D01*
X75958160Y-127290351D01*
X76088169Y-127304999D01*
X76088173Y-127305000D01*
X76725227Y-127305000D01*
X76725230Y-127304999D01*
X76855239Y-127290351D01*
X77020086Y-127232669D01*
X77167962Y-127139753D01*
X77291453Y-127016262D01*
X77291455Y-127016259D01*
X77377486Y-126879338D01*
X76317605Y-125819457D01*
X76284120Y-125758134D01*
X76289104Y-125688442D01*
X76317605Y-125644095D01*
X76406700Y-125555000D01*
X76406699Y-125554999D01*
X76760252Y-125554999D01*
X76760252Y-125555000D01*
X77456699Y-126251448D01*
X77456700Y-126251447D01*
X77456700Y-124858552D01*
X77456699Y-124858551D01*
X76760252Y-125554999D01*
X76406699Y-125554999D01*
X76317604Y-125465904D01*
X76284119Y-125404581D01*
X76289103Y-125334889D01*
X76317604Y-125290542D01*
X76353334Y-125254811D01*
X76354039Y-125255000D01*
X76459361Y-125255000D01*
X76561094Y-125227741D01*
X76652306Y-125175080D01*
X76726780Y-125100606D01*
X76779441Y-125009394D01*
X76806700Y-124907661D01*
X76806700Y-124802339D01*
X76806511Y-124801634D01*
X77377487Y-124230659D01*
X77291456Y-124093740D01*
X77167962Y-123970246D01*
X77020088Y-123877331D01*
X76961347Y-123856777D01*
X76904571Y-123816055D01*
X76878824Y-123751102D01*
X76892280Y-123682541D01*
X76940667Y-123632138D01*
X76982900Y-123617263D01*
X77019836Y-123611413D01*
X77208832Y-123550005D01*
X77385894Y-123459787D01*
X77546664Y-123342981D01*
X77687181Y-123202464D01*
X77803987Y-123041694D01*
X77883715Y-122885218D01*
X77931690Y-122834423D01*
X77999511Y-122817628D01*
X78065646Y-122840165D01*
X78104684Y-122885218D01*
X78184413Y-123041694D01*
X78301219Y-123202464D01*
X78441736Y-123342981D01*
X78602506Y-123459787D01*
X78689349Y-123504035D01*
X78779567Y-123550005D01*
X78779570Y-123550006D01*
X78818236Y-123562569D01*
X78968564Y-123611413D01*
X79164839Y-123642500D01*
X79164840Y-123642500D01*
X79363560Y-123642500D01*
X79363561Y-123642500D01*
X79559836Y-123611413D01*
X79748832Y-123550005D01*
X79925894Y-123459787D01*
X80086664Y-123342981D01*
X80227181Y-123202464D01*
X80343987Y-123041694D01*
X80423715Y-122885218D01*
X80471690Y-122834423D01*
X80539511Y-122817628D01*
X80605646Y-122840165D01*
X80644684Y-122885218D01*
X80724413Y-123041694D01*
X80841219Y-123202464D01*
X80981736Y-123342981D01*
X81142506Y-123459787D01*
X81229349Y-123504035D01*
X81319567Y-123550005D01*
X81319570Y-123550006D01*
X81358236Y-123562569D01*
X81508564Y-123611413D01*
X81704839Y-123642500D01*
X81704840Y-123642500D01*
X81903560Y-123642500D01*
X81903561Y-123642500D01*
X82099836Y-123611413D01*
X82288832Y-123550005D01*
X82465894Y-123459787D01*
X82626664Y-123342981D01*
X82767181Y-123202464D01*
X82883987Y-123041694D01*
X82974205Y-122864632D01*
X83035613Y-122675636D01*
X83066700Y-122479361D01*
X83066700Y-122280639D01*
X83035613Y-122084364D01*
X82974205Y-121895368D01*
X82974205Y-121895367D01*
X82883986Y-121718305D01*
X82767181Y-121557536D01*
X82626664Y-121417019D01*
X82465894Y-121300213D01*
X82288832Y-121209994D01*
X82288829Y-121209993D01*
X82099837Y-121148587D01*
X82001698Y-121133043D01*
X81903561Y-121117500D01*
X81704839Y-121117500D01*
X81639414Y-121127862D01*
X81508562Y-121148587D01*
X81319570Y-121209993D01*
X81319567Y-121209994D01*
X81142505Y-121300213D01*
X80981733Y-121417021D01*
X80841221Y-121557533D01*
X80724413Y-121718305D01*
X80644685Y-121874780D01*
X80596710Y-121925576D01*
X80528889Y-121942371D01*
X80462754Y-121919833D01*
X80423715Y-121874780D01*
X80343986Y-121718305D01*
X80227181Y-121557536D01*
X80086664Y-121417019D01*
X79925894Y-121300213D01*
X79748832Y-121209994D01*
X79748829Y-121209993D01*
X79559837Y-121148587D01*
X79461698Y-121133043D01*
X79363561Y-121117500D01*
X79164839Y-121117500D01*
X79099414Y-121127862D01*
X78968562Y-121148587D01*
X78779570Y-121209993D01*
X78779567Y-121209994D01*
X78602505Y-121300213D01*
X78441733Y-121417021D01*
X78301221Y-121557533D01*
X78184413Y-121718305D01*
X78104685Y-121874780D01*
X78056710Y-121925576D01*
X77988889Y-121942371D01*
X77922754Y-121919833D01*
X77883715Y-121874780D01*
X77803986Y-121718305D01*
X77687181Y-121557536D01*
X77546664Y-121417019D01*
X77385894Y-121300213D01*
X77208832Y-121209994D01*
X77208829Y-121209993D01*
X77019837Y-121148587D01*
X76921698Y-121133043D01*
X76823561Y-121117500D01*
X76624839Y-121117500D01*
X76559414Y-121127862D01*
X76428562Y-121148587D01*
X76239570Y-121209993D01*
X76239567Y-121209994D01*
X76062505Y-121300213D01*
X75901733Y-121417021D01*
X75761221Y-121557533D01*
X75644413Y-121718305D01*
X75564685Y-121874780D01*
X75516710Y-121925576D01*
X75448889Y-121942371D01*
X75382754Y-121919833D01*
X75343715Y-121874780D01*
X75263986Y-121718305D01*
X75147181Y-121557536D01*
X75006664Y-121417019D01*
X74845894Y-121300213D01*
X74668832Y-121209994D01*
X74668829Y-121209993D01*
X74479837Y-121148587D01*
X74381698Y-121133043D01*
X74283561Y-121117500D01*
X74084839Y-121117500D01*
X74019414Y-121127862D01*
X73888562Y-121148587D01*
X73699570Y-121209993D01*
X73699567Y-121209994D01*
X73522505Y-121300213D01*
X73361733Y-121417021D01*
X73221221Y-121557533D01*
X73104413Y-121718305D01*
X73024685Y-121874780D01*
X72976710Y-121925576D01*
X72908889Y-121942371D01*
X72842754Y-121919833D01*
X72803715Y-121874780D01*
X72723986Y-121718305D01*
X72607181Y-121557536D01*
X72466664Y-121417019D01*
X72305894Y-121300213D01*
X72128832Y-121209994D01*
X72128829Y-121209993D01*
X71939837Y-121148587D01*
X71841698Y-121133043D01*
X71743561Y-121117500D01*
X71544839Y-121117500D01*
X71479414Y-121127862D01*
X71348562Y-121148587D01*
X71159570Y-121209993D01*
X71159567Y-121209994D01*
X70982505Y-121300213D01*
X70821733Y-121417021D01*
X70681221Y-121557533D01*
X70564413Y-121718305D01*
X70484685Y-121874780D01*
X70436710Y-121925576D01*
X70368889Y-121942371D01*
X70302754Y-121919833D01*
X70263715Y-121874780D01*
X70183986Y-121718305D01*
X70067181Y-121557536D01*
X69926664Y-121417019D01*
X69765894Y-121300213D01*
X69588832Y-121209994D01*
X69588829Y-121209993D01*
X69399837Y-121148587D01*
X69301698Y-121133043D01*
X69203561Y-121117500D01*
X69004839Y-121117500D01*
X68939414Y-121127862D01*
X68808562Y-121148587D01*
X68619570Y-121209993D01*
X68619567Y-121209994D01*
X68442505Y-121300213D01*
X68281733Y-121417021D01*
X68141221Y-121557533D01*
X68024413Y-121718305D01*
X67944685Y-121874780D01*
X67896710Y-121925576D01*
X67828889Y-121942371D01*
X67762754Y-121919833D01*
X67723715Y-121874780D01*
X67643986Y-121718305D01*
X67527181Y-121557536D01*
X67386664Y-121417019D01*
X67225894Y-121300213D01*
X67048832Y-121209994D01*
X67048829Y-121209993D01*
X66859837Y-121148587D01*
X66761698Y-121133043D01*
X66663561Y-121117500D01*
X66464839Y-121117500D01*
X66399414Y-121127862D01*
X66268562Y-121148587D01*
X66079570Y-121209993D01*
X66079567Y-121209994D01*
X65902505Y-121300213D01*
X65741733Y-121417021D01*
X65601221Y-121557533D01*
X65484413Y-121718305D01*
X65394194Y-121895367D01*
X65394193Y-121895370D01*
X65332787Y-122084362D01*
X65301700Y-122280639D01*
X27412874Y-122280639D01*
X27412867Y-122275963D01*
X27399785Y-114013135D01*
X30520500Y-114013135D01*
X30520500Y-115486870D01*
X30520501Y-115486876D01*
X30526908Y-115546483D01*
X30577202Y-115681328D01*
X30577206Y-115681335D01*
X30663452Y-115796544D01*
X30663455Y-115796547D01*
X30778664Y-115882793D01*
X30778671Y-115882797D01*
X30913517Y-115933091D01*
X30913516Y-115933091D01*
X30920444Y-115933835D01*
X30973127Y-115939500D01*
X32446872Y-115939499D01*
X32506483Y-115933091D01*
X32641331Y-115882796D01*
X32756546Y-115796546D01*
X32842796Y-115681331D01*
X32842798Y-115681326D01*
X32850972Y-115659413D01*
X32850972Y-115659412D01*
X32893090Y-115546485D01*
X32893091Y-115546483D01*
X32899500Y-115486873D01*
X32899499Y-115224178D01*
X32919183Y-115157142D01*
X32971987Y-115111387D01*
X33041146Y-115101443D01*
X33104701Y-115130468D01*
X33141429Y-115185860D01*
X33148107Y-115206414D01*
X33233074Y-115373168D01*
X33249991Y-115396453D01*
X33820109Y-114826336D01*
X33844644Y-114917904D01*
X33901913Y-115017097D01*
X33982903Y-115098087D01*
X34082096Y-115155356D01*
X34173662Y-115179890D01*
X33603544Y-115750007D01*
X33603545Y-115750008D01*
X33626824Y-115766921D01*
X33793584Y-115851891D01*
X33971573Y-115909722D01*
X34156419Y-115939000D01*
X34343581Y-115939000D01*
X34456257Y-115921153D01*
X48449500Y-115921153D01*
X48449500Y-120330846D01*
X48480261Y-120485489D01*
X48480264Y-120485501D01*
X48540602Y-120631172D01*
X48540609Y-120631185D01*
X48628210Y-120762288D01*
X48628213Y-120762292D01*
X48739707Y-120873786D01*
X48739711Y-120873789D01*
X48870814Y-120961390D01*
X48870827Y-120961397D01*
X49016498Y-121021735D01*
X49016503Y-121021737D01*
X49171153Y-121052499D01*
X49171156Y-121052500D01*
X49171158Y-121052500D01*
X49328844Y-121052500D01*
X49328845Y-121052499D01*
X49483497Y-121021737D01*
X49629179Y-120961394D01*
X49760289Y-120873789D01*
X49871789Y-120762289D01*
X49959394Y-120631179D01*
X50019737Y-120485497D01*
X50050500Y-120330842D01*
X50050500Y-116169153D01*
X55449500Y-116169153D01*
X55449500Y-116326846D01*
X55480261Y-116481489D01*
X55480264Y-116481501D01*
X55540602Y-116627172D01*
X55540609Y-116627185D01*
X55628210Y-116758288D01*
X55628212Y-116758291D01*
X55638178Y-116768256D01*
X55671665Y-116829578D01*
X55674500Y-116855940D01*
X55674500Y-119647059D01*
X55654815Y-119714098D01*
X55638181Y-119734740D01*
X55628213Y-119744707D01*
X55628210Y-119744711D01*
X55540609Y-119875814D01*
X55540602Y-119875827D01*
X55480264Y-120021498D01*
X55480261Y-120021510D01*
X55449500Y-120176153D01*
X55449500Y-120333846D01*
X55480261Y-120488489D01*
X55480264Y-120488501D01*
X55540602Y-120634172D01*
X55540609Y-120634185D01*
X55628210Y-120765288D01*
X55628213Y-120765292D01*
X55739707Y-120876786D01*
X55739711Y-120876789D01*
X55870814Y-120964390D01*
X55870827Y-120964397D01*
X56016498Y-121024735D01*
X56016503Y-121024737D01*
X56156071Y-121052499D01*
X56171153Y-121055499D01*
X56171156Y-121055500D01*
X56171158Y-121055500D01*
X56328844Y-121055500D01*
X56328845Y-121055499D01*
X56483497Y-121024737D01*
X56629179Y-120964394D01*
X56760289Y-120876789D01*
X56763292Y-120873786D01*
X56787319Y-120849760D01*
X56848642Y-120816275D01*
X56918334Y-120821259D01*
X56962681Y-120849760D01*
X56989707Y-120876786D01*
X56989711Y-120876789D01*
X57120814Y-120964390D01*
X57120827Y-120964397D01*
X57266498Y-121024735D01*
X57266503Y-121024737D01*
X57406071Y-121052499D01*
X57421153Y-121055499D01*
X57421156Y-121055500D01*
X57421158Y-121055500D01*
X57578844Y-121055500D01*
X57578845Y-121055499D01*
X57733497Y-121024737D01*
X57879179Y-120964394D01*
X58010289Y-120876789D01*
X58121789Y-120765289D01*
X58209394Y-120634179D01*
X58269737Y-120488497D01*
X58300500Y-120333842D01*
X58300500Y-120176158D01*
X58300500Y-120176155D01*
X58300499Y-120176153D01*
X58269738Y-120021510D01*
X58269737Y-120021503D01*
X58269735Y-120021498D01*
X58209397Y-119875827D01*
X58209390Y-119875814D01*
X58121789Y-119744711D01*
X58121786Y-119744707D01*
X58111819Y-119734740D01*
X58078334Y-119673417D01*
X58075500Y-119647059D01*
X58075500Y-116855940D01*
X58095185Y-116788901D01*
X58111822Y-116768256D01*
X58121787Y-116758291D01*
X58121789Y-116758289D01*
X58209394Y-116627179D01*
X58269737Y-116481497D01*
X58300500Y-116326842D01*
X58300500Y-116169158D01*
X58300500Y-116169155D01*
X58300499Y-116169153D01*
X58269738Y-116014510D01*
X58269737Y-116014503D01*
X58238463Y-115939000D01*
X58209397Y-115868827D01*
X58209390Y-115868814D01*
X58121789Y-115737711D01*
X58121786Y-115737707D01*
X58010292Y-115626213D01*
X58010288Y-115626210D01*
X57879185Y-115538609D01*
X57879172Y-115538602D01*
X57733501Y-115478264D01*
X57733489Y-115478261D01*
X57578845Y-115447500D01*
X57578842Y-115447500D01*
X57421158Y-115447500D01*
X57421155Y-115447500D01*
X57266510Y-115478261D01*
X57266498Y-115478264D01*
X57120827Y-115538602D01*
X57120814Y-115538609D01*
X56989711Y-115626210D01*
X56989707Y-115626213D01*
X56962681Y-115653240D01*
X56901358Y-115686725D01*
X56831666Y-115681741D01*
X56787319Y-115653240D01*
X56760292Y-115626213D01*
X56760288Y-115626210D01*
X56629185Y-115538609D01*
X56629172Y-115538602D01*
X56483501Y-115478264D01*
X56483489Y-115478261D01*
X56328845Y-115447500D01*
X56328842Y-115447500D01*
X56171158Y-115447500D01*
X56171155Y-115447500D01*
X56016510Y-115478261D01*
X56016498Y-115478264D01*
X55870827Y-115538602D01*
X55870814Y-115538609D01*
X55739711Y-115626210D01*
X55739707Y-115626213D01*
X55628213Y-115737707D01*
X55628210Y-115737711D01*
X55540609Y-115868814D01*
X55540602Y-115868827D01*
X55480264Y-116014498D01*
X55480261Y-116014510D01*
X55449500Y-116169153D01*
X50050500Y-116169153D01*
X50050500Y-115921158D01*
X50050500Y-115921155D01*
X50050499Y-115921153D01*
X50025713Y-115796546D01*
X50019737Y-115766503D01*
X50007811Y-115737711D01*
X49959397Y-115620827D01*
X49959390Y-115620814D01*
X49871789Y-115489711D01*
X49871786Y-115489707D01*
X49760292Y-115378213D01*
X49760288Y-115378210D01*
X49629185Y-115290609D01*
X49629172Y-115290602D01*
X49483501Y-115230264D01*
X49483489Y-115230261D01*
X49328845Y-115199500D01*
X49328842Y-115199500D01*
X49171158Y-115199500D01*
X49171155Y-115199500D01*
X49016510Y-115230261D01*
X49016498Y-115230264D01*
X48870827Y-115290602D01*
X48870814Y-115290609D01*
X48739711Y-115378210D01*
X48739707Y-115378213D01*
X48628213Y-115489707D01*
X48628210Y-115489711D01*
X48540609Y-115620814D01*
X48540602Y-115620827D01*
X48480264Y-115766498D01*
X48480261Y-115766510D01*
X48449500Y-115921153D01*
X34456257Y-115921153D01*
X34528426Y-115909722D01*
X34706415Y-115851891D01*
X34799267Y-115804581D01*
X34873165Y-115766927D01*
X34873173Y-115766922D01*
X34896453Y-115750008D01*
X34896453Y-115750007D01*
X34326337Y-115179890D01*
X34417904Y-115155356D01*
X34517097Y-115098087D01*
X34598087Y-115017097D01*
X34655356Y-114917904D01*
X34679890Y-114826336D01*
X35250007Y-115396453D01*
X35250008Y-115396453D01*
X35266922Y-115373173D01*
X35266927Y-115373165D01*
X35351891Y-115206415D01*
X35409722Y-115028426D01*
X35439000Y-114843581D01*
X35439000Y-114656418D01*
X35409722Y-114471573D01*
X35351891Y-114293584D01*
X35266921Y-114126824D01*
X35250008Y-114103545D01*
X35250007Y-114103544D01*
X34679890Y-114673662D01*
X34655356Y-114582096D01*
X34598087Y-114482903D01*
X34517097Y-114401913D01*
X34417904Y-114344644D01*
X34326337Y-114320109D01*
X34896453Y-113749991D01*
X34873168Y-113733074D01*
X34706415Y-113648108D01*
X34528426Y-113590277D01*
X34343581Y-113561000D01*
X34156419Y-113561000D01*
X33971573Y-113590277D01*
X33793582Y-113648109D01*
X33626825Y-113733077D01*
X33626824Y-113733078D01*
X33603545Y-113749990D01*
X33603544Y-113749991D01*
X34173663Y-114320109D01*
X34082096Y-114344644D01*
X33982903Y-114401913D01*
X33901913Y-114482903D01*
X33844644Y-114582096D01*
X33820109Y-114673662D01*
X33249991Y-114103544D01*
X33249990Y-114103545D01*
X33233078Y-114126824D01*
X33233077Y-114126825D01*
X33148109Y-114293580D01*
X33141430Y-114314139D01*
X33101992Y-114371814D01*
X33037633Y-114399012D01*
X32968786Y-114387097D01*
X32917311Y-114339852D01*
X32899499Y-114275820D01*
X32899499Y-114013129D01*
X32899498Y-114013123D01*
X32899497Y-114013116D01*
X32893091Y-113953517D01*
X32893091Y-113953516D01*
X32850970Y-113840583D01*
X32842796Y-113818669D01*
X32842793Y-113818664D01*
X32756547Y-113703455D01*
X32756544Y-113703452D01*
X32641335Y-113617206D01*
X32641328Y-113617202D01*
X32506482Y-113566908D01*
X32506483Y-113566908D01*
X32446883Y-113560501D01*
X32446881Y-113560500D01*
X32446873Y-113560500D01*
X32446864Y-113560500D01*
X30973129Y-113560500D01*
X30973123Y-113560501D01*
X30913516Y-113566908D01*
X30778671Y-113617202D01*
X30778664Y-113617206D01*
X30663455Y-113703452D01*
X30663452Y-113703455D01*
X30577206Y-113818664D01*
X30577202Y-113818671D01*
X30526908Y-113953517D01*
X30520836Y-114010002D01*
X30520501Y-114013123D01*
X30520500Y-114013135D01*
X27399785Y-114013135D01*
X27399780Y-114010002D01*
X27394889Y-110921153D01*
X50449500Y-110921153D01*
X50449500Y-111078846D01*
X50480261Y-111233489D01*
X50480264Y-111233501D01*
X50540602Y-111379172D01*
X50540609Y-111379185D01*
X50628210Y-111510288D01*
X50628213Y-111510292D01*
X50739707Y-111621786D01*
X50739711Y-111621789D01*
X50870814Y-111709390D01*
X50870827Y-111709397D01*
X51016498Y-111769735D01*
X51016503Y-111769737D01*
X51171153Y-111800499D01*
X51171156Y-111800500D01*
X51171158Y-111800500D01*
X51328844Y-111800500D01*
X51328845Y-111800499D01*
X51483497Y-111769737D01*
X51629179Y-111709394D01*
X51760289Y-111621789D01*
X51760292Y-111621786D01*
X51787319Y-111594760D01*
X51848642Y-111561275D01*
X51918334Y-111566259D01*
X51962681Y-111594760D01*
X51989707Y-111621786D01*
X51989711Y-111621789D01*
X52120814Y-111709390D01*
X52120827Y-111709397D01*
X52266498Y-111769735D01*
X52266503Y-111769737D01*
X52421153Y-111800499D01*
X52421156Y-111800500D01*
X52421158Y-111800500D01*
X52578844Y-111800500D01*
X52578845Y-111800499D01*
X52733497Y-111769737D01*
X52879179Y-111709394D01*
X53010289Y-111621789D01*
X53121789Y-111510289D01*
X53209394Y-111379179D01*
X53269737Y-111233497D01*
X53300500Y-111078842D01*
X53300500Y-111064742D01*
X53320185Y-110997703D01*
X53336819Y-110977061D01*
X53727061Y-110586819D01*
X53788384Y-110553334D01*
X53814742Y-110550500D01*
X53828844Y-110550500D01*
X53828845Y-110550499D01*
X53983497Y-110519737D01*
X54129179Y-110459394D01*
X54260289Y-110371789D01*
X54371789Y-110260289D01*
X54459394Y-110129179D01*
X54519737Y-109983497D01*
X54550500Y-109828842D01*
X54550500Y-109671158D01*
X54550500Y-109671155D01*
X54550499Y-109671153D01*
X54519738Y-109516510D01*
X54519737Y-109516503D01*
X54503611Y-109477571D01*
X54459397Y-109370827D01*
X54459390Y-109370814D01*
X54371789Y-109239711D01*
X54371786Y-109239707D01*
X54260292Y-109128213D01*
X54260288Y-109128210D01*
X54129185Y-109040609D01*
X54129172Y-109040602D01*
X53983501Y-108980264D01*
X53983489Y-108980261D01*
X53828845Y-108949500D01*
X53828842Y-108949500D01*
X53671158Y-108949500D01*
X53671155Y-108949500D01*
X53516510Y-108980261D01*
X53516498Y-108980264D01*
X53370827Y-109040602D01*
X53370814Y-109040609D01*
X53239711Y-109128210D01*
X53239707Y-109128213D01*
X53128213Y-109239707D01*
X53128210Y-109239711D01*
X53040609Y-109370814D01*
X53040601Y-109370829D01*
X53028061Y-109401104D01*
X52984220Y-109455507D01*
X52917925Y-109477571D01*
X52850226Y-109460291D01*
X52802616Y-109409153D01*
X52791884Y-109377841D01*
X52769738Y-109266510D01*
X52769737Y-109266503D01*
X52769735Y-109266498D01*
X52709397Y-109120827D01*
X52709390Y-109120814D01*
X52621789Y-108989711D01*
X52621786Y-108989707D01*
X52510292Y-108878213D01*
X52510288Y-108878210D01*
X52379185Y-108790609D01*
X52379172Y-108790602D01*
X52233501Y-108730264D01*
X52233489Y-108730261D01*
X52078845Y-108699500D01*
X52078842Y-108699500D01*
X51921158Y-108699500D01*
X51921155Y-108699500D01*
X51766510Y-108730261D01*
X51766498Y-108730264D01*
X51620827Y-108790602D01*
X51620814Y-108790609D01*
X51489711Y-108878210D01*
X51489707Y-108878213D01*
X51378213Y-108989707D01*
X51378210Y-108989711D01*
X51290609Y-109120814D01*
X51290602Y-109120827D01*
X51230264Y-109266498D01*
X51230261Y-109266510D01*
X51199500Y-109421153D01*
X51199500Y-109435257D01*
X51179815Y-109502296D01*
X51163181Y-109522938D01*
X50879193Y-109806925D01*
X50879194Y-109806926D01*
X50789485Y-109896635D01*
X50713719Y-110027863D01*
X50674500Y-110174234D01*
X50674500Y-110392059D01*
X50654815Y-110459098D01*
X50638181Y-110479740D01*
X50628213Y-110489707D01*
X50628210Y-110489711D01*
X50540609Y-110620814D01*
X50540602Y-110620827D01*
X50480264Y-110766498D01*
X50480261Y-110766510D01*
X50449500Y-110921153D01*
X27394889Y-110921153D01*
X27394880Y-110915262D01*
X27388952Y-107171153D01*
X31199500Y-107171153D01*
X31199500Y-107328846D01*
X31230261Y-107483489D01*
X31230264Y-107483501D01*
X31290602Y-107629172D01*
X31290609Y-107629185D01*
X31378210Y-107760288D01*
X31378213Y-107760292D01*
X31489707Y-107871786D01*
X31489711Y-107871789D01*
X31620814Y-107959390D01*
X31620827Y-107959397D01*
X31766498Y-108019735D01*
X31766503Y-108019737D01*
X31921153Y-108050499D01*
X31921156Y-108050500D01*
X31921158Y-108050500D01*
X32078844Y-108050500D01*
X32078845Y-108050499D01*
X32233497Y-108019737D01*
X32379179Y-107959394D01*
X32510289Y-107871789D01*
X32510292Y-107871786D01*
X32520260Y-107861819D01*
X32581583Y-107828334D01*
X32607941Y-107825500D01*
X34392059Y-107825500D01*
X34459098Y-107845185D01*
X34479740Y-107861819D01*
X34489707Y-107871786D01*
X34489711Y-107871789D01*
X34620814Y-107959390D01*
X34620827Y-107959397D01*
X34766498Y-108019735D01*
X34766503Y-108019737D01*
X34921153Y-108050499D01*
X34921156Y-108050500D01*
X34921158Y-108050500D01*
X35078844Y-108050500D01*
X35078845Y-108050499D01*
X35233497Y-108019737D01*
X35379179Y-107959394D01*
X35510289Y-107871789D01*
X35510292Y-107871786D01*
X35520260Y-107861819D01*
X35581583Y-107828334D01*
X35607941Y-107825500D01*
X37457281Y-107825500D01*
X37524320Y-107845185D01*
X37544962Y-107861819D01*
X37554929Y-107871786D01*
X37554933Y-107871789D01*
X37686036Y-107959390D01*
X37686049Y-107959397D01*
X37831720Y-108019735D01*
X37831725Y-108019737D01*
X37986375Y-108050499D01*
X37986378Y-108050500D01*
X37986380Y-108050500D01*
X38144066Y-108050500D01*
X38144067Y-108050499D01*
X38298719Y-108019737D01*
X38444401Y-107959394D01*
X38575511Y-107871789D01*
X38575514Y-107871786D01*
X38585482Y-107861819D01*
X38646805Y-107828334D01*
X38673163Y-107825500D01*
X40863593Y-107825500D01*
X40930632Y-107845185D01*
X40951274Y-107861819D01*
X40961241Y-107871786D01*
X40961245Y-107871789D01*
X41092348Y-107959390D01*
X41092361Y-107959397D01*
X41238032Y-108019735D01*
X41238037Y-108019737D01*
X41392687Y-108050499D01*
X41392690Y-108050500D01*
X41392692Y-108050500D01*
X41550378Y-108050500D01*
X41550379Y-108050499D01*
X41705031Y-108019737D01*
X41850713Y-107959394D01*
X41981823Y-107871789D01*
X41981826Y-107871786D01*
X41991794Y-107861819D01*
X42053117Y-107828334D01*
X42079475Y-107825500D01*
X44142059Y-107825500D01*
X44209098Y-107845185D01*
X44229740Y-107861819D01*
X44239707Y-107871786D01*
X44239711Y-107871789D01*
X44370814Y-107959390D01*
X44370827Y-107959397D01*
X44516498Y-108019735D01*
X44516503Y-108019737D01*
X44671153Y-108050499D01*
X44671156Y-108050500D01*
X44671158Y-108050500D01*
X44828844Y-108050500D01*
X44828845Y-108050499D01*
X44983497Y-108019737D01*
X45129179Y-107959394D01*
X45260289Y-107871789D01*
X45260292Y-107871786D01*
X45270260Y-107861819D01*
X45331583Y-107828334D01*
X45357941Y-107825500D01*
X47392059Y-107825500D01*
X47459098Y-107845185D01*
X47479740Y-107861819D01*
X47489707Y-107871786D01*
X47489711Y-107871789D01*
X47620814Y-107959390D01*
X47620827Y-107959397D01*
X47766498Y-108019735D01*
X47766503Y-108019737D01*
X47921153Y-108050499D01*
X47921156Y-108050500D01*
X47921158Y-108050500D01*
X48078844Y-108050500D01*
X48078845Y-108050499D01*
X48233497Y-108019737D01*
X48379179Y-107959394D01*
X48510289Y-107871789D01*
X48510292Y-107871786D01*
X48520260Y-107861819D01*
X48581583Y-107828334D01*
X48607941Y-107825500D01*
X50642059Y-107825500D01*
X50709098Y-107845185D01*
X50729740Y-107861819D01*
X50739707Y-107871786D01*
X50739711Y-107871789D01*
X50870814Y-107959390D01*
X50870827Y-107959397D01*
X51016498Y-108019735D01*
X51016503Y-108019737D01*
X51171153Y-108050499D01*
X51171156Y-108050500D01*
X51171158Y-108050500D01*
X51328844Y-108050500D01*
X51328845Y-108050499D01*
X51483497Y-108019737D01*
X51629179Y-107959394D01*
X51760289Y-107871789D01*
X51760292Y-107871786D01*
X51770260Y-107861819D01*
X51831583Y-107828334D01*
X51857941Y-107825500D01*
X53892059Y-107825500D01*
X53959098Y-107845185D01*
X53979740Y-107861819D01*
X53989707Y-107871786D01*
X53989711Y-107871789D01*
X54120814Y-107959390D01*
X54120827Y-107959397D01*
X54266498Y-108019735D01*
X54266503Y-108019737D01*
X54421153Y-108050499D01*
X54421156Y-108050500D01*
X54421158Y-108050500D01*
X54578844Y-108050500D01*
X54578845Y-108050499D01*
X54733497Y-108019737D01*
X54879179Y-107959394D01*
X55010289Y-107871789D01*
X55121789Y-107760289D01*
X55209394Y-107629179D01*
X55269737Y-107483497D01*
X55300500Y-107328842D01*
X55300500Y-107171158D01*
X55300500Y-107171155D01*
X55300499Y-107171153D01*
X61449500Y-107171153D01*
X61449500Y-107328846D01*
X61480261Y-107483489D01*
X61480264Y-107483501D01*
X61540602Y-107629172D01*
X61540609Y-107629185D01*
X61628210Y-107760288D01*
X61628213Y-107760292D01*
X61739707Y-107871786D01*
X61739711Y-107871789D01*
X61870814Y-107959390D01*
X61870827Y-107959397D01*
X62016498Y-108019735D01*
X62016503Y-108019737D01*
X62171153Y-108050499D01*
X62171156Y-108050500D01*
X62171158Y-108050500D01*
X62328844Y-108050500D01*
X62328845Y-108050499D01*
X62483497Y-108019737D01*
X62629179Y-107959394D01*
X62760289Y-107871789D01*
X62760292Y-107871786D01*
X62770260Y-107861819D01*
X62831583Y-107828334D01*
X62857941Y-107825500D01*
X63392059Y-107825500D01*
X63459098Y-107845185D01*
X63479740Y-107861819D01*
X63489707Y-107871786D01*
X63489711Y-107871789D01*
X63620814Y-107959390D01*
X63620827Y-107959397D01*
X63766498Y-108019735D01*
X63766503Y-108019737D01*
X63921153Y-108050499D01*
X63921156Y-108050500D01*
X63921158Y-108050500D01*
X64078844Y-108050500D01*
X64078845Y-108050499D01*
X64233497Y-108019737D01*
X64379179Y-107959394D01*
X64510289Y-107871789D01*
X64510292Y-107871786D01*
X64520260Y-107861819D01*
X64581583Y-107828334D01*
X64607941Y-107825500D01*
X66686259Y-107825500D01*
X66753298Y-107845185D01*
X66773940Y-107861819D01*
X66783907Y-107871786D01*
X66783911Y-107871789D01*
X66915014Y-107959390D01*
X66915027Y-107959397D01*
X67060698Y-108019735D01*
X67060703Y-108019737D01*
X67215353Y-108050499D01*
X67215356Y-108050500D01*
X67215358Y-108050500D01*
X67373044Y-108050500D01*
X67373045Y-108050499D01*
X67527697Y-108019737D01*
X67673379Y-107959394D01*
X67804489Y-107871789D01*
X67804492Y-107871786D01*
X67814460Y-107861819D01*
X67875783Y-107828334D01*
X67902141Y-107825500D01*
X69906259Y-107825500D01*
X69973298Y-107845185D01*
X69993940Y-107861819D01*
X70003907Y-107871786D01*
X70003911Y-107871789D01*
X70135014Y-107959390D01*
X70135027Y-107959397D01*
X70280698Y-108019735D01*
X70280703Y-108019737D01*
X70435353Y-108050499D01*
X70435356Y-108050500D01*
X70435358Y-108050500D01*
X70593044Y-108050500D01*
X70593045Y-108050499D01*
X70747697Y-108019737D01*
X70893379Y-107959394D01*
X71024489Y-107871789D01*
X71024492Y-107871786D01*
X71034460Y-107861819D01*
X71095783Y-107828334D01*
X71122141Y-107825500D01*
X73126259Y-107825500D01*
X73193298Y-107845185D01*
X73213940Y-107861819D01*
X73223907Y-107871786D01*
X73223911Y-107871789D01*
X73355014Y-107959390D01*
X73355027Y-107959397D01*
X73500698Y-108019735D01*
X73500703Y-108019737D01*
X73655353Y-108050499D01*
X73655356Y-108050500D01*
X73655358Y-108050500D01*
X73813044Y-108050500D01*
X73813045Y-108050499D01*
X73967697Y-108019737D01*
X74113379Y-107959394D01*
X74244489Y-107871789D01*
X74244492Y-107871786D01*
X74254460Y-107861819D01*
X74315783Y-107828334D01*
X74342141Y-107825500D01*
X76346259Y-107825500D01*
X76413298Y-107845185D01*
X76433940Y-107861819D01*
X76443907Y-107871786D01*
X76443911Y-107871789D01*
X76575014Y-107959390D01*
X76575027Y-107959397D01*
X76720698Y-108019735D01*
X76720703Y-108019737D01*
X76875353Y-108050499D01*
X76875356Y-108050500D01*
X76875358Y-108050500D01*
X77033044Y-108050500D01*
X77033045Y-108050499D01*
X77187697Y-108019737D01*
X77333379Y-107959394D01*
X77464489Y-107871789D01*
X77464492Y-107871786D01*
X77474460Y-107861819D01*
X77535783Y-107828334D01*
X77562141Y-107825500D01*
X79566259Y-107825500D01*
X79633298Y-107845185D01*
X79653940Y-107861819D01*
X79663907Y-107871786D01*
X79663911Y-107871789D01*
X79795014Y-107959390D01*
X79795027Y-107959397D01*
X79940698Y-108019735D01*
X79940703Y-108019737D01*
X80095353Y-108050499D01*
X80095356Y-108050500D01*
X80095358Y-108050500D01*
X80253044Y-108050500D01*
X80253045Y-108050499D01*
X80407697Y-108019737D01*
X80553379Y-107959394D01*
X80684489Y-107871789D01*
X80684492Y-107871786D01*
X80694460Y-107861819D01*
X80755783Y-107828334D01*
X80782141Y-107825500D01*
X82142059Y-107825500D01*
X82209098Y-107845185D01*
X82229740Y-107861819D01*
X82239707Y-107871786D01*
X82239711Y-107871789D01*
X82370814Y-107959390D01*
X82370827Y-107959397D01*
X82516498Y-108019735D01*
X82516503Y-108019737D01*
X82671153Y-108050499D01*
X82671156Y-108050500D01*
X82671158Y-108050500D01*
X82828844Y-108050500D01*
X82828845Y-108050499D01*
X82983497Y-108019737D01*
X83129179Y-107959394D01*
X83260289Y-107871789D01*
X83371789Y-107760289D01*
X83459394Y-107629179D01*
X83519737Y-107483497D01*
X83550500Y-107328842D01*
X83550500Y-107171158D01*
X83550500Y-107171155D01*
X83550499Y-107171153D01*
X83519738Y-107016510D01*
X83519737Y-107016503D01*
X83519735Y-107016498D01*
X83459397Y-106870827D01*
X83459390Y-106870814D01*
X83371789Y-106739711D01*
X83371786Y-106739707D01*
X83260292Y-106628213D01*
X83260288Y-106628210D01*
X83129185Y-106540609D01*
X83129172Y-106540602D01*
X82983501Y-106480264D01*
X82983489Y-106480261D01*
X82828845Y-106449500D01*
X82828842Y-106449500D01*
X82671158Y-106449500D01*
X82671155Y-106449500D01*
X82516510Y-106480261D01*
X82516498Y-106480264D01*
X82370827Y-106540602D01*
X82370814Y-106540609D01*
X82239711Y-106628210D01*
X82239707Y-106628213D01*
X82229740Y-106638181D01*
X82168417Y-106671666D01*
X82142059Y-106674500D01*
X80782141Y-106674500D01*
X80715102Y-106654815D01*
X80694460Y-106638181D01*
X80684492Y-106628213D01*
X80684488Y-106628210D01*
X80553385Y-106540609D01*
X80553372Y-106540602D01*
X80407701Y-106480264D01*
X80407689Y-106480261D01*
X80253045Y-106449500D01*
X80253042Y-106449500D01*
X80095358Y-106449500D01*
X80095355Y-106449500D01*
X79940710Y-106480261D01*
X79940698Y-106480264D01*
X79795027Y-106540602D01*
X79795014Y-106540609D01*
X79663911Y-106628210D01*
X79663907Y-106628213D01*
X79653940Y-106638181D01*
X79592617Y-106671666D01*
X79566259Y-106674500D01*
X77562141Y-106674500D01*
X77495102Y-106654815D01*
X77474460Y-106638181D01*
X77464492Y-106628213D01*
X77464488Y-106628210D01*
X77333385Y-106540609D01*
X77333372Y-106540602D01*
X77187701Y-106480264D01*
X77187689Y-106480261D01*
X77033045Y-106449500D01*
X77033042Y-106449500D01*
X76875358Y-106449500D01*
X76875355Y-106449500D01*
X76720710Y-106480261D01*
X76720698Y-106480264D01*
X76575027Y-106540602D01*
X76575014Y-106540609D01*
X76443911Y-106628210D01*
X76443907Y-106628213D01*
X76433940Y-106638181D01*
X76372617Y-106671666D01*
X76346259Y-106674500D01*
X74342141Y-106674500D01*
X74275102Y-106654815D01*
X74254460Y-106638181D01*
X74244492Y-106628213D01*
X74244488Y-106628210D01*
X74113385Y-106540609D01*
X74113372Y-106540602D01*
X73967701Y-106480264D01*
X73967689Y-106480261D01*
X73813045Y-106449500D01*
X73813042Y-106449500D01*
X73655358Y-106449500D01*
X73655355Y-106449500D01*
X73500710Y-106480261D01*
X73500698Y-106480264D01*
X73355027Y-106540602D01*
X73355014Y-106540609D01*
X73223911Y-106628210D01*
X73223907Y-106628213D01*
X73213940Y-106638181D01*
X73152617Y-106671666D01*
X73126259Y-106674500D01*
X71122141Y-106674500D01*
X71055102Y-106654815D01*
X71034460Y-106638181D01*
X71024492Y-106628213D01*
X71024488Y-106628210D01*
X70893385Y-106540609D01*
X70893372Y-106540602D01*
X70747701Y-106480264D01*
X70747689Y-106480261D01*
X70593045Y-106449500D01*
X70593042Y-106449500D01*
X70435358Y-106449500D01*
X70435355Y-106449500D01*
X70280710Y-106480261D01*
X70280698Y-106480264D01*
X70135027Y-106540602D01*
X70135014Y-106540609D01*
X70003911Y-106628210D01*
X70003907Y-106628213D01*
X69993940Y-106638181D01*
X69932617Y-106671666D01*
X69906259Y-106674500D01*
X67902141Y-106674500D01*
X67835102Y-106654815D01*
X67814460Y-106638181D01*
X67804492Y-106628213D01*
X67804488Y-106628210D01*
X67673385Y-106540609D01*
X67673372Y-106540602D01*
X67527701Y-106480264D01*
X67527689Y-106480261D01*
X67373045Y-106449500D01*
X67373042Y-106449500D01*
X67215358Y-106449500D01*
X67215355Y-106449500D01*
X67060710Y-106480261D01*
X67060698Y-106480264D01*
X66915027Y-106540602D01*
X66915014Y-106540609D01*
X66783911Y-106628210D01*
X66783907Y-106628213D01*
X66773940Y-106638181D01*
X66712617Y-106671666D01*
X66686259Y-106674500D01*
X64607941Y-106674500D01*
X64540902Y-106654815D01*
X64520260Y-106638181D01*
X64510292Y-106628213D01*
X64510288Y-106628210D01*
X64379185Y-106540609D01*
X64379172Y-106540602D01*
X64233501Y-106480264D01*
X64233489Y-106480261D01*
X64078845Y-106449500D01*
X64078842Y-106449500D01*
X63921158Y-106449500D01*
X63921155Y-106449500D01*
X63766510Y-106480261D01*
X63766498Y-106480264D01*
X63620827Y-106540602D01*
X63620814Y-106540609D01*
X63489711Y-106628210D01*
X63489707Y-106628213D01*
X63479740Y-106638181D01*
X63418417Y-106671666D01*
X63392059Y-106674500D01*
X62857941Y-106674500D01*
X62790902Y-106654815D01*
X62770260Y-106638181D01*
X62760292Y-106628213D01*
X62760288Y-106628210D01*
X62629185Y-106540609D01*
X62629172Y-106540602D01*
X62483501Y-106480264D01*
X62483489Y-106480261D01*
X62328845Y-106449500D01*
X62328842Y-106449500D01*
X62171158Y-106449500D01*
X62171155Y-106449500D01*
X62016510Y-106480261D01*
X62016498Y-106480264D01*
X61870827Y-106540602D01*
X61870814Y-106540609D01*
X61739711Y-106628210D01*
X61739707Y-106628213D01*
X61628213Y-106739707D01*
X61628210Y-106739711D01*
X61540609Y-106870814D01*
X61540602Y-106870827D01*
X61480264Y-107016498D01*
X61480261Y-107016510D01*
X61449500Y-107171153D01*
X55300499Y-107171153D01*
X55269738Y-107016510D01*
X55269737Y-107016503D01*
X55269735Y-107016498D01*
X55209397Y-106870827D01*
X55209390Y-106870814D01*
X55121789Y-106739711D01*
X55121786Y-106739707D01*
X55010292Y-106628213D01*
X55010288Y-106628210D01*
X54879185Y-106540609D01*
X54879172Y-106540602D01*
X54733501Y-106480264D01*
X54733489Y-106480261D01*
X54578845Y-106449500D01*
X54578842Y-106449500D01*
X54421158Y-106449500D01*
X54421155Y-106449500D01*
X54266510Y-106480261D01*
X54266498Y-106480264D01*
X54120827Y-106540602D01*
X54120814Y-106540609D01*
X53989711Y-106628210D01*
X53989707Y-106628213D01*
X53979740Y-106638181D01*
X53918417Y-106671666D01*
X53892059Y-106674500D01*
X51857941Y-106674500D01*
X51790902Y-106654815D01*
X51770260Y-106638181D01*
X51760292Y-106628213D01*
X51760288Y-106628210D01*
X51629185Y-106540609D01*
X51629172Y-106540602D01*
X51483501Y-106480264D01*
X51483489Y-106480261D01*
X51328845Y-106449500D01*
X51328842Y-106449500D01*
X51171158Y-106449500D01*
X51171155Y-106449500D01*
X51016510Y-106480261D01*
X51016498Y-106480264D01*
X50870827Y-106540602D01*
X50870814Y-106540609D01*
X50739711Y-106628210D01*
X50739707Y-106628213D01*
X50729740Y-106638181D01*
X50668417Y-106671666D01*
X50642059Y-106674500D01*
X48607941Y-106674500D01*
X48540902Y-106654815D01*
X48520260Y-106638181D01*
X48510292Y-106628213D01*
X48510288Y-106628210D01*
X48379185Y-106540609D01*
X48379172Y-106540602D01*
X48233501Y-106480264D01*
X48233489Y-106480261D01*
X48078845Y-106449500D01*
X48078842Y-106449500D01*
X47921158Y-106449500D01*
X47921155Y-106449500D01*
X47766510Y-106480261D01*
X47766498Y-106480264D01*
X47620827Y-106540602D01*
X47620814Y-106540609D01*
X47489711Y-106628210D01*
X47489707Y-106628213D01*
X47479740Y-106638181D01*
X47418417Y-106671666D01*
X47392059Y-106674500D01*
X45357941Y-106674500D01*
X45290902Y-106654815D01*
X45270260Y-106638181D01*
X45260292Y-106628213D01*
X45260288Y-106628210D01*
X45129185Y-106540609D01*
X45129172Y-106540602D01*
X44983501Y-106480264D01*
X44983489Y-106480261D01*
X44828845Y-106449500D01*
X44828842Y-106449500D01*
X44671158Y-106449500D01*
X44671155Y-106449500D01*
X44516510Y-106480261D01*
X44516498Y-106480264D01*
X44370827Y-106540602D01*
X44370814Y-106540609D01*
X44239711Y-106628210D01*
X44239707Y-106628213D01*
X44229740Y-106638181D01*
X44168417Y-106671666D01*
X44142059Y-106674500D01*
X42079475Y-106674500D01*
X42012436Y-106654815D01*
X41991794Y-106638181D01*
X41981826Y-106628213D01*
X41981822Y-106628210D01*
X41850719Y-106540609D01*
X41850706Y-106540602D01*
X41705035Y-106480264D01*
X41705023Y-106480261D01*
X41550379Y-106449500D01*
X41550376Y-106449500D01*
X41392692Y-106449500D01*
X41392689Y-106449500D01*
X41238044Y-106480261D01*
X41238032Y-106480264D01*
X41092361Y-106540602D01*
X41092348Y-106540609D01*
X40961245Y-106628210D01*
X40961241Y-106628213D01*
X40951274Y-106638181D01*
X40889951Y-106671666D01*
X40863593Y-106674500D01*
X38673163Y-106674500D01*
X38606124Y-106654815D01*
X38585482Y-106638181D01*
X38575514Y-106628213D01*
X38575510Y-106628210D01*
X38444407Y-106540609D01*
X38444394Y-106540602D01*
X38298723Y-106480264D01*
X38298711Y-106480261D01*
X38144067Y-106449500D01*
X38144064Y-106449500D01*
X37986380Y-106449500D01*
X37986377Y-106449500D01*
X37831732Y-106480261D01*
X37831720Y-106480264D01*
X37686049Y-106540602D01*
X37686036Y-106540609D01*
X37554933Y-106628210D01*
X37554929Y-106628213D01*
X37544962Y-106638181D01*
X37483639Y-106671666D01*
X37457281Y-106674500D01*
X35607941Y-106674500D01*
X35540902Y-106654815D01*
X35520260Y-106638181D01*
X35510292Y-106628213D01*
X35510288Y-106628210D01*
X35379185Y-106540609D01*
X35379172Y-106540602D01*
X35233501Y-106480264D01*
X35233489Y-106480261D01*
X35078845Y-106449500D01*
X35078842Y-106449500D01*
X34921158Y-106449500D01*
X34921155Y-106449500D01*
X34766510Y-106480261D01*
X34766498Y-106480264D01*
X34620827Y-106540602D01*
X34620814Y-106540609D01*
X34489711Y-106628210D01*
X34489707Y-106628213D01*
X34479740Y-106638181D01*
X34418417Y-106671666D01*
X34392059Y-106674500D01*
X32607941Y-106674500D01*
X32540902Y-106654815D01*
X32520260Y-106638181D01*
X32510292Y-106628213D01*
X32510288Y-106628210D01*
X32379185Y-106540609D01*
X32379172Y-106540602D01*
X32233501Y-106480264D01*
X32233489Y-106480261D01*
X32078845Y-106449500D01*
X32078842Y-106449500D01*
X31921158Y-106449500D01*
X31921155Y-106449500D01*
X31766510Y-106480261D01*
X31766498Y-106480264D01*
X31620827Y-106540602D01*
X31620814Y-106540609D01*
X31489711Y-106628210D01*
X31489707Y-106628213D01*
X31378213Y-106739707D01*
X31378210Y-106739711D01*
X31290609Y-106870814D01*
X31290602Y-106870827D01*
X31230264Y-107016498D01*
X31230261Y-107016510D01*
X31199500Y-107171153D01*
X27388952Y-107171153D01*
X27388943Y-107165262D01*
X27384759Y-104522613D01*
X29199500Y-104522613D01*
X29199500Y-104680306D01*
X29230261Y-104834949D01*
X29230264Y-104834961D01*
X29290602Y-104980632D01*
X29290609Y-104980645D01*
X29378210Y-105111748D01*
X29378213Y-105111752D01*
X29489707Y-105223246D01*
X29489711Y-105223249D01*
X29620814Y-105310850D01*
X29620827Y-105310857D01*
X29766498Y-105371195D01*
X29766503Y-105371197D01*
X29921153Y-105401959D01*
X29921156Y-105401960D01*
X29921158Y-105401960D01*
X30078844Y-105401960D01*
X30078845Y-105401959D01*
X30233497Y-105371197D01*
X30379179Y-105310854D01*
X30510289Y-105223249D01*
X30510292Y-105223246D01*
X30520260Y-105213279D01*
X30581583Y-105179794D01*
X30607941Y-105176960D01*
X33091493Y-105176960D01*
X33158532Y-105196645D01*
X33179174Y-105213279D01*
X33189141Y-105223246D01*
X33189145Y-105223249D01*
X33320248Y-105310850D01*
X33320261Y-105310857D01*
X33465932Y-105371195D01*
X33465937Y-105371197D01*
X33620587Y-105401959D01*
X33620590Y-105401960D01*
X33620592Y-105401960D01*
X33778278Y-105401960D01*
X33778279Y-105401959D01*
X33932931Y-105371197D01*
X34078613Y-105310854D01*
X34209723Y-105223249D01*
X34209726Y-105223246D01*
X34219694Y-105213279D01*
X34281017Y-105179794D01*
X34307375Y-105176960D01*
X37041493Y-105176960D01*
X37108532Y-105196645D01*
X37129174Y-105213279D01*
X37139141Y-105223246D01*
X37139145Y-105223249D01*
X37270248Y-105310850D01*
X37270261Y-105310857D01*
X37415932Y-105371195D01*
X37415937Y-105371197D01*
X37570587Y-105401959D01*
X37570590Y-105401960D01*
X37570592Y-105401960D01*
X37728278Y-105401960D01*
X37728279Y-105401959D01*
X37882931Y-105371197D01*
X38028613Y-105310854D01*
X38159723Y-105223249D01*
X38159726Y-105223246D01*
X38169694Y-105213279D01*
X38231017Y-105179794D01*
X38257375Y-105176960D01*
X40291493Y-105176960D01*
X40358532Y-105196645D01*
X40379174Y-105213279D01*
X40389141Y-105223246D01*
X40389145Y-105223249D01*
X40520248Y-105310850D01*
X40520261Y-105310857D01*
X40665932Y-105371195D01*
X40665937Y-105371197D01*
X40820587Y-105401959D01*
X40820590Y-105401960D01*
X40820592Y-105401960D01*
X40978278Y-105401960D01*
X40978279Y-105401959D01*
X41132931Y-105371197D01*
X41278613Y-105310854D01*
X41409723Y-105223249D01*
X41409726Y-105223246D01*
X41419694Y-105213279D01*
X41481017Y-105179794D01*
X41507375Y-105176960D01*
X43541493Y-105176960D01*
X43608532Y-105196645D01*
X43629174Y-105213279D01*
X43639141Y-105223246D01*
X43639145Y-105223249D01*
X43770248Y-105310850D01*
X43770261Y-105310857D01*
X43915932Y-105371195D01*
X43915937Y-105371197D01*
X44070587Y-105401959D01*
X44070590Y-105401960D01*
X44070592Y-105401960D01*
X44228278Y-105401960D01*
X44228279Y-105401959D01*
X44382931Y-105371197D01*
X44528613Y-105310854D01*
X44659723Y-105223249D01*
X44659726Y-105223246D01*
X44669694Y-105213279D01*
X44731017Y-105179794D01*
X44757375Y-105176960D01*
X46791493Y-105176960D01*
X46858532Y-105196645D01*
X46879174Y-105213279D01*
X46889141Y-105223246D01*
X46889145Y-105223249D01*
X47020248Y-105310850D01*
X47020261Y-105310857D01*
X47165932Y-105371195D01*
X47165937Y-105371197D01*
X47320587Y-105401959D01*
X47320590Y-105401960D01*
X47320592Y-105401960D01*
X47478278Y-105401960D01*
X47478279Y-105401959D01*
X47632931Y-105371197D01*
X47778613Y-105310854D01*
X47909723Y-105223249D01*
X47909726Y-105223246D01*
X47919694Y-105213279D01*
X47981017Y-105179794D01*
X48007375Y-105176960D01*
X50041493Y-105176960D01*
X50108532Y-105196645D01*
X50129174Y-105213279D01*
X50139141Y-105223246D01*
X50139145Y-105223249D01*
X50270248Y-105310850D01*
X50270261Y-105310857D01*
X50415932Y-105371195D01*
X50415937Y-105371197D01*
X50570587Y-105401959D01*
X50570590Y-105401960D01*
X50570592Y-105401960D01*
X50728278Y-105401960D01*
X50728279Y-105401959D01*
X50882931Y-105371197D01*
X51028613Y-105310854D01*
X51159723Y-105223249D01*
X51159726Y-105223246D01*
X51169694Y-105213279D01*
X51231017Y-105179794D01*
X51257375Y-105176960D01*
X52996393Y-105176960D01*
X53063432Y-105196645D01*
X53084074Y-105213279D01*
X53094041Y-105223246D01*
X53094045Y-105223249D01*
X53225148Y-105310850D01*
X53225161Y-105310857D01*
X53370832Y-105371195D01*
X53370837Y-105371197D01*
X53525487Y-105401959D01*
X53525490Y-105401960D01*
X53525492Y-105401960D01*
X53683178Y-105401960D01*
X53683179Y-105401959D01*
X53837831Y-105371197D01*
X53983513Y-105310854D01*
X54114623Y-105223249D01*
X54226123Y-105111749D01*
X54313728Y-104980639D01*
X54374071Y-104834957D01*
X54404834Y-104680302D01*
X54404834Y-104522618D01*
X54404834Y-104522615D01*
X54404833Y-104522613D01*
X54375853Y-104376917D01*
X54375851Y-104376911D01*
X54374071Y-104367964D01*
X54374069Y-104367958D01*
X54370277Y-104358803D01*
X58114750Y-104358803D01*
X58114750Y-104516496D01*
X58145511Y-104671139D01*
X58145514Y-104671151D01*
X58205852Y-104816822D01*
X58205859Y-104816835D01*
X58293460Y-104947938D01*
X58293463Y-104947942D01*
X58404957Y-105059436D01*
X58404961Y-105059439D01*
X58536064Y-105147040D01*
X58536077Y-105147047D01*
X58668651Y-105201960D01*
X58681753Y-105207387D01*
X58836403Y-105238149D01*
X58836406Y-105238150D01*
X58836408Y-105238150D01*
X58994094Y-105238150D01*
X58994095Y-105238149D01*
X59148747Y-105207387D01*
X59294429Y-105147044D01*
X59425539Y-105059439D01*
X59460616Y-105024362D01*
X59521938Y-104990876D01*
X59548298Y-104988042D01*
X62206041Y-104988042D01*
X62273080Y-105007727D01*
X62287759Y-105019556D01*
X62287901Y-105019384D01*
X62292611Y-105023249D01*
X62423714Y-105110850D01*
X62423727Y-105110857D01*
X62569398Y-105171195D01*
X62569403Y-105171197D01*
X62697338Y-105196645D01*
X62724053Y-105201959D01*
X62724056Y-105201960D01*
X62724058Y-105201960D01*
X62881744Y-105201960D01*
X62881745Y-105201959D01*
X63036397Y-105171197D01*
X63182079Y-105110854D01*
X63313189Y-105023249D01*
X63313193Y-105023244D01*
X63317899Y-105019384D01*
X63318918Y-105020625D01*
X63373401Y-104990876D01*
X63399759Y-104988042D01*
X67004601Y-104988042D01*
X67071640Y-105007727D01*
X67092282Y-105024361D01*
X67103657Y-105035736D01*
X67103661Y-105035739D01*
X67234764Y-105123340D01*
X67234777Y-105123347D01*
X67371054Y-105179794D01*
X67380453Y-105183687D01*
X67529221Y-105213279D01*
X67535103Y-105214449D01*
X67535106Y-105214450D01*
X67535108Y-105214450D01*
X67692794Y-105214450D01*
X67692795Y-105214449D01*
X67847447Y-105183687D01*
X67993129Y-105123344D01*
X68124239Y-105035739D01*
X68124242Y-105035736D01*
X68135618Y-105024361D01*
X68196941Y-104990876D01*
X68223299Y-104988042D01*
X70204601Y-104988042D01*
X70271640Y-105007727D01*
X70292282Y-105024361D01*
X70297412Y-105029491D01*
X70297416Y-105029494D01*
X70428519Y-105117095D01*
X70428532Y-105117102D01*
X70573044Y-105176960D01*
X70574208Y-105177442D01*
X70724741Y-105207385D01*
X70728858Y-105208204D01*
X70728861Y-105208205D01*
X70728863Y-105208205D01*
X70886549Y-105208205D01*
X70886550Y-105208204D01*
X71041202Y-105177442D01*
X71186884Y-105117099D01*
X71317994Y-105029494D01*
X71317997Y-105029491D01*
X71323128Y-105024361D01*
X71384451Y-104990876D01*
X71410809Y-104988042D01*
X73404601Y-104988042D01*
X73471640Y-105007727D01*
X73492282Y-105024361D01*
X73503657Y-105035736D01*
X73503661Y-105035739D01*
X73634764Y-105123340D01*
X73634777Y-105123347D01*
X73771054Y-105179794D01*
X73780453Y-105183687D01*
X73929221Y-105213279D01*
X73935103Y-105214449D01*
X73935106Y-105214450D01*
X73935108Y-105214450D01*
X74092794Y-105214450D01*
X74092795Y-105214449D01*
X74247447Y-105183687D01*
X74393129Y-105123344D01*
X74524239Y-105035739D01*
X74524242Y-105035736D01*
X74535618Y-105024361D01*
X74596941Y-104990876D01*
X74623299Y-104988042D01*
X76604601Y-104988042D01*
X76671640Y-105007727D01*
X76684719Y-105018266D01*
X76685001Y-105017924D01*
X76689711Y-105021789D01*
X76820814Y-105109390D01*
X76820827Y-105109397D01*
X76911724Y-105147047D01*
X76966503Y-105169737D01*
X77101778Y-105196645D01*
X77121153Y-105200499D01*
X77121156Y-105200500D01*
X77121158Y-105200500D01*
X77278844Y-105200500D01*
X77278845Y-105200499D01*
X77433497Y-105169737D01*
X77573486Y-105111752D01*
X77579172Y-105109397D01*
X77579172Y-105109396D01*
X77579179Y-105109394D01*
X77710289Y-105021789D01*
X77710293Y-105021784D01*
X77714999Y-105017924D01*
X77716393Y-105019623D01*
X77769041Y-104990876D01*
X77795399Y-104988042D01*
X79804601Y-104988042D01*
X79871640Y-105007727D01*
X79884719Y-105018266D01*
X79885001Y-105017924D01*
X79889711Y-105021789D01*
X80020814Y-105109390D01*
X80020827Y-105109397D01*
X80111724Y-105147047D01*
X80166503Y-105169737D01*
X80301778Y-105196645D01*
X80321153Y-105200499D01*
X80321156Y-105200500D01*
X80321158Y-105200500D01*
X80478844Y-105200500D01*
X80478845Y-105200499D01*
X80633497Y-105169737D01*
X80773486Y-105111752D01*
X80779172Y-105109397D01*
X80779172Y-105109396D01*
X80779179Y-105109394D01*
X80910289Y-105021789D01*
X80910293Y-105021784D01*
X80914999Y-105017924D01*
X80916393Y-105019623D01*
X80969041Y-104990876D01*
X80995399Y-104988042D01*
X82204601Y-104988042D01*
X82271640Y-105007727D01*
X82284719Y-105018266D01*
X82285001Y-105017924D01*
X82289711Y-105021789D01*
X82420814Y-105109390D01*
X82420827Y-105109397D01*
X82511724Y-105147047D01*
X82566503Y-105169737D01*
X82701778Y-105196645D01*
X82721153Y-105200499D01*
X82721156Y-105200500D01*
X82721158Y-105200500D01*
X82878844Y-105200500D01*
X82878845Y-105200499D01*
X83033497Y-105169737D01*
X83173486Y-105111752D01*
X83179172Y-105109397D01*
X83179172Y-105109396D01*
X83179179Y-105109394D01*
X83310289Y-105021789D01*
X83421789Y-104910289D01*
X83509394Y-104779179D01*
X83569737Y-104633497D01*
X83600500Y-104478842D01*
X83600500Y-104321158D01*
X83600500Y-104321155D01*
X83600499Y-104321153D01*
X83580832Y-104222281D01*
X83569737Y-104166503D01*
X83524989Y-104058471D01*
X83509397Y-104020827D01*
X83509390Y-104020814D01*
X83421789Y-103889711D01*
X83421786Y-103889707D01*
X83310292Y-103778213D01*
X83310288Y-103778210D01*
X83179185Y-103690609D01*
X83179172Y-103690602D01*
X83033501Y-103630264D01*
X83033489Y-103630261D01*
X82878845Y-103599500D01*
X82878842Y-103599500D01*
X82721158Y-103599500D01*
X82721155Y-103599500D01*
X82566510Y-103630261D01*
X82566498Y-103630264D01*
X82420827Y-103690602D01*
X82420814Y-103690609D01*
X82289711Y-103778210D01*
X82289707Y-103778213D01*
X82267198Y-103800723D01*
X82205875Y-103834208D01*
X82179517Y-103837042D01*
X81020483Y-103837042D01*
X80953444Y-103817357D01*
X80932802Y-103800723D01*
X80910292Y-103778213D01*
X80910288Y-103778210D01*
X80779185Y-103690609D01*
X80779172Y-103690602D01*
X80633501Y-103630264D01*
X80633489Y-103630261D01*
X80478845Y-103599500D01*
X80478842Y-103599500D01*
X80321158Y-103599500D01*
X80321155Y-103599500D01*
X80166510Y-103630261D01*
X80166498Y-103630264D01*
X80020827Y-103690602D01*
X80020814Y-103690609D01*
X79889711Y-103778210D01*
X79889707Y-103778213D01*
X79867198Y-103800723D01*
X79805875Y-103834208D01*
X79779517Y-103837042D01*
X77820483Y-103837042D01*
X77753444Y-103817357D01*
X77732802Y-103800723D01*
X77710292Y-103778213D01*
X77710288Y-103778210D01*
X77579185Y-103690609D01*
X77579172Y-103690602D01*
X77433501Y-103630264D01*
X77433489Y-103630261D01*
X77278845Y-103599500D01*
X77278842Y-103599500D01*
X77121158Y-103599500D01*
X77121155Y-103599500D01*
X76966510Y-103630261D01*
X76966498Y-103630264D01*
X76820827Y-103690602D01*
X76820814Y-103690609D01*
X76689711Y-103778210D01*
X76689707Y-103778213D01*
X76667198Y-103800723D01*
X76605875Y-103834208D01*
X76579517Y-103837042D01*
X74620483Y-103837042D01*
X74553444Y-103817357D01*
X74532802Y-103800723D01*
X74524242Y-103792163D01*
X74524238Y-103792160D01*
X74393135Y-103704559D01*
X74393122Y-103704552D01*
X74247451Y-103644214D01*
X74247439Y-103644211D01*
X74092795Y-103613450D01*
X74092792Y-103613450D01*
X73935108Y-103613450D01*
X73935105Y-103613450D01*
X73780460Y-103644211D01*
X73780448Y-103644214D01*
X73634777Y-103704552D01*
X73634764Y-103704559D01*
X73503661Y-103792160D01*
X73503657Y-103792163D01*
X73495098Y-103800723D01*
X73433775Y-103834208D01*
X73407417Y-103837042D01*
X71420483Y-103837042D01*
X71353444Y-103817357D01*
X71332802Y-103800723D01*
X71317997Y-103785918D01*
X71317993Y-103785915D01*
X71186890Y-103698314D01*
X71186877Y-103698307D01*
X71041206Y-103637969D01*
X71041194Y-103637966D01*
X70886550Y-103607205D01*
X70886547Y-103607205D01*
X70728863Y-103607205D01*
X70728860Y-103607205D01*
X70574215Y-103637966D01*
X70574203Y-103637969D01*
X70428532Y-103698307D01*
X70428519Y-103698314D01*
X70297416Y-103785915D01*
X70297412Y-103785918D01*
X70282608Y-103800723D01*
X70221285Y-103834208D01*
X70194927Y-103837042D01*
X68220483Y-103837042D01*
X68153444Y-103817357D01*
X68132802Y-103800723D01*
X68124242Y-103792163D01*
X68124238Y-103792160D01*
X67993135Y-103704559D01*
X67993122Y-103704552D01*
X67847451Y-103644214D01*
X67847439Y-103644211D01*
X67692795Y-103613450D01*
X67692792Y-103613450D01*
X67535108Y-103613450D01*
X67535105Y-103613450D01*
X67380460Y-103644211D01*
X67380448Y-103644214D01*
X67234777Y-103704552D01*
X67234764Y-103704559D01*
X67103661Y-103792160D01*
X67103657Y-103792163D01*
X67095098Y-103800723D01*
X67033775Y-103834208D01*
X67007417Y-103837042D01*
X63421923Y-103837042D01*
X63354884Y-103817357D01*
X63334242Y-103800723D01*
X63313192Y-103779673D01*
X63313188Y-103779670D01*
X63182085Y-103692069D01*
X63182072Y-103692062D01*
X63036401Y-103631724D01*
X63036389Y-103631721D01*
X62881745Y-103600960D01*
X62881742Y-103600960D01*
X62724058Y-103600960D01*
X62724055Y-103600960D01*
X62569410Y-103631721D01*
X62569398Y-103631724D01*
X62423727Y-103692062D01*
X62423714Y-103692069D01*
X62292611Y-103779670D01*
X62292607Y-103779673D01*
X62271558Y-103800723D01*
X62210235Y-103834208D01*
X62183877Y-103837042D01*
X59494854Y-103837042D01*
X59427815Y-103817357D01*
X59425963Y-103816144D01*
X59294435Y-103728259D01*
X59294422Y-103728252D01*
X59148751Y-103667914D01*
X59148739Y-103667911D01*
X58994095Y-103637150D01*
X58994092Y-103637150D01*
X58836408Y-103637150D01*
X58836405Y-103637150D01*
X58681760Y-103667911D01*
X58681748Y-103667914D01*
X58536077Y-103728252D01*
X58536064Y-103728259D01*
X58404961Y-103815860D01*
X58404957Y-103815863D01*
X58293463Y-103927357D01*
X58293460Y-103927361D01*
X58205859Y-104058464D01*
X58205852Y-104058477D01*
X58145514Y-104204148D01*
X58145511Y-104204160D01*
X58114750Y-104358803D01*
X54370277Y-104358803D01*
X54313731Y-104222287D01*
X54313724Y-104222274D01*
X54226123Y-104091171D01*
X54226120Y-104091167D01*
X54114626Y-103979673D01*
X54114622Y-103979670D01*
X53983519Y-103892069D01*
X53983506Y-103892062D01*
X53837835Y-103831724D01*
X53837823Y-103831721D01*
X53683179Y-103800960D01*
X53683176Y-103800960D01*
X53525492Y-103800960D01*
X53525489Y-103800960D01*
X53370844Y-103831721D01*
X53370832Y-103831724D01*
X53225161Y-103892062D01*
X53225148Y-103892069D01*
X53094045Y-103979670D01*
X53094041Y-103979673D01*
X53084074Y-103989641D01*
X53022751Y-104023126D01*
X52996393Y-104025960D01*
X51257375Y-104025960D01*
X51190336Y-104006275D01*
X51169694Y-103989641D01*
X51159726Y-103979673D01*
X51159722Y-103979670D01*
X51028619Y-103892069D01*
X51028606Y-103892062D01*
X50882935Y-103831724D01*
X50882923Y-103831721D01*
X50728279Y-103800960D01*
X50728276Y-103800960D01*
X50570592Y-103800960D01*
X50570589Y-103800960D01*
X50415944Y-103831721D01*
X50415932Y-103831724D01*
X50270261Y-103892062D01*
X50270248Y-103892069D01*
X50139145Y-103979670D01*
X50139141Y-103979673D01*
X50129174Y-103989641D01*
X50067851Y-104023126D01*
X50041493Y-104025960D01*
X48007375Y-104025960D01*
X47940336Y-104006275D01*
X47919694Y-103989641D01*
X47909726Y-103979673D01*
X47909722Y-103979670D01*
X47778619Y-103892069D01*
X47778606Y-103892062D01*
X47632935Y-103831724D01*
X47632923Y-103831721D01*
X47478279Y-103800960D01*
X47478276Y-103800960D01*
X47320592Y-103800960D01*
X47320589Y-103800960D01*
X47165944Y-103831721D01*
X47165932Y-103831724D01*
X47020261Y-103892062D01*
X47020248Y-103892069D01*
X46889145Y-103979670D01*
X46889141Y-103979673D01*
X46879174Y-103989641D01*
X46817851Y-104023126D01*
X46791493Y-104025960D01*
X44757375Y-104025960D01*
X44690336Y-104006275D01*
X44669694Y-103989641D01*
X44659726Y-103979673D01*
X44659722Y-103979670D01*
X44528619Y-103892069D01*
X44528606Y-103892062D01*
X44382935Y-103831724D01*
X44382923Y-103831721D01*
X44228279Y-103800960D01*
X44228276Y-103800960D01*
X44070592Y-103800960D01*
X44070589Y-103800960D01*
X43915944Y-103831721D01*
X43915932Y-103831724D01*
X43770261Y-103892062D01*
X43770248Y-103892069D01*
X43639145Y-103979670D01*
X43639141Y-103979673D01*
X43629174Y-103989641D01*
X43567851Y-104023126D01*
X43541493Y-104025960D01*
X41507375Y-104025960D01*
X41440336Y-104006275D01*
X41419694Y-103989641D01*
X41409726Y-103979673D01*
X41409722Y-103979670D01*
X41278619Y-103892069D01*
X41278606Y-103892062D01*
X41132935Y-103831724D01*
X41132923Y-103831721D01*
X40978279Y-103800960D01*
X40978276Y-103800960D01*
X40820592Y-103800960D01*
X40820589Y-103800960D01*
X40665944Y-103831721D01*
X40665932Y-103831724D01*
X40520261Y-103892062D01*
X40520248Y-103892069D01*
X40389145Y-103979670D01*
X40389141Y-103979673D01*
X40379174Y-103989641D01*
X40317851Y-104023126D01*
X40291493Y-104025960D01*
X38257375Y-104025960D01*
X38190336Y-104006275D01*
X38169694Y-103989641D01*
X38159726Y-103979673D01*
X38159722Y-103979670D01*
X38028619Y-103892069D01*
X38028606Y-103892062D01*
X37882935Y-103831724D01*
X37882923Y-103831721D01*
X37728279Y-103800960D01*
X37728276Y-103800960D01*
X37570592Y-103800960D01*
X37570589Y-103800960D01*
X37415944Y-103831721D01*
X37415932Y-103831724D01*
X37270261Y-103892062D01*
X37270248Y-103892069D01*
X37139145Y-103979670D01*
X37139141Y-103979673D01*
X37129174Y-103989641D01*
X37067851Y-104023126D01*
X37041493Y-104025960D01*
X34307375Y-104025960D01*
X34240336Y-104006275D01*
X34219694Y-103989641D01*
X34209726Y-103979673D01*
X34209722Y-103979670D01*
X34078619Y-103892069D01*
X34078606Y-103892062D01*
X33932935Y-103831724D01*
X33932923Y-103831721D01*
X33778279Y-103800960D01*
X33778276Y-103800960D01*
X33620592Y-103800960D01*
X33620589Y-103800960D01*
X33465944Y-103831721D01*
X33465932Y-103831724D01*
X33320261Y-103892062D01*
X33320248Y-103892069D01*
X33189145Y-103979670D01*
X33189141Y-103979673D01*
X33179174Y-103989641D01*
X33117851Y-104023126D01*
X33091493Y-104025960D01*
X30607941Y-104025960D01*
X30540902Y-104006275D01*
X30520260Y-103989641D01*
X30510292Y-103979673D01*
X30510288Y-103979670D01*
X30379185Y-103892069D01*
X30379172Y-103892062D01*
X30233501Y-103831724D01*
X30233489Y-103831721D01*
X30078845Y-103800960D01*
X30078842Y-103800960D01*
X29921158Y-103800960D01*
X29921155Y-103800960D01*
X29766510Y-103831721D01*
X29766498Y-103831724D01*
X29620827Y-103892062D01*
X29620814Y-103892069D01*
X29489711Y-103979670D01*
X29489707Y-103979673D01*
X29378213Y-104091167D01*
X29378210Y-104091171D01*
X29290609Y-104222274D01*
X29290602Y-104222287D01*
X29230264Y-104367958D01*
X29230261Y-104367970D01*
X29199500Y-104522613D01*
X27384759Y-104522613D01*
X27384750Y-104516722D01*
X27379613Y-101272613D01*
X29199500Y-101272613D01*
X29199500Y-101430306D01*
X29230261Y-101584949D01*
X29230264Y-101584961D01*
X29290602Y-101730632D01*
X29290609Y-101730645D01*
X29378210Y-101861748D01*
X29378213Y-101861752D01*
X29489707Y-101973246D01*
X29489711Y-101973249D01*
X29620814Y-102060850D01*
X29620827Y-102060857D01*
X29766498Y-102121195D01*
X29766503Y-102121197D01*
X29921153Y-102151959D01*
X29921156Y-102151960D01*
X29921158Y-102151960D01*
X30078844Y-102151960D01*
X30078845Y-102151959D01*
X30233497Y-102121197D01*
X30379179Y-102060854D01*
X30510289Y-101973249D01*
X30513803Y-101969735D01*
X30520260Y-101963279D01*
X30581583Y-101929794D01*
X30607941Y-101926960D01*
X31391493Y-101926960D01*
X31458532Y-101946645D01*
X31479174Y-101963279D01*
X31489141Y-101973246D01*
X31489145Y-101973249D01*
X31620248Y-102060850D01*
X31620261Y-102060857D01*
X31765932Y-102121195D01*
X31765937Y-102121197D01*
X31920587Y-102151959D01*
X31920590Y-102151960D01*
X31920592Y-102151960D01*
X32078278Y-102151960D01*
X32078279Y-102151959D01*
X32232931Y-102121197D01*
X32378613Y-102060854D01*
X32509723Y-101973249D01*
X32513237Y-101969735D01*
X32519694Y-101963279D01*
X32581017Y-101929794D01*
X32607375Y-101926960D01*
X36391493Y-101926960D01*
X36458532Y-101946645D01*
X36479174Y-101963279D01*
X36489141Y-101973246D01*
X36489145Y-101973249D01*
X36620248Y-102060850D01*
X36620261Y-102060857D01*
X36765932Y-102121195D01*
X36765937Y-102121197D01*
X36920587Y-102151959D01*
X36920590Y-102151960D01*
X36920592Y-102151960D01*
X37078278Y-102151960D01*
X37078279Y-102151959D01*
X37232931Y-102121197D01*
X37378613Y-102060854D01*
X37509723Y-101973249D01*
X37513237Y-101969735D01*
X37519694Y-101963279D01*
X37581017Y-101929794D01*
X37607375Y-101926960D01*
X40291493Y-101926960D01*
X40358532Y-101946645D01*
X40379174Y-101963279D01*
X40389141Y-101973246D01*
X40389145Y-101973249D01*
X40520248Y-102060850D01*
X40520261Y-102060857D01*
X40665932Y-102121195D01*
X40665937Y-102121197D01*
X40820587Y-102151959D01*
X40820590Y-102151960D01*
X40820592Y-102151960D01*
X40978278Y-102151960D01*
X40978279Y-102151959D01*
X41132931Y-102121197D01*
X41278613Y-102060854D01*
X41409723Y-101973249D01*
X41413237Y-101969735D01*
X41419694Y-101963279D01*
X41481017Y-101929794D01*
X41507375Y-101926960D01*
X43541493Y-101926960D01*
X43608532Y-101946645D01*
X43629174Y-101963279D01*
X43639141Y-101973246D01*
X43639145Y-101973249D01*
X43770248Y-102060850D01*
X43770261Y-102060857D01*
X43915932Y-102121195D01*
X43915937Y-102121197D01*
X44070587Y-102151959D01*
X44070590Y-102151960D01*
X44070592Y-102151960D01*
X44228278Y-102151960D01*
X44228279Y-102151959D01*
X44382931Y-102121197D01*
X44528613Y-102060854D01*
X44659723Y-101973249D01*
X44663237Y-101969735D01*
X44669694Y-101963279D01*
X44731017Y-101929794D01*
X44757375Y-101926960D01*
X46791493Y-101926960D01*
X46858532Y-101946645D01*
X46879174Y-101963279D01*
X46889141Y-101973246D01*
X46889145Y-101973249D01*
X47020248Y-102060850D01*
X47020261Y-102060857D01*
X47165932Y-102121195D01*
X47165937Y-102121197D01*
X47320587Y-102151959D01*
X47320590Y-102151960D01*
X47320592Y-102151960D01*
X47478278Y-102151960D01*
X47478279Y-102151959D01*
X47632931Y-102121197D01*
X47778613Y-102060854D01*
X47909723Y-101973249D01*
X47913237Y-101969735D01*
X47919694Y-101963279D01*
X47981017Y-101929794D01*
X48007375Y-101926960D01*
X50041493Y-101926960D01*
X50108532Y-101946645D01*
X50129174Y-101963279D01*
X50139141Y-101973246D01*
X50139145Y-101973249D01*
X50270248Y-102060850D01*
X50270261Y-102060857D01*
X50415932Y-102121195D01*
X50415937Y-102121197D01*
X50570587Y-102151959D01*
X50570590Y-102151960D01*
X50570592Y-102151960D01*
X50728278Y-102151960D01*
X50728279Y-102151959D01*
X50882931Y-102121197D01*
X51028613Y-102060854D01*
X51159723Y-101973249D01*
X51163237Y-101969735D01*
X51169694Y-101963279D01*
X51231017Y-101929794D01*
X51257375Y-101926960D01*
X53021393Y-101926960D01*
X53088432Y-101946645D01*
X53109074Y-101963279D01*
X53119041Y-101973246D01*
X53119045Y-101973249D01*
X53250148Y-102060850D01*
X53250161Y-102060857D01*
X53395832Y-102121195D01*
X53395837Y-102121197D01*
X53550487Y-102151959D01*
X53550490Y-102151960D01*
X53550492Y-102151960D01*
X53708178Y-102151960D01*
X53708179Y-102151959D01*
X53862831Y-102121197D01*
X54008513Y-102060854D01*
X54139623Y-101973249D01*
X54251123Y-101861749D01*
X54338728Y-101730639D01*
X54399071Y-101584957D01*
X54429834Y-101430302D01*
X54429834Y-101272618D01*
X54429834Y-101272615D01*
X54411376Y-101179825D01*
X54399071Y-101117963D01*
X54390037Y-101096153D01*
X58177400Y-101096153D01*
X58177400Y-101253846D01*
X58208161Y-101408489D01*
X58208164Y-101408501D01*
X58268502Y-101554172D01*
X58268509Y-101554185D01*
X58356110Y-101685288D01*
X58356113Y-101685292D01*
X58467607Y-101796786D01*
X58467611Y-101796789D01*
X58598714Y-101884390D01*
X58598727Y-101884397D01*
X58701485Y-101926960D01*
X58744403Y-101944737D01*
X58887742Y-101973249D01*
X58899053Y-101975499D01*
X58899056Y-101975500D01*
X58899058Y-101975500D01*
X59056744Y-101975500D01*
X59056745Y-101975499D01*
X59211397Y-101944737D01*
X59357079Y-101884394D01*
X59449837Y-101822415D01*
X59516514Y-101801537D01*
X59518728Y-101801517D01*
X60687072Y-101801517D01*
X60754111Y-101821202D01*
X60755963Y-101822415D01*
X60848721Y-101884394D01*
X60848723Y-101884395D01*
X60848727Y-101884397D01*
X60951485Y-101926960D01*
X60994403Y-101944737D01*
X61137742Y-101973249D01*
X61149053Y-101975499D01*
X61149056Y-101975500D01*
X61149058Y-101975500D01*
X61306744Y-101975500D01*
X61306745Y-101975499D01*
X61461397Y-101944737D01*
X61607079Y-101884394D01*
X61699837Y-101822415D01*
X61766514Y-101801537D01*
X61768728Y-101801517D01*
X65407879Y-101801517D01*
X65474918Y-101821202D01*
X65495560Y-101837836D01*
X65517607Y-101859883D01*
X65517611Y-101859886D01*
X65648714Y-101947487D01*
X65648727Y-101947494D01*
X65776697Y-102000500D01*
X65794403Y-102007834D01*
X65949053Y-102038596D01*
X65949056Y-102038597D01*
X65949058Y-102038597D01*
X66106744Y-102038597D01*
X66106745Y-102038596D01*
X66261397Y-102007834D01*
X66407079Y-101947491D01*
X66538189Y-101859886D01*
X66538192Y-101859883D01*
X66560240Y-101837836D01*
X66621563Y-101804351D01*
X66647921Y-101801517D01*
X70218076Y-101801517D01*
X70285115Y-101821202D01*
X70298715Y-101832161D01*
X70298951Y-101831874D01*
X70303661Y-101835739D01*
X70434764Y-101923340D01*
X70434777Y-101923347D01*
X70580448Y-101983685D01*
X70580453Y-101983687D01*
X70735103Y-102014449D01*
X70735106Y-102014450D01*
X70735108Y-102014450D01*
X70892794Y-102014450D01*
X70892795Y-102014449D01*
X71047447Y-101983687D01*
X71193129Y-101923344D01*
X71324239Y-101835739D01*
X71328104Y-101831874D01*
X71348160Y-101811819D01*
X71409483Y-101778334D01*
X71435841Y-101775500D01*
X73392059Y-101775500D01*
X73459098Y-101795185D01*
X73479740Y-101811819D01*
X73503657Y-101835736D01*
X73503661Y-101835739D01*
X73634764Y-101923340D01*
X73634777Y-101923347D01*
X73780448Y-101983685D01*
X73780453Y-101983687D01*
X73935103Y-102014449D01*
X73935106Y-102014450D01*
X73935108Y-102014450D01*
X74092794Y-102014450D01*
X74092795Y-102014449D01*
X74247447Y-101983687D01*
X74393129Y-101923344D01*
X74524239Y-101835739D01*
X74528104Y-101831874D01*
X74548160Y-101811819D01*
X74609483Y-101778334D01*
X74635841Y-101775500D01*
X76592059Y-101775500D01*
X76659098Y-101795185D01*
X76679740Y-101811819D01*
X76689707Y-101821786D01*
X76689711Y-101821789D01*
X76820814Y-101909390D01*
X76820827Y-101909397D01*
X76912803Y-101947494D01*
X76966503Y-101969737D01*
X77121153Y-102000499D01*
X77121156Y-102000500D01*
X77121158Y-102000500D01*
X77278844Y-102000500D01*
X77278845Y-102000499D01*
X77433497Y-101969737D01*
X77579179Y-101909394D01*
X77710289Y-101821789D01*
X77710876Y-101821202D01*
X77720260Y-101811819D01*
X77781583Y-101778334D01*
X77807941Y-101775500D01*
X79792059Y-101775500D01*
X79859098Y-101795185D01*
X79879740Y-101811819D01*
X79889707Y-101821786D01*
X79889711Y-101821789D01*
X80020814Y-101909390D01*
X80020827Y-101909397D01*
X80112803Y-101947494D01*
X80166503Y-101969737D01*
X80321153Y-102000499D01*
X80321156Y-102000500D01*
X80321158Y-102000500D01*
X80478844Y-102000500D01*
X80478845Y-102000499D01*
X80633497Y-101969737D01*
X80779179Y-101909394D01*
X80910289Y-101821789D01*
X80910876Y-101821202D01*
X80920260Y-101811819D01*
X80981583Y-101778334D01*
X81007941Y-101775500D01*
X82192059Y-101775500D01*
X82259098Y-101795185D01*
X82279740Y-101811819D01*
X82289707Y-101821786D01*
X82289711Y-101821789D01*
X82420814Y-101909390D01*
X82420827Y-101909397D01*
X82512803Y-101947494D01*
X82566503Y-101969737D01*
X82721153Y-102000499D01*
X82721156Y-102000500D01*
X82721158Y-102000500D01*
X82878844Y-102000500D01*
X82878845Y-102000499D01*
X83033497Y-101969737D01*
X83179179Y-101909394D01*
X83310289Y-101821789D01*
X83421789Y-101710289D01*
X83509394Y-101579179D01*
X83569737Y-101433497D01*
X83600500Y-101278842D01*
X83600500Y-101121158D01*
X83600500Y-101121155D01*
X83600499Y-101121153D01*
X83595526Y-101096153D01*
X83569737Y-100966503D01*
X83559380Y-100941498D01*
X83509397Y-100820827D01*
X83509390Y-100820814D01*
X83421789Y-100689711D01*
X83421786Y-100689707D01*
X83310292Y-100578213D01*
X83310288Y-100578210D01*
X83179185Y-100490609D01*
X83179172Y-100490602D01*
X83033501Y-100430264D01*
X83033489Y-100430261D01*
X82878845Y-100399500D01*
X82878842Y-100399500D01*
X82721158Y-100399500D01*
X82721155Y-100399500D01*
X82566510Y-100430261D01*
X82566498Y-100430264D01*
X82420827Y-100490602D01*
X82420814Y-100490609D01*
X82289711Y-100578210D01*
X82289707Y-100578213D01*
X82279740Y-100588181D01*
X82218417Y-100621666D01*
X82192059Y-100624500D01*
X81007941Y-100624500D01*
X80940902Y-100604815D01*
X80920260Y-100588181D01*
X80910292Y-100578213D01*
X80910288Y-100578210D01*
X80779185Y-100490609D01*
X80779172Y-100490602D01*
X80633501Y-100430264D01*
X80633489Y-100430261D01*
X80478845Y-100399500D01*
X80478842Y-100399500D01*
X80321158Y-100399500D01*
X80321155Y-100399500D01*
X80166510Y-100430261D01*
X80166498Y-100430264D01*
X80020827Y-100490602D01*
X80020814Y-100490609D01*
X79889711Y-100578210D01*
X79889707Y-100578213D01*
X79879740Y-100588181D01*
X79818417Y-100621666D01*
X79792059Y-100624500D01*
X77807941Y-100624500D01*
X77740902Y-100604815D01*
X77720260Y-100588181D01*
X77710292Y-100578213D01*
X77710288Y-100578210D01*
X77579185Y-100490609D01*
X77579172Y-100490602D01*
X77433501Y-100430264D01*
X77433489Y-100430261D01*
X77278845Y-100399500D01*
X77278842Y-100399500D01*
X77121158Y-100399500D01*
X77121155Y-100399500D01*
X76966510Y-100430261D01*
X76966498Y-100430264D01*
X76820827Y-100490602D01*
X76820814Y-100490609D01*
X76689711Y-100578210D01*
X76689707Y-100578213D01*
X76679740Y-100588181D01*
X76618417Y-100621666D01*
X76592059Y-100624500D01*
X74607941Y-100624500D01*
X74540902Y-100604815D01*
X74529365Y-100595518D01*
X74528949Y-100596026D01*
X74524238Y-100592160D01*
X74393135Y-100504559D01*
X74393122Y-100504552D01*
X74247451Y-100444214D01*
X74247439Y-100444211D01*
X74092795Y-100413450D01*
X74092792Y-100413450D01*
X73935108Y-100413450D01*
X73935105Y-100413450D01*
X73780460Y-100444211D01*
X73780448Y-100444214D01*
X73634777Y-100504552D01*
X73634764Y-100504559D01*
X73503661Y-100592160D01*
X73498951Y-100596026D01*
X73497193Y-100593884D01*
X73446317Y-100621666D01*
X73419959Y-100624500D01*
X71407941Y-100624500D01*
X71340902Y-100604815D01*
X71329365Y-100595518D01*
X71328949Y-100596026D01*
X71324238Y-100592160D01*
X71193135Y-100504559D01*
X71193122Y-100504552D01*
X71047451Y-100444214D01*
X71047439Y-100444211D01*
X70892795Y-100413450D01*
X70892792Y-100413450D01*
X70735108Y-100413450D01*
X70735105Y-100413450D01*
X70580460Y-100444211D01*
X70580448Y-100444214D01*
X70434777Y-100504552D01*
X70434764Y-100504559D01*
X70303661Y-100592160D01*
X70303657Y-100592163D01*
X70281623Y-100614198D01*
X70220300Y-100647683D01*
X70193942Y-100650517D01*
X66623761Y-100650517D01*
X66556722Y-100630832D01*
X66543136Y-100619884D01*
X66542899Y-100620173D01*
X66538188Y-100616307D01*
X66407085Y-100528706D01*
X66407072Y-100528699D01*
X66261401Y-100468361D01*
X66261389Y-100468358D01*
X66106745Y-100437597D01*
X66106742Y-100437597D01*
X65949058Y-100437597D01*
X65949055Y-100437597D01*
X65794410Y-100468358D01*
X65794398Y-100468361D01*
X65648727Y-100528699D01*
X65648714Y-100528706D01*
X65517611Y-100616307D01*
X65512901Y-100620173D01*
X65511625Y-100618618D01*
X65458397Y-100647683D01*
X65432039Y-100650517D01*
X61886857Y-100650517D01*
X61819818Y-100630832D01*
X61799180Y-100614202D01*
X61738189Y-100553211D01*
X61738188Y-100553210D01*
X61738187Y-100553209D01*
X61607085Y-100465609D01*
X61607072Y-100465602D01*
X61461401Y-100405264D01*
X61461389Y-100405261D01*
X61306745Y-100374500D01*
X61306742Y-100374500D01*
X61149058Y-100374500D01*
X61149055Y-100374500D01*
X60994410Y-100405261D01*
X60994398Y-100405264D01*
X60848727Y-100465602D01*
X60848714Y-100465609D01*
X60717612Y-100553209D01*
X60692612Y-100578210D01*
X60656622Y-100614199D01*
X60595302Y-100647683D01*
X60568943Y-100650517D01*
X59636857Y-100650517D01*
X59569818Y-100630832D01*
X59549180Y-100614202D01*
X59488189Y-100553211D01*
X59488188Y-100553210D01*
X59488187Y-100553209D01*
X59357085Y-100465609D01*
X59357072Y-100465602D01*
X59211401Y-100405264D01*
X59211389Y-100405261D01*
X59056745Y-100374500D01*
X59056742Y-100374500D01*
X58899058Y-100374500D01*
X58899055Y-100374500D01*
X58744410Y-100405261D01*
X58744398Y-100405264D01*
X58598727Y-100465602D01*
X58598714Y-100465609D01*
X58467611Y-100553210D01*
X58467607Y-100553213D01*
X58356113Y-100664707D01*
X58356110Y-100664711D01*
X58268509Y-100795814D01*
X58268502Y-100795827D01*
X58208164Y-100941498D01*
X58208161Y-100941510D01*
X58177400Y-101096153D01*
X54390037Y-101096153D01*
X54338731Y-100972287D01*
X54338724Y-100972274D01*
X54251123Y-100841171D01*
X54251120Y-100841167D01*
X54139626Y-100729673D01*
X54139622Y-100729670D01*
X54008519Y-100642069D01*
X54008506Y-100642062D01*
X53862835Y-100581724D01*
X53862823Y-100581721D01*
X53708179Y-100550960D01*
X53708176Y-100550960D01*
X53550492Y-100550960D01*
X53550489Y-100550960D01*
X53395844Y-100581721D01*
X53395832Y-100581724D01*
X53250161Y-100642062D01*
X53250148Y-100642069D01*
X53119045Y-100729670D01*
X53119041Y-100729673D01*
X53109074Y-100739641D01*
X53047751Y-100773126D01*
X53021393Y-100775960D01*
X51257375Y-100775960D01*
X51190336Y-100756275D01*
X51169694Y-100739641D01*
X51159726Y-100729673D01*
X51159722Y-100729670D01*
X51028619Y-100642069D01*
X51028606Y-100642062D01*
X50882935Y-100581724D01*
X50882923Y-100581721D01*
X50728279Y-100550960D01*
X50728276Y-100550960D01*
X50570592Y-100550960D01*
X50570589Y-100550960D01*
X50415944Y-100581721D01*
X50415932Y-100581724D01*
X50270261Y-100642062D01*
X50270248Y-100642069D01*
X50139145Y-100729670D01*
X50139141Y-100729673D01*
X50129174Y-100739641D01*
X50067851Y-100773126D01*
X50041493Y-100775960D01*
X48007375Y-100775960D01*
X47940336Y-100756275D01*
X47919694Y-100739641D01*
X47909726Y-100729673D01*
X47909722Y-100729670D01*
X47778619Y-100642069D01*
X47778606Y-100642062D01*
X47632935Y-100581724D01*
X47632923Y-100581721D01*
X47478279Y-100550960D01*
X47478276Y-100550960D01*
X47320592Y-100550960D01*
X47320589Y-100550960D01*
X47165944Y-100581721D01*
X47165932Y-100581724D01*
X47020261Y-100642062D01*
X47020248Y-100642069D01*
X46889145Y-100729670D01*
X46889141Y-100729673D01*
X46879174Y-100739641D01*
X46817851Y-100773126D01*
X46791493Y-100775960D01*
X44757375Y-100775960D01*
X44690336Y-100756275D01*
X44669694Y-100739641D01*
X44659726Y-100729673D01*
X44659722Y-100729670D01*
X44528619Y-100642069D01*
X44528606Y-100642062D01*
X44382935Y-100581724D01*
X44382923Y-100581721D01*
X44228279Y-100550960D01*
X44228276Y-100550960D01*
X44070592Y-100550960D01*
X44070589Y-100550960D01*
X43915944Y-100581721D01*
X43915932Y-100581724D01*
X43770261Y-100642062D01*
X43770248Y-100642069D01*
X43639145Y-100729670D01*
X43639141Y-100729673D01*
X43629174Y-100739641D01*
X43567851Y-100773126D01*
X43541493Y-100775960D01*
X41507375Y-100775960D01*
X41440336Y-100756275D01*
X41419694Y-100739641D01*
X41409726Y-100729673D01*
X41409722Y-100729670D01*
X41278619Y-100642069D01*
X41278606Y-100642062D01*
X41132935Y-100581724D01*
X41132923Y-100581721D01*
X40978279Y-100550960D01*
X40978276Y-100550960D01*
X40820592Y-100550960D01*
X40820589Y-100550960D01*
X40665944Y-100581721D01*
X40665932Y-100581724D01*
X40520261Y-100642062D01*
X40520248Y-100642069D01*
X40389145Y-100729670D01*
X40389141Y-100729673D01*
X40379174Y-100739641D01*
X40317851Y-100773126D01*
X40291493Y-100775960D01*
X37607375Y-100775960D01*
X37540336Y-100756275D01*
X37519694Y-100739641D01*
X37509726Y-100729673D01*
X37509722Y-100729670D01*
X37378619Y-100642069D01*
X37378606Y-100642062D01*
X37232935Y-100581724D01*
X37232923Y-100581721D01*
X37078279Y-100550960D01*
X37078276Y-100550960D01*
X36920592Y-100550960D01*
X36920589Y-100550960D01*
X36765944Y-100581721D01*
X36765932Y-100581724D01*
X36620261Y-100642062D01*
X36620248Y-100642069D01*
X36489145Y-100729670D01*
X36489141Y-100729673D01*
X36479174Y-100739641D01*
X36417851Y-100773126D01*
X36391493Y-100775960D01*
X32607375Y-100775960D01*
X32540336Y-100756275D01*
X32519694Y-100739641D01*
X32509726Y-100729673D01*
X32509722Y-100729670D01*
X32378619Y-100642069D01*
X32378606Y-100642062D01*
X32232935Y-100581724D01*
X32232923Y-100581721D01*
X32078279Y-100550960D01*
X32078276Y-100550960D01*
X31920592Y-100550960D01*
X31920589Y-100550960D01*
X31765944Y-100581721D01*
X31765932Y-100581724D01*
X31620261Y-100642062D01*
X31620248Y-100642069D01*
X31489145Y-100729670D01*
X31489141Y-100729673D01*
X31479174Y-100739641D01*
X31417851Y-100773126D01*
X31391493Y-100775960D01*
X30607941Y-100775960D01*
X30540902Y-100756275D01*
X30520260Y-100739641D01*
X30510292Y-100729673D01*
X30510288Y-100729670D01*
X30379185Y-100642069D01*
X30379172Y-100642062D01*
X30233501Y-100581724D01*
X30233489Y-100581721D01*
X30078845Y-100550960D01*
X30078842Y-100550960D01*
X29921158Y-100550960D01*
X29921155Y-100550960D01*
X29766510Y-100581721D01*
X29766498Y-100581724D01*
X29620827Y-100642062D01*
X29620814Y-100642069D01*
X29489711Y-100729670D01*
X29489707Y-100729673D01*
X29378213Y-100841167D01*
X29378210Y-100841171D01*
X29290609Y-100972274D01*
X29290602Y-100972287D01*
X29230264Y-101117958D01*
X29230261Y-101117970D01*
X29199500Y-101272613D01*
X27379613Y-101272613D01*
X27374467Y-98022613D01*
X29199500Y-98022613D01*
X29199500Y-98180306D01*
X29230261Y-98334949D01*
X29230264Y-98334961D01*
X29290602Y-98480632D01*
X29290609Y-98480645D01*
X29378210Y-98611748D01*
X29378213Y-98611752D01*
X29489707Y-98723246D01*
X29489711Y-98723249D01*
X29620814Y-98810850D01*
X29620827Y-98810857D01*
X29766498Y-98871195D01*
X29766503Y-98871197D01*
X29921153Y-98901959D01*
X29921156Y-98901960D01*
X29921158Y-98901960D01*
X30078844Y-98901960D01*
X30078845Y-98901959D01*
X30233497Y-98871197D01*
X30379179Y-98810854D01*
X30510289Y-98723249D01*
X30510292Y-98723246D01*
X30520260Y-98713279D01*
X30581583Y-98679794D01*
X30607941Y-98676960D01*
X31441493Y-98676960D01*
X31508532Y-98696645D01*
X31529174Y-98713279D01*
X31539141Y-98723246D01*
X31539145Y-98723249D01*
X31670248Y-98810850D01*
X31670261Y-98810857D01*
X31815932Y-98871195D01*
X31815937Y-98871197D01*
X31970587Y-98901959D01*
X31970590Y-98901960D01*
X31970592Y-98901960D01*
X32128278Y-98901960D01*
X32128279Y-98901959D01*
X32282931Y-98871197D01*
X32428613Y-98810854D01*
X32559723Y-98723249D01*
X32559726Y-98723246D01*
X32569694Y-98713279D01*
X32631017Y-98679794D01*
X32657375Y-98676960D01*
X34641493Y-98676960D01*
X34708532Y-98696645D01*
X34729174Y-98713279D01*
X34739141Y-98723246D01*
X34739145Y-98723249D01*
X34870248Y-98810850D01*
X34870261Y-98810857D01*
X35015932Y-98871195D01*
X35015937Y-98871197D01*
X35170587Y-98901959D01*
X35170590Y-98901960D01*
X35170592Y-98901960D01*
X35328278Y-98901960D01*
X35328279Y-98901959D01*
X35482931Y-98871197D01*
X35628613Y-98810854D01*
X35759723Y-98723249D01*
X35759726Y-98723246D01*
X35769694Y-98713279D01*
X35831017Y-98679794D01*
X35857375Y-98676960D01*
X39591493Y-98676960D01*
X39658532Y-98696645D01*
X39679174Y-98713279D01*
X39689141Y-98723246D01*
X39689145Y-98723249D01*
X39820248Y-98810850D01*
X39820261Y-98810857D01*
X39965932Y-98871195D01*
X39965937Y-98871197D01*
X40120587Y-98901959D01*
X40120590Y-98901960D01*
X40120592Y-98901960D01*
X40278278Y-98901960D01*
X40278279Y-98901959D01*
X40432931Y-98871197D01*
X40578613Y-98810854D01*
X40709723Y-98723249D01*
X40709726Y-98723246D01*
X40719694Y-98713279D01*
X40781017Y-98679794D01*
X40807375Y-98676960D01*
X43541493Y-98676960D01*
X43608532Y-98696645D01*
X43629174Y-98713279D01*
X43639141Y-98723246D01*
X43639145Y-98723249D01*
X43770248Y-98810850D01*
X43770261Y-98810857D01*
X43915932Y-98871195D01*
X43915937Y-98871197D01*
X44070587Y-98901959D01*
X44070590Y-98901960D01*
X44070592Y-98901960D01*
X44228278Y-98901960D01*
X44228279Y-98901959D01*
X44382931Y-98871197D01*
X44528613Y-98810854D01*
X44659723Y-98723249D01*
X44659726Y-98723246D01*
X44669694Y-98713279D01*
X44731017Y-98679794D01*
X44757375Y-98676960D01*
X46791493Y-98676960D01*
X46858532Y-98696645D01*
X46879174Y-98713279D01*
X46889141Y-98723246D01*
X46889145Y-98723249D01*
X47020248Y-98810850D01*
X47020261Y-98810857D01*
X47165932Y-98871195D01*
X47165937Y-98871197D01*
X47320587Y-98901959D01*
X47320590Y-98901960D01*
X47320592Y-98901960D01*
X47478278Y-98901960D01*
X47478279Y-98901959D01*
X47632931Y-98871197D01*
X47778613Y-98810854D01*
X47909723Y-98723249D01*
X47909726Y-98723246D01*
X47919694Y-98713279D01*
X47981017Y-98679794D01*
X48007375Y-98676960D01*
X50041493Y-98676960D01*
X50108532Y-98696645D01*
X50129174Y-98713279D01*
X50139141Y-98723246D01*
X50139145Y-98723249D01*
X50270248Y-98810850D01*
X50270261Y-98810857D01*
X50415932Y-98871195D01*
X50415937Y-98871197D01*
X50570587Y-98901959D01*
X50570590Y-98901960D01*
X50570592Y-98901960D01*
X50728278Y-98901960D01*
X50728279Y-98901959D01*
X50882931Y-98871197D01*
X51028613Y-98810854D01*
X51159723Y-98723249D01*
X51159726Y-98723246D01*
X51169694Y-98713279D01*
X51231017Y-98679794D01*
X51257375Y-98676960D01*
X53021393Y-98676960D01*
X53088432Y-98696645D01*
X53109074Y-98713279D01*
X53119041Y-98723246D01*
X53119045Y-98723249D01*
X53250148Y-98810850D01*
X53250161Y-98810857D01*
X53395832Y-98871195D01*
X53395837Y-98871197D01*
X53550487Y-98901959D01*
X53550490Y-98901960D01*
X53550492Y-98901960D01*
X53708178Y-98901960D01*
X53708179Y-98901959D01*
X53862831Y-98871197D01*
X54008513Y-98810854D01*
X54139623Y-98723249D01*
X54251123Y-98611749D01*
X54338728Y-98480639D01*
X54399071Y-98334957D01*
X54429834Y-98180302D01*
X54429834Y-98022618D01*
X54429834Y-98022615D01*
X54408280Y-97914258D01*
X54408280Y-97914257D01*
X54404679Y-97896153D01*
X58177400Y-97896153D01*
X58177400Y-98053846D01*
X58208161Y-98208489D01*
X58208164Y-98208501D01*
X58268502Y-98354172D01*
X58268509Y-98354185D01*
X58356110Y-98485288D01*
X58356113Y-98485292D01*
X58467607Y-98596786D01*
X58467611Y-98596789D01*
X58598714Y-98684390D01*
X58598727Y-98684397D01*
X58744398Y-98744735D01*
X58744403Y-98744737D01*
X58870076Y-98769735D01*
X58899053Y-98775499D01*
X58899056Y-98775500D01*
X58899058Y-98775500D01*
X59056744Y-98775500D01*
X59056745Y-98775499D01*
X59211397Y-98744737D01*
X59357079Y-98684394D01*
X59488189Y-98596789D01*
X59489793Y-98595185D01*
X59498160Y-98586819D01*
X59559483Y-98553334D01*
X59585841Y-98550500D01*
X60619959Y-98550500D01*
X60686998Y-98570185D01*
X60707640Y-98586819D01*
X60717607Y-98596786D01*
X60717611Y-98596789D01*
X60848714Y-98684390D01*
X60848727Y-98684397D01*
X60994398Y-98744735D01*
X60994403Y-98744737D01*
X61120076Y-98769735D01*
X61149053Y-98775499D01*
X61149056Y-98775500D01*
X61149058Y-98775500D01*
X61306744Y-98775500D01*
X61306745Y-98775499D01*
X61461397Y-98744737D01*
X61607079Y-98684394D01*
X61738189Y-98596789D01*
X61739793Y-98595185D01*
X61748160Y-98586819D01*
X61809483Y-98553334D01*
X61835841Y-98550500D01*
X63819959Y-98550500D01*
X63886998Y-98570185D01*
X63907640Y-98586819D01*
X63917607Y-98596786D01*
X63917611Y-98596789D01*
X64048714Y-98684390D01*
X64048727Y-98684397D01*
X64194398Y-98744735D01*
X64194403Y-98744737D01*
X64320076Y-98769735D01*
X64349053Y-98775499D01*
X64349056Y-98775500D01*
X64349058Y-98775500D01*
X64506744Y-98775500D01*
X64506745Y-98775499D01*
X64661397Y-98744737D01*
X64807079Y-98684394D01*
X64938189Y-98596789D01*
X64939793Y-98595185D01*
X64948160Y-98586819D01*
X65009483Y-98553334D01*
X65035841Y-98550500D01*
X68635641Y-98550500D01*
X68702680Y-98570185D01*
X68723322Y-98586819D01*
X68742607Y-98606104D01*
X68742611Y-98606107D01*
X68873714Y-98693708D01*
X68873727Y-98693715D01*
X69019398Y-98754053D01*
X69019403Y-98754055D01*
X69127209Y-98775499D01*
X69174053Y-98784817D01*
X69174056Y-98784818D01*
X69174058Y-98784818D01*
X69331744Y-98784818D01*
X69331745Y-98784817D01*
X69486397Y-98754055D01*
X69632079Y-98693712D01*
X69763189Y-98606107D01*
X69772510Y-98596786D01*
X69782478Y-98586819D01*
X69843801Y-98553334D01*
X69870159Y-98550500D01*
X73367060Y-98550500D01*
X73434099Y-98570185D01*
X73454742Y-98586820D01*
X73489707Y-98621786D01*
X73489711Y-98621789D01*
X73620814Y-98709390D01*
X73620827Y-98709397D01*
X73728638Y-98754053D01*
X73766503Y-98769737D01*
X73921153Y-98800499D01*
X73921156Y-98800500D01*
X73921158Y-98800500D01*
X74078844Y-98800500D01*
X74078845Y-98800499D01*
X74233497Y-98769737D01*
X74379179Y-98709394D01*
X74510289Y-98621789D01*
X74545258Y-98586820D01*
X74606580Y-98553334D01*
X74632940Y-98550500D01*
X76567060Y-98550500D01*
X76634099Y-98570185D01*
X76654742Y-98586820D01*
X76689707Y-98621786D01*
X76689711Y-98621789D01*
X76820814Y-98709390D01*
X76820827Y-98709397D01*
X76928638Y-98754053D01*
X76966503Y-98769737D01*
X77121153Y-98800499D01*
X77121156Y-98800500D01*
X77121158Y-98800500D01*
X77278844Y-98800500D01*
X77278845Y-98800499D01*
X77433497Y-98769737D01*
X77579179Y-98709394D01*
X77710289Y-98621789D01*
X77710292Y-98621786D01*
X77720260Y-98611819D01*
X77781583Y-98578334D01*
X77807941Y-98575500D01*
X79792059Y-98575500D01*
X79859098Y-98595185D01*
X79879740Y-98611819D01*
X79889707Y-98621786D01*
X79889711Y-98621789D01*
X80020814Y-98709390D01*
X80020827Y-98709397D01*
X80128638Y-98754053D01*
X80166503Y-98769737D01*
X80321153Y-98800499D01*
X80321156Y-98800500D01*
X80321158Y-98800500D01*
X80478844Y-98800500D01*
X80478845Y-98800499D01*
X80633497Y-98769737D01*
X80779179Y-98709394D01*
X80910289Y-98621789D01*
X80910292Y-98621786D01*
X80920260Y-98611819D01*
X80981583Y-98578334D01*
X81007941Y-98575500D01*
X82192059Y-98575500D01*
X82259098Y-98595185D01*
X82279740Y-98611819D01*
X82289707Y-98621786D01*
X82289711Y-98621789D01*
X82420814Y-98709390D01*
X82420827Y-98709397D01*
X82528638Y-98754053D01*
X82566503Y-98769737D01*
X82721153Y-98800499D01*
X82721156Y-98800500D01*
X82721158Y-98800500D01*
X82878844Y-98800500D01*
X82878845Y-98800499D01*
X83033497Y-98769737D01*
X83179179Y-98709394D01*
X83310289Y-98621789D01*
X83421789Y-98510289D01*
X83509394Y-98379179D01*
X83569737Y-98233497D01*
X83600500Y-98078842D01*
X83600500Y-97921158D01*
X83600500Y-97921155D01*
X83600499Y-97921153D01*
X83569738Y-97766510D01*
X83569737Y-97766503D01*
X83551417Y-97722274D01*
X83509397Y-97620827D01*
X83509390Y-97620814D01*
X83421789Y-97489711D01*
X83421786Y-97489707D01*
X83310292Y-97378213D01*
X83310288Y-97378210D01*
X83179185Y-97290609D01*
X83179172Y-97290602D01*
X83033501Y-97230264D01*
X83033489Y-97230261D01*
X82878845Y-97199500D01*
X82878842Y-97199500D01*
X82721158Y-97199500D01*
X82721155Y-97199500D01*
X82566510Y-97230261D01*
X82566498Y-97230264D01*
X82420827Y-97290602D01*
X82420814Y-97290609D01*
X82289711Y-97378210D01*
X82289707Y-97378213D01*
X82279740Y-97388181D01*
X82218417Y-97421666D01*
X82192059Y-97424500D01*
X81007941Y-97424500D01*
X80940902Y-97404815D01*
X80920260Y-97388181D01*
X80910292Y-97378213D01*
X80910288Y-97378210D01*
X80779185Y-97290609D01*
X80779172Y-97290602D01*
X80633501Y-97230264D01*
X80633489Y-97230261D01*
X80478845Y-97199500D01*
X80478842Y-97199500D01*
X80321158Y-97199500D01*
X80321155Y-97199500D01*
X80166510Y-97230261D01*
X80166498Y-97230264D01*
X80020827Y-97290602D01*
X80020814Y-97290609D01*
X79889711Y-97378210D01*
X79889707Y-97378213D01*
X79879740Y-97388181D01*
X79818417Y-97421666D01*
X79792059Y-97424500D01*
X77807941Y-97424500D01*
X77740902Y-97404815D01*
X77720260Y-97388181D01*
X77710292Y-97378213D01*
X77710288Y-97378210D01*
X77579185Y-97290609D01*
X77579172Y-97290602D01*
X77433501Y-97230264D01*
X77433489Y-97230261D01*
X77278845Y-97199500D01*
X77278842Y-97199500D01*
X77121158Y-97199500D01*
X77121155Y-97199500D01*
X76966510Y-97230261D01*
X76966498Y-97230264D01*
X76820827Y-97290602D01*
X76820814Y-97290609D01*
X76689125Y-97378602D01*
X76622447Y-97399480D01*
X76620234Y-97399500D01*
X74579766Y-97399500D01*
X74512727Y-97379815D01*
X74510875Y-97378602D01*
X74379185Y-97290609D01*
X74379172Y-97290602D01*
X74233501Y-97230264D01*
X74233489Y-97230261D01*
X74078845Y-97199500D01*
X74078842Y-97199500D01*
X73921158Y-97199500D01*
X73921155Y-97199500D01*
X73766510Y-97230261D01*
X73766498Y-97230264D01*
X73620827Y-97290602D01*
X73620814Y-97290609D01*
X73489125Y-97378602D01*
X73422447Y-97399480D01*
X73420234Y-97399500D01*
X69851523Y-97399500D01*
X69784484Y-97379815D01*
X69763842Y-97363181D01*
X69763192Y-97362531D01*
X69763188Y-97362528D01*
X69632085Y-97274927D01*
X69632072Y-97274920D01*
X69486401Y-97214582D01*
X69486389Y-97214579D01*
X69331745Y-97183818D01*
X69331742Y-97183818D01*
X69174058Y-97183818D01*
X69174055Y-97183818D01*
X69019410Y-97214579D01*
X69019398Y-97214582D01*
X68873727Y-97274920D01*
X68873714Y-97274927D01*
X68742611Y-97362528D01*
X68742607Y-97362531D01*
X68741958Y-97363181D01*
X68741534Y-97363412D01*
X68737901Y-97366394D01*
X68737335Y-97365705D01*
X68680635Y-97396666D01*
X68654277Y-97399500D01*
X65035841Y-97399500D01*
X64968802Y-97379815D01*
X64948160Y-97363181D01*
X64938192Y-97353213D01*
X64938188Y-97353210D01*
X64807085Y-97265609D01*
X64807072Y-97265602D01*
X64661401Y-97205264D01*
X64661389Y-97205261D01*
X64506745Y-97174500D01*
X64506742Y-97174500D01*
X64349058Y-97174500D01*
X64349055Y-97174500D01*
X64194410Y-97205261D01*
X64194398Y-97205264D01*
X64048727Y-97265602D01*
X64048714Y-97265609D01*
X63917611Y-97353210D01*
X63917607Y-97353213D01*
X63907640Y-97363181D01*
X63846317Y-97396666D01*
X63819959Y-97399500D01*
X61835841Y-97399500D01*
X61768802Y-97379815D01*
X61748160Y-97363181D01*
X61738192Y-97353213D01*
X61738188Y-97353210D01*
X61607085Y-97265609D01*
X61607072Y-97265602D01*
X61461401Y-97205264D01*
X61461389Y-97205261D01*
X61306745Y-97174500D01*
X61306742Y-97174500D01*
X61149058Y-97174500D01*
X61149055Y-97174500D01*
X60994410Y-97205261D01*
X60994398Y-97205264D01*
X60848727Y-97265602D01*
X60848714Y-97265609D01*
X60717611Y-97353210D01*
X60717607Y-97353213D01*
X60707640Y-97363181D01*
X60646317Y-97396666D01*
X60619959Y-97399500D01*
X59585841Y-97399500D01*
X59518802Y-97379815D01*
X59498160Y-97363181D01*
X59488192Y-97353213D01*
X59488188Y-97353210D01*
X59357085Y-97265609D01*
X59357072Y-97265602D01*
X59211401Y-97205264D01*
X59211389Y-97205261D01*
X59056745Y-97174500D01*
X59056742Y-97174500D01*
X58899058Y-97174500D01*
X58899055Y-97174500D01*
X58744410Y-97205261D01*
X58744398Y-97205264D01*
X58598727Y-97265602D01*
X58598714Y-97265609D01*
X58467611Y-97353210D01*
X58467607Y-97353213D01*
X58356113Y-97464707D01*
X58356110Y-97464711D01*
X58268509Y-97595814D01*
X58268502Y-97595827D01*
X58208164Y-97741498D01*
X58208161Y-97741510D01*
X58177400Y-97896153D01*
X54404679Y-97896153D01*
X54399072Y-97867970D01*
X54399071Y-97867963D01*
X54357048Y-97766510D01*
X54338731Y-97722287D01*
X54338724Y-97722274D01*
X54251123Y-97591171D01*
X54251120Y-97591167D01*
X54139626Y-97479673D01*
X54139622Y-97479670D01*
X54008519Y-97392069D01*
X54008506Y-97392062D01*
X53862835Y-97331724D01*
X53862823Y-97331721D01*
X53708179Y-97300960D01*
X53708176Y-97300960D01*
X53550492Y-97300960D01*
X53550489Y-97300960D01*
X53395844Y-97331721D01*
X53395832Y-97331724D01*
X53250161Y-97392062D01*
X53250148Y-97392069D01*
X53119045Y-97479670D01*
X53119041Y-97479673D01*
X53109074Y-97489641D01*
X53047751Y-97523126D01*
X53021393Y-97525960D01*
X51257375Y-97525960D01*
X51190336Y-97506275D01*
X51169694Y-97489641D01*
X51159726Y-97479673D01*
X51159722Y-97479670D01*
X51028619Y-97392069D01*
X51028606Y-97392062D01*
X50882935Y-97331724D01*
X50882923Y-97331721D01*
X50728279Y-97300960D01*
X50728276Y-97300960D01*
X50570592Y-97300960D01*
X50570589Y-97300960D01*
X50415944Y-97331721D01*
X50415932Y-97331724D01*
X50270261Y-97392062D01*
X50270248Y-97392069D01*
X50139145Y-97479670D01*
X50139141Y-97479673D01*
X50129174Y-97489641D01*
X50067851Y-97523126D01*
X50041493Y-97525960D01*
X48007375Y-97525960D01*
X47940336Y-97506275D01*
X47919694Y-97489641D01*
X47909726Y-97479673D01*
X47909722Y-97479670D01*
X47778619Y-97392069D01*
X47778606Y-97392062D01*
X47632935Y-97331724D01*
X47632923Y-97331721D01*
X47478279Y-97300960D01*
X47478276Y-97300960D01*
X47320592Y-97300960D01*
X47320589Y-97300960D01*
X47165944Y-97331721D01*
X47165932Y-97331724D01*
X47020261Y-97392062D01*
X47020248Y-97392069D01*
X46889145Y-97479670D01*
X46889141Y-97479673D01*
X46879174Y-97489641D01*
X46817851Y-97523126D01*
X46791493Y-97525960D01*
X44757375Y-97525960D01*
X44690336Y-97506275D01*
X44669694Y-97489641D01*
X44659726Y-97479673D01*
X44659722Y-97479670D01*
X44528619Y-97392069D01*
X44528606Y-97392062D01*
X44382935Y-97331724D01*
X44382923Y-97331721D01*
X44228279Y-97300960D01*
X44228276Y-97300960D01*
X44070592Y-97300960D01*
X44070589Y-97300960D01*
X43915944Y-97331721D01*
X43915932Y-97331724D01*
X43770261Y-97392062D01*
X43770248Y-97392069D01*
X43639145Y-97479670D01*
X43639141Y-97479673D01*
X43629174Y-97489641D01*
X43567851Y-97523126D01*
X43541493Y-97525960D01*
X40807375Y-97525960D01*
X40740336Y-97506275D01*
X40719694Y-97489641D01*
X40709726Y-97479673D01*
X40709722Y-97479670D01*
X40578619Y-97392069D01*
X40578606Y-97392062D01*
X40432935Y-97331724D01*
X40432923Y-97331721D01*
X40278279Y-97300960D01*
X40278276Y-97300960D01*
X40120592Y-97300960D01*
X40120589Y-97300960D01*
X39965944Y-97331721D01*
X39965932Y-97331724D01*
X39820261Y-97392062D01*
X39820248Y-97392069D01*
X39689145Y-97479670D01*
X39689141Y-97479673D01*
X39679174Y-97489641D01*
X39617851Y-97523126D01*
X39591493Y-97525960D01*
X35857375Y-97525960D01*
X35790336Y-97506275D01*
X35769694Y-97489641D01*
X35759726Y-97479673D01*
X35759722Y-97479670D01*
X35628619Y-97392069D01*
X35628606Y-97392062D01*
X35482935Y-97331724D01*
X35482923Y-97331721D01*
X35328279Y-97300960D01*
X35328276Y-97300960D01*
X35170592Y-97300960D01*
X35170589Y-97300960D01*
X35015944Y-97331721D01*
X35015932Y-97331724D01*
X34870261Y-97392062D01*
X34870248Y-97392069D01*
X34739145Y-97479670D01*
X34739141Y-97479673D01*
X34729174Y-97489641D01*
X34667851Y-97523126D01*
X34641493Y-97525960D01*
X32657375Y-97525960D01*
X32590336Y-97506275D01*
X32569694Y-97489641D01*
X32559726Y-97479673D01*
X32559722Y-97479670D01*
X32428619Y-97392069D01*
X32428606Y-97392062D01*
X32282935Y-97331724D01*
X32282923Y-97331721D01*
X32128279Y-97300960D01*
X32128276Y-97300960D01*
X31970592Y-97300960D01*
X31970589Y-97300960D01*
X31815944Y-97331721D01*
X31815932Y-97331724D01*
X31670261Y-97392062D01*
X31670248Y-97392069D01*
X31539145Y-97479670D01*
X31539141Y-97479673D01*
X31529174Y-97489641D01*
X31467851Y-97523126D01*
X31441493Y-97525960D01*
X30607941Y-97525960D01*
X30540902Y-97506275D01*
X30520260Y-97489641D01*
X30510292Y-97479673D01*
X30510288Y-97479670D01*
X30379185Y-97392069D01*
X30379172Y-97392062D01*
X30233501Y-97331724D01*
X30233489Y-97331721D01*
X30078845Y-97300960D01*
X30078842Y-97300960D01*
X29921158Y-97300960D01*
X29921155Y-97300960D01*
X29766510Y-97331721D01*
X29766498Y-97331724D01*
X29620827Y-97392062D01*
X29620814Y-97392069D01*
X29489711Y-97479670D01*
X29489707Y-97479673D01*
X29378213Y-97591167D01*
X29378210Y-97591171D01*
X29290609Y-97722274D01*
X29290602Y-97722287D01*
X29230264Y-97867958D01*
X29230261Y-97867970D01*
X29199500Y-98022613D01*
X27374467Y-98022613D01*
X27369321Y-94772613D01*
X29199500Y-94772613D01*
X29199500Y-94930306D01*
X29230261Y-95084949D01*
X29230264Y-95084961D01*
X29290602Y-95230632D01*
X29290609Y-95230645D01*
X29378210Y-95361748D01*
X29378213Y-95361752D01*
X29489707Y-95473246D01*
X29489711Y-95473249D01*
X29620814Y-95560850D01*
X29620827Y-95560857D01*
X29766498Y-95621195D01*
X29766503Y-95621197D01*
X29921153Y-95651959D01*
X29921156Y-95651960D01*
X29921158Y-95651960D01*
X30078844Y-95651960D01*
X30078845Y-95651959D01*
X30233497Y-95621197D01*
X30379179Y-95560854D01*
X30510289Y-95473249D01*
X30510292Y-95473246D01*
X30520260Y-95463279D01*
X30581583Y-95429794D01*
X30607941Y-95426960D01*
X31441493Y-95426960D01*
X31508532Y-95446645D01*
X31529174Y-95463279D01*
X31539141Y-95473246D01*
X31539145Y-95473249D01*
X31670248Y-95560850D01*
X31670261Y-95560857D01*
X31815932Y-95621195D01*
X31815937Y-95621197D01*
X31970587Y-95651959D01*
X31970590Y-95651960D01*
X31970592Y-95651960D01*
X32128278Y-95651960D01*
X32128279Y-95651959D01*
X32282931Y-95621197D01*
X32428613Y-95560854D01*
X32559723Y-95473249D01*
X32559726Y-95473246D01*
X32569694Y-95463279D01*
X32631017Y-95429794D01*
X32657375Y-95426960D01*
X34641493Y-95426960D01*
X34708532Y-95446645D01*
X34729174Y-95463279D01*
X34739141Y-95473246D01*
X34739145Y-95473249D01*
X34870248Y-95560850D01*
X34870261Y-95560857D01*
X35015932Y-95621195D01*
X35015937Y-95621197D01*
X35170587Y-95651959D01*
X35170590Y-95651960D01*
X35170592Y-95651960D01*
X35328278Y-95651960D01*
X35328279Y-95651959D01*
X35482931Y-95621197D01*
X35628613Y-95560854D01*
X35759723Y-95473249D01*
X35759726Y-95473246D01*
X35769694Y-95463279D01*
X35831017Y-95429794D01*
X35857375Y-95426960D01*
X37991493Y-95426960D01*
X38058532Y-95446645D01*
X38079174Y-95463279D01*
X38089141Y-95473246D01*
X38089145Y-95473249D01*
X38220248Y-95560850D01*
X38220261Y-95560857D01*
X38365932Y-95621195D01*
X38365937Y-95621197D01*
X38520587Y-95651959D01*
X38520590Y-95651960D01*
X38520592Y-95651960D01*
X38678278Y-95651960D01*
X38678279Y-95651959D01*
X38832931Y-95621197D01*
X38978613Y-95560854D01*
X39109723Y-95473249D01*
X39109726Y-95473246D01*
X39119694Y-95463279D01*
X39181017Y-95429794D01*
X39207375Y-95426960D01*
X42891493Y-95426960D01*
X42958532Y-95446645D01*
X42979174Y-95463279D01*
X42989141Y-95473246D01*
X42989145Y-95473249D01*
X43120248Y-95560850D01*
X43120261Y-95560857D01*
X43265932Y-95621195D01*
X43265937Y-95621197D01*
X43420587Y-95651959D01*
X43420590Y-95651960D01*
X43420592Y-95651960D01*
X43578278Y-95651960D01*
X43578279Y-95651959D01*
X43732931Y-95621197D01*
X43878613Y-95560854D01*
X44009723Y-95473249D01*
X44009726Y-95473246D01*
X44019694Y-95463279D01*
X44081017Y-95429794D01*
X44107375Y-95426960D01*
X46791493Y-95426960D01*
X46858532Y-95446645D01*
X46879174Y-95463279D01*
X46889141Y-95473246D01*
X46889145Y-95473249D01*
X47020248Y-95560850D01*
X47020261Y-95560857D01*
X47165932Y-95621195D01*
X47165937Y-95621197D01*
X47320587Y-95651959D01*
X47320590Y-95651960D01*
X47320592Y-95651960D01*
X47478278Y-95651960D01*
X47478279Y-95651959D01*
X47632931Y-95621197D01*
X47778613Y-95560854D01*
X47909723Y-95473249D01*
X47909726Y-95473246D01*
X47919694Y-95463279D01*
X47981017Y-95429794D01*
X48007375Y-95426960D01*
X50041493Y-95426960D01*
X50108532Y-95446645D01*
X50129174Y-95463279D01*
X50139141Y-95473246D01*
X50139145Y-95473249D01*
X50270248Y-95560850D01*
X50270261Y-95560857D01*
X50415932Y-95621195D01*
X50415937Y-95621197D01*
X50570587Y-95651959D01*
X50570590Y-95651960D01*
X50570592Y-95651960D01*
X50728278Y-95651960D01*
X50728279Y-95651959D01*
X50882931Y-95621197D01*
X51028613Y-95560854D01*
X51159723Y-95473249D01*
X51159726Y-95473246D01*
X51169694Y-95463279D01*
X51231017Y-95429794D01*
X51257375Y-95426960D01*
X53021393Y-95426960D01*
X53088432Y-95446645D01*
X53109074Y-95463279D01*
X53119041Y-95473246D01*
X53119045Y-95473249D01*
X53250148Y-95560850D01*
X53250161Y-95560857D01*
X53395832Y-95621195D01*
X53395837Y-95621197D01*
X53550487Y-95651959D01*
X53550490Y-95651960D01*
X53550492Y-95651960D01*
X53708178Y-95651960D01*
X53708179Y-95651959D01*
X53862831Y-95621197D01*
X54008513Y-95560854D01*
X54139623Y-95473249D01*
X54251123Y-95361749D01*
X54338728Y-95230639D01*
X54399071Y-95084957D01*
X54429834Y-94930302D01*
X54429834Y-94772618D01*
X54429834Y-94772615D01*
X54429833Y-94772613D01*
X54418226Y-94714257D01*
X54414625Y-94696153D01*
X58177400Y-94696153D01*
X58177400Y-94853846D01*
X58208161Y-95008489D01*
X58208164Y-95008501D01*
X58268502Y-95154172D01*
X58268509Y-95154185D01*
X58356110Y-95285288D01*
X58356113Y-95285292D01*
X58467607Y-95396786D01*
X58467611Y-95396789D01*
X58598714Y-95484390D01*
X58598727Y-95484397D01*
X58744398Y-95544735D01*
X58744403Y-95544737D01*
X58870076Y-95569735D01*
X58899053Y-95575499D01*
X58899056Y-95575500D01*
X58899058Y-95575500D01*
X59056744Y-95575500D01*
X59056745Y-95575499D01*
X59211397Y-95544737D01*
X59357079Y-95484394D01*
X59488189Y-95396789D01*
X59488192Y-95396786D01*
X59498160Y-95386819D01*
X59559483Y-95353334D01*
X59585841Y-95350500D01*
X60619959Y-95350500D01*
X60686998Y-95370185D01*
X60707640Y-95386819D01*
X60717607Y-95396786D01*
X60717611Y-95396789D01*
X60848714Y-95484390D01*
X60848727Y-95484397D01*
X60994398Y-95544735D01*
X60994403Y-95544737D01*
X61120076Y-95569735D01*
X61149053Y-95575499D01*
X61149056Y-95575500D01*
X61149058Y-95575500D01*
X61306744Y-95575500D01*
X61306745Y-95575499D01*
X61461397Y-95544737D01*
X61607079Y-95484394D01*
X61738189Y-95396789D01*
X61738192Y-95396786D01*
X61748160Y-95386819D01*
X61809483Y-95353334D01*
X61835841Y-95350500D01*
X63819959Y-95350500D01*
X63886998Y-95370185D01*
X63907640Y-95386819D01*
X63917607Y-95396786D01*
X63917611Y-95396789D01*
X64048714Y-95484390D01*
X64048727Y-95484397D01*
X64194398Y-95544735D01*
X64194403Y-95544737D01*
X64320076Y-95569735D01*
X64349053Y-95575499D01*
X64349056Y-95575500D01*
X64349058Y-95575500D01*
X64506744Y-95575500D01*
X64506745Y-95575499D01*
X64661397Y-95544737D01*
X64807079Y-95484394D01*
X64938189Y-95396789D01*
X64938192Y-95396786D01*
X64948160Y-95386819D01*
X65009483Y-95353334D01*
X65035841Y-95350500D01*
X67019959Y-95350500D01*
X67086998Y-95370185D01*
X67107640Y-95386819D01*
X67117607Y-95396786D01*
X67117611Y-95396789D01*
X67248714Y-95484390D01*
X67248727Y-95484397D01*
X67394398Y-95544735D01*
X67394403Y-95544737D01*
X67520076Y-95569735D01*
X67549053Y-95575499D01*
X67549056Y-95575500D01*
X67549058Y-95575500D01*
X67706744Y-95575500D01*
X67706745Y-95575499D01*
X67861397Y-95544737D01*
X68007079Y-95484394D01*
X68138189Y-95396789D01*
X68138192Y-95396786D01*
X68148160Y-95386819D01*
X68209483Y-95353334D01*
X68235841Y-95350500D01*
X71869959Y-95350500D01*
X71936998Y-95370185D01*
X71957640Y-95386819D01*
X71967607Y-95396786D01*
X71967611Y-95396789D01*
X72098714Y-95484390D01*
X72098727Y-95484397D01*
X72244398Y-95544735D01*
X72244403Y-95544737D01*
X72370076Y-95569735D01*
X72399053Y-95575499D01*
X72399056Y-95575500D01*
X72399058Y-95575500D01*
X72556744Y-95575500D01*
X72556745Y-95575499D01*
X72711397Y-95544737D01*
X72857079Y-95484394D01*
X72988189Y-95396789D01*
X72988192Y-95396786D01*
X72998160Y-95386819D01*
X73059483Y-95353334D01*
X73085841Y-95350500D01*
X76569960Y-95350500D01*
X76636999Y-95370185D01*
X76657636Y-95386814D01*
X76692608Y-95421786D01*
X76717612Y-95446790D01*
X76848714Y-95534390D01*
X76848727Y-95534397D01*
X76947960Y-95575500D01*
X76994403Y-95594737D01*
X77127426Y-95621197D01*
X77149053Y-95625499D01*
X77149056Y-95625500D01*
X77149058Y-95625500D01*
X77306744Y-95625500D01*
X77306745Y-95625499D01*
X77461397Y-95594737D01*
X77607079Y-95534394D01*
X77738189Y-95446789D01*
X77798160Y-95386817D01*
X77859481Y-95353334D01*
X77885840Y-95350500D01*
X79767060Y-95350500D01*
X79834099Y-95370185D01*
X79854742Y-95386820D01*
X79889707Y-95421786D01*
X79889711Y-95421789D01*
X80020814Y-95509390D01*
X80020827Y-95509397D01*
X80166498Y-95569735D01*
X80166503Y-95569737D01*
X80292176Y-95594735D01*
X80321153Y-95600499D01*
X80321156Y-95600500D01*
X80321158Y-95600500D01*
X80478844Y-95600500D01*
X80478845Y-95600499D01*
X80633497Y-95569737D01*
X80779179Y-95509394D01*
X80910289Y-95421789D01*
X80945258Y-95386820D01*
X81006580Y-95353334D01*
X81032940Y-95350500D01*
X82167060Y-95350500D01*
X82234099Y-95370185D01*
X82254742Y-95386820D01*
X82289707Y-95421786D01*
X82289711Y-95421789D01*
X82420814Y-95509390D01*
X82420827Y-95509397D01*
X82566498Y-95569735D01*
X82566503Y-95569737D01*
X82692176Y-95594735D01*
X82721153Y-95600499D01*
X82721156Y-95600500D01*
X82721158Y-95600500D01*
X82878844Y-95600500D01*
X82878845Y-95600499D01*
X83033497Y-95569737D01*
X83179179Y-95509394D01*
X83310289Y-95421789D01*
X83421789Y-95310289D01*
X83509394Y-95179179D01*
X83569737Y-95033497D01*
X83600500Y-94878842D01*
X83600500Y-94721158D01*
X83600500Y-94721155D01*
X83600499Y-94721153D01*
X83569738Y-94566510D01*
X83569737Y-94566503D01*
X83530712Y-94472287D01*
X83509397Y-94420827D01*
X83509390Y-94420814D01*
X83421789Y-94289711D01*
X83421786Y-94289707D01*
X83310292Y-94178213D01*
X83310288Y-94178210D01*
X83179185Y-94090609D01*
X83179172Y-94090602D01*
X83033501Y-94030264D01*
X83033489Y-94030261D01*
X82878845Y-93999500D01*
X82878842Y-93999500D01*
X82721158Y-93999500D01*
X82721155Y-93999500D01*
X82566510Y-94030261D01*
X82566498Y-94030264D01*
X82420827Y-94090602D01*
X82420814Y-94090609D01*
X82289125Y-94178602D01*
X82222447Y-94199480D01*
X82220234Y-94199500D01*
X80979766Y-94199500D01*
X80912727Y-94179815D01*
X80910875Y-94178602D01*
X80779185Y-94090609D01*
X80779172Y-94090602D01*
X80633501Y-94030264D01*
X80633489Y-94030261D01*
X80478845Y-93999500D01*
X80478842Y-93999500D01*
X80321158Y-93999500D01*
X80321155Y-93999500D01*
X80166510Y-94030261D01*
X80166498Y-94030264D01*
X80020827Y-94090602D01*
X80020814Y-94090609D01*
X79889125Y-94178602D01*
X79822447Y-94199480D01*
X79820234Y-94199500D01*
X77770250Y-94199500D01*
X77703211Y-94179815D01*
X77701359Y-94178602D01*
X77607084Y-94115609D01*
X77607072Y-94115602D01*
X77461401Y-94055264D01*
X77461389Y-94055261D01*
X77306745Y-94024500D01*
X77306742Y-94024500D01*
X77149058Y-94024500D01*
X77149055Y-94024500D01*
X76994410Y-94055261D01*
X76994398Y-94055264D01*
X76848727Y-94115602D01*
X76848715Y-94115609D01*
X76754441Y-94178602D01*
X76687764Y-94199480D01*
X76685550Y-94199500D01*
X73085841Y-94199500D01*
X73018802Y-94179815D01*
X72998160Y-94163181D01*
X72988192Y-94153213D01*
X72988188Y-94153210D01*
X72857085Y-94065609D01*
X72857072Y-94065602D01*
X72711401Y-94005264D01*
X72711389Y-94005261D01*
X72556745Y-93974500D01*
X72556742Y-93974500D01*
X72399058Y-93974500D01*
X72399055Y-93974500D01*
X72244410Y-94005261D01*
X72244398Y-94005264D01*
X72098727Y-94065602D01*
X72098714Y-94065609D01*
X71967611Y-94153210D01*
X71967607Y-94153213D01*
X71957640Y-94163181D01*
X71896317Y-94196666D01*
X71869959Y-94199500D01*
X68235841Y-94199500D01*
X68168802Y-94179815D01*
X68148160Y-94163181D01*
X68138192Y-94153213D01*
X68138188Y-94153210D01*
X68007085Y-94065609D01*
X68007072Y-94065602D01*
X67861401Y-94005264D01*
X67861389Y-94005261D01*
X67706745Y-93974500D01*
X67706742Y-93974500D01*
X67549058Y-93974500D01*
X67549055Y-93974500D01*
X67394410Y-94005261D01*
X67394398Y-94005264D01*
X67248727Y-94065602D01*
X67248714Y-94065609D01*
X67117611Y-94153210D01*
X67117607Y-94153213D01*
X67107640Y-94163181D01*
X67046317Y-94196666D01*
X67019959Y-94199500D01*
X65035841Y-94199500D01*
X64968802Y-94179815D01*
X64948160Y-94163181D01*
X64938192Y-94153213D01*
X64938188Y-94153210D01*
X64807085Y-94065609D01*
X64807072Y-94065602D01*
X64661401Y-94005264D01*
X64661389Y-94005261D01*
X64506745Y-93974500D01*
X64506742Y-93974500D01*
X64349058Y-93974500D01*
X64349055Y-93974500D01*
X64194410Y-94005261D01*
X64194398Y-94005264D01*
X64048727Y-94065602D01*
X64048714Y-94065609D01*
X63917611Y-94153210D01*
X63917607Y-94153213D01*
X63907640Y-94163181D01*
X63846317Y-94196666D01*
X63819959Y-94199500D01*
X61835841Y-94199500D01*
X61768802Y-94179815D01*
X61748160Y-94163181D01*
X61738192Y-94153213D01*
X61738188Y-94153210D01*
X61607085Y-94065609D01*
X61607072Y-94065602D01*
X61461401Y-94005264D01*
X61461389Y-94005261D01*
X61306745Y-93974500D01*
X61306742Y-93974500D01*
X61149058Y-93974500D01*
X61149055Y-93974500D01*
X60994410Y-94005261D01*
X60994398Y-94005264D01*
X60848727Y-94065602D01*
X60848714Y-94065609D01*
X60717611Y-94153210D01*
X60717607Y-94153213D01*
X60707640Y-94163181D01*
X60646317Y-94196666D01*
X60619959Y-94199500D01*
X59585841Y-94199500D01*
X59518802Y-94179815D01*
X59498160Y-94163181D01*
X59488192Y-94153213D01*
X59488188Y-94153210D01*
X59357085Y-94065609D01*
X59357072Y-94065602D01*
X59211401Y-94005264D01*
X59211389Y-94005261D01*
X59056745Y-93974500D01*
X59056742Y-93974500D01*
X58899058Y-93974500D01*
X58899055Y-93974500D01*
X58744410Y-94005261D01*
X58744398Y-94005264D01*
X58598727Y-94065602D01*
X58598714Y-94065609D01*
X58467611Y-94153210D01*
X58467607Y-94153213D01*
X58356113Y-94264707D01*
X58356110Y-94264711D01*
X58268509Y-94395814D01*
X58268502Y-94395827D01*
X58208164Y-94541498D01*
X58208161Y-94541510D01*
X58177400Y-94696153D01*
X54414625Y-94696153D01*
X54399072Y-94617968D01*
X54399071Y-94617967D01*
X54399071Y-94617963D01*
X54377754Y-94566498D01*
X54338731Y-94472287D01*
X54338724Y-94472274D01*
X54251123Y-94341171D01*
X54251120Y-94341167D01*
X54139626Y-94229673D01*
X54139622Y-94229670D01*
X54008519Y-94142069D01*
X54008506Y-94142062D01*
X53862835Y-94081724D01*
X53862823Y-94081721D01*
X53708179Y-94050960D01*
X53708176Y-94050960D01*
X53550492Y-94050960D01*
X53550489Y-94050960D01*
X53395844Y-94081721D01*
X53395832Y-94081724D01*
X53250161Y-94142062D01*
X53250148Y-94142069D01*
X53119045Y-94229670D01*
X53119041Y-94229673D01*
X53109074Y-94239641D01*
X53047751Y-94273126D01*
X53021393Y-94275960D01*
X51257375Y-94275960D01*
X51190336Y-94256275D01*
X51169694Y-94239641D01*
X51159726Y-94229673D01*
X51159722Y-94229670D01*
X51028619Y-94142069D01*
X51028606Y-94142062D01*
X50882935Y-94081724D01*
X50882923Y-94081721D01*
X50728279Y-94050960D01*
X50728276Y-94050960D01*
X50570592Y-94050960D01*
X50570589Y-94050960D01*
X50415944Y-94081721D01*
X50415932Y-94081724D01*
X50270261Y-94142062D01*
X50270248Y-94142069D01*
X50139145Y-94229670D01*
X50139141Y-94229673D01*
X50129174Y-94239641D01*
X50067851Y-94273126D01*
X50041493Y-94275960D01*
X48007375Y-94275960D01*
X47940336Y-94256275D01*
X47919694Y-94239641D01*
X47909726Y-94229673D01*
X47909722Y-94229670D01*
X47778619Y-94142069D01*
X47778606Y-94142062D01*
X47632935Y-94081724D01*
X47632923Y-94081721D01*
X47478279Y-94050960D01*
X47478276Y-94050960D01*
X47320592Y-94050960D01*
X47320589Y-94050960D01*
X47165944Y-94081721D01*
X47165932Y-94081724D01*
X47020261Y-94142062D01*
X47020248Y-94142069D01*
X46889145Y-94229670D01*
X46889141Y-94229673D01*
X46879174Y-94239641D01*
X46817851Y-94273126D01*
X46791493Y-94275960D01*
X44107375Y-94275960D01*
X44040336Y-94256275D01*
X44019694Y-94239641D01*
X44009726Y-94229673D01*
X44009722Y-94229670D01*
X43878619Y-94142069D01*
X43878606Y-94142062D01*
X43732935Y-94081724D01*
X43732923Y-94081721D01*
X43578279Y-94050960D01*
X43578276Y-94050960D01*
X43420592Y-94050960D01*
X43420589Y-94050960D01*
X43265944Y-94081721D01*
X43265932Y-94081724D01*
X43120261Y-94142062D01*
X43120248Y-94142069D01*
X42989145Y-94229670D01*
X42989141Y-94229673D01*
X42979174Y-94239641D01*
X42917851Y-94273126D01*
X42891493Y-94275960D01*
X39207375Y-94275960D01*
X39140336Y-94256275D01*
X39119694Y-94239641D01*
X39109726Y-94229673D01*
X39109722Y-94229670D01*
X38978619Y-94142069D01*
X38978606Y-94142062D01*
X38832935Y-94081724D01*
X38832923Y-94081721D01*
X38678279Y-94050960D01*
X38678276Y-94050960D01*
X38520592Y-94050960D01*
X38520589Y-94050960D01*
X38365944Y-94081721D01*
X38365932Y-94081724D01*
X38220261Y-94142062D01*
X38220248Y-94142069D01*
X38089145Y-94229670D01*
X38089141Y-94229673D01*
X38079174Y-94239641D01*
X38017851Y-94273126D01*
X37991493Y-94275960D01*
X35857375Y-94275960D01*
X35790336Y-94256275D01*
X35769694Y-94239641D01*
X35759726Y-94229673D01*
X35759722Y-94229670D01*
X35628619Y-94142069D01*
X35628606Y-94142062D01*
X35482935Y-94081724D01*
X35482923Y-94081721D01*
X35328279Y-94050960D01*
X35328276Y-94050960D01*
X35170592Y-94050960D01*
X35170589Y-94050960D01*
X35015944Y-94081721D01*
X35015932Y-94081724D01*
X34870261Y-94142062D01*
X34870248Y-94142069D01*
X34739145Y-94229670D01*
X34739141Y-94229673D01*
X34729174Y-94239641D01*
X34667851Y-94273126D01*
X34641493Y-94275960D01*
X32657375Y-94275960D01*
X32590336Y-94256275D01*
X32569694Y-94239641D01*
X32559726Y-94229673D01*
X32559722Y-94229670D01*
X32428619Y-94142069D01*
X32428606Y-94142062D01*
X32282935Y-94081724D01*
X32282923Y-94081721D01*
X32128279Y-94050960D01*
X32128276Y-94050960D01*
X31970592Y-94050960D01*
X31970589Y-94050960D01*
X31815944Y-94081721D01*
X31815932Y-94081724D01*
X31670261Y-94142062D01*
X31670248Y-94142069D01*
X31539145Y-94229670D01*
X31539141Y-94229673D01*
X31529174Y-94239641D01*
X31467851Y-94273126D01*
X31441493Y-94275960D01*
X30607941Y-94275960D01*
X30540902Y-94256275D01*
X30520260Y-94239641D01*
X30510292Y-94229673D01*
X30510288Y-94229670D01*
X30379185Y-94142069D01*
X30379172Y-94142062D01*
X30233501Y-94081724D01*
X30233489Y-94081721D01*
X30078845Y-94050960D01*
X30078842Y-94050960D01*
X29921158Y-94050960D01*
X29921155Y-94050960D01*
X29766510Y-94081721D01*
X29766498Y-94081724D01*
X29620827Y-94142062D01*
X29620814Y-94142069D01*
X29489711Y-94229670D01*
X29489707Y-94229673D01*
X29378213Y-94341167D01*
X29378210Y-94341171D01*
X29290609Y-94472274D01*
X29290602Y-94472287D01*
X29230264Y-94617958D01*
X29230261Y-94617970D01*
X29199500Y-94772613D01*
X27369321Y-94772613D01*
X27364175Y-91522613D01*
X29199500Y-91522613D01*
X29199500Y-91680306D01*
X29230261Y-91834949D01*
X29230264Y-91834961D01*
X29290602Y-91980632D01*
X29290609Y-91980645D01*
X29378210Y-92111748D01*
X29378213Y-92111752D01*
X29489707Y-92223246D01*
X29489711Y-92223249D01*
X29620814Y-92310850D01*
X29620827Y-92310857D01*
X29766498Y-92371195D01*
X29766503Y-92371197D01*
X29913813Y-92400499D01*
X29921153Y-92401959D01*
X29921156Y-92401960D01*
X29921158Y-92401960D01*
X30078844Y-92401960D01*
X30078845Y-92401959D01*
X30233497Y-92371197D01*
X30379179Y-92310854D01*
X30510289Y-92223249D01*
X30511752Y-92221786D01*
X30520260Y-92213279D01*
X30581583Y-92179794D01*
X30607941Y-92176960D01*
X31541493Y-92176960D01*
X31608532Y-92196645D01*
X31629174Y-92213279D01*
X31639141Y-92223246D01*
X31639145Y-92223249D01*
X31770248Y-92310850D01*
X31770261Y-92310857D01*
X31915932Y-92371195D01*
X31915937Y-92371197D01*
X32063247Y-92400499D01*
X32070587Y-92401959D01*
X32070590Y-92401960D01*
X32070592Y-92401960D01*
X32228278Y-92401960D01*
X32228279Y-92401959D01*
X32382931Y-92371197D01*
X32528613Y-92310854D01*
X32659723Y-92223249D01*
X32661186Y-92221786D01*
X32669694Y-92213279D01*
X32731017Y-92179794D01*
X32757375Y-92176960D01*
X34641494Y-92176960D01*
X34708533Y-92196645D01*
X34729170Y-92213274D01*
X34785085Y-92269189D01*
X34789146Y-92273250D01*
X34920248Y-92360850D01*
X34920261Y-92360857D01*
X35065932Y-92421195D01*
X35065937Y-92421197D01*
X35200176Y-92447899D01*
X35220587Y-92451959D01*
X35220590Y-92451960D01*
X35220592Y-92451960D01*
X35378278Y-92451960D01*
X35378279Y-92451959D01*
X35532931Y-92421197D01*
X35678613Y-92360854D01*
X35809723Y-92273249D01*
X35869694Y-92213277D01*
X35931015Y-92179794D01*
X35957374Y-92176960D01*
X37991493Y-92176960D01*
X38058532Y-92196645D01*
X38079174Y-92213279D01*
X38089141Y-92223246D01*
X38089145Y-92223249D01*
X38220248Y-92310850D01*
X38220261Y-92310857D01*
X38365932Y-92371195D01*
X38365937Y-92371197D01*
X38513247Y-92400499D01*
X38520587Y-92401959D01*
X38520590Y-92401960D01*
X38520592Y-92401960D01*
X38678278Y-92401960D01*
X38678279Y-92401959D01*
X38832931Y-92371197D01*
X38978613Y-92310854D01*
X39109723Y-92223249D01*
X39111186Y-92221786D01*
X39119694Y-92213279D01*
X39181017Y-92179794D01*
X39207375Y-92176960D01*
X41191493Y-92176960D01*
X41258532Y-92196645D01*
X41279174Y-92213279D01*
X41289141Y-92223246D01*
X41289145Y-92223249D01*
X41420248Y-92310850D01*
X41420261Y-92310857D01*
X41565932Y-92371195D01*
X41565937Y-92371197D01*
X41713247Y-92400499D01*
X41720587Y-92401959D01*
X41720590Y-92401960D01*
X41720592Y-92401960D01*
X41878278Y-92401960D01*
X41878279Y-92401959D01*
X42032931Y-92371197D01*
X42178613Y-92310854D01*
X42309723Y-92223249D01*
X42311186Y-92221786D01*
X42319694Y-92213279D01*
X42381017Y-92179794D01*
X42407375Y-92176960D01*
X46041493Y-92176960D01*
X46108532Y-92196645D01*
X46129174Y-92213279D01*
X46139141Y-92223246D01*
X46139145Y-92223249D01*
X46270248Y-92310850D01*
X46270261Y-92310857D01*
X46415932Y-92371195D01*
X46415937Y-92371197D01*
X46563247Y-92400499D01*
X46570587Y-92401959D01*
X46570590Y-92401960D01*
X46570592Y-92401960D01*
X46728278Y-92401960D01*
X46728279Y-92401959D01*
X46882931Y-92371197D01*
X47028613Y-92310854D01*
X47159723Y-92223249D01*
X47161186Y-92221786D01*
X47169694Y-92213279D01*
X47231017Y-92179794D01*
X47257375Y-92176960D01*
X50041493Y-92176960D01*
X50108532Y-92196645D01*
X50129174Y-92213279D01*
X50139141Y-92223246D01*
X50139145Y-92223249D01*
X50270248Y-92310850D01*
X50270261Y-92310857D01*
X50415932Y-92371195D01*
X50415937Y-92371197D01*
X50563247Y-92400499D01*
X50570587Y-92401959D01*
X50570590Y-92401960D01*
X50570592Y-92401960D01*
X50728278Y-92401960D01*
X50728279Y-92401959D01*
X50882931Y-92371197D01*
X51028613Y-92310854D01*
X51159723Y-92223249D01*
X51161186Y-92221786D01*
X51169694Y-92213279D01*
X51231017Y-92179794D01*
X51257375Y-92176960D01*
X53021393Y-92176960D01*
X53088432Y-92196645D01*
X53109074Y-92213279D01*
X53119041Y-92223246D01*
X53119045Y-92223249D01*
X53250148Y-92310850D01*
X53250161Y-92310857D01*
X53395832Y-92371195D01*
X53395837Y-92371197D01*
X53543147Y-92400499D01*
X53550487Y-92401959D01*
X53550490Y-92401960D01*
X53550492Y-92401960D01*
X53708178Y-92401960D01*
X53708179Y-92401959D01*
X53862831Y-92371197D01*
X54008513Y-92310854D01*
X54139623Y-92223249D01*
X54251123Y-92111749D01*
X54338728Y-91980639D01*
X54399071Y-91834957D01*
X54429834Y-91680302D01*
X54429834Y-91522618D01*
X54429834Y-91522615D01*
X54428171Y-91514254D01*
X54428171Y-91514253D01*
X54424571Y-91496153D01*
X58177400Y-91496153D01*
X58177400Y-91653846D01*
X58208161Y-91808489D01*
X58208164Y-91808501D01*
X58268502Y-91954172D01*
X58268509Y-91954185D01*
X58356110Y-92085288D01*
X58356113Y-92085292D01*
X58467607Y-92196786D01*
X58467611Y-92196789D01*
X58598714Y-92284390D01*
X58598727Y-92284397D01*
X58744398Y-92344735D01*
X58744403Y-92344737D01*
X58877426Y-92371197D01*
X58899053Y-92375499D01*
X58899056Y-92375500D01*
X58899058Y-92375500D01*
X59056744Y-92375500D01*
X59056745Y-92375499D01*
X59211397Y-92344737D01*
X59357079Y-92284394D01*
X59373759Y-92273249D01*
X59488775Y-92196398D01*
X59555453Y-92175520D01*
X59557666Y-92175500D01*
X60648134Y-92175500D01*
X60715173Y-92195185D01*
X60717025Y-92196398D01*
X60848714Y-92284390D01*
X60848727Y-92284397D01*
X60994398Y-92344735D01*
X60994403Y-92344737D01*
X61127426Y-92371197D01*
X61149053Y-92375499D01*
X61149056Y-92375500D01*
X61149058Y-92375500D01*
X61306744Y-92375500D01*
X61306745Y-92375499D01*
X61461397Y-92344737D01*
X61607079Y-92284394D01*
X61623759Y-92273249D01*
X61738775Y-92196398D01*
X61805453Y-92175520D01*
X61807666Y-92175500D01*
X63848134Y-92175500D01*
X63915173Y-92195185D01*
X63917025Y-92196398D01*
X64048714Y-92284390D01*
X64048727Y-92284397D01*
X64194398Y-92344735D01*
X64194403Y-92344737D01*
X64327426Y-92371197D01*
X64349053Y-92375499D01*
X64349056Y-92375500D01*
X64349058Y-92375500D01*
X64506744Y-92375500D01*
X64506745Y-92375499D01*
X64661397Y-92344737D01*
X64807079Y-92284394D01*
X64823759Y-92273249D01*
X64938775Y-92196398D01*
X65005453Y-92175520D01*
X65007666Y-92175500D01*
X67048134Y-92175500D01*
X67115173Y-92195185D01*
X67117025Y-92196398D01*
X67248714Y-92284390D01*
X67248727Y-92284397D01*
X67394398Y-92344735D01*
X67394403Y-92344737D01*
X67527426Y-92371197D01*
X67549053Y-92375499D01*
X67549056Y-92375500D01*
X67549058Y-92375500D01*
X67706744Y-92375500D01*
X67706745Y-92375499D01*
X67861397Y-92344737D01*
X68007079Y-92284394D01*
X68023759Y-92273249D01*
X68138775Y-92196398D01*
X68205453Y-92175520D01*
X68207666Y-92175500D01*
X70248134Y-92175500D01*
X70315173Y-92195185D01*
X70317025Y-92196398D01*
X70448714Y-92284390D01*
X70448727Y-92284397D01*
X70594398Y-92344735D01*
X70594403Y-92344737D01*
X70727426Y-92371197D01*
X70749053Y-92375499D01*
X70749056Y-92375500D01*
X70749058Y-92375500D01*
X70906744Y-92375500D01*
X70906745Y-92375499D01*
X71061397Y-92344737D01*
X71207079Y-92284394D01*
X71223759Y-92273249D01*
X71338775Y-92196398D01*
X71405453Y-92175520D01*
X71407666Y-92175500D01*
X75047560Y-92175500D01*
X75114599Y-92195185D01*
X75135236Y-92211814D01*
X75192611Y-92269189D01*
X75192612Y-92269190D01*
X75323714Y-92356790D01*
X75323727Y-92356797D01*
X75432762Y-92401960D01*
X75469403Y-92417137D01*
X75624053Y-92447899D01*
X75624056Y-92447900D01*
X75624058Y-92447900D01*
X75781744Y-92447900D01*
X75781745Y-92447899D01*
X75936397Y-92417137D01*
X76082079Y-92356794D01*
X76213189Y-92269189D01*
X76270560Y-92211817D01*
X76331881Y-92178334D01*
X76358240Y-92175500D01*
X79792059Y-92175500D01*
X79859098Y-92195185D01*
X79879740Y-92211819D01*
X79889707Y-92221786D01*
X79889711Y-92221789D01*
X80020814Y-92309390D01*
X80020827Y-92309397D01*
X80166498Y-92369735D01*
X80166503Y-92369737D01*
X80321153Y-92400499D01*
X80321156Y-92400500D01*
X80321158Y-92400500D01*
X80478844Y-92400500D01*
X80478845Y-92400499D01*
X80633497Y-92369737D01*
X80779179Y-92309394D01*
X80910289Y-92221789D01*
X80910292Y-92221786D01*
X80920260Y-92211819D01*
X80981583Y-92178334D01*
X81007941Y-92175500D01*
X82192059Y-92175500D01*
X82259098Y-92195185D01*
X82279740Y-92211819D01*
X82289707Y-92221786D01*
X82289711Y-92221789D01*
X82420814Y-92309390D01*
X82420827Y-92309397D01*
X82566498Y-92369735D01*
X82566503Y-92369737D01*
X82721153Y-92400499D01*
X82721156Y-92400500D01*
X82721158Y-92400500D01*
X82878844Y-92400500D01*
X82878845Y-92400499D01*
X83033497Y-92369737D01*
X83179179Y-92309394D01*
X83310289Y-92221789D01*
X83421789Y-92110289D01*
X83509394Y-91979179D01*
X83569737Y-91833497D01*
X83600500Y-91678842D01*
X83600500Y-91521158D01*
X83600500Y-91521155D01*
X83600499Y-91521153D01*
X83599127Y-91514254D01*
X83569737Y-91366503D01*
X83559380Y-91341498D01*
X83509397Y-91220827D01*
X83509390Y-91220814D01*
X83421789Y-91089711D01*
X83421786Y-91089707D01*
X83310292Y-90978213D01*
X83310288Y-90978210D01*
X83179185Y-90890609D01*
X83179172Y-90890602D01*
X83033501Y-90830264D01*
X83033489Y-90830261D01*
X82878845Y-90799500D01*
X82878842Y-90799500D01*
X82721158Y-90799500D01*
X82721155Y-90799500D01*
X82566510Y-90830261D01*
X82566498Y-90830264D01*
X82420827Y-90890602D01*
X82420814Y-90890609D01*
X82289711Y-90978210D01*
X82289707Y-90978213D01*
X82279740Y-90988181D01*
X82218417Y-91021666D01*
X82192059Y-91024500D01*
X81007941Y-91024500D01*
X80940902Y-91004815D01*
X80920260Y-90988181D01*
X80910292Y-90978213D01*
X80910288Y-90978210D01*
X80779185Y-90890609D01*
X80779172Y-90890602D01*
X80633501Y-90830264D01*
X80633489Y-90830261D01*
X80478845Y-90799500D01*
X80478842Y-90799500D01*
X80321158Y-90799500D01*
X80321155Y-90799500D01*
X80166510Y-90830261D01*
X80166498Y-90830264D01*
X80020827Y-90890602D01*
X80020814Y-90890609D01*
X79889711Y-90978210D01*
X79889707Y-90978213D01*
X79879740Y-90988181D01*
X79818417Y-91021666D01*
X79792059Y-91024500D01*
X76249141Y-91024500D01*
X76182102Y-91004815D01*
X76180250Y-91003602D01*
X76082084Y-90938009D01*
X76082072Y-90938002D01*
X75936401Y-90877664D01*
X75936389Y-90877661D01*
X75781745Y-90846900D01*
X75781742Y-90846900D01*
X75624058Y-90846900D01*
X75624055Y-90846900D01*
X75469410Y-90877661D01*
X75469398Y-90877664D01*
X75323727Y-90938002D01*
X75323715Y-90938009D01*
X75225550Y-91003602D01*
X75158873Y-91024480D01*
X75156659Y-91024500D01*
X71460840Y-91024500D01*
X71393801Y-91004815D01*
X71373158Y-90988180D01*
X71338192Y-90953213D01*
X71338188Y-90953210D01*
X71207085Y-90865609D01*
X71207072Y-90865602D01*
X71061401Y-90805264D01*
X71061389Y-90805261D01*
X70906745Y-90774500D01*
X70906742Y-90774500D01*
X70749058Y-90774500D01*
X70749055Y-90774500D01*
X70594410Y-90805261D01*
X70594398Y-90805264D01*
X70448727Y-90865602D01*
X70448714Y-90865609D01*
X70317611Y-90953210D01*
X70317607Y-90953213D01*
X70282642Y-90988180D01*
X70221320Y-91021666D01*
X70194960Y-91024500D01*
X68260840Y-91024500D01*
X68193801Y-91004815D01*
X68173158Y-90988180D01*
X68138192Y-90953213D01*
X68138188Y-90953210D01*
X68007085Y-90865609D01*
X68007072Y-90865602D01*
X67861401Y-90805264D01*
X67861389Y-90805261D01*
X67706745Y-90774500D01*
X67706742Y-90774500D01*
X67549058Y-90774500D01*
X67549055Y-90774500D01*
X67394410Y-90805261D01*
X67394398Y-90805264D01*
X67248727Y-90865602D01*
X67248714Y-90865609D01*
X67117611Y-90953210D01*
X67117607Y-90953213D01*
X67082642Y-90988180D01*
X67021320Y-91021666D01*
X66994960Y-91024500D01*
X65060840Y-91024500D01*
X64993801Y-91004815D01*
X64973158Y-90988180D01*
X64938192Y-90953213D01*
X64938188Y-90953210D01*
X64807085Y-90865609D01*
X64807072Y-90865602D01*
X64661401Y-90805264D01*
X64661389Y-90805261D01*
X64506745Y-90774500D01*
X64506742Y-90774500D01*
X64349058Y-90774500D01*
X64349055Y-90774500D01*
X64194410Y-90805261D01*
X64194398Y-90805264D01*
X64048727Y-90865602D01*
X64048714Y-90865609D01*
X63917611Y-90953210D01*
X63917607Y-90953213D01*
X63882642Y-90988180D01*
X63821320Y-91021666D01*
X63794960Y-91024500D01*
X61860840Y-91024500D01*
X61793801Y-91004815D01*
X61773158Y-90988180D01*
X61738192Y-90953213D01*
X61738188Y-90953210D01*
X61607085Y-90865609D01*
X61607072Y-90865602D01*
X61461401Y-90805264D01*
X61461389Y-90805261D01*
X61306745Y-90774500D01*
X61306742Y-90774500D01*
X61149058Y-90774500D01*
X61149055Y-90774500D01*
X60994410Y-90805261D01*
X60994398Y-90805264D01*
X60848727Y-90865602D01*
X60848714Y-90865609D01*
X60717611Y-90953210D01*
X60717607Y-90953213D01*
X60682642Y-90988180D01*
X60621320Y-91021666D01*
X60594960Y-91024500D01*
X59610840Y-91024500D01*
X59543801Y-91004815D01*
X59523158Y-90988180D01*
X59488192Y-90953213D01*
X59488188Y-90953210D01*
X59357085Y-90865609D01*
X59357072Y-90865602D01*
X59211401Y-90805264D01*
X59211389Y-90805261D01*
X59056745Y-90774500D01*
X59056742Y-90774500D01*
X58899058Y-90774500D01*
X58899055Y-90774500D01*
X58744410Y-90805261D01*
X58744398Y-90805264D01*
X58598727Y-90865602D01*
X58598714Y-90865609D01*
X58467611Y-90953210D01*
X58467607Y-90953213D01*
X58356113Y-91064707D01*
X58356110Y-91064711D01*
X58268509Y-91195814D01*
X58268502Y-91195827D01*
X58208164Y-91341498D01*
X58208161Y-91341510D01*
X58177400Y-91496153D01*
X54424571Y-91496153D01*
X54399072Y-91367968D01*
X54399071Y-91367967D01*
X54399071Y-91367963D01*
X54388109Y-91341498D01*
X54338731Y-91222287D01*
X54338724Y-91222274D01*
X54251123Y-91091171D01*
X54251120Y-91091167D01*
X54139626Y-90979673D01*
X54139622Y-90979670D01*
X54008519Y-90892069D01*
X54008506Y-90892062D01*
X53862835Y-90831724D01*
X53862823Y-90831721D01*
X53708179Y-90800960D01*
X53708176Y-90800960D01*
X53550492Y-90800960D01*
X53550489Y-90800960D01*
X53395844Y-90831721D01*
X53395832Y-90831724D01*
X53250161Y-90892062D01*
X53250148Y-90892069D01*
X53119045Y-90979670D01*
X53119041Y-90979673D01*
X53109074Y-90989641D01*
X53047751Y-91023126D01*
X53021393Y-91025960D01*
X51257375Y-91025960D01*
X51190336Y-91006275D01*
X51169694Y-90989641D01*
X51159726Y-90979673D01*
X51159722Y-90979670D01*
X51028619Y-90892069D01*
X51028606Y-90892062D01*
X50882935Y-90831724D01*
X50882923Y-90831721D01*
X50728279Y-90800960D01*
X50728276Y-90800960D01*
X50570592Y-90800960D01*
X50570589Y-90800960D01*
X50415944Y-90831721D01*
X50415932Y-90831724D01*
X50270261Y-90892062D01*
X50270248Y-90892069D01*
X50139145Y-90979670D01*
X50139141Y-90979673D01*
X50129174Y-90989641D01*
X50067851Y-91023126D01*
X50041493Y-91025960D01*
X47257375Y-91025960D01*
X47190336Y-91006275D01*
X47169694Y-90989641D01*
X47159726Y-90979673D01*
X47159722Y-90979670D01*
X47028619Y-90892069D01*
X47028606Y-90892062D01*
X46882935Y-90831724D01*
X46882923Y-90831721D01*
X46728279Y-90800960D01*
X46728276Y-90800960D01*
X46570592Y-90800960D01*
X46570589Y-90800960D01*
X46415944Y-90831721D01*
X46415932Y-90831724D01*
X46270261Y-90892062D01*
X46270248Y-90892069D01*
X46139145Y-90979670D01*
X46139141Y-90979673D01*
X46129174Y-90989641D01*
X46067851Y-91023126D01*
X46041493Y-91025960D01*
X42407375Y-91025960D01*
X42340336Y-91006275D01*
X42319694Y-90989641D01*
X42309726Y-90979673D01*
X42309722Y-90979670D01*
X42178619Y-90892069D01*
X42178606Y-90892062D01*
X42032935Y-90831724D01*
X42032923Y-90831721D01*
X41878279Y-90800960D01*
X41878276Y-90800960D01*
X41720592Y-90800960D01*
X41720589Y-90800960D01*
X41565944Y-90831721D01*
X41565932Y-90831724D01*
X41420261Y-90892062D01*
X41420248Y-90892069D01*
X41289145Y-90979670D01*
X41289141Y-90979673D01*
X41279174Y-90989641D01*
X41217851Y-91023126D01*
X41191493Y-91025960D01*
X39207375Y-91025960D01*
X39140336Y-91006275D01*
X39119694Y-90989641D01*
X39109726Y-90979673D01*
X39109722Y-90979670D01*
X38978619Y-90892069D01*
X38978606Y-90892062D01*
X38832935Y-90831724D01*
X38832923Y-90831721D01*
X38678279Y-90800960D01*
X38678276Y-90800960D01*
X38520592Y-90800960D01*
X38520589Y-90800960D01*
X38365944Y-90831721D01*
X38365932Y-90831724D01*
X38220261Y-90892062D01*
X38220248Y-90892069D01*
X38089145Y-90979670D01*
X38089141Y-90979673D01*
X38079174Y-90989641D01*
X38017851Y-91023126D01*
X37991493Y-91025960D01*
X35841784Y-91025960D01*
X35774745Y-91006275D01*
X35772893Y-91005062D01*
X35678618Y-90942069D01*
X35678606Y-90942062D01*
X35532935Y-90881724D01*
X35532923Y-90881721D01*
X35378279Y-90850960D01*
X35378276Y-90850960D01*
X35220592Y-90850960D01*
X35220589Y-90850960D01*
X35065944Y-90881721D01*
X35065932Y-90881724D01*
X34920261Y-90942062D01*
X34920249Y-90942069D01*
X34825975Y-91005062D01*
X34759298Y-91025940D01*
X34757084Y-91025960D01*
X32757375Y-91025960D01*
X32690336Y-91006275D01*
X32669694Y-90989641D01*
X32659726Y-90979673D01*
X32659722Y-90979670D01*
X32528619Y-90892069D01*
X32528606Y-90892062D01*
X32382935Y-90831724D01*
X32382923Y-90831721D01*
X32228279Y-90800960D01*
X32228276Y-90800960D01*
X32070592Y-90800960D01*
X32070589Y-90800960D01*
X31915944Y-90831721D01*
X31915932Y-90831724D01*
X31770261Y-90892062D01*
X31770248Y-90892069D01*
X31639145Y-90979670D01*
X31639141Y-90979673D01*
X31629174Y-90989641D01*
X31567851Y-91023126D01*
X31541493Y-91025960D01*
X30607941Y-91025960D01*
X30540902Y-91006275D01*
X30520260Y-90989641D01*
X30510292Y-90979673D01*
X30510288Y-90979670D01*
X30379185Y-90892069D01*
X30379172Y-90892062D01*
X30233501Y-90831724D01*
X30233489Y-90831721D01*
X30078845Y-90800960D01*
X30078842Y-90800960D01*
X29921158Y-90800960D01*
X29921155Y-90800960D01*
X29766510Y-90831721D01*
X29766498Y-90831724D01*
X29620827Y-90892062D01*
X29620814Y-90892069D01*
X29489711Y-90979670D01*
X29489707Y-90979673D01*
X29378213Y-91091167D01*
X29378210Y-91091171D01*
X29290609Y-91222274D01*
X29290602Y-91222287D01*
X29230264Y-91367958D01*
X29230261Y-91367970D01*
X29199500Y-91522613D01*
X27364175Y-91522613D01*
X27364166Y-91516722D01*
X27363079Y-90830261D01*
X27359109Y-88322613D01*
X29199500Y-88322613D01*
X29199500Y-88480306D01*
X29230261Y-88634949D01*
X29230264Y-88634961D01*
X29290602Y-88780632D01*
X29290609Y-88780645D01*
X29378210Y-88911748D01*
X29378213Y-88911752D01*
X29489707Y-89023246D01*
X29489711Y-89023249D01*
X29620814Y-89110850D01*
X29620827Y-89110857D01*
X29766498Y-89171195D01*
X29766503Y-89171197D01*
X29857186Y-89189235D01*
X29921153Y-89201959D01*
X29921156Y-89201960D01*
X29921158Y-89201960D01*
X30078844Y-89201960D01*
X30078845Y-89201959D01*
X30233497Y-89171197D01*
X30379179Y-89110854D01*
X30510289Y-89023249D01*
X30511752Y-89021786D01*
X30520260Y-89013279D01*
X30581583Y-88979794D01*
X30607941Y-88976960D01*
X31469393Y-88976960D01*
X31536432Y-88996645D01*
X31557074Y-89013279D01*
X31567041Y-89023246D01*
X31567045Y-89023249D01*
X31698148Y-89110850D01*
X31698161Y-89110857D01*
X31843832Y-89171195D01*
X31843837Y-89171197D01*
X31934520Y-89189235D01*
X31998487Y-89201959D01*
X31998490Y-89201960D01*
X31998492Y-89201960D01*
X32156178Y-89201960D01*
X32156179Y-89201959D01*
X32310831Y-89171197D01*
X32456513Y-89110854D01*
X32587623Y-89023249D01*
X32589086Y-89021786D01*
X32597594Y-89013279D01*
X32658917Y-88979794D01*
X32685275Y-88976960D01*
X34719393Y-88976960D01*
X34786432Y-88996645D01*
X34807074Y-89013279D01*
X34817041Y-89023246D01*
X34817045Y-89023249D01*
X34948148Y-89110850D01*
X34948161Y-89110857D01*
X35093832Y-89171195D01*
X35093837Y-89171197D01*
X35184520Y-89189235D01*
X35248487Y-89201959D01*
X35248490Y-89201960D01*
X35248492Y-89201960D01*
X35406178Y-89201960D01*
X35406179Y-89201959D01*
X35560831Y-89171197D01*
X35706513Y-89110854D01*
X35837623Y-89023249D01*
X35839086Y-89021786D01*
X35847594Y-89013279D01*
X35908917Y-88979794D01*
X35935275Y-88976960D01*
X37991493Y-88976960D01*
X38058532Y-88996645D01*
X38079174Y-89013279D01*
X38089141Y-89023246D01*
X38089145Y-89023249D01*
X38220248Y-89110850D01*
X38220261Y-89110857D01*
X38365932Y-89171195D01*
X38365937Y-89171197D01*
X38456620Y-89189235D01*
X38520587Y-89201959D01*
X38520590Y-89201960D01*
X38520592Y-89201960D01*
X38678278Y-89201960D01*
X38678279Y-89201959D01*
X38832931Y-89171197D01*
X38978613Y-89110854D01*
X39109723Y-89023249D01*
X39111186Y-89021786D01*
X39119694Y-89013279D01*
X39181017Y-88979794D01*
X39207375Y-88976960D01*
X41191493Y-88976960D01*
X41258532Y-88996645D01*
X41279174Y-89013279D01*
X41289141Y-89023246D01*
X41289145Y-89023249D01*
X41420248Y-89110850D01*
X41420261Y-89110857D01*
X41565932Y-89171195D01*
X41565937Y-89171197D01*
X41656620Y-89189235D01*
X41720587Y-89201959D01*
X41720590Y-89201960D01*
X41720592Y-89201960D01*
X41878278Y-89201960D01*
X41878279Y-89201959D01*
X42032931Y-89171197D01*
X42178613Y-89110854D01*
X42309723Y-89023249D01*
X42311186Y-89021786D01*
X42319694Y-89013279D01*
X42381017Y-88979794D01*
X42407375Y-88976960D01*
X44544393Y-88976960D01*
X44611432Y-88996645D01*
X44632074Y-89013279D01*
X44642041Y-89023246D01*
X44642045Y-89023249D01*
X44773148Y-89110850D01*
X44773161Y-89110857D01*
X44918832Y-89171195D01*
X44918837Y-89171197D01*
X45009520Y-89189235D01*
X45073487Y-89201959D01*
X45073490Y-89201960D01*
X45073492Y-89201960D01*
X45231178Y-89201960D01*
X45231179Y-89201959D01*
X45385831Y-89171197D01*
X45531513Y-89110854D01*
X45662623Y-89023249D01*
X45664086Y-89021786D01*
X45672594Y-89013279D01*
X45733917Y-88979794D01*
X45760275Y-88976960D01*
X49269393Y-88976960D01*
X49336432Y-88996645D01*
X49357074Y-89013279D01*
X49367041Y-89023246D01*
X49367045Y-89023249D01*
X49498148Y-89110850D01*
X49498161Y-89110857D01*
X49643832Y-89171195D01*
X49643837Y-89171197D01*
X49734520Y-89189235D01*
X49798487Y-89201959D01*
X49798490Y-89201960D01*
X49798492Y-89201960D01*
X49956178Y-89201960D01*
X49956179Y-89201959D01*
X50110831Y-89171197D01*
X50256513Y-89110854D01*
X50387623Y-89023249D01*
X50389086Y-89021786D01*
X50397594Y-89013279D01*
X50458917Y-88979794D01*
X50485275Y-88976960D01*
X53021393Y-88976960D01*
X53088432Y-88996645D01*
X53109074Y-89013279D01*
X53119041Y-89023246D01*
X53119045Y-89023249D01*
X53250148Y-89110850D01*
X53250161Y-89110857D01*
X53395832Y-89171195D01*
X53395837Y-89171197D01*
X53486520Y-89189235D01*
X53550487Y-89201959D01*
X53550490Y-89201960D01*
X53550492Y-89201960D01*
X53708178Y-89201960D01*
X53708179Y-89201959D01*
X53862831Y-89171197D01*
X54008513Y-89110854D01*
X54139623Y-89023249D01*
X54251123Y-88911749D01*
X54338728Y-88780639D01*
X54399071Y-88634957D01*
X54429834Y-88480302D01*
X54429834Y-88322618D01*
X54429834Y-88322615D01*
X54428171Y-88314254D01*
X54428171Y-88314253D01*
X54424571Y-88296153D01*
X58177400Y-88296153D01*
X58177400Y-88453846D01*
X58208161Y-88608489D01*
X58208164Y-88608501D01*
X58268502Y-88754172D01*
X58268509Y-88754185D01*
X58356110Y-88885288D01*
X58356113Y-88885292D01*
X58467607Y-88996786D01*
X58467611Y-88996789D01*
X58598714Y-89084390D01*
X58598727Y-89084397D01*
X58744398Y-89144735D01*
X58744403Y-89144737D01*
X58877426Y-89171197D01*
X58899053Y-89175499D01*
X58899056Y-89175500D01*
X58899058Y-89175500D01*
X59056744Y-89175500D01*
X59056745Y-89175499D01*
X59211397Y-89144737D01*
X59357079Y-89084394D01*
X59488189Y-88996789D01*
X59523158Y-88961820D01*
X59584480Y-88928334D01*
X59610840Y-88925500D01*
X60594960Y-88925500D01*
X60661999Y-88945185D01*
X60682642Y-88961820D01*
X60717607Y-88996786D01*
X60717611Y-88996789D01*
X60848714Y-89084390D01*
X60848727Y-89084397D01*
X60994398Y-89144735D01*
X60994403Y-89144737D01*
X61127426Y-89171197D01*
X61149053Y-89175499D01*
X61149056Y-89175500D01*
X61149058Y-89175500D01*
X61306744Y-89175500D01*
X61306745Y-89175499D01*
X61461397Y-89144737D01*
X61607079Y-89084394D01*
X61738189Y-88996789D01*
X61773158Y-88961820D01*
X61834480Y-88928334D01*
X61860840Y-88925500D01*
X63794960Y-88925500D01*
X63861999Y-88945185D01*
X63882642Y-88961820D01*
X63917607Y-88996786D01*
X63917611Y-88996789D01*
X64048714Y-89084390D01*
X64048727Y-89084397D01*
X64194398Y-89144735D01*
X64194403Y-89144737D01*
X64327426Y-89171197D01*
X64349053Y-89175499D01*
X64349056Y-89175500D01*
X64349058Y-89175500D01*
X64506744Y-89175500D01*
X64506745Y-89175499D01*
X64661397Y-89144737D01*
X64807079Y-89084394D01*
X64938189Y-88996789D01*
X64973158Y-88961820D01*
X65034480Y-88928334D01*
X65060840Y-88925500D01*
X66994960Y-88925500D01*
X67061999Y-88945185D01*
X67082642Y-88961820D01*
X67117607Y-88996786D01*
X67117611Y-88996789D01*
X67248714Y-89084390D01*
X67248727Y-89084397D01*
X67394398Y-89144735D01*
X67394403Y-89144737D01*
X67527426Y-89171197D01*
X67549053Y-89175499D01*
X67549056Y-89175500D01*
X67549058Y-89175500D01*
X67706744Y-89175500D01*
X67706745Y-89175499D01*
X67861397Y-89144737D01*
X68007079Y-89084394D01*
X68138189Y-88996789D01*
X68173158Y-88961820D01*
X68234480Y-88928334D01*
X68260840Y-88925500D01*
X70194960Y-88925500D01*
X70261999Y-88945185D01*
X70282642Y-88961820D01*
X70317607Y-88996786D01*
X70317611Y-88996789D01*
X70448714Y-89084390D01*
X70448727Y-89084397D01*
X70594398Y-89144735D01*
X70594403Y-89144737D01*
X70727426Y-89171197D01*
X70749053Y-89175499D01*
X70749056Y-89175500D01*
X70749058Y-89175500D01*
X70906744Y-89175500D01*
X70906745Y-89175499D01*
X71061397Y-89144737D01*
X71207079Y-89084394D01*
X71338189Y-88996789D01*
X71373158Y-88961820D01*
X71434480Y-88928334D01*
X71460840Y-88925500D01*
X73394960Y-88925500D01*
X73461999Y-88945185D01*
X73482642Y-88961820D01*
X73517607Y-88996786D01*
X73517611Y-88996789D01*
X73648714Y-89084390D01*
X73648727Y-89084397D01*
X73794398Y-89144735D01*
X73794403Y-89144737D01*
X73927426Y-89171197D01*
X73949053Y-89175499D01*
X73949056Y-89175500D01*
X73949058Y-89175500D01*
X74106744Y-89175500D01*
X74106745Y-89175499D01*
X74261397Y-89144737D01*
X74407079Y-89084394D01*
X74407085Y-89084390D01*
X74538775Y-88996398D01*
X74605453Y-88975520D01*
X74607666Y-88975500D01*
X78300459Y-88975500D01*
X78367498Y-88995185D01*
X78388140Y-89011819D01*
X78417607Y-89041286D01*
X78417611Y-89041289D01*
X78548714Y-89128890D01*
X78548727Y-89128897D01*
X78694398Y-89189235D01*
X78694403Y-89189237D01*
X78849053Y-89219999D01*
X78849056Y-89220000D01*
X78849058Y-89220000D01*
X79006744Y-89220000D01*
X79006745Y-89219999D01*
X79161397Y-89189237D01*
X79307079Y-89128894D01*
X79438189Y-89041289D01*
X79438192Y-89041286D01*
X79467660Y-89011819D01*
X79528983Y-88978334D01*
X79555341Y-88975500D01*
X79724234Y-88975500D01*
X82192059Y-88975500D01*
X82259098Y-88995185D01*
X82279740Y-89011819D01*
X82289707Y-89021786D01*
X82289711Y-89021789D01*
X82420814Y-89109390D01*
X82420827Y-89109397D01*
X82566498Y-89169735D01*
X82566503Y-89169737D01*
X82721153Y-89200499D01*
X82721156Y-89200500D01*
X82721158Y-89200500D01*
X82878844Y-89200500D01*
X82878845Y-89200499D01*
X83033497Y-89169737D01*
X83179179Y-89109394D01*
X83310289Y-89021789D01*
X83421789Y-88910289D01*
X83509394Y-88779179D01*
X83569737Y-88633497D01*
X83600500Y-88478842D01*
X83600500Y-88321158D01*
X83600500Y-88321155D01*
X83600499Y-88321153D01*
X83599127Y-88314254D01*
X83569737Y-88166503D01*
X83559380Y-88141498D01*
X83509397Y-88020827D01*
X83509390Y-88020814D01*
X83421789Y-87889711D01*
X83421786Y-87889707D01*
X83310292Y-87778213D01*
X83310288Y-87778210D01*
X83179185Y-87690609D01*
X83179172Y-87690602D01*
X83033501Y-87630264D01*
X83033489Y-87630261D01*
X82878845Y-87599500D01*
X82878842Y-87599500D01*
X82721158Y-87599500D01*
X82721155Y-87599500D01*
X82566510Y-87630261D01*
X82566498Y-87630264D01*
X82420827Y-87690602D01*
X82420814Y-87690609D01*
X82289711Y-87778210D01*
X82289707Y-87778213D01*
X82279740Y-87788181D01*
X82218417Y-87821666D01*
X82192059Y-87824500D01*
X79515200Y-87824500D01*
X79448161Y-87804815D01*
X79440757Y-87799427D01*
X79307085Y-87710109D01*
X79307072Y-87710102D01*
X79161401Y-87649764D01*
X79161389Y-87649761D01*
X79006745Y-87619000D01*
X79006742Y-87619000D01*
X78849058Y-87619000D01*
X78849055Y-87619000D01*
X78694410Y-87649761D01*
X78694398Y-87649764D01*
X78548727Y-87710102D01*
X78548714Y-87710109D01*
X78412546Y-87801095D01*
X78411563Y-87799625D01*
X78354951Y-87823667D01*
X78340600Y-87824500D01*
X74660840Y-87824500D01*
X74593801Y-87804815D01*
X74573158Y-87788180D01*
X74538192Y-87753213D01*
X74538188Y-87753210D01*
X74407085Y-87665609D01*
X74407072Y-87665602D01*
X74261401Y-87605264D01*
X74261389Y-87605261D01*
X74106745Y-87574500D01*
X74106742Y-87574500D01*
X73949058Y-87574500D01*
X73949055Y-87574500D01*
X73794410Y-87605261D01*
X73794398Y-87605264D01*
X73648727Y-87665602D01*
X73648714Y-87665609D01*
X73517025Y-87753602D01*
X73450347Y-87774480D01*
X73448134Y-87774500D01*
X71407666Y-87774500D01*
X71340627Y-87754815D01*
X71338775Y-87753602D01*
X71207085Y-87665609D01*
X71207072Y-87665602D01*
X71061401Y-87605264D01*
X71061389Y-87605261D01*
X70906745Y-87574500D01*
X70906742Y-87574500D01*
X70749058Y-87574500D01*
X70749055Y-87574500D01*
X70594410Y-87605261D01*
X70594398Y-87605264D01*
X70448727Y-87665602D01*
X70448714Y-87665609D01*
X70317025Y-87753602D01*
X70250347Y-87774480D01*
X70248134Y-87774500D01*
X68207666Y-87774500D01*
X68140627Y-87754815D01*
X68138775Y-87753602D01*
X68007085Y-87665609D01*
X68007072Y-87665602D01*
X67861401Y-87605264D01*
X67861389Y-87605261D01*
X67706745Y-87574500D01*
X67706742Y-87574500D01*
X67549058Y-87574500D01*
X67549055Y-87574500D01*
X67394410Y-87605261D01*
X67394398Y-87605264D01*
X67248727Y-87665602D01*
X67248714Y-87665609D01*
X67117025Y-87753602D01*
X67050347Y-87774480D01*
X67048134Y-87774500D01*
X65007666Y-87774500D01*
X64940627Y-87754815D01*
X64938775Y-87753602D01*
X64807085Y-87665609D01*
X64807072Y-87665602D01*
X64661401Y-87605264D01*
X64661389Y-87605261D01*
X64506745Y-87574500D01*
X64506742Y-87574500D01*
X64349058Y-87574500D01*
X64349055Y-87574500D01*
X64194410Y-87605261D01*
X64194398Y-87605264D01*
X64048727Y-87665602D01*
X64048714Y-87665609D01*
X63917025Y-87753602D01*
X63850347Y-87774480D01*
X63848134Y-87774500D01*
X61807666Y-87774500D01*
X61740627Y-87754815D01*
X61738775Y-87753602D01*
X61607085Y-87665609D01*
X61607072Y-87665602D01*
X61461401Y-87605264D01*
X61461389Y-87605261D01*
X61306745Y-87574500D01*
X61306742Y-87574500D01*
X61149058Y-87574500D01*
X61149055Y-87574500D01*
X60994410Y-87605261D01*
X60994398Y-87605264D01*
X60848727Y-87665602D01*
X60848714Y-87665609D01*
X60717025Y-87753602D01*
X60650347Y-87774480D01*
X60648134Y-87774500D01*
X59557666Y-87774500D01*
X59490627Y-87754815D01*
X59488775Y-87753602D01*
X59357085Y-87665609D01*
X59357072Y-87665602D01*
X59211401Y-87605264D01*
X59211389Y-87605261D01*
X59056745Y-87574500D01*
X59056742Y-87574500D01*
X58899058Y-87574500D01*
X58899055Y-87574500D01*
X58744410Y-87605261D01*
X58744398Y-87605264D01*
X58598727Y-87665602D01*
X58598714Y-87665609D01*
X58467611Y-87753210D01*
X58467607Y-87753213D01*
X58356113Y-87864707D01*
X58356110Y-87864711D01*
X58268509Y-87995814D01*
X58268502Y-87995827D01*
X58208164Y-88141498D01*
X58208161Y-88141510D01*
X58177400Y-88296153D01*
X54424571Y-88296153D01*
X54399072Y-88167968D01*
X54399071Y-88167967D01*
X54399071Y-88167963D01*
X54388109Y-88141498D01*
X54338731Y-88022287D01*
X54338724Y-88022274D01*
X54251123Y-87891171D01*
X54251120Y-87891167D01*
X54139626Y-87779673D01*
X54139622Y-87779670D01*
X54008519Y-87692069D01*
X54008506Y-87692062D01*
X53862835Y-87631724D01*
X53862823Y-87631721D01*
X53708179Y-87600960D01*
X53708176Y-87600960D01*
X53550492Y-87600960D01*
X53550489Y-87600960D01*
X53395844Y-87631721D01*
X53395832Y-87631724D01*
X53250161Y-87692062D01*
X53250148Y-87692069D01*
X53119045Y-87779670D01*
X53119041Y-87779673D01*
X53109074Y-87789641D01*
X53047751Y-87823126D01*
X53021393Y-87825960D01*
X50485275Y-87825960D01*
X50418236Y-87806275D01*
X50397594Y-87789641D01*
X50387626Y-87779673D01*
X50387622Y-87779670D01*
X50256519Y-87692069D01*
X50256506Y-87692062D01*
X50110835Y-87631724D01*
X50110823Y-87631721D01*
X49956179Y-87600960D01*
X49956176Y-87600960D01*
X49798492Y-87600960D01*
X49798489Y-87600960D01*
X49643844Y-87631721D01*
X49643832Y-87631724D01*
X49498161Y-87692062D01*
X49498148Y-87692069D01*
X49367045Y-87779670D01*
X49367041Y-87779673D01*
X49357074Y-87789641D01*
X49295751Y-87823126D01*
X49269393Y-87825960D01*
X45760275Y-87825960D01*
X45693236Y-87806275D01*
X45672594Y-87789641D01*
X45662626Y-87779673D01*
X45662622Y-87779670D01*
X45531519Y-87692069D01*
X45531506Y-87692062D01*
X45385835Y-87631724D01*
X45385823Y-87631721D01*
X45231179Y-87600960D01*
X45231176Y-87600960D01*
X45073492Y-87600960D01*
X45073489Y-87600960D01*
X44918844Y-87631721D01*
X44918832Y-87631724D01*
X44773161Y-87692062D01*
X44773148Y-87692069D01*
X44642045Y-87779670D01*
X44642041Y-87779673D01*
X44632074Y-87789641D01*
X44570751Y-87823126D01*
X44544393Y-87825960D01*
X42407375Y-87825960D01*
X42340336Y-87806275D01*
X42319694Y-87789641D01*
X42309726Y-87779673D01*
X42309722Y-87779670D01*
X42178619Y-87692069D01*
X42178606Y-87692062D01*
X42032935Y-87631724D01*
X42032923Y-87631721D01*
X41878279Y-87600960D01*
X41878276Y-87600960D01*
X41720592Y-87600960D01*
X41720589Y-87600960D01*
X41565944Y-87631721D01*
X41565932Y-87631724D01*
X41420261Y-87692062D01*
X41420248Y-87692069D01*
X41289145Y-87779670D01*
X41289141Y-87779673D01*
X41279174Y-87789641D01*
X41217851Y-87823126D01*
X41191493Y-87825960D01*
X39207375Y-87825960D01*
X39140336Y-87806275D01*
X39119694Y-87789641D01*
X39109726Y-87779673D01*
X39109722Y-87779670D01*
X38978619Y-87692069D01*
X38978606Y-87692062D01*
X38832935Y-87631724D01*
X38832923Y-87631721D01*
X38678279Y-87600960D01*
X38678276Y-87600960D01*
X38520592Y-87600960D01*
X38520589Y-87600960D01*
X38365944Y-87631721D01*
X38365932Y-87631724D01*
X38220261Y-87692062D01*
X38220248Y-87692069D01*
X38089145Y-87779670D01*
X38089141Y-87779673D01*
X38079174Y-87789641D01*
X38017851Y-87823126D01*
X37991493Y-87825960D01*
X35935275Y-87825960D01*
X35868236Y-87806275D01*
X35847594Y-87789641D01*
X35837626Y-87779673D01*
X35837622Y-87779670D01*
X35706519Y-87692069D01*
X35706506Y-87692062D01*
X35560835Y-87631724D01*
X35560823Y-87631721D01*
X35406179Y-87600960D01*
X35406176Y-87600960D01*
X35248492Y-87600960D01*
X35248489Y-87600960D01*
X35093844Y-87631721D01*
X35093832Y-87631724D01*
X34948161Y-87692062D01*
X34948148Y-87692069D01*
X34817045Y-87779670D01*
X34817041Y-87779673D01*
X34807074Y-87789641D01*
X34745751Y-87823126D01*
X34719393Y-87825960D01*
X32685275Y-87825960D01*
X32618236Y-87806275D01*
X32597594Y-87789641D01*
X32587626Y-87779673D01*
X32587622Y-87779670D01*
X32456519Y-87692069D01*
X32456506Y-87692062D01*
X32310835Y-87631724D01*
X32310823Y-87631721D01*
X32156179Y-87600960D01*
X32156176Y-87600960D01*
X31998492Y-87600960D01*
X31998489Y-87600960D01*
X31843844Y-87631721D01*
X31843832Y-87631724D01*
X31698161Y-87692062D01*
X31698148Y-87692069D01*
X31567045Y-87779670D01*
X31567041Y-87779673D01*
X31557074Y-87789641D01*
X31495751Y-87823126D01*
X31469393Y-87825960D01*
X30607941Y-87825960D01*
X30540902Y-87806275D01*
X30520260Y-87789641D01*
X30510292Y-87779673D01*
X30510288Y-87779670D01*
X30379185Y-87692069D01*
X30379172Y-87692062D01*
X30233501Y-87631724D01*
X30233489Y-87631721D01*
X30078845Y-87600960D01*
X30078842Y-87600960D01*
X29921158Y-87600960D01*
X29921155Y-87600960D01*
X29766510Y-87631721D01*
X29766498Y-87631724D01*
X29620827Y-87692062D01*
X29620814Y-87692069D01*
X29489711Y-87779670D01*
X29489707Y-87779673D01*
X29378213Y-87891167D01*
X29378210Y-87891171D01*
X29290609Y-88022274D01*
X29290602Y-88022287D01*
X29230264Y-88167958D01*
X29230261Y-88167970D01*
X29199500Y-88322613D01*
X27359109Y-88322613D01*
X27354042Y-85122613D01*
X29199500Y-85122613D01*
X29199500Y-85280306D01*
X29230261Y-85434949D01*
X29230264Y-85434961D01*
X29290602Y-85580632D01*
X29290609Y-85580645D01*
X29378210Y-85711748D01*
X29378213Y-85711752D01*
X29489707Y-85823246D01*
X29489711Y-85823249D01*
X29620814Y-85910850D01*
X29620827Y-85910857D01*
X29766498Y-85971195D01*
X29766503Y-85971197D01*
X29892176Y-85996195D01*
X29921153Y-86001959D01*
X29921156Y-86001960D01*
X29921158Y-86001960D01*
X30078844Y-86001960D01*
X30078845Y-86001959D01*
X30233497Y-85971197D01*
X30379179Y-85910854D01*
X30510289Y-85823249D01*
X30511752Y-85821786D01*
X30520260Y-85813279D01*
X30581583Y-85779794D01*
X30607941Y-85776960D01*
X31444394Y-85776960D01*
X31511433Y-85796645D01*
X31532076Y-85813280D01*
X31567041Y-85848246D01*
X31567045Y-85848249D01*
X31698148Y-85935850D01*
X31698161Y-85935857D01*
X31843832Y-85996195D01*
X31843837Y-85996197D01*
X31998487Y-86026959D01*
X31998490Y-86026960D01*
X31998492Y-86026960D01*
X32156178Y-86026960D01*
X32156179Y-86026959D01*
X32310831Y-85996197D01*
X32456513Y-85935854D01*
X32587623Y-85848249D01*
X32622592Y-85813280D01*
X32683914Y-85779794D01*
X32710274Y-85776960D01*
X34694394Y-85776960D01*
X34761433Y-85796645D01*
X34782076Y-85813280D01*
X34817041Y-85848246D01*
X34817045Y-85848249D01*
X34948148Y-85935850D01*
X34948161Y-85935857D01*
X35093832Y-85996195D01*
X35093837Y-85996197D01*
X35248487Y-86026959D01*
X35248490Y-86026960D01*
X35248492Y-86026960D01*
X35406178Y-86026960D01*
X35406179Y-86026959D01*
X35560831Y-85996197D01*
X35706513Y-85935854D01*
X35837623Y-85848249D01*
X35872592Y-85813280D01*
X35933914Y-85779794D01*
X35960274Y-85776960D01*
X37991493Y-85776960D01*
X38058532Y-85796645D01*
X38079174Y-85813279D01*
X38089141Y-85823246D01*
X38089145Y-85823249D01*
X38220248Y-85910850D01*
X38220261Y-85910857D01*
X38365932Y-85971195D01*
X38365937Y-85971197D01*
X38491610Y-85996195D01*
X38520587Y-86001959D01*
X38520590Y-86001960D01*
X38520592Y-86001960D01*
X38678278Y-86001960D01*
X38678279Y-86001959D01*
X38832931Y-85971197D01*
X38978613Y-85910854D01*
X39109723Y-85823249D01*
X39111186Y-85821786D01*
X39119694Y-85813279D01*
X39181017Y-85779794D01*
X39207375Y-85776960D01*
X41194394Y-85776960D01*
X41261433Y-85796645D01*
X41282076Y-85813280D01*
X41317041Y-85848246D01*
X41317045Y-85848249D01*
X41448148Y-85935850D01*
X41448161Y-85935857D01*
X41593832Y-85996195D01*
X41593837Y-85996197D01*
X41748487Y-86026959D01*
X41748490Y-86026960D01*
X41748492Y-86026960D01*
X41906178Y-86026960D01*
X41906179Y-86026959D01*
X42060831Y-85996197D01*
X42206513Y-85935854D01*
X42337623Y-85848249D01*
X42372592Y-85813280D01*
X42433914Y-85779794D01*
X42460274Y-85776960D01*
X44444394Y-85776960D01*
X44511433Y-85796645D01*
X44532076Y-85813280D01*
X44567041Y-85848246D01*
X44567045Y-85848249D01*
X44698148Y-85935850D01*
X44698161Y-85935857D01*
X44843832Y-85996195D01*
X44843837Y-85996197D01*
X44998487Y-86026959D01*
X44998490Y-86026960D01*
X44998492Y-86026960D01*
X45156178Y-86026960D01*
X45156179Y-86026959D01*
X45310831Y-85996197D01*
X45456513Y-85935854D01*
X45587623Y-85848249D01*
X45622592Y-85813280D01*
X45683914Y-85779794D01*
X45710274Y-85776960D01*
X47694394Y-85776960D01*
X47761433Y-85796645D01*
X47782076Y-85813280D01*
X47817041Y-85848246D01*
X47817045Y-85848249D01*
X47948148Y-85935850D01*
X47948161Y-85935857D01*
X48093832Y-85996195D01*
X48093837Y-85996197D01*
X48248487Y-86026959D01*
X48248490Y-86026960D01*
X48248492Y-86026960D01*
X48406178Y-86026960D01*
X48406179Y-86026959D01*
X48560831Y-85996197D01*
X48706513Y-85935854D01*
X48837623Y-85848249D01*
X48872592Y-85813280D01*
X48933914Y-85779794D01*
X48960274Y-85776960D01*
X50041493Y-85776960D01*
X50108532Y-85796645D01*
X50129174Y-85813279D01*
X50139141Y-85823246D01*
X50139145Y-85823249D01*
X50270248Y-85910850D01*
X50270261Y-85910857D01*
X50415932Y-85971195D01*
X50415937Y-85971197D01*
X50541610Y-85996195D01*
X50570587Y-86001959D01*
X50570590Y-86001960D01*
X50570592Y-86001960D01*
X50728278Y-86001960D01*
X50728279Y-86001959D01*
X50882931Y-85971197D01*
X51028613Y-85910854D01*
X51159723Y-85823249D01*
X51271223Y-85711749D01*
X51358828Y-85580639D01*
X51419171Y-85434957D01*
X51449934Y-85280302D01*
X51449934Y-85122618D01*
X51449934Y-85122614D01*
X51449643Y-85121153D01*
X58199500Y-85121153D01*
X58199500Y-85278846D01*
X58230261Y-85433489D01*
X58230264Y-85433501D01*
X58290602Y-85579172D01*
X58290609Y-85579185D01*
X58378210Y-85710288D01*
X58378213Y-85710292D01*
X58489707Y-85821786D01*
X58489711Y-85821789D01*
X58620814Y-85909390D01*
X58620827Y-85909397D01*
X58766498Y-85969735D01*
X58766503Y-85969737D01*
X58899526Y-85996197D01*
X58921153Y-86000499D01*
X58921156Y-86000500D01*
X58921158Y-86000500D01*
X59078844Y-86000500D01*
X59078845Y-86000499D01*
X59233497Y-85969737D01*
X59379179Y-85909394D01*
X59510289Y-85821789D01*
X59510292Y-85821786D01*
X59520260Y-85811819D01*
X59581583Y-85778334D01*
X59607941Y-85775500D01*
X60648134Y-85775500D01*
X60715173Y-85795185D01*
X60717025Y-85796398D01*
X60848714Y-85884390D01*
X60848727Y-85884397D01*
X60994398Y-85944735D01*
X60994403Y-85944737D01*
X61127426Y-85971197D01*
X61149053Y-85975499D01*
X61149056Y-85975500D01*
X61149058Y-85975500D01*
X61306744Y-85975500D01*
X61306745Y-85975499D01*
X61461397Y-85944737D01*
X61607079Y-85884394D01*
X61661174Y-85848249D01*
X61738775Y-85796398D01*
X61805453Y-85775520D01*
X61807666Y-85775500D01*
X63848134Y-85775500D01*
X63915173Y-85795185D01*
X63917025Y-85796398D01*
X64048714Y-85884390D01*
X64048727Y-85884397D01*
X64194398Y-85944735D01*
X64194403Y-85944737D01*
X64327426Y-85971197D01*
X64349053Y-85975499D01*
X64349056Y-85975500D01*
X64349058Y-85975500D01*
X64506744Y-85975500D01*
X64506745Y-85975499D01*
X64661397Y-85944737D01*
X64807079Y-85884394D01*
X64861174Y-85848249D01*
X64938775Y-85796398D01*
X65005453Y-85775520D01*
X65007666Y-85775500D01*
X67048134Y-85775500D01*
X67115173Y-85795185D01*
X67117025Y-85796398D01*
X67248714Y-85884390D01*
X67248727Y-85884397D01*
X67394398Y-85944735D01*
X67394403Y-85944737D01*
X67527426Y-85971197D01*
X67549053Y-85975499D01*
X67549056Y-85975500D01*
X67549058Y-85975500D01*
X67706744Y-85975500D01*
X67706745Y-85975499D01*
X67861397Y-85944737D01*
X68007079Y-85884394D01*
X68061174Y-85848249D01*
X68138775Y-85796398D01*
X68205453Y-85775520D01*
X68207666Y-85775500D01*
X70248134Y-85775500D01*
X70315173Y-85795185D01*
X70317025Y-85796398D01*
X70448714Y-85884390D01*
X70448727Y-85884397D01*
X70594398Y-85944735D01*
X70594403Y-85944737D01*
X70727426Y-85971197D01*
X70749053Y-85975499D01*
X70749056Y-85975500D01*
X70749058Y-85975500D01*
X70906744Y-85975500D01*
X70906745Y-85975499D01*
X71061397Y-85944737D01*
X71207079Y-85884394D01*
X71261174Y-85848249D01*
X71338775Y-85796398D01*
X71405453Y-85775520D01*
X71407666Y-85775500D01*
X73448134Y-85775500D01*
X73515173Y-85795185D01*
X73517025Y-85796398D01*
X73648714Y-85884390D01*
X73648727Y-85884397D01*
X73794398Y-85944735D01*
X73794403Y-85944737D01*
X73927426Y-85971197D01*
X73949053Y-85975499D01*
X73949056Y-85975500D01*
X73949058Y-85975500D01*
X74106744Y-85975500D01*
X74106745Y-85975499D01*
X74261397Y-85944737D01*
X74407079Y-85884394D01*
X74461174Y-85848249D01*
X74538775Y-85796398D01*
X74605453Y-85775520D01*
X74607666Y-85775500D01*
X76648134Y-85775500D01*
X76715173Y-85795185D01*
X76717025Y-85796398D01*
X76848714Y-85884390D01*
X76848727Y-85884397D01*
X76994398Y-85944735D01*
X76994403Y-85944737D01*
X77127426Y-85971197D01*
X77149053Y-85975499D01*
X77149056Y-85975500D01*
X77149058Y-85975500D01*
X77306744Y-85975500D01*
X77306745Y-85975499D01*
X77461397Y-85944737D01*
X77607079Y-85884394D01*
X77661174Y-85848249D01*
X77738775Y-85796398D01*
X77805453Y-85775520D01*
X77807666Y-85775500D01*
X79192059Y-85775500D01*
X79259098Y-85795185D01*
X79279740Y-85811819D01*
X79289707Y-85821786D01*
X79289711Y-85821789D01*
X79420814Y-85909390D01*
X79420827Y-85909397D01*
X79566498Y-85969735D01*
X79566503Y-85969737D01*
X79699526Y-85996197D01*
X79721153Y-86000499D01*
X79721156Y-86000500D01*
X79721158Y-86000500D01*
X79878844Y-86000500D01*
X79878845Y-86000499D01*
X80033497Y-85969737D01*
X80179179Y-85909394D01*
X80310289Y-85821789D01*
X80421789Y-85710289D01*
X80509394Y-85579179D01*
X80569737Y-85433497D01*
X80600500Y-85278842D01*
X80600500Y-85121158D01*
X80600500Y-85121155D01*
X80600499Y-85121153D01*
X80599618Y-85116722D01*
X80569737Y-84966503D01*
X80569735Y-84966498D01*
X80509397Y-84820827D01*
X80509390Y-84820814D01*
X80421789Y-84689711D01*
X80421786Y-84689707D01*
X80310292Y-84578213D01*
X80310288Y-84578210D01*
X80179185Y-84490609D01*
X80179172Y-84490602D01*
X80033501Y-84430264D01*
X80033489Y-84430261D01*
X79878845Y-84399500D01*
X79878842Y-84399500D01*
X79721158Y-84399500D01*
X79721155Y-84399500D01*
X79566510Y-84430261D01*
X79566498Y-84430264D01*
X79420827Y-84490602D01*
X79420814Y-84490609D01*
X79289711Y-84578210D01*
X79289707Y-84578213D01*
X79279740Y-84588181D01*
X79218417Y-84621666D01*
X79192059Y-84624500D01*
X77860840Y-84624500D01*
X77793801Y-84604815D01*
X77773158Y-84588180D01*
X77738192Y-84553213D01*
X77738188Y-84553210D01*
X77607085Y-84465609D01*
X77607072Y-84465602D01*
X77461401Y-84405264D01*
X77461389Y-84405261D01*
X77306745Y-84374500D01*
X77306742Y-84374500D01*
X77149058Y-84374500D01*
X77149055Y-84374500D01*
X76994410Y-84405261D01*
X76994398Y-84405264D01*
X76848727Y-84465602D01*
X76848714Y-84465609D01*
X76717611Y-84553210D01*
X76717607Y-84553213D01*
X76682642Y-84588180D01*
X76621320Y-84621666D01*
X76594960Y-84624500D01*
X74660840Y-84624500D01*
X74593801Y-84604815D01*
X74573158Y-84588180D01*
X74538192Y-84553213D01*
X74538188Y-84553210D01*
X74407085Y-84465609D01*
X74407072Y-84465602D01*
X74261401Y-84405264D01*
X74261389Y-84405261D01*
X74106745Y-84374500D01*
X74106742Y-84374500D01*
X73949058Y-84374500D01*
X73949055Y-84374500D01*
X73794410Y-84405261D01*
X73794398Y-84405264D01*
X73648727Y-84465602D01*
X73648714Y-84465609D01*
X73517611Y-84553210D01*
X73517607Y-84553213D01*
X73482642Y-84588180D01*
X73421320Y-84621666D01*
X73394960Y-84624500D01*
X71460840Y-84624500D01*
X71393801Y-84604815D01*
X71373158Y-84588180D01*
X71338192Y-84553213D01*
X71338188Y-84553210D01*
X71207085Y-84465609D01*
X71207072Y-84465602D01*
X71061401Y-84405264D01*
X71061389Y-84405261D01*
X70906745Y-84374500D01*
X70906742Y-84374500D01*
X70749058Y-84374500D01*
X70749055Y-84374500D01*
X70594410Y-84405261D01*
X70594398Y-84405264D01*
X70448727Y-84465602D01*
X70448714Y-84465609D01*
X70317611Y-84553210D01*
X70317607Y-84553213D01*
X70282642Y-84588180D01*
X70221320Y-84621666D01*
X70194960Y-84624500D01*
X68260840Y-84624500D01*
X68193801Y-84604815D01*
X68173158Y-84588180D01*
X68138192Y-84553213D01*
X68138188Y-84553210D01*
X68007085Y-84465609D01*
X68007072Y-84465602D01*
X67861401Y-84405264D01*
X67861389Y-84405261D01*
X67706745Y-84374500D01*
X67706742Y-84374500D01*
X67549058Y-84374500D01*
X67549055Y-84374500D01*
X67394410Y-84405261D01*
X67394398Y-84405264D01*
X67248727Y-84465602D01*
X67248714Y-84465609D01*
X67117611Y-84553210D01*
X67117607Y-84553213D01*
X67082642Y-84588180D01*
X67021320Y-84621666D01*
X66994960Y-84624500D01*
X65060840Y-84624500D01*
X64993801Y-84604815D01*
X64973158Y-84588180D01*
X64938192Y-84553213D01*
X64938188Y-84553210D01*
X64807085Y-84465609D01*
X64807072Y-84465602D01*
X64661401Y-84405264D01*
X64661389Y-84405261D01*
X64506745Y-84374500D01*
X64506742Y-84374500D01*
X64349058Y-84374500D01*
X64349055Y-84374500D01*
X64194410Y-84405261D01*
X64194398Y-84405264D01*
X64048727Y-84465602D01*
X64048714Y-84465609D01*
X63917611Y-84553210D01*
X63917607Y-84553213D01*
X63882642Y-84588180D01*
X63821320Y-84621666D01*
X63794960Y-84624500D01*
X61860840Y-84624500D01*
X61793801Y-84604815D01*
X61773158Y-84588180D01*
X61738192Y-84553213D01*
X61738188Y-84553210D01*
X61607085Y-84465609D01*
X61607072Y-84465602D01*
X61461401Y-84405264D01*
X61461389Y-84405261D01*
X61306745Y-84374500D01*
X61306742Y-84374500D01*
X61149058Y-84374500D01*
X61149055Y-84374500D01*
X60994410Y-84405261D01*
X60994398Y-84405264D01*
X60848727Y-84465602D01*
X60848714Y-84465609D01*
X60717611Y-84553210D01*
X60717607Y-84553213D01*
X60682642Y-84588180D01*
X60621320Y-84621666D01*
X60594960Y-84624500D01*
X59607941Y-84624500D01*
X59540902Y-84604815D01*
X59520260Y-84588181D01*
X59510292Y-84578213D01*
X59510288Y-84578210D01*
X59379185Y-84490609D01*
X59379172Y-84490602D01*
X59233501Y-84430264D01*
X59233489Y-84430261D01*
X59078845Y-84399500D01*
X59078842Y-84399500D01*
X58921158Y-84399500D01*
X58921155Y-84399500D01*
X58766510Y-84430261D01*
X58766498Y-84430264D01*
X58620827Y-84490602D01*
X58620814Y-84490609D01*
X58489711Y-84578210D01*
X58489707Y-84578213D01*
X58378213Y-84689707D01*
X58378210Y-84689711D01*
X58290609Y-84820814D01*
X58290602Y-84820827D01*
X58230264Y-84966498D01*
X58230261Y-84966510D01*
X58199500Y-85121153D01*
X51449643Y-85121153D01*
X51419172Y-84967970D01*
X51419171Y-84967963D01*
X51418564Y-84966498D01*
X51358831Y-84822287D01*
X51358824Y-84822274D01*
X51271223Y-84691171D01*
X51271220Y-84691167D01*
X51159726Y-84579673D01*
X51159722Y-84579670D01*
X51028619Y-84492069D01*
X51028606Y-84492062D01*
X50882935Y-84431724D01*
X50882923Y-84431721D01*
X50728279Y-84400960D01*
X50728276Y-84400960D01*
X50570592Y-84400960D01*
X50570589Y-84400960D01*
X50415944Y-84431721D01*
X50415932Y-84431724D01*
X50270261Y-84492062D01*
X50270248Y-84492069D01*
X50139145Y-84579670D01*
X50139141Y-84579673D01*
X50129174Y-84589641D01*
X50067851Y-84623126D01*
X50041493Y-84625960D01*
X48907100Y-84625960D01*
X48840061Y-84606275D01*
X48838209Y-84605062D01*
X48706519Y-84517069D01*
X48706506Y-84517062D01*
X48560835Y-84456724D01*
X48560823Y-84456721D01*
X48406179Y-84425960D01*
X48406176Y-84425960D01*
X48248492Y-84425960D01*
X48248489Y-84425960D01*
X48093844Y-84456721D01*
X48093832Y-84456724D01*
X47948161Y-84517062D01*
X47948148Y-84517069D01*
X47816459Y-84605062D01*
X47749781Y-84625940D01*
X47747568Y-84625960D01*
X45657100Y-84625960D01*
X45590061Y-84606275D01*
X45588209Y-84605062D01*
X45456519Y-84517069D01*
X45456506Y-84517062D01*
X45310835Y-84456724D01*
X45310823Y-84456721D01*
X45156179Y-84425960D01*
X45156176Y-84425960D01*
X44998492Y-84425960D01*
X44998489Y-84425960D01*
X44843844Y-84456721D01*
X44843832Y-84456724D01*
X44698161Y-84517062D01*
X44698148Y-84517069D01*
X44566459Y-84605062D01*
X44499781Y-84625940D01*
X44497568Y-84625960D01*
X42407100Y-84625960D01*
X42340061Y-84606275D01*
X42338209Y-84605062D01*
X42206519Y-84517069D01*
X42206506Y-84517062D01*
X42060835Y-84456724D01*
X42060823Y-84456721D01*
X41906179Y-84425960D01*
X41906176Y-84425960D01*
X41748492Y-84425960D01*
X41748489Y-84425960D01*
X41593844Y-84456721D01*
X41593832Y-84456724D01*
X41448161Y-84517062D01*
X41448148Y-84517069D01*
X41316459Y-84605062D01*
X41249781Y-84625940D01*
X41247568Y-84625960D01*
X39207375Y-84625960D01*
X39140336Y-84606275D01*
X39119694Y-84589641D01*
X39109726Y-84579673D01*
X39109722Y-84579670D01*
X38978619Y-84492069D01*
X38978606Y-84492062D01*
X38832935Y-84431724D01*
X38832923Y-84431721D01*
X38678279Y-84400960D01*
X38678276Y-84400960D01*
X38520592Y-84400960D01*
X38520589Y-84400960D01*
X38365944Y-84431721D01*
X38365932Y-84431724D01*
X38220261Y-84492062D01*
X38220248Y-84492069D01*
X38089145Y-84579670D01*
X38089141Y-84579673D01*
X38079174Y-84589641D01*
X38017851Y-84623126D01*
X37991493Y-84625960D01*
X35907100Y-84625960D01*
X35840061Y-84606275D01*
X35838209Y-84605062D01*
X35706519Y-84517069D01*
X35706506Y-84517062D01*
X35560835Y-84456724D01*
X35560823Y-84456721D01*
X35406179Y-84425960D01*
X35406176Y-84425960D01*
X35248492Y-84425960D01*
X35248489Y-84425960D01*
X35093844Y-84456721D01*
X35093832Y-84456724D01*
X34948161Y-84517062D01*
X34948148Y-84517069D01*
X34816459Y-84605062D01*
X34749781Y-84625940D01*
X34747568Y-84625960D01*
X32657100Y-84625960D01*
X32590061Y-84606275D01*
X32588209Y-84605062D01*
X32456519Y-84517069D01*
X32456506Y-84517062D01*
X32310835Y-84456724D01*
X32310823Y-84456721D01*
X32156179Y-84425960D01*
X32156176Y-84425960D01*
X31998492Y-84425960D01*
X31998489Y-84425960D01*
X31843844Y-84456721D01*
X31843832Y-84456724D01*
X31698161Y-84517062D01*
X31698148Y-84517069D01*
X31566459Y-84605062D01*
X31499781Y-84625940D01*
X31497568Y-84625960D01*
X30607941Y-84625960D01*
X30540902Y-84606275D01*
X30520260Y-84589641D01*
X30510292Y-84579673D01*
X30510288Y-84579670D01*
X30379185Y-84492069D01*
X30379172Y-84492062D01*
X30233501Y-84431724D01*
X30233489Y-84431721D01*
X30078845Y-84400960D01*
X30078842Y-84400960D01*
X29921158Y-84400960D01*
X29921155Y-84400960D01*
X29766510Y-84431721D01*
X29766498Y-84431724D01*
X29620827Y-84492062D01*
X29620814Y-84492069D01*
X29489711Y-84579670D01*
X29489707Y-84579673D01*
X29378213Y-84691167D01*
X29378210Y-84691171D01*
X29290609Y-84822274D01*
X29290602Y-84822287D01*
X29230264Y-84967958D01*
X29230261Y-84967970D01*
X29199500Y-85122613D01*
X27354042Y-85122613D01*
X27353885Y-85023633D01*
X27349692Y-82374696D01*
X27369271Y-82307626D01*
X27422002Y-82261787D01*
X27473692Y-82250500D01*
X86275499Y-82250500D01*
X86342538Y-82270185D01*
G37*
G04 #@! TD.AperFunction*
M02*
