G04 #@! TF.GenerationSoftware,KiCad,Pcbnew,9.0.3*
G04 #@! TF.CreationDate,2025-09-22T20:46:45+01:00*
G04 #@! TF.ProjectId,led_matrix,6c65645f-6d61-4747-9269-782e6b696361,rev?*
G04 #@! TF.SameCoordinates,Original*
G04 #@! TF.FileFunction,Soldermask,Top*
G04 #@! TF.FilePolarity,Negative*
%FSLAX46Y46*%
G04 Gerber Fmt 4.6, Leading zero omitted, Abs format (unit mm)*
G04 Created by KiCad (PCBNEW 9.0.3) date 2025-09-22 20:46:45*
%MOMM*%
%LPD*%
G01*
G04 APERTURE LIST*
G04 APERTURE END LIST*
G36*
X85504850Y-144500964D02*
G01*
X85555040Y-144506787D01*
X85572189Y-144514359D01*
X85595671Y-144519030D01*
X85620810Y-144535827D01*
X85640696Y-144544608D01*
X85654277Y-144558189D01*
X85676777Y-144573223D01*
X85691810Y-144595722D01*
X85705391Y-144609303D01*
X85714170Y-144629186D01*
X85730970Y-144654329D01*
X85735641Y-144677812D01*
X85743212Y-144694959D01*
X85749033Y-144745139D01*
X85750000Y-144750000D01*
X85750000Y-146250000D01*
X85749032Y-146254863D01*
X85743212Y-146305040D01*
X85735641Y-146322185D01*
X85730970Y-146345671D01*
X85714169Y-146370815D01*
X85705391Y-146390696D01*
X85691812Y-146404274D01*
X85676777Y-146426777D01*
X85654274Y-146441812D01*
X85640696Y-146455391D01*
X85620815Y-146464169D01*
X85595671Y-146480970D01*
X85572185Y-146485641D01*
X85555040Y-146493212D01*
X85504861Y-146499032D01*
X85500000Y-146500000D01*
X84000000Y-146500000D01*
X83995138Y-146499032D01*
X83944959Y-146493212D01*
X83927812Y-146485641D01*
X83904329Y-146480970D01*
X83879186Y-146464170D01*
X83859303Y-146455391D01*
X83845722Y-146441810D01*
X83823223Y-146426777D01*
X83808189Y-146404277D01*
X83794608Y-146390696D01*
X83785827Y-146370810D01*
X83769030Y-146345671D01*
X83764359Y-146322189D01*
X83756787Y-146305040D01*
X83750964Y-146254849D01*
X83750000Y-146250000D01*
X83750000Y-144750000D01*
X83750964Y-144745150D01*
X83756787Y-144694959D01*
X83764359Y-144677808D01*
X83769030Y-144654329D01*
X83785826Y-144629191D01*
X83794608Y-144609303D01*
X83808191Y-144595719D01*
X83823223Y-144573223D01*
X83845719Y-144558191D01*
X83859303Y-144544608D01*
X83879191Y-144535826D01*
X83904329Y-144519030D01*
X83927808Y-144514359D01*
X83944959Y-144506787D01*
X83995151Y-144500964D01*
X84000000Y-144500000D01*
X85500000Y-144500000D01*
X85504850Y-144500964D01*
G37*
G36*
X66090000Y-146100000D02*
G01*
X65090000Y-146100000D01*
X65090000Y-144200000D01*
X66090000Y-144200000D01*
X66090000Y-146100000D01*
G37*
G36*
X71170000Y-146100000D02*
G01*
X70170000Y-146100000D01*
X70170000Y-144200000D01*
X71170000Y-144200000D01*
X71170000Y-146100000D01*
G37*
G36*
X76250000Y-146100000D02*
G01*
X75250000Y-146100000D01*
X75250000Y-144200000D01*
X76250000Y-144200000D01*
X76250000Y-146100000D01*
G37*
G36*
X81330000Y-146100000D02*
G01*
X80330000Y-146100000D01*
X80330000Y-144200000D01*
X81330000Y-144200000D01*
X81330000Y-146100000D01*
G37*
G36*
X60160000Y-146060000D02*
G01*
X57650000Y-146060000D01*
X57650000Y-145060000D01*
X60160000Y-145060000D01*
X60160000Y-146060000D01*
G37*
G36*
X32032742Y-143705764D02*
G01*
X32065833Y-143727875D01*
X32087944Y-143760966D01*
X32095708Y-143800000D01*
X32095708Y-145300000D01*
X32087944Y-145339034D01*
X32065833Y-145372125D01*
X32032742Y-145394236D01*
X31993708Y-145402000D01*
X28593708Y-145402000D01*
X28554674Y-145394236D01*
X28521583Y-145372125D01*
X28499472Y-145339034D01*
X28491708Y-145300000D01*
X28491708Y-143800000D01*
X28499472Y-143760966D01*
X28521583Y-143727875D01*
X28554674Y-143705764D01*
X28593708Y-143698000D01*
X31993708Y-143698000D01*
X32032742Y-143705764D01*
G37*
G36*
X46454850Y-143900964D02*
G01*
X46505040Y-143906787D01*
X46522189Y-143914359D01*
X46545671Y-143919030D01*
X46570810Y-143935827D01*
X46590696Y-143944608D01*
X46604277Y-143958189D01*
X46626777Y-143973223D01*
X46641810Y-143995722D01*
X46655391Y-144009303D01*
X46664170Y-144029186D01*
X46680970Y-144054329D01*
X46685641Y-144077812D01*
X46693212Y-144094959D01*
X46699033Y-144145139D01*
X46700000Y-144150000D01*
X46700000Y-144850000D01*
X46699032Y-144854863D01*
X46693212Y-144905040D01*
X46685641Y-144922185D01*
X46680970Y-144945671D01*
X46664169Y-144970815D01*
X46655391Y-144990696D01*
X46641812Y-145004274D01*
X46626777Y-145026777D01*
X46604274Y-145041812D01*
X46590696Y-145055391D01*
X46570815Y-145064169D01*
X46545671Y-145080970D01*
X46522185Y-145085641D01*
X46505040Y-145093212D01*
X46454861Y-145099032D01*
X46450000Y-145100000D01*
X45550000Y-145100000D01*
X45545138Y-145099032D01*
X45494959Y-145093212D01*
X45477812Y-145085641D01*
X45454329Y-145080970D01*
X45429186Y-145064170D01*
X45409303Y-145055391D01*
X45395722Y-145041810D01*
X45373223Y-145026777D01*
X45358189Y-145004277D01*
X45344608Y-144990696D01*
X45335827Y-144970810D01*
X45319030Y-144945671D01*
X45314359Y-144922189D01*
X45306787Y-144905040D01*
X45300964Y-144854849D01*
X45300000Y-144850000D01*
X45300000Y-144150000D01*
X45300964Y-144145150D01*
X45306787Y-144094959D01*
X45314359Y-144077808D01*
X45319030Y-144054329D01*
X45335826Y-144029191D01*
X45344608Y-144009303D01*
X45358191Y-143995719D01*
X45373223Y-143973223D01*
X45395719Y-143958191D01*
X45409303Y-143944608D01*
X45429191Y-143935826D01*
X45454329Y-143919030D01*
X45477808Y-143914359D01*
X45494959Y-143906787D01*
X45545151Y-143900964D01*
X45550000Y-143900000D01*
X46450000Y-143900000D01*
X46454850Y-143900964D01*
G37*
G36*
X56850000Y-143520000D02*
G01*
X54340000Y-143520000D01*
X54340000Y-142520000D01*
X56850000Y-142520000D01*
X56850000Y-143520000D01*
G37*
G36*
X46454850Y-141900964D02*
G01*
X46505040Y-141906787D01*
X46522189Y-141914359D01*
X46545671Y-141919030D01*
X46570810Y-141935827D01*
X46590696Y-141944608D01*
X46604277Y-141958189D01*
X46626777Y-141973223D01*
X46641810Y-141995722D01*
X46655391Y-142009303D01*
X46664170Y-142029186D01*
X46680970Y-142054329D01*
X46685641Y-142077812D01*
X46693212Y-142094959D01*
X46699033Y-142145139D01*
X46700000Y-142150000D01*
X46700000Y-142850000D01*
X46699032Y-142854863D01*
X46693212Y-142905040D01*
X46685641Y-142922185D01*
X46680970Y-142945671D01*
X46664169Y-142970815D01*
X46655391Y-142990696D01*
X46641812Y-143004274D01*
X46626777Y-143026777D01*
X46604274Y-143041812D01*
X46590696Y-143055391D01*
X46570815Y-143064169D01*
X46545671Y-143080970D01*
X46522185Y-143085641D01*
X46505040Y-143093212D01*
X46454861Y-143099032D01*
X46450000Y-143100000D01*
X45550000Y-143100000D01*
X45545138Y-143099032D01*
X45494959Y-143093212D01*
X45477812Y-143085641D01*
X45454329Y-143080970D01*
X45429186Y-143064170D01*
X45409303Y-143055391D01*
X45395722Y-143041810D01*
X45373223Y-143026777D01*
X45358189Y-143004277D01*
X45344608Y-142990696D01*
X45335827Y-142970810D01*
X45319030Y-142945671D01*
X45314359Y-142922189D01*
X45306787Y-142905040D01*
X45300964Y-142854849D01*
X45300000Y-142850000D01*
X45300000Y-142150000D01*
X45300964Y-142145150D01*
X45306787Y-142094959D01*
X45314359Y-142077808D01*
X45319030Y-142054329D01*
X45335826Y-142029191D01*
X45344608Y-142009303D01*
X45358191Y-141995719D01*
X45373223Y-141973223D01*
X45395719Y-141958191D01*
X45409303Y-141944608D01*
X45429191Y-141935826D01*
X45454329Y-141919030D01*
X45477808Y-141914359D01*
X45494959Y-141906787D01*
X45545151Y-141900964D01*
X45550000Y-141900000D01*
X46450000Y-141900000D01*
X46454850Y-141900964D01*
G37*
G36*
X37832742Y-141605764D02*
G01*
X37865833Y-141627875D01*
X37887944Y-141660966D01*
X37895708Y-141700000D01*
X37895708Y-142700000D01*
X37887944Y-142739034D01*
X37865833Y-142772125D01*
X37832742Y-142794236D01*
X37793708Y-142802000D01*
X34293708Y-142802000D01*
X34254674Y-142794236D01*
X34221583Y-142772125D01*
X34199472Y-142739034D01*
X34191708Y-142700000D01*
X34191708Y-141700000D01*
X34199472Y-141660966D01*
X34221583Y-141627875D01*
X34254674Y-141605764D01*
X34293708Y-141598000D01*
X37793708Y-141598000D01*
X37832742Y-141605764D01*
G37*
G36*
X68630000Y-142800000D02*
G01*
X67630000Y-142800000D01*
X67630000Y-140900000D01*
X68630000Y-140900000D01*
X68630000Y-142800000D01*
G37*
G36*
X73710000Y-142800000D02*
G01*
X72710000Y-142800000D01*
X72710000Y-140900000D01*
X73710000Y-140900000D01*
X73710000Y-142800000D01*
G37*
G36*
X78790000Y-142800000D02*
G01*
X77790000Y-142800000D01*
X77790000Y-140900000D01*
X78790000Y-140900000D01*
X78790000Y-142800000D01*
G37*
G36*
X85040285Y-140043060D02*
G01*
X85221397Y-140118079D01*
X85384393Y-140226990D01*
X85523010Y-140365607D01*
X85631921Y-140528603D01*
X85706940Y-140709715D01*
X85745185Y-140901983D01*
X85745185Y-141098017D01*
X85706940Y-141290285D01*
X85631921Y-141471397D01*
X85523010Y-141634393D01*
X85384393Y-141773010D01*
X85221397Y-141881921D01*
X85040285Y-141956940D01*
X84848017Y-141995185D01*
X84651983Y-141995185D01*
X84459715Y-141956940D01*
X84278603Y-141881921D01*
X84115607Y-141773010D01*
X83976990Y-141634393D01*
X83868079Y-141471397D01*
X83793060Y-141290285D01*
X83754815Y-141098017D01*
X83754815Y-140901983D01*
X83793060Y-140709715D01*
X83868079Y-140528603D01*
X83976990Y-140365607D01*
X84115607Y-140226990D01*
X84278603Y-140118079D01*
X84459715Y-140043060D01*
X84651983Y-140004815D01*
X84848017Y-140004815D01*
X85040285Y-140043060D01*
G37*
G36*
X41020779Y-140622929D02*
G01*
X41023708Y-140630000D01*
X41023708Y-141022208D01*
X41020779Y-141029279D01*
X41014812Y-141031750D01*
X41000349Y-141066670D01*
X41035983Y-141120000D01*
X41238708Y-141120000D01*
X41245779Y-141122929D01*
X41248708Y-141130000D01*
X41248708Y-141141933D01*
X41253053Y-141152423D01*
X41333233Y-141152423D01*
X41337578Y-141141933D01*
X41337578Y-141130000D01*
X41340507Y-141122929D01*
X41347578Y-141120000D01*
X41738708Y-141120000D01*
X41745779Y-141122929D01*
X41748708Y-141130000D01*
X41748708Y-141141937D01*
X41753706Y-141154005D01*
X41833886Y-141154007D01*
X41838889Y-141141928D01*
X41838889Y-141130000D01*
X41841818Y-141122929D01*
X41848889Y-141120000D01*
X42238708Y-141120000D01*
X42245779Y-141122929D01*
X42248708Y-141130000D01*
X42248708Y-141141937D01*
X42254329Y-141155509D01*
X42334509Y-141155511D01*
X42340135Y-141141928D01*
X42340135Y-141130000D01*
X42343064Y-141122929D01*
X42350135Y-141120000D01*
X42553483Y-141120000D01*
X42589117Y-141066670D01*
X42574366Y-141031057D01*
X42568400Y-141028586D01*
X42565471Y-141021515D01*
X42565471Y-140630000D01*
X42568400Y-140622929D01*
X42575471Y-140620000D01*
X43313708Y-140620000D01*
X43320779Y-140622929D01*
X43323708Y-140630000D01*
X43323708Y-141021515D01*
X43320779Y-141028586D01*
X43313708Y-141031515D01*
X43301774Y-141031515D01*
X42760696Y-141031515D01*
X42725062Y-141084845D01*
X42739812Y-141120457D01*
X42745779Y-141122929D01*
X42748708Y-141130000D01*
X42748708Y-141873910D01*
X42745779Y-141880981D01*
X42738708Y-141883910D01*
X42726774Y-141883910D01*
X42362069Y-141883910D01*
X42350135Y-141883910D01*
X42343064Y-141880981D01*
X42340135Y-141873910D01*
X42340135Y-141861975D01*
X42334739Y-141848948D01*
X42254557Y-141848950D01*
X42248708Y-141863071D01*
X42248708Y-141875010D01*
X42245779Y-141882081D01*
X42238708Y-141885010D01*
X42226774Y-141885010D01*
X41860823Y-141885010D01*
X41848889Y-141885010D01*
X41841818Y-141882081D01*
X41838889Y-141875010D01*
X41838889Y-141863075D01*
X41833650Y-141850427D01*
X41753467Y-141850429D01*
X41748708Y-141861918D01*
X41748708Y-141873860D01*
X41745779Y-141880931D01*
X41738708Y-141883860D01*
X41726774Y-141883860D01*
X41359512Y-141883860D01*
X41347578Y-141883860D01*
X41340507Y-141880931D01*
X41337578Y-141873860D01*
X41337578Y-141861929D01*
X41333365Y-141851759D01*
X41253184Y-141851763D01*
X41248708Y-141862570D01*
X41248708Y-141874510D01*
X41245779Y-141881581D01*
X41238708Y-141884510D01*
X41226774Y-141884510D01*
X40857840Y-141884510D01*
X40845906Y-141884510D01*
X40838835Y-141881581D01*
X40835906Y-141874510D01*
X40835906Y-141130000D01*
X40838835Y-141122929D01*
X40844801Y-141120457D01*
X40859265Y-141085538D01*
X40823631Y-141032208D01*
X40280632Y-141032208D01*
X40268698Y-141032208D01*
X40261627Y-141029279D01*
X40258698Y-141022208D01*
X40258698Y-140630000D01*
X40261627Y-140622929D01*
X40268698Y-140620000D01*
X41013708Y-140620000D01*
X41020779Y-140622929D01*
G37*
G36*
X60160000Y-140980000D02*
G01*
X57650000Y-140980000D01*
X57650000Y-139980000D01*
X60160000Y-139980000D01*
X60160000Y-140980000D01*
G37*
G36*
X37832742Y-139605764D02*
G01*
X37865833Y-139627875D01*
X37887944Y-139660966D01*
X37895708Y-139700000D01*
X37895708Y-140700000D01*
X37887944Y-140739034D01*
X37865833Y-140772125D01*
X37832742Y-140794236D01*
X37793708Y-140802000D01*
X34293708Y-140802000D01*
X34254674Y-140794236D01*
X34221583Y-140772125D01*
X34199472Y-140739034D01*
X34191708Y-140700000D01*
X34191708Y-139700000D01*
X34199472Y-139660966D01*
X34221583Y-139627875D01*
X34254674Y-139605764D01*
X34293708Y-139598000D01*
X37793708Y-139598000D01*
X37832742Y-139605764D01*
G37*
G36*
X46479850Y-139425964D02*
G01*
X46530040Y-139431787D01*
X46547189Y-139439359D01*
X46570671Y-139444030D01*
X46595810Y-139460827D01*
X46615696Y-139469608D01*
X46629277Y-139483189D01*
X46651777Y-139498223D01*
X46666810Y-139520722D01*
X46680391Y-139534303D01*
X46689170Y-139554186D01*
X46705970Y-139579329D01*
X46710641Y-139602812D01*
X46718212Y-139619959D01*
X46724033Y-139670139D01*
X46725000Y-139675000D01*
X46725000Y-140350000D01*
X46724032Y-140354863D01*
X46718212Y-140405040D01*
X46710641Y-140422185D01*
X46705970Y-140445671D01*
X46689169Y-140470815D01*
X46680391Y-140490696D01*
X46666812Y-140504274D01*
X46651777Y-140526777D01*
X46629274Y-140541812D01*
X46615696Y-140555391D01*
X46595815Y-140564169D01*
X46570671Y-140580970D01*
X46547185Y-140585641D01*
X46530040Y-140593212D01*
X46479861Y-140599032D01*
X46475000Y-140600000D01*
X45525000Y-140600000D01*
X45520138Y-140599032D01*
X45469959Y-140593212D01*
X45452812Y-140585641D01*
X45429329Y-140580970D01*
X45404186Y-140564170D01*
X45384303Y-140555391D01*
X45370722Y-140541810D01*
X45348223Y-140526777D01*
X45333189Y-140504277D01*
X45319608Y-140490696D01*
X45310827Y-140470810D01*
X45294030Y-140445671D01*
X45289359Y-140422189D01*
X45281787Y-140405040D01*
X45275964Y-140354849D01*
X45275000Y-140350000D01*
X45275000Y-139675000D01*
X45275964Y-139670150D01*
X45281787Y-139619959D01*
X45289359Y-139602808D01*
X45294030Y-139579329D01*
X45310826Y-139554191D01*
X45319608Y-139534303D01*
X45333191Y-139520719D01*
X45348223Y-139498223D01*
X45370719Y-139483191D01*
X45384303Y-139469608D01*
X45404191Y-139460826D01*
X45429329Y-139444030D01*
X45452808Y-139439359D01*
X45469959Y-139431787D01*
X45520151Y-139425964D01*
X45525000Y-139425000D01*
X46475000Y-139425000D01*
X46479850Y-139425964D01*
G37*
G36*
X49454850Y-139425964D02*
G01*
X49505040Y-139431787D01*
X49522189Y-139439359D01*
X49545671Y-139444030D01*
X49570810Y-139460827D01*
X49590696Y-139469608D01*
X49604277Y-139483189D01*
X49626777Y-139498223D01*
X49641810Y-139520722D01*
X49655391Y-139534303D01*
X49664170Y-139554186D01*
X49680970Y-139579329D01*
X49685641Y-139602812D01*
X49693212Y-139619959D01*
X49699033Y-139670139D01*
X49700000Y-139675000D01*
X49700000Y-140325000D01*
X49699032Y-140329863D01*
X49693212Y-140380040D01*
X49685641Y-140397185D01*
X49680970Y-140420671D01*
X49664169Y-140445815D01*
X49655391Y-140465696D01*
X49641812Y-140479274D01*
X49626777Y-140501777D01*
X49604274Y-140516812D01*
X49590696Y-140530391D01*
X49570815Y-140539169D01*
X49545671Y-140555970D01*
X49522185Y-140560641D01*
X49505040Y-140568212D01*
X49454861Y-140574032D01*
X49450000Y-140575000D01*
X48550000Y-140575000D01*
X48545138Y-140574032D01*
X48494959Y-140568212D01*
X48477812Y-140560641D01*
X48454329Y-140555970D01*
X48429186Y-140539170D01*
X48409303Y-140530391D01*
X48395722Y-140516810D01*
X48373223Y-140501777D01*
X48358189Y-140479277D01*
X48344608Y-140465696D01*
X48335827Y-140445810D01*
X48319030Y-140420671D01*
X48314359Y-140397189D01*
X48306787Y-140380040D01*
X48300964Y-140329849D01*
X48300000Y-140325000D01*
X48300000Y-139675000D01*
X48300964Y-139670150D01*
X48306787Y-139619959D01*
X48314359Y-139602808D01*
X48319030Y-139579329D01*
X48335826Y-139554191D01*
X48344608Y-139534303D01*
X48358191Y-139520719D01*
X48373223Y-139498223D01*
X48395719Y-139483191D01*
X48409303Y-139469608D01*
X48429191Y-139460826D01*
X48454329Y-139444030D01*
X48477808Y-139439359D01*
X48494959Y-139431787D01*
X48545151Y-139425964D01*
X48550000Y-139425000D01*
X49450000Y-139425000D01*
X49454850Y-139425964D01*
G37*
G36*
X43250779Y-140022929D02*
G01*
X43253708Y-140030000D01*
X43253708Y-140329944D01*
X43250779Y-140337015D01*
X43243708Y-140339944D01*
X43231774Y-140339944D01*
X42326355Y-140339944D01*
X42291208Y-140375091D01*
X42291208Y-140480197D01*
X42288279Y-140487268D01*
X42281208Y-140490197D01*
X42269274Y-140490197D01*
X41317405Y-140490197D01*
X41305471Y-140490197D01*
X41298400Y-140487268D01*
X41295471Y-140480197D01*
X41295471Y-140375091D01*
X41260324Y-140339944D01*
X40351592Y-140339944D01*
X40339658Y-140339944D01*
X40332587Y-140337015D01*
X40329658Y-140329944D01*
X40329658Y-140030000D01*
X40332587Y-140022929D01*
X40339658Y-140020000D01*
X43243708Y-140020000D01*
X43250779Y-140022929D01*
G37*
G36*
X41450779Y-139422929D02*
G01*
X41453708Y-139430000D01*
X41453708Y-139729061D01*
X41450779Y-139736132D01*
X41443708Y-139739061D01*
X41431774Y-139739061D01*
X40353442Y-139739061D01*
X40341508Y-139739061D01*
X40334437Y-139736132D01*
X40331508Y-139729061D01*
X40331508Y-139430000D01*
X40334437Y-139422929D01*
X40341508Y-139420000D01*
X41443708Y-139420000D01*
X41450779Y-139422929D01*
G37*
G36*
X43250779Y-139422929D02*
G01*
X43253708Y-139430000D01*
X43253708Y-139728712D01*
X43250779Y-139735783D01*
X43243708Y-139738712D01*
X43231774Y-139738712D01*
X41805642Y-139738712D01*
X41793708Y-139738712D01*
X41786637Y-139735783D01*
X41783708Y-139728712D01*
X41783708Y-139430000D01*
X41786637Y-139422929D01*
X41793708Y-139420000D01*
X43243708Y-139420000D01*
X43250779Y-139422929D01*
G37*
G36*
X66785397Y-136890811D02*
G01*
X66923404Y-136947976D01*
X67047608Y-137030966D01*
X67153234Y-137136592D01*
X67225970Y-137245450D01*
X67230872Y-137250352D01*
X67232121Y-137250601D01*
X67281563Y-137283637D01*
X67314599Y-137333079D01*
X67326200Y-137391400D01*
X67326200Y-139518600D01*
X67314599Y-139576921D01*
X67281563Y-139626363D01*
X67232121Y-139659399D01*
X67173800Y-139671000D01*
X65954600Y-139671000D01*
X65896279Y-139659399D01*
X65846837Y-139626363D01*
X65813801Y-139576921D01*
X65802200Y-139518600D01*
X65802200Y-137391400D01*
X65813801Y-137333079D01*
X65846837Y-137283637D01*
X65896279Y-137250601D01*
X65897526Y-137250352D01*
X65902431Y-137245447D01*
X65975166Y-137136592D01*
X66080792Y-137030966D01*
X66204996Y-136947976D01*
X66343003Y-136890811D01*
X66489511Y-136861669D01*
X66638889Y-136861669D01*
X66785397Y-136890811D01*
G37*
G36*
X69325397Y-136890811D02*
G01*
X69463404Y-136947976D01*
X69587608Y-137030966D01*
X69693234Y-137136592D01*
X69765970Y-137245450D01*
X69770872Y-137250352D01*
X69772121Y-137250601D01*
X69821563Y-137283637D01*
X69854599Y-137333079D01*
X69866200Y-137391400D01*
X69866200Y-139518600D01*
X69854599Y-139576921D01*
X69821563Y-139626363D01*
X69772121Y-139659399D01*
X69713800Y-139671000D01*
X68494600Y-139671000D01*
X68436279Y-139659399D01*
X68386837Y-139626363D01*
X68353801Y-139576921D01*
X68342200Y-139518600D01*
X68342200Y-137391400D01*
X68353801Y-137333079D01*
X68386837Y-137283637D01*
X68436279Y-137250601D01*
X68437526Y-137250352D01*
X68442431Y-137245447D01*
X68515166Y-137136592D01*
X68620792Y-137030966D01*
X68744996Y-136947976D01*
X68883003Y-136890811D01*
X69029511Y-136861669D01*
X69178889Y-136861669D01*
X69325397Y-136890811D01*
G37*
G36*
X71865397Y-136890811D02*
G01*
X72003404Y-136947976D01*
X72127608Y-137030966D01*
X72233234Y-137136592D01*
X72305970Y-137245450D01*
X72310872Y-137250352D01*
X72312121Y-137250601D01*
X72361563Y-137283637D01*
X72394599Y-137333079D01*
X72406200Y-137391400D01*
X72406200Y-139518600D01*
X72394599Y-139576921D01*
X72361563Y-139626363D01*
X72312121Y-139659399D01*
X72253800Y-139671000D01*
X71034600Y-139671000D01*
X70976279Y-139659399D01*
X70926837Y-139626363D01*
X70893801Y-139576921D01*
X70882200Y-139518600D01*
X70882200Y-137391400D01*
X70893801Y-137333079D01*
X70926837Y-137283637D01*
X70976279Y-137250601D01*
X70977526Y-137250352D01*
X70982431Y-137245447D01*
X71055166Y-137136592D01*
X71160792Y-137030966D01*
X71284996Y-136947976D01*
X71423003Y-136890811D01*
X71569511Y-136861669D01*
X71718889Y-136861669D01*
X71865397Y-136890811D01*
G37*
G36*
X74405397Y-136890811D02*
G01*
X74543404Y-136947976D01*
X74667608Y-137030966D01*
X74773234Y-137136592D01*
X74845970Y-137245450D01*
X74850872Y-137250352D01*
X74852121Y-137250601D01*
X74901563Y-137283637D01*
X74934599Y-137333079D01*
X74946200Y-137391400D01*
X74946200Y-139518600D01*
X74934599Y-139576921D01*
X74901563Y-139626363D01*
X74852121Y-139659399D01*
X74793800Y-139671000D01*
X73574600Y-139671000D01*
X73516279Y-139659399D01*
X73466837Y-139626363D01*
X73433801Y-139576921D01*
X73422200Y-139518600D01*
X73422200Y-137391400D01*
X73433801Y-137333079D01*
X73466837Y-137283637D01*
X73516279Y-137250601D01*
X73517526Y-137250352D01*
X73522431Y-137245447D01*
X73595166Y-137136592D01*
X73700792Y-137030966D01*
X73824996Y-136947976D01*
X73963003Y-136890811D01*
X74109511Y-136861669D01*
X74258889Y-136861669D01*
X74405397Y-136890811D01*
G37*
G36*
X76945397Y-136890811D02*
G01*
X77083404Y-136947976D01*
X77207608Y-137030966D01*
X77313234Y-137136592D01*
X77385970Y-137245450D01*
X77390872Y-137250352D01*
X77392121Y-137250601D01*
X77441563Y-137283637D01*
X77474599Y-137333079D01*
X77486200Y-137391400D01*
X77486200Y-139518600D01*
X77474599Y-139576921D01*
X77441563Y-139626363D01*
X77392121Y-139659399D01*
X77333800Y-139671000D01*
X76114600Y-139671000D01*
X76056279Y-139659399D01*
X76006837Y-139626363D01*
X75973801Y-139576921D01*
X75962200Y-139518600D01*
X75962200Y-137391400D01*
X75973801Y-137333079D01*
X76006837Y-137283637D01*
X76056279Y-137250601D01*
X76057526Y-137250352D01*
X76062431Y-137245447D01*
X76135166Y-137136592D01*
X76240792Y-137030966D01*
X76364996Y-136947976D01*
X76503003Y-136890811D01*
X76649511Y-136861669D01*
X76798889Y-136861669D01*
X76945397Y-136890811D01*
G37*
G36*
X79485397Y-136890811D02*
G01*
X79623404Y-136947976D01*
X79747608Y-137030966D01*
X79853234Y-137136592D01*
X79925970Y-137245450D01*
X79930872Y-137250352D01*
X79932121Y-137250601D01*
X79981563Y-137283637D01*
X80014599Y-137333079D01*
X80026200Y-137391400D01*
X80026200Y-139518600D01*
X80014599Y-139576921D01*
X79981563Y-139626363D01*
X79932121Y-139659399D01*
X79873800Y-139671000D01*
X78654600Y-139671000D01*
X78596279Y-139659399D01*
X78546837Y-139626363D01*
X78513801Y-139576921D01*
X78502200Y-139518600D01*
X78502200Y-137391400D01*
X78513801Y-137333079D01*
X78546837Y-137283637D01*
X78596279Y-137250601D01*
X78597526Y-137250352D01*
X78602431Y-137245447D01*
X78675166Y-137136592D01*
X78780792Y-137030966D01*
X78904996Y-136947976D01*
X79043003Y-136890811D01*
X79189511Y-136861669D01*
X79338889Y-136861669D01*
X79485397Y-136890811D01*
G37*
G36*
X82025397Y-136890811D02*
G01*
X82163404Y-136947976D01*
X82287608Y-137030966D01*
X82393234Y-137136592D01*
X82465970Y-137245450D01*
X82470872Y-137250352D01*
X82472121Y-137250601D01*
X82521563Y-137283637D01*
X82554599Y-137333079D01*
X82566200Y-137391400D01*
X82566200Y-139518600D01*
X82554599Y-139576921D01*
X82521563Y-139626363D01*
X82472121Y-139659399D01*
X82413800Y-139671000D01*
X81194600Y-139671000D01*
X81136279Y-139659399D01*
X81086837Y-139626363D01*
X81053801Y-139576921D01*
X81042200Y-139518600D01*
X81042200Y-137391400D01*
X81053801Y-137333079D01*
X81086837Y-137283637D01*
X81136279Y-137250601D01*
X81137526Y-137250352D01*
X81142431Y-137245447D01*
X81215166Y-137136592D01*
X81320792Y-137030966D01*
X81444996Y-136947976D01*
X81583003Y-136890811D01*
X81729511Y-136861669D01*
X81878889Y-136861669D01*
X82025397Y-136890811D01*
G37*
G36*
X32032742Y-137005764D02*
G01*
X32065833Y-137027875D01*
X32087944Y-137060966D01*
X32095708Y-137100000D01*
X32095708Y-138600000D01*
X32087944Y-138639034D01*
X32065833Y-138672125D01*
X32032742Y-138694236D01*
X31993708Y-138702000D01*
X28593708Y-138702000D01*
X28554674Y-138694236D01*
X28521583Y-138672125D01*
X28499472Y-138639034D01*
X28491708Y-138600000D01*
X28491708Y-137100000D01*
X28499472Y-137060966D01*
X28521583Y-137027875D01*
X28554674Y-137005764D01*
X28593708Y-136998000D01*
X31993708Y-136998000D01*
X32032742Y-137005764D01*
G37*
G36*
X46479850Y-137350964D02*
G01*
X46530040Y-137356787D01*
X46547189Y-137364359D01*
X46570671Y-137369030D01*
X46595810Y-137385827D01*
X46615696Y-137394608D01*
X46629277Y-137408189D01*
X46651777Y-137423223D01*
X46666810Y-137445722D01*
X46680391Y-137459303D01*
X46689170Y-137479186D01*
X46705970Y-137504329D01*
X46710641Y-137527812D01*
X46718212Y-137544959D01*
X46724033Y-137595139D01*
X46725000Y-137600000D01*
X46725000Y-138275000D01*
X46724032Y-138279863D01*
X46718212Y-138330040D01*
X46710641Y-138347185D01*
X46705970Y-138370671D01*
X46689169Y-138395815D01*
X46680391Y-138415696D01*
X46666812Y-138429274D01*
X46651777Y-138451777D01*
X46629274Y-138466812D01*
X46615696Y-138480391D01*
X46595815Y-138489169D01*
X46570671Y-138505970D01*
X46547185Y-138510641D01*
X46530040Y-138518212D01*
X46479861Y-138524032D01*
X46475000Y-138525000D01*
X45525000Y-138525000D01*
X45520138Y-138524032D01*
X45469959Y-138518212D01*
X45452812Y-138510641D01*
X45429329Y-138505970D01*
X45404186Y-138489170D01*
X45384303Y-138480391D01*
X45370722Y-138466810D01*
X45348223Y-138451777D01*
X45333189Y-138429277D01*
X45319608Y-138415696D01*
X45310827Y-138395810D01*
X45294030Y-138370671D01*
X45289359Y-138347189D01*
X45281787Y-138330040D01*
X45275964Y-138279849D01*
X45275000Y-138275000D01*
X45275000Y-137600000D01*
X45275964Y-137595150D01*
X45281787Y-137544959D01*
X45289359Y-137527808D01*
X45294030Y-137504329D01*
X45310826Y-137479191D01*
X45319608Y-137459303D01*
X45333191Y-137445719D01*
X45348223Y-137423223D01*
X45370719Y-137408191D01*
X45384303Y-137394608D01*
X45404191Y-137385826D01*
X45429329Y-137369030D01*
X45452808Y-137364359D01*
X45469959Y-137356787D01*
X45520151Y-137350964D01*
X45525000Y-137350000D01*
X46475000Y-137350000D01*
X46479850Y-137350964D01*
G37*
G36*
X49454850Y-137375964D02*
G01*
X49505040Y-137381787D01*
X49522189Y-137389359D01*
X49545671Y-137394030D01*
X49570810Y-137410827D01*
X49590696Y-137419608D01*
X49604277Y-137433189D01*
X49626777Y-137448223D01*
X49641810Y-137470722D01*
X49655391Y-137484303D01*
X49664170Y-137504186D01*
X49680970Y-137529329D01*
X49685641Y-137552812D01*
X49693212Y-137569959D01*
X49699033Y-137620139D01*
X49700000Y-137625000D01*
X49700000Y-138275000D01*
X49699032Y-138279863D01*
X49693212Y-138330040D01*
X49685641Y-138347185D01*
X49680970Y-138370671D01*
X49664169Y-138395815D01*
X49655391Y-138415696D01*
X49641812Y-138429274D01*
X49626777Y-138451777D01*
X49604274Y-138466812D01*
X49590696Y-138480391D01*
X49570815Y-138489169D01*
X49545671Y-138505970D01*
X49522185Y-138510641D01*
X49505040Y-138518212D01*
X49454861Y-138524032D01*
X49450000Y-138525000D01*
X48550000Y-138525000D01*
X48545138Y-138524032D01*
X48494959Y-138518212D01*
X48477812Y-138510641D01*
X48454329Y-138505970D01*
X48429186Y-138489170D01*
X48409303Y-138480391D01*
X48395722Y-138466810D01*
X48373223Y-138451777D01*
X48358189Y-138429277D01*
X48344608Y-138415696D01*
X48335827Y-138395810D01*
X48319030Y-138370671D01*
X48314359Y-138347189D01*
X48306787Y-138330040D01*
X48300964Y-138279849D01*
X48300000Y-138275000D01*
X48300000Y-137625000D01*
X48300964Y-137620150D01*
X48306787Y-137569959D01*
X48314359Y-137552808D01*
X48319030Y-137529329D01*
X48335826Y-137504191D01*
X48344608Y-137484303D01*
X48358191Y-137470719D01*
X48373223Y-137448223D01*
X48395719Y-137433191D01*
X48409303Y-137419608D01*
X48429191Y-137410826D01*
X48454329Y-137394030D01*
X48477808Y-137389359D01*
X48494959Y-137381787D01*
X48545151Y-137375964D01*
X48550000Y-137375000D01*
X49450000Y-137375000D01*
X49454850Y-137375964D01*
G37*
G36*
X56850000Y-138440000D02*
G01*
X54340000Y-138440000D01*
X54340000Y-137440000D01*
X56850000Y-137440000D01*
X56850000Y-138440000D01*
G37*
G36*
X66010623Y-135125301D02*
G01*
X66016294Y-135127945D01*
X66018452Y-135128260D01*
X66049125Y-135143254D01*
X66113171Y-135173120D01*
X66193180Y-135253129D01*
X66223055Y-135317197D01*
X66238039Y-135347847D01*
X66238353Y-135350002D01*
X66240999Y-135355677D01*
X66252100Y-135440000D01*
X66252100Y-135990000D01*
X66240999Y-136074323D01*
X66238352Y-136079997D01*
X66238039Y-136082152D01*
X66223065Y-136112780D01*
X66193180Y-136176871D01*
X66113171Y-136256880D01*
X66049080Y-136286765D01*
X66018452Y-136301739D01*
X66016297Y-136302052D01*
X66010623Y-136304699D01*
X65926300Y-136315800D01*
X63976300Y-136315800D01*
X63891977Y-136304699D01*
X63886302Y-136302053D01*
X63884147Y-136301739D01*
X63853497Y-136286755D01*
X63789429Y-136256880D01*
X63709420Y-136176871D01*
X63679554Y-136112825D01*
X63664560Y-136082152D01*
X63664245Y-136079994D01*
X63661601Y-136074323D01*
X63650500Y-135990000D01*
X63650500Y-135440000D01*
X63661601Y-135355677D01*
X63664245Y-135350006D01*
X63664560Y-135347847D01*
X63679564Y-135317153D01*
X63709420Y-135253129D01*
X63789429Y-135173120D01*
X63853453Y-135143264D01*
X63884147Y-135128260D01*
X63886306Y-135127945D01*
X63891977Y-135125301D01*
X63976300Y-135114200D01*
X65926300Y-135114200D01*
X66010623Y-135125301D01*
G37*
G36*
X40479850Y-133950964D02*
G01*
X40530040Y-133956787D01*
X40547189Y-133964359D01*
X40570671Y-133969030D01*
X40595810Y-133985827D01*
X40615696Y-133994608D01*
X40629277Y-134008189D01*
X40651777Y-134023223D01*
X40666810Y-134045722D01*
X40680391Y-134059303D01*
X40689170Y-134079186D01*
X40705970Y-134104329D01*
X40710641Y-134127812D01*
X40718212Y-134144959D01*
X40724033Y-134195139D01*
X40725000Y-134200000D01*
X40725000Y-134875000D01*
X40724032Y-134879863D01*
X40718212Y-134930040D01*
X40710641Y-134947185D01*
X40705970Y-134970671D01*
X40689169Y-134995815D01*
X40680391Y-135015696D01*
X40666812Y-135029274D01*
X40651777Y-135051777D01*
X40629274Y-135066812D01*
X40615696Y-135080391D01*
X40595815Y-135089169D01*
X40570671Y-135105970D01*
X40547185Y-135110641D01*
X40530040Y-135118212D01*
X40479861Y-135124032D01*
X40475000Y-135125000D01*
X39525000Y-135125000D01*
X39520138Y-135124032D01*
X39469959Y-135118212D01*
X39452812Y-135110641D01*
X39429329Y-135105970D01*
X39404186Y-135089170D01*
X39384303Y-135080391D01*
X39370722Y-135066810D01*
X39348223Y-135051777D01*
X39333189Y-135029277D01*
X39319608Y-135015696D01*
X39310827Y-134995810D01*
X39294030Y-134970671D01*
X39289359Y-134947189D01*
X39281787Y-134930040D01*
X39275964Y-134879849D01*
X39275000Y-134875000D01*
X39275000Y-134200000D01*
X39275964Y-134195150D01*
X39281787Y-134144959D01*
X39289359Y-134127808D01*
X39294030Y-134104329D01*
X39310826Y-134079191D01*
X39319608Y-134059303D01*
X39333191Y-134045719D01*
X39348223Y-134023223D01*
X39370719Y-134008191D01*
X39384303Y-133994608D01*
X39404191Y-133985826D01*
X39429329Y-133969030D01*
X39452808Y-133964359D01*
X39469959Y-133956787D01*
X39520151Y-133950964D01*
X39525000Y-133950000D01*
X40475000Y-133950000D01*
X40479850Y-133950964D01*
G37*
G36*
X43479850Y-133950964D02*
G01*
X43530040Y-133956787D01*
X43547189Y-133964359D01*
X43570671Y-133969030D01*
X43595810Y-133985827D01*
X43615696Y-133994608D01*
X43629277Y-134008189D01*
X43651777Y-134023223D01*
X43666810Y-134045722D01*
X43680391Y-134059303D01*
X43689170Y-134079186D01*
X43705970Y-134104329D01*
X43710641Y-134127812D01*
X43718212Y-134144959D01*
X43724033Y-134195139D01*
X43725000Y-134200000D01*
X43725000Y-134875000D01*
X43724032Y-134879863D01*
X43718212Y-134930040D01*
X43710641Y-134947185D01*
X43705970Y-134970671D01*
X43689169Y-134995815D01*
X43680391Y-135015696D01*
X43666812Y-135029274D01*
X43651777Y-135051777D01*
X43629274Y-135066812D01*
X43615696Y-135080391D01*
X43595815Y-135089169D01*
X43570671Y-135105970D01*
X43547185Y-135110641D01*
X43530040Y-135118212D01*
X43479861Y-135124032D01*
X43475000Y-135125000D01*
X42525000Y-135125000D01*
X42520138Y-135124032D01*
X42469959Y-135118212D01*
X42452812Y-135110641D01*
X42429329Y-135105970D01*
X42404186Y-135089170D01*
X42384303Y-135080391D01*
X42370722Y-135066810D01*
X42348223Y-135051777D01*
X42333189Y-135029277D01*
X42319608Y-135015696D01*
X42310827Y-134995810D01*
X42294030Y-134970671D01*
X42289359Y-134947189D01*
X42281787Y-134930040D01*
X42275964Y-134879849D01*
X42275000Y-134875000D01*
X42275000Y-134200000D01*
X42275964Y-134195150D01*
X42281787Y-134144959D01*
X42289359Y-134127808D01*
X42294030Y-134104329D01*
X42310826Y-134079191D01*
X42319608Y-134059303D01*
X42333191Y-134045719D01*
X42348223Y-134023223D01*
X42370719Y-134008191D01*
X42384303Y-133994608D01*
X42404191Y-133985826D01*
X42429329Y-133969030D01*
X42452808Y-133964359D01*
X42469959Y-133956787D01*
X42520151Y-133950964D01*
X42525000Y-133950000D01*
X43475000Y-133950000D01*
X43479850Y-133950964D01*
G37*
G36*
X46479850Y-133950964D02*
G01*
X46530040Y-133956787D01*
X46547189Y-133964359D01*
X46570671Y-133969030D01*
X46595810Y-133985827D01*
X46615696Y-133994608D01*
X46629277Y-134008189D01*
X46651777Y-134023223D01*
X46666810Y-134045722D01*
X46680391Y-134059303D01*
X46689170Y-134079186D01*
X46705970Y-134104329D01*
X46710641Y-134127812D01*
X46718212Y-134144959D01*
X46724033Y-134195139D01*
X46725000Y-134200000D01*
X46725000Y-134875000D01*
X46724032Y-134879863D01*
X46718212Y-134930040D01*
X46710641Y-134947185D01*
X46705970Y-134970671D01*
X46689169Y-134995815D01*
X46680391Y-135015696D01*
X46666812Y-135029274D01*
X46651777Y-135051777D01*
X46629274Y-135066812D01*
X46615696Y-135080391D01*
X46595815Y-135089169D01*
X46570671Y-135105970D01*
X46547185Y-135110641D01*
X46530040Y-135118212D01*
X46479861Y-135124032D01*
X46475000Y-135125000D01*
X45525000Y-135125000D01*
X45520138Y-135124032D01*
X45469959Y-135118212D01*
X45452812Y-135110641D01*
X45429329Y-135105970D01*
X45404186Y-135089170D01*
X45384303Y-135080391D01*
X45370722Y-135066810D01*
X45348223Y-135051777D01*
X45333189Y-135029277D01*
X45319608Y-135015696D01*
X45310827Y-134995810D01*
X45294030Y-134970671D01*
X45289359Y-134947189D01*
X45281787Y-134930040D01*
X45275964Y-134879849D01*
X45275000Y-134875000D01*
X45275000Y-134200000D01*
X45275964Y-134195150D01*
X45281787Y-134144959D01*
X45289359Y-134127808D01*
X45294030Y-134104329D01*
X45310826Y-134079191D01*
X45319608Y-134059303D01*
X45333191Y-134045719D01*
X45348223Y-134023223D01*
X45370719Y-134008191D01*
X45384303Y-133994608D01*
X45404191Y-133985826D01*
X45429329Y-133969030D01*
X45452808Y-133964359D01*
X45469959Y-133956787D01*
X45520151Y-133950964D01*
X45525000Y-133950000D01*
X46475000Y-133950000D01*
X46479850Y-133950964D01*
G37*
G36*
X66010623Y-133220301D02*
G01*
X66016294Y-133222945D01*
X66018452Y-133223260D01*
X66049125Y-133238254D01*
X66113171Y-133268120D01*
X66193180Y-133348129D01*
X66223055Y-133412197D01*
X66238039Y-133442847D01*
X66238353Y-133445002D01*
X66240999Y-133450677D01*
X66252100Y-133535000D01*
X66252100Y-134085000D01*
X66240999Y-134169323D01*
X66238352Y-134174997D01*
X66238039Y-134177152D01*
X66223065Y-134207780D01*
X66193180Y-134271871D01*
X66113171Y-134351880D01*
X66049080Y-134381765D01*
X66018452Y-134396739D01*
X66016297Y-134397052D01*
X66010623Y-134399699D01*
X65926300Y-134410800D01*
X63976300Y-134410800D01*
X63891977Y-134399699D01*
X63886302Y-134397053D01*
X63884147Y-134396739D01*
X63853497Y-134381755D01*
X63789429Y-134351880D01*
X63709420Y-134271871D01*
X63679554Y-134207825D01*
X63664560Y-134177152D01*
X63664245Y-134174994D01*
X63661601Y-134169323D01*
X63650500Y-134085000D01*
X63650500Y-133535000D01*
X63661601Y-133450677D01*
X63664245Y-133445006D01*
X63664560Y-133442847D01*
X63679564Y-133412153D01*
X63709420Y-133348129D01*
X63789429Y-133268120D01*
X63853453Y-133238264D01*
X63884147Y-133223260D01*
X63886306Y-133222945D01*
X63891977Y-133220301D01*
X63976300Y-133209200D01*
X65926300Y-133209200D01*
X66010623Y-133220301D01*
G37*
G36*
X40479850Y-131875964D02*
G01*
X40530040Y-131881787D01*
X40547189Y-131889359D01*
X40570671Y-131894030D01*
X40595810Y-131910827D01*
X40615696Y-131919608D01*
X40629277Y-131933189D01*
X40651777Y-131948223D01*
X40666810Y-131970722D01*
X40680391Y-131984303D01*
X40689170Y-132004186D01*
X40705970Y-132029329D01*
X40710641Y-132052812D01*
X40718212Y-132069959D01*
X40724033Y-132120139D01*
X40725000Y-132125000D01*
X40725000Y-132800000D01*
X40724032Y-132804863D01*
X40718212Y-132855040D01*
X40710641Y-132872185D01*
X40705970Y-132895671D01*
X40689169Y-132920815D01*
X40680391Y-132940696D01*
X40666812Y-132954274D01*
X40651777Y-132976777D01*
X40629274Y-132991812D01*
X40615696Y-133005391D01*
X40595815Y-133014169D01*
X40570671Y-133030970D01*
X40547185Y-133035641D01*
X40530040Y-133043212D01*
X40479861Y-133049032D01*
X40475000Y-133050000D01*
X39525000Y-133050000D01*
X39520138Y-133049032D01*
X39469959Y-133043212D01*
X39452812Y-133035641D01*
X39429329Y-133030970D01*
X39404186Y-133014170D01*
X39384303Y-133005391D01*
X39370722Y-132991810D01*
X39348223Y-132976777D01*
X39333189Y-132954277D01*
X39319608Y-132940696D01*
X39310827Y-132920810D01*
X39294030Y-132895671D01*
X39289359Y-132872189D01*
X39281787Y-132855040D01*
X39275964Y-132804849D01*
X39275000Y-132800000D01*
X39275000Y-132125000D01*
X39275964Y-132120150D01*
X39281787Y-132069959D01*
X39289359Y-132052808D01*
X39294030Y-132029329D01*
X39310826Y-132004191D01*
X39319608Y-131984303D01*
X39333191Y-131970719D01*
X39348223Y-131948223D01*
X39370719Y-131933191D01*
X39384303Y-131919608D01*
X39404191Y-131910826D01*
X39429329Y-131894030D01*
X39452808Y-131889359D01*
X39469959Y-131881787D01*
X39520151Y-131875964D01*
X39525000Y-131875000D01*
X40475000Y-131875000D01*
X40479850Y-131875964D01*
G37*
G36*
X43479850Y-131875964D02*
G01*
X43530040Y-131881787D01*
X43547189Y-131889359D01*
X43570671Y-131894030D01*
X43595810Y-131910827D01*
X43615696Y-131919608D01*
X43629277Y-131933189D01*
X43651777Y-131948223D01*
X43666810Y-131970722D01*
X43680391Y-131984303D01*
X43689170Y-132004186D01*
X43705970Y-132029329D01*
X43710641Y-132052812D01*
X43718212Y-132069959D01*
X43724033Y-132120139D01*
X43725000Y-132125000D01*
X43725000Y-132800000D01*
X43724032Y-132804863D01*
X43718212Y-132855040D01*
X43710641Y-132872185D01*
X43705970Y-132895671D01*
X43689169Y-132920815D01*
X43680391Y-132940696D01*
X43666812Y-132954274D01*
X43651777Y-132976777D01*
X43629274Y-132991812D01*
X43615696Y-133005391D01*
X43595815Y-133014169D01*
X43570671Y-133030970D01*
X43547185Y-133035641D01*
X43530040Y-133043212D01*
X43479861Y-133049032D01*
X43475000Y-133050000D01*
X42525000Y-133050000D01*
X42520138Y-133049032D01*
X42469959Y-133043212D01*
X42452812Y-133035641D01*
X42429329Y-133030970D01*
X42404186Y-133014170D01*
X42384303Y-133005391D01*
X42370722Y-132991810D01*
X42348223Y-132976777D01*
X42333189Y-132954277D01*
X42319608Y-132940696D01*
X42310827Y-132920810D01*
X42294030Y-132895671D01*
X42289359Y-132872189D01*
X42281787Y-132855040D01*
X42275964Y-132804849D01*
X42275000Y-132800000D01*
X42275000Y-132125000D01*
X42275964Y-132120150D01*
X42281787Y-132069959D01*
X42289359Y-132052808D01*
X42294030Y-132029329D01*
X42310826Y-132004191D01*
X42319608Y-131984303D01*
X42333191Y-131970719D01*
X42348223Y-131948223D01*
X42370719Y-131933191D01*
X42384303Y-131919608D01*
X42404191Y-131910826D01*
X42429329Y-131894030D01*
X42452808Y-131889359D01*
X42469959Y-131881787D01*
X42520151Y-131875964D01*
X42525000Y-131875000D01*
X43475000Y-131875000D01*
X43479850Y-131875964D01*
G37*
G36*
X46479850Y-131875964D02*
G01*
X46530040Y-131881787D01*
X46547189Y-131889359D01*
X46570671Y-131894030D01*
X46595810Y-131910827D01*
X46615696Y-131919608D01*
X46629277Y-131933189D01*
X46651777Y-131948223D01*
X46666810Y-131970722D01*
X46680391Y-131984303D01*
X46689170Y-132004186D01*
X46705970Y-132029329D01*
X46710641Y-132052812D01*
X46718212Y-132069959D01*
X46724033Y-132120139D01*
X46725000Y-132125000D01*
X46725000Y-132800000D01*
X46724032Y-132804863D01*
X46718212Y-132855040D01*
X46710641Y-132872185D01*
X46705970Y-132895671D01*
X46689169Y-132920815D01*
X46680391Y-132940696D01*
X46666812Y-132954274D01*
X46651777Y-132976777D01*
X46629274Y-132991812D01*
X46615696Y-133005391D01*
X46595815Y-133014169D01*
X46570671Y-133030970D01*
X46547185Y-133035641D01*
X46530040Y-133043212D01*
X46479861Y-133049032D01*
X46475000Y-133050000D01*
X45525000Y-133050000D01*
X45520138Y-133049032D01*
X45469959Y-133043212D01*
X45452812Y-133035641D01*
X45429329Y-133030970D01*
X45404186Y-133014170D01*
X45384303Y-133005391D01*
X45370722Y-132991810D01*
X45348223Y-132976777D01*
X45333189Y-132954277D01*
X45319608Y-132940696D01*
X45310827Y-132920810D01*
X45294030Y-132895671D01*
X45289359Y-132872189D01*
X45281787Y-132855040D01*
X45275964Y-132804849D01*
X45275000Y-132800000D01*
X45275000Y-132125000D01*
X45275964Y-132120150D01*
X45281787Y-132069959D01*
X45289359Y-132052808D01*
X45294030Y-132029329D01*
X45310826Y-132004191D01*
X45319608Y-131984303D01*
X45333191Y-131970719D01*
X45348223Y-131948223D01*
X45370719Y-131933191D01*
X45384303Y-131919608D01*
X45404191Y-131910826D01*
X45429329Y-131894030D01*
X45452808Y-131889359D01*
X45469959Y-131881787D01*
X45520151Y-131875964D01*
X45525000Y-131875000D01*
X46475000Y-131875000D01*
X46479850Y-131875964D01*
G37*
G36*
X29854850Y-130800964D02*
G01*
X29905040Y-130806787D01*
X29922189Y-130814359D01*
X29945671Y-130819030D01*
X29970810Y-130835827D01*
X29990696Y-130844608D01*
X30004277Y-130858189D01*
X30026777Y-130873223D01*
X30041810Y-130895722D01*
X30055391Y-130909303D01*
X30064170Y-130929186D01*
X30080970Y-130954329D01*
X30085641Y-130977812D01*
X30093212Y-130994959D01*
X30099033Y-131045139D01*
X30100000Y-131050000D01*
X30100000Y-131950000D01*
X30099032Y-131954863D01*
X30093212Y-132005040D01*
X30085641Y-132022185D01*
X30080970Y-132045671D01*
X30064169Y-132070815D01*
X30055391Y-132090696D01*
X30041812Y-132104274D01*
X30026777Y-132126777D01*
X30004274Y-132141812D01*
X29990696Y-132155391D01*
X29970815Y-132164169D01*
X29945671Y-132180970D01*
X29922185Y-132185641D01*
X29905040Y-132193212D01*
X29854861Y-132199032D01*
X29850000Y-132200000D01*
X29150000Y-132200000D01*
X29145138Y-132199032D01*
X29094959Y-132193212D01*
X29077812Y-132185641D01*
X29054329Y-132180970D01*
X29029186Y-132164170D01*
X29009303Y-132155391D01*
X28995722Y-132141810D01*
X28973223Y-132126777D01*
X28958189Y-132104277D01*
X28944608Y-132090696D01*
X28935827Y-132070810D01*
X28919030Y-132045671D01*
X28914359Y-132022189D01*
X28906787Y-132005040D01*
X28900964Y-131954849D01*
X28900000Y-131950000D01*
X28900000Y-131050000D01*
X28900964Y-131045150D01*
X28906787Y-130994959D01*
X28914359Y-130977808D01*
X28919030Y-130954329D01*
X28935826Y-130929191D01*
X28944608Y-130909303D01*
X28958191Y-130895719D01*
X28973223Y-130873223D01*
X28995719Y-130858191D01*
X29009303Y-130844608D01*
X29029191Y-130835826D01*
X29054329Y-130819030D01*
X29077808Y-130814359D01*
X29094959Y-130806787D01*
X29145151Y-130800964D01*
X29150000Y-130800000D01*
X29850000Y-130800000D01*
X29854850Y-130800964D01*
G37*
G36*
X31854850Y-130800964D02*
G01*
X31905040Y-130806787D01*
X31922189Y-130814359D01*
X31945671Y-130819030D01*
X31970810Y-130835827D01*
X31990696Y-130844608D01*
X32004277Y-130858189D01*
X32026777Y-130873223D01*
X32041810Y-130895722D01*
X32055391Y-130909303D01*
X32064170Y-130929186D01*
X32080970Y-130954329D01*
X32085641Y-130977812D01*
X32093212Y-130994959D01*
X32099033Y-131045139D01*
X32100000Y-131050000D01*
X32100000Y-131950000D01*
X32099032Y-131954863D01*
X32093212Y-132005040D01*
X32085641Y-132022185D01*
X32080970Y-132045671D01*
X32064169Y-132070815D01*
X32055391Y-132090696D01*
X32041812Y-132104274D01*
X32026777Y-132126777D01*
X32004274Y-132141812D01*
X31990696Y-132155391D01*
X31970815Y-132164169D01*
X31945671Y-132180970D01*
X31922185Y-132185641D01*
X31905040Y-132193212D01*
X31854861Y-132199032D01*
X31850000Y-132200000D01*
X31150000Y-132200000D01*
X31145138Y-132199032D01*
X31094959Y-132193212D01*
X31077812Y-132185641D01*
X31054329Y-132180970D01*
X31029186Y-132164170D01*
X31009303Y-132155391D01*
X30995722Y-132141810D01*
X30973223Y-132126777D01*
X30958189Y-132104277D01*
X30944608Y-132090696D01*
X30935827Y-132070810D01*
X30919030Y-132045671D01*
X30914359Y-132022189D01*
X30906787Y-132005040D01*
X30900964Y-131954849D01*
X30900000Y-131950000D01*
X30900000Y-131050000D01*
X30900964Y-131045150D01*
X30906787Y-130994959D01*
X30914359Y-130977808D01*
X30919030Y-130954329D01*
X30935826Y-130929191D01*
X30944608Y-130909303D01*
X30958191Y-130895719D01*
X30973223Y-130873223D01*
X30995719Y-130858191D01*
X31009303Y-130844608D01*
X31029191Y-130835826D01*
X31054329Y-130819030D01*
X31077808Y-130814359D01*
X31094959Y-130806787D01*
X31145151Y-130800964D01*
X31150000Y-130800000D01*
X31850000Y-130800000D01*
X31854850Y-130800964D01*
G37*
G36*
X34832350Y-130800964D02*
G01*
X34882540Y-130806787D01*
X34899689Y-130814359D01*
X34923171Y-130819030D01*
X34948310Y-130835827D01*
X34968196Y-130844608D01*
X34981777Y-130858189D01*
X35004277Y-130873223D01*
X35019310Y-130895722D01*
X35032891Y-130909303D01*
X35041670Y-130929186D01*
X35058470Y-130954329D01*
X35063141Y-130977812D01*
X35070712Y-130994959D01*
X35076533Y-131045139D01*
X35077500Y-131050000D01*
X35077500Y-131950000D01*
X35076532Y-131954863D01*
X35070712Y-132005040D01*
X35063141Y-132022185D01*
X35058470Y-132045671D01*
X35041669Y-132070815D01*
X35032891Y-132090696D01*
X35019312Y-132104274D01*
X35004277Y-132126777D01*
X34981774Y-132141812D01*
X34968196Y-132155391D01*
X34948315Y-132164169D01*
X34923171Y-132180970D01*
X34899685Y-132185641D01*
X34882540Y-132193212D01*
X34832361Y-132199032D01*
X34827500Y-132200000D01*
X34127500Y-132200000D01*
X34122638Y-132199032D01*
X34072459Y-132193212D01*
X34055312Y-132185641D01*
X34031829Y-132180970D01*
X34006686Y-132164170D01*
X33986803Y-132155391D01*
X33973222Y-132141810D01*
X33950723Y-132126777D01*
X33935689Y-132104277D01*
X33922108Y-132090696D01*
X33913327Y-132070810D01*
X33896530Y-132045671D01*
X33891859Y-132022189D01*
X33884287Y-132005040D01*
X33878464Y-131954849D01*
X33877500Y-131950000D01*
X33877500Y-131050000D01*
X33878464Y-131045150D01*
X33884287Y-130994959D01*
X33891859Y-130977808D01*
X33896530Y-130954329D01*
X33913326Y-130929191D01*
X33922108Y-130909303D01*
X33935691Y-130895719D01*
X33950723Y-130873223D01*
X33973219Y-130858191D01*
X33986803Y-130844608D01*
X34006691Y-130835826D01*
X34031829Y-130819030D01*
X34055308Y-130814359D01*
X34072459Y-130806787D01*
X34122651Y-130800964D01*
X34127500Y-130800000D01*
X34827500Y-130800000D01*
X34832350Y-130800964D01*
G37*
G36*
X36832350Y-130800964D02*
G01*
X36882540Y-130806787D01*
X36899689Y-130814359D01*
X36923171Y-130819030D01*
X36948310Y-130835827D01*
X36968196Y-130844608D01*
X36981777Y-130858189D01*
X37004277Y-130873223D01*
X37019310Y-130895722D01*
X37032891Y-130909303D01*
X37041670Y-130929186D01*
X37058470Y-130954329D01*
X37063141Y-130977812D01*
X37070712Y-130994959D01*
X37076533Y-131045139D01*
X37077500Y-131050000D01*
X37077500Y-131950000D01*
X37076532Y-131954863D01*
X37070712Y-132005040D01*
X37063141Y-132022185D01*
X37058470Y-132045671D01*
X37041669Y-132070815D01*
X37032891Y-132090696D01*
X37019312Y-132104274D01*
X37004277Y-132126777D01*
X36981774Y-132141812D01*
X36968196Y-132155391D01*
X36948315Y-132164169D01*
X36923171Y-132180970D01*
X36899685Y-132185641D01*
X36882540Y-132193212D01*
X36832361Y-132199032D01*
X36827500Y-132200000D01*
X36127500Y-132200000D01*
X36122638Y-132199032D01*
X36072459Y-132193212D01*
X36055312Y-132185641D01*
X36031829Y-132180970D01*
X36006686Y-132164170D01*
X35986803Y-132155391D01*
X35973222Y-132141810D01*
X35950723Y-132126777D01*
X35935689Y-132104277D01*
X35922108Y-132090696D01*
X35913327Y-132070810D01*
X35896530Y-132045671D01*
X35891859Y-132022189D01*
X35884287Y-132005040D01*
X35878464Y-131954849D01*
X35877500Y-131950000D01*
X35877500Y-131050000D01*
X35878464Y-131045150D01*
X35884287Y-130994959D01*
X35891859Y-130977808D01*
X35896530Y-130954329D01*
X35913326Y-130929191D01*
X35922108Y-130909303D01*
X35935691Y-130895719D01*
X35950723Y-130873223D01*
X35973219Y-130858191D01*
X35986803Y-130844608D01*
X36006691Y-130835826D01*
X36031829Y-130819030D01*
X36055308Y-130814359D01*
X36072459Y-130806787D01*
X36122651Y-130800964D01*
X36127500Y-130800000D01*
X36827500Y-130800000D01*
X36832350Y-130800964D01*
G37*
G36*
X80463442Y-130456601D02*
G01*
X80617387Y-130520367D01*
X80755934Y-130612941D01*
X80873759Y-130730766D01*
X80966333Y-130869313D01*
X81030099Y-131023258D01*
X81062607Y-131186685D01*
X81062607Y-131353315D01*
X81030099Y-131516742D01*
X80966333Y-131670687D01*
X80873759Y-131809234D01*
X80755934Y-131927059D01*
X80617387Y-132019633D01*
X80463442Y-132083399D01*
X80300015Y-132115907D01*
X80133385Y-132115907D01*
X79969958Y-132083399D01*
X79816013Y-132019633D01*
X79677466Y-131927059D01*
X79559641Y-131809234D01*
X79467067Y-131670687D01*
X79403301Y-131516742D01*
X79370793Y-131353315D01*
X79370793Y-131186685D01*
X79403301Y-131023258D01*
X79467067Y-130869313D01*
X79559641Y-130730766D01*
X79677466Y-130612941D01*
X79816013Y-130520367D01*
X79969958Y-130456601D01*
X80133385Y-130424093D01*
X80300015Y-130424093D01*
X80463442Y-130456601D01*
G37*
G36*
X83003442Y-130456601D02*
G01*
X83157387Y-130520367D01*
X83295934Y-130612941D01*
X83413759Y-130730766D01*
X83506333Y-130869313D01*
X83570099Y-131023258D01*
X83602607Y-131186685D01*
X83602607Y-131353315D01*
X83570099Y-131516742D01*
X83506333Y-131670687D01*
X83413759Y-131809234D01*
X83295934Y-131927059D01*
X83157387Y-132019633D01*
X83003442Y-132083399D01*
X82840015Y-132115907D01*
X82673385Y-132115907D01*
X82509958Y-132083399D01*
X82356013Y-132019633D01*
X82217466Y-131927059D01*
X82099641Y-131809234D01*
X82007067Y-131670687D01*
X81943301Y-131516742D01*
X81910793Y-131353315D01*
X81910793Y-131186685D01*
X81943301Y-131023258D01*
X82007067Y-130869313D01*
X82099641Y-130730766D01*
X82217466Y-130612941D01*
X82356013Y-130520367D01*
X82509958Y-130456601D01*
X82673385Y-130424093D01*
X82840015Y-130424093D01*
X83003442Y-130456601D01*
G37*
G36*
X52049850Y-128343464D02*
G01*
X52100040Y-128349287D01*
X52117189Y-128356859D01*
X52140671Y-128361530D01*
X52165810Y-128378327D01*
X52185696Y-128387108D01*
X52199277Y-128400689D01*
X52221777Y-128415723D01*
X52236810Y-128438222D01*
X52250391Y-128451803D01*
X52259170Y-128471686D01*
X52275970Y-128496829D01*
X52280641Y-128520312D01*
X52288212Y-128537459D01*
X52294033Y-128587639D01*
X52295000Y-128592500D01*
X52295000Y-129407500D01*
X52294032Y-129412363D01*
X52288212Y-129462540D01*
X52280641Y-129479685D01*
X52275970Y-129503171D01*
X52259169Y-129528315D01*
X52250391Y-129548196D01*
X52236812Y-129561774D01*
X52221777Y-129584277D01*
X52199274Y-129599312D01*
X52185696Y-129612891D01*
X52165815Y-129621669D01*
X52140671Y-129638470D01*
X52117185Y-129643141D01*
X52100040Y-129650712D01*
X52049861Y-129656532D01*
X52045000Y-129657500D01*
X51455000Y-129657500D01*
X51450138Y-129656532D01*
X51399959Y-129650712D01*
X51382812Y-129643141D01*
X51359329Y-129638470D01*
X51334186Y-129621670D01*
X51314303Y-129612891D01*
X51300722Y-129599310D01*
X51278223Y-129584277D01*
X51263189Y-129561777D01*
X51249608Y-129548196D01*
X51240827Y-129528310D01*
X51224030Y-129503171D01*
X51219359Y-129479689D01*
X51211787Y-129462540D01*
X51205964Y-129412349D01*
X51205000Y-129407500D01*
X51205000Y-128592500D01*
X51205964Y-128587650D01*
X51211787Y-128537459D01*
X51219359Y-128520308D01*
X51224030Y-128496829D01*
X51240826Y-128471691D01*
X51249608Y-128451803D01*
X51263191Y-128438219D01*
X51278223Y-128415723D01*
X51300719Y-128400691D01*
X51314303Y-128387108D01*
X51334191Y-128378326D01*
X51359329Y-128361530D01*
X51382808Y-128356859D01*
X51399959Y-128349287D01*
X51450151Y-128343464D01*
X51455000Y-128342500D01*
X52045000Y-128342500D01*
X52049850Y-128343464D01*
G37*
G36*
X46479850Y-128450964D02*
G01*
X46530040Y-128456787D01*
X46547189Y-128464359D01*
X46570671Y-128469030D01*
X46595810Y-128485827D01*
X46615696Y-128494608D01*
X46629277Y-128508189D01*
X46651777Y-128523223D01*
X46666810Y-128545722D01*
X46680391Y-128559303D01*
X46689170Y-128579186D01*
X46705970Y-128604329D01*
X46710641Y-128627812D01*
X46718212Y-128644959D01*
X46724033Y-128695139D01*
X46725000Y-128700000D01*
X46725000Y-129375000D01*
X46724032Y-129379863D01*
X46718212Y-129430040D01*
X46710641Y-129447185D01*
X46705970Y-129470671D01*
X46689169Y-129495815D01*
X46680391Y-129515696D01*
X46666812Y-129529274D01*
X46651777Y-129551777D01*
X46629274Y-129566812D01*
X46615696Y-129580391D01*
X46595815Y-129589169D01*
X46570671Y-129605970D01*
X46547185Y-129610641D01*
X46530040Y-129618212D01*
X46479861Y-129624032D01*
X46475000Y-129625000D01*
X45525000Y-129625000D01*
X45520138Y-129624032D01*
X45469959Y-129618212D01*
X45452812Y-129610641D01*
X45429329Y-129605970D01*
X45404186Y-129589170D01*
X45384303Y-129580391D01*
X45370722Y-129566810D01*
X45348223Y-129551777D01*
X45333189Y-129529277D01*
X45319608Y-129515696D01*
X45310827Y-129495810D01*
X45294030Y-129470671D01*
X45289359Y-129447189D01*
X45281787Y-129430040D01*
X45275964Y-129379849D01*
X45275000Y-129375000D01*
X45275000Y-128700000D01*
X45275964Y-128695150D01*
X45281787Y-128644959D01*
X45289359Y-128627808D01*
X45294030Y-128604329D01*
X45310826Y-128579191D01*
X45319608Y-128559303D01*
X45333191Y-128545719D01*
X45348223Y-128523223D01*
X45370719Y-128508191D01*
X45384303Y-128494608D01*
X45404191Y-128485826D01*
X45429329Y-128469030D01*
X45452808Y-128464359D01*
X45469959Y-128456787D01*
X45520151Y-128450964D01*
X45525000Y-128450000D01*
X46475000Y-128450000D01*
X46479850Y-128450964D01*
G37*
G36*
X43454850Y-128450964D02*
G01*
X43505040Y-128456787D01*
X43522189Y-128464359D01*
X43545671Y-128469030D01*
X43570810Y-128485827D01*
X43590696Y-128494608D01*
X43604277Y-128508189D01*
X43626777Y-128523223D01*
X43641810Y-128545722D01*
X43655391Y-128559303D01*
X43664170Y-128579186D01*
X43680970Y-128604329D01*
X43685641Y-128627812D01*
X43693212Y-128644959D01*
X43699033Y-128695139D01*
X43700000Y-128700000D01*
X43700000Y-129350000D01*
X43699032Y-129354863D01*
X43693212Y-129405040D01*
X43685641Y-129422185D01*
X43680970Y-129445671D01*
X43664169Y-129470815D01*
X43655391Y-129490696D01*
X43641812Y-129504274D01*
X43626777Y-129526777D01*
X43604274Y-129541812D01*
X43590696Y-129555391D01*
X43570815Y-129564169D01*
X43545671Y-129580970D01*
X43522185Y-129585641D01*
X43505040Y-129593212D01*
X43454861Y-129599032D01*
X43450000Y-129600000D01*
X42550000Y-129600000D01*
X42545138Y-129599032D01*
X42494959Y-129593212D01*
X42477812Y-129585641D01*
X42454329Y-129580970D01*
X42429186Y-129564170D01*
X42409303Y-129555391D01*
X42395722Y-129541810D01*
X42373223Y-129526777D01*
X42358189Y-129504277D01*
X42344608Y-129490696D01*
X42335827Y-129470810D01*
X42319030Y-129445671D01*
X42314359Y-129422189D01*
X42306787Y-129405040D01*
X42300964Y-129354849D01*
X42300000Y-129350000D01*
X42300000Y-128700000D01*
X42300964Y-128695150D01*
X42306787Y-128644959D01*
X42314359Y-128627808D01*
X42319030Y-128604329D01*
X42335826Y-128579191D01*
X42344608Y-128559303D01*
X42358191Y-128545719D01*
X42373223Y-128523223D01*
X42395719Y-128508191D01*
X42409303Y-128494608D01*
X42429191Y-128485826D01*
X42454329Y-128469030D01*
X42477808Y-128464359D01*
X42494959Y-128456787D01*
X42545151Y-128450964D01*
X42550000Y-128450000D01*
X43450000Y-128450000D01*
X43454850Y-128450964D01*
G37*
G36*
X49454850Y-128400964D02*
G01*
X49505040Y-128406787D01*
X49522189Y-128414359D01*
X49545671Y-128419030D01*
X49570810Y-128435827D01*
X49590696Y-128444608D01*
X49604277Y-128458189D01*
X49626777Y-128473223D01*
X49641810Y-128495722D01*
X49655391Y-128509303D01*
X49664170Y-128529186D01*
X49680970Y-128554329D01*
X49685641Y-128577812D01*
X49693212Y-128594959D01*
X49699033Y-128645139D01*
X49700000Y-128650000D01*
X49700000Y-129350000D01*
X49699032Y-129354863D01*
X49693212Y-129405040D01*
X49685641Y-129422185D01*
X49680970Y-129445671D01*
X49664169Y-129470815D01*
X49655391Y-129490696D01*
X49641812Y-129504274D01*
X49626777Y-129526777D01*
X49604274Y-129541812D01*
X49590696Y-129555391D01*
X49570815Y-129564169D01*
X49545671Y-129580970D01*
X49522185Y-129585641D01*
X49505040Y-129593212D01*
X49454861Y-129599032D01*
X49450000Y-129600000D01*
X48550000Y-129600000D01*
X48545138Y-129599032D01*
X48494959Y-129593212D01*
X48477812Y-129585641D01*
X48454329Y-129580970D01*
X48429186Y-129564170D01*
X48409303Y-129555391D01*
X48395722Y-129541810D01*
X48373223Y-129526777D01*
X48358189Y-129504277D01*
X48344608Y-129490696D01*
X48335827Y-129470810D01*
X48319030Y-129445671D01*
X48314359Y-129422189D01*
X48306787Y-129405040D01*
X48300964Y-129354849D01*
X48300000Y-129350000D01*
X48300000Y-128650000D01*
X48300964Y-128645150D01*
X48306787Y-128594959D01*
X48314359Y-128577808D01*
X48319030Y-128554329D01*
X48335826Y-128529191D01*
X48344608Y-128509303D01*
X48358191Y-128495719D01*
X48373223Y-128473223D01*
X48395719Y-128458191D01*
X48409303Y-128444608D01*
X48429191Y-128435826D01*
X48454329Y-128419030D01*
X48477808Y-128414359D01*
X48494959Y-128406787D01*
X48545151Y-128400964D01*
X48550000Y-128400000D01*
X49450000Y-128400000D01*
X49454850Y-128400964D01*
G37*
G36*
X80463442Y-127916601D02*
G01*
X80617387Y-127980367D01*
X80755934Y-128072941D01*
X80873759Y-128190766D01*
X80966333Y-128329313D01*
X81030099Y-128483258D01*
X81062607Y-128646685D01*
X81062607Y-128813315D01*
X81030099Y-128976742D01*
X80966333Y-129130687D01*
X80873759Y-129269234D01*
X80755934Y-129387059D01*
X80617387Y-129479633D01*
X80463442Y-129543399D01*
X80300015Y-129575907D01*
X80133385Y-129575907D01*
X79969958Y-129543399D01*
X79816013Y-129479633D01*
X79677466Y-129387059D01*
X79559641Y-129269234D01*
X79467067Y-129130687D01*
X79403301Y-128976742D01*
X79370793Y-128813315D01*
X79370793Y-128646685D01*
X79403301Y-128483258D01*
X79467067Y-128329313D01*
X79559641Y-128190766D01*
X79677466Y-128072941D01*
X79816013Y-127980367D01*
X79969958Y-127916601D01*
X80133385Y-127884093D01*
X80300015Y-127884093D01*
X80463442Y-127916601D01*
G37*
G36*
X83003442Y-127916601D02*
G01*
X83157387Y-127980367D01*
X83295934Y-128072941D01*
X83413759Y-128190766D01*
X83506333Y-128329313D01*
X83570099Y-128483258D01*
X83602607Y-128646685D01*
X83602607Y-128813315D01*
X83570099Y-128976742D01*
X83506333Y-129130687D01*
X83413759Y-129269234D01*
X83295934Y-129387059D01*
X83157387Y-129479633D01*
X83003442Y-129543399D01*
X82840015Y-129575907D01*
X82673385Y-129575907D01*
X82509958Y-129543399D01*
X82356013Y-129479633D01*
X82217466Y-129387059D01*
X82099641Y-129269234D01*
X82007067Y-129130687D01*
X81943301Y-128976742D01*
X81910793Y-128813315D01*
X81910793Y-128646685D01*
X81943301Y-128483258D01*
X82007067Y-128329313D01*
X82099641Y-128190766D01*
X82217466Y-128072941D01*
X82356013Y-127980367D01*
X82509958Y-127916601D01*
X82673385Y-127884093D01*
X82840015Y-127884093D01*
X83003442Y-127916601D01*
G37*
G36*
X29804850Y-127775964D02*
G01*
X29855040Y-127781787D01*
X29872189Y-127789359D01*
X29895671Y-127794030D01*
X29920810Y-127810827D01*
X29940696Y-127819608D01*
X29954277Y-127833189D01*
X29976777Y-127848223D01*
X29991810Y-127870722D01*
X30005391Y-127884303D01*
X30014170Y-127904186D01*
X30030970Y-127929329D01*
X30035641Y-127952812D01*
X30043212Y-127969959D01*
X30049033Y-128020139D01*
X30050000Y-128025000D01*
X30050000Y-128975000D01*
X30049032Y-128979863D01*
X30043212Y-129030040D01*
X30035641Y-129047185D01*
X30030970Y-129070671D01*
X30014169Y-129095815D01*
X30005391Y-129115696D01*
X29991812Y-129129274D01*
X29976777Y-129151777D01*
X29954274Y-129166812D01*
X29940696Y-129180391D01*
X29920815Y-129189169D01*
X29895671Y-129205970D01*
X29872185Y-129210641D01*
X29855040Y-129218212D01*
X29804861Y-129224032D01*
X29800000Y-129225000D01*
X29125000Y-129225000D01*
X29120138Y-129224032D01*
X29069959Y-129218212D01*
X29052812Y-129210641D01*
X29029329Y-129205970D01*
X29004186Y-129189170D01*
X28984303Y-129180391D01*
X28970722Y-129166810D01*
X28948223Y-129151777D01*
X28933189Y-129129277D01*
X28919608Y-129115696D01*
X28910827Y-129095810D01*
X28894030Y-129070671D01*
X28889359Y-129047189D01*
X28881787Y-129030040D01*
X28875964Y-128979849D01*
X28875000Y-128975000D01*
X28875000Y-128025000D01*
X28875964Y-128020150D01*
X28881787Y-127969959D01*
X28889359Y-127952808D01*
X28894030Y-127929329D01*
X28910826Y-127904191D01*
X28919608Y-127884303D01*
X28933191Y-127870719D01*
X28948223Y-127848223D01*
X28970719Y-127833191D01*
X28984303Y-127819608D01*
X29004191Y-127810826D01*
X29029329Y-127794030D01*
X29052808Y-127789359D01*
X29069959Y-127781787D01*
X29120151Y-127775964D01*
X29125000Y-127775000D01*
X29800000Y-127775000D01*
X29804850Y-127775964D01*
G37*
G36*
X31879850Y-127775964D02*
G01*
X31930040Y-127781787D01*
X31947189Y-127789359D01*
X31970671Y-127794030D01*
X31995810Y-127810827D01*
X32015696Y-127819608D01*
X32029277Y-127833189D01*
X32051777Y-127848223D01*
X32066810Y-127870722D01*
X32080391Y-127884303D01*
X32089170Y-127904186D01*
X32105970Y-127929329D01*
X32110641Y-127952812D01*
X32118212Y-127969959D01*
X32124033Y-128020139D01*
X32125000Y-128025000D01*
X32125000Y-128975000D01*
X32124032Y-128979863D01*
X32118212Y-129030040D01*
X32110641Y-129047185D01*
X32105970Y-129070671D01*
X32089169Y-129095815D01*
X32080391Y-129115696D01*
X32066812Y-129129274D01*
X32051777Y-129151777D01*
X32029274Y-129166812D01*
X32015696Y-129180391D01*
X31995815Y-129189169D01*
X31970671Y-129205970D01*
X31947185Y-129210641D01*
X31930040Y-129218212D01*
X31879861Y-129224032D01*
X31875000Y-129225000D01*
X31200000Y-129225000D01*
X31195138Y-129224032D01*
X31144959Y-129218212D01*
X31127812Y-129210641D01*
X31104329Y-129205970D01*
X31079186Y-129189170D01*
X31059303Y-129180391D01*
X31045722Y-129166810D01*
X31023223Y-129151777D01*
X31008189Y-129129277D01*
X30994608Y-129115696D01*
X30985827Y-129095810D01*
X30969030Y-129070671D01*
X30964359Y-129047189D01*
X30956787Y-129030040D01*
X30950964Y-128979849D01*
X30950000Y-128975000D01*
X30950000Y-128025000D01*
X30950964Y-128020150D01*
X30956787Y-127969959D01*
X30964359Y-127952808D01*
X30969030Y-127929329D01*
X30985826Y-127904191D01*
X30994608Y-127884303D01*
X31008191Y-127870719D01*
X31023223Y-127848223D01*
X31045719Y-127833191D01*
X31059303Y-127819608D01*
X31079191Y-127810826D01*
X31104329Y-127794030D01*
X31127808Y-127789359D01*
X31144959Y-127781787D01*
X31195151Y-127775964D01*
X31200000Y-127775000D01*
X31875000Y-127775000D01*
X31879850Y-127775964D01*
G37*
G36*
X34912350Y-127955964D02*
G01*
X34962540Y-127961787D01*
X34979689Y-127969359D01*
X35003171Y-127974030D01*
X35028310Y-127990827D01*
X35048196Y-127999608D01*
X35061777Y-128013189D01*
X35084277Y-128028223D01*
X35099310Y-128050722D01*
X35112891Y-128064303D01*
X35121670Y-128084186D01*
X35138470Y-128109329D01*
X35143141Y-128132812D01*
X35150712Y-128149959D01*
X35156533Y-128200139D01*
X35157500Y-128205000D01*
X35157500Y-128795000D01*
X35156532Y-128799863D01*
X35150712Y-128850040D01*
X35143141Y-128867185D01*
X35138470Y-128890671D01*
X35121669Y-128915815D01*
X35112891Y-128935696D01*
X35099312Y-128949274D01*
X35084277Y-128971777D01*
X35061774Y-128986812D01*
X35048196Y-129000391D01*
X35028315Y-129009169D01*
X35003171Y-129025970D01*
X34979685Y-129030641D01*
X34962540Y-129038212D01*
X34912361Y-129044032D01*
X34907500Y-129045000D01*
X34092500Y-129045000D01*
X34087638Y-129044032D01*
X34037459Y-129038212D01*
X34020312Y-129030641D01*
X33996829Y-129025970D01*
X33971686Y-129009170D01*
X33951803Y-129000391D01*
X33938222Y-128986810D01*
X33915723Y-128971777D01*
X33900689Y-128949277D01*
X33887108Y-128935696D01*
X33878327Y-128915810D01*
X33861530Y-128890671D01*
X33856859Y-128867189D01*
X33849287Y-128850040D01*
X33843464Y-128799849D01*
X33842500Y-128795000D01*
X33842500Y-128205000D01*
X33843464Y-128200150D01*
X33849287Y-128149959D01*
X33856859Y-128132808D01*
X33861530Y-128109329D01*
X33878326Y-128084191D01*
X33887108Y-128064303D01*
X33900691Y-128050719D01*
X33915723Y-128028223D01*
X33938219Y-128013191D01*
X33951803Y-127999608D01*
X33971691Y-127990826D01*
X33996829Y-127974030D01*
X34020308Y-127969359D01*
X34037459Y-127961787D01*
X34087651Y-127955964D01*
X34092500Y-127955000D01*
X34907500Y-127955000D01*
X34912350Y-127955964D01*
G37*
G36*
X36867350Y-127955964D02*
G01*
X36917540Y-127961787D01*
X36934689Y-127969359D01*
X36958171Y-127974030D01*
X36983310Y-127990827D01*
X37003196Y-127999608D01*
X37016777Y-128013189D01*
X37039277Y-128028223D01*
X37054310Y-128050722D01*
X37067891Y-128064303D01*
X37076670Y-128084186D01*
X37093470Y-128109329D01*
X37098141Y-128132812D01*
X37105712Y-128149959D01*
X37111533Y-128200139D01*
X37112500Y-128205000D01*
X37112500Y-128795000D01*
X37111532Y-128799863D01*
X37105712Y-128850040D01*
X37098141Y-128867185D01*
X37093470Y-128890671D01*
X37076669Y-128915815D01*
X37067891Y-128935696D01*
X37054312Y-128949274D01*
X37039277Y-128971777D01*
X37016774Y-128986812D01*
X37003196Y-129000391D01*
X36983315Y-129009169D01*
X36958171Y-129025970D01*
X36934685Y-129030641D01*
X36917540Y-129038212D01*
X36867361Y-129044032D01*
X36862500Y-129045000D01*
X36047500Y-129045000D01*
X36042638Y-129044032D01*
X35992459Y-129038212D01*
X35975312Y-129030641D01*
X35951829Y-129025970D01*
X35926686Y-129009170D01*
X35906803Y-129000391D01*
X35893222Y-128986810D01*
X35870723Y-128971777D01*
X35855689Y-128949277D01*
X35842108Y-128935696D01*
X35833327Y-128915810D01*
X35816530Y-128890671D01*
X35811859Y-128867189D01*
X35804287Y-128850040D01*
X35798464Y-128799849D01*
X35797500Y-128795000D01*
X35797500Y-128205000D01*
X35798464Y-128200150D01*
X35804287Y-128149959D01*
X35811859Y-128132808D01*
X35816530Y-128109329D01*
X35833326Y-128084191D01*
X35842108Y-128064303D01*
X35855691Y-128050719D01*
X35870723Y-128028223D01*
X35893219Y-128013191D01*
X35906803Y-127999608D01*
X35926691Y-127990826D01*
X35951829Y-127974030D01*
X35975308Y-127969359D01*
X35992459Y-127961787D01*
X36042651Y-127955964D01*
X36047500Y-127955000D01*
X36862500Y-127955000D01*
X36867350Y-127955964D01*
G37*
G36*
X56454850Y-127400964D02*
G01*
X56505040Y-127406787D01*
X56522189Y-127414359D01*
X56545671Y-127419030D01*
X56570810Y-127435827D01*
X56590696Y-127444608D01*
X56604277Y-127458189D01*
X56626777Y-127473223D01*
X56641810Y-127495722D01*
X56655391Y-127509303D01*
X56664170Y-127529186D01*
X56680970Y-127554329D01*
X56685641Y-127577812D01*
X56693212Y-127594959D01*
X56699033Y-127645139D01*
X56700000Y-127650000D01*
X56700000Y-128350000D01*
X56699032Y-128354863D01*
X56693212Y-128405040D01*
X56685641Y-128422185D01*
X56680970Y-128445671D01*
X56664169Y-128470815D01*
X56655391Y-128490696D01*
X56641812Y-128504274D01*
X56626777Y-128526777D01*
X56604274Y-128541812D01*
X56590696Y-128555391D01*
X56570815Y-128564169D01*
X56545671Y-128580970D01*
X56522185Y-128585641D01*
X56505040Y-128593212D01*
X56454861Y-128599032D01*
X56450000Y-128600000D01*
X55550000Y-128600000D01*
X55545138Y-128599032D01*
X55494959Y-128593212D01*
X55477812Y-128585641D01*
X55454329Y-128580970D01*
X55429186Y-128564170D01*
X55409303Y-128555391D01*
X55395722Y-128541810D01*
X55373223Y-128526777D01*
X55358189Y-128504277D01*
X55344608Y-128490696D01*
X55335827Y-128470810D01*
X55319030Y-128445671D01*
X55314359Y-128422189D01*
X55306787Y-128405040D01*
X55300964Y-128354849D01*
X55300000Y-128350000D01*
X55300000Y-127650000D01*
X55300964Y-127645150D01*
X55306787Y-127594959D01*
X55314359Y-127577808D01*
X55319030Y-127554329D01*
X55335826Y-127529191D01*
X55344608Y-127509303D01*
X55358191Y-127495719D01*
X55373223Y-127473223D01*
X55395719Y-127458191D01*
X55409303Y-127444608D01*
X55429191Y-127435826D01*
X55454329Y-127419030D01*
X55477808Y-127414359D01*
X55494959Y-127406787D01*
X55545151Y-127400964D01*
X55550000Y-127400000D01*
X56450000Y-127400000D01*
X56454850Y-127400964D01*
G37*
G36*
X58704850Y-127400964D02*
G01*
X58755040Y-127406787D01*
X58772189Y-127414359D01*
X58795671Y-127419030D01*
X58820810Y-127435827D01*
X58840696Y-127444608D01*
X58854277Y-127458189D01*
X58876777Y-127473223D01*
X58891810Y-127495722D01*
X58905391Y-127509303D01*
X58914170Y-127529186D01*
X58930970Y-127554329D01*
X58935641Y-127577812D01*
X58943212Y-127594959D01*
X58949033Y-127645139D01*
X58950000Y-127650000D01*
X58950000Y-128350000D01*
X58949032Y-128354863D01*
X58943212Y-128405040D01*
X58935641Y-128422185D01*
X58930970Y-128445671D01*
X58914169Y-128470815D01*
X58905391Y-128490696D01*
X58891812Y-128504274D01*
X58876777Y-128526777D01*
X58854274Y-128541812D01*
X58840696Y-128555391D01*
X58820815Y-128564169D01*
X58795671Y-128580970D01*
X58772185Y-128585641D01*
X58755040Y-128593212D01*
X58704861Y-128599032D01*
X58700000Y-128600000D01*
X57800000Y-128600000D01*
X57795138Y-128599032D01*
X57744959Y-128593212D01*
X57727812Y-128585641D01*
X57704329Y-128580970D01*
X57679186Y-128564170D01*
X57659303Y-128555391D01*
X57645722Y-128541810D01*
X57623223Y-128526777D01*
X57608189Y-128504277D01*
X57594608Y-128490696D01*
X57585827Y-128470810D01*
X57569030Y-128445671D01*
X57564359Y-128422189D01*
X57556787Y-128405040D01*
X57550964Y-128354849D01*
X57550000Y-128350000D01*
X57550000Y-127650000D01*
X57550964Y-127645150D01*
X57556787Y-127594959D01*
X57564359Y-127577808D01*
X57569030Y-127554329D01*
X57585826Y-127529191D01*
X57594608Y-127509303D01*
X57608191Y-127495719D01*
X57623223Y-127473223D01*
X57645719Y-127458191D01*
X57659303Y-127444608D01*
X57679191Y-127435826D01*
X57704329Y-127419030D01*
X57727808Y-127414359D01*
X57744959Y-127406787D01*
X57795151Y-127400964D01*
X57800000Y-127400000D01*
X58700000Y-127400000D01*
X58704850Y-127400964D01*
G37*
G36*
X52049850Y-126388464D02*
G01*
X52100040Y-126394287D01*
X52117189Y-126401859D01*
X52140671Y-126406530D01*
X52165810Y-126423327D01*
X52185696Y-126432108D01*
X52199277Y-126445689D01*
X52221777Y-126460723D01*
X52236810Y-126483222D01*
X52250391Y-126496803D01*
X52259170Y-126516686D01*
X52275970Y-126541829D01*
X52280641Y-126565312D01*
X52288212Y-126582459D01*
X52294033Y-126632639D01*
X52295000Y-126637500D01*
X52295000Y-127452500D01*
X52294032Y-127457363D01*
X52288212Y-127507540D01*
X52280641Y-127524685D01*
X52275970Y-127548171D01*
X52259169Y-127573315D01*
X52250391Y-127593196D01*
X52236812Y-127606774D01*
X52221777Y-127629277D01*
X52199274Y-127644312D01*
X52185696Y-127657891D01*
X52165815Y-127666669D01*
X52140671Y-127683470D01*
X52117185Y-127688141D01*
X52100040Y-127695712D01*
X52049861Y-127701532D01*
X52045000Y-127702500D01*
X51455000Y-127702500D01*
X51450138Y-127701532D01*
X51399959Y-127695712D01*
X51382812Y-127688141D01*
X51359329Y-127683470D01*
X51334186Y-127666670D01*
X51314303Y-127657891D01*
X51300722Y-127644310D01*
X51278223Y-127629277D01*
X51263189Y-127606777D01*
X51249608Y-127593196D01*
X51240827Y-127573310D01*
X51224030Y-127548171D01*
X51219359Y-127524689D01*
X51211787Y-127507540D01*
X51205964Y-127457349D01*
X51205000Y-127452500D01*
X51205000Y-126637500D01*
X51205964Y-126632650D01*
X51211787Y-126582459D01*
X51219359Y-126565308D01*
X51224030Y-126541829D01*
X51240826Y-126516691D01*
X51249608Y-126496803D01*
X51263191Y-126483219D01*
X51278223Y-126460723D01*
X51300719Y-126445691D01*
X51314303Y-126432108D01*
X51334191Y-126423326D01*
X51359329Y-126406530D01*
X51382808Y-126401859D01*
X51399959Y-126394287D01*
X51450151Y-126388464D01*
X51455000Y-126387500D01*
X52045000Y-126387500D01*
X52049850Y-126388464D01*
G37*
G36*
X49454850Y-126400964D02*
G01*
X49505040Y-126406787D01*
X49522189Y-126414359D01*
X49545671Y-126419030D01*
X49570810Y-126435827D01*
X49590696Y-126444608D01*
X49604277Y-126458189D01*
X49626777Y-126473223D01*
X49641810Y-126495722D01*
X49655391Y-126509303D01*
X49664170Y-126529186D01*
X49680970Y-126554329D01*
X49685641Y-126577812D01*
X49693212Y-126594959D01*
X49699033Y-126645139D01*
X49700000Y-126650000D01*
X49700000Y-127350000D01*
X49699032Y-127354863D01*
X49693212Y-127405040D01*
X49685641Y-127422185D01*
X49680970Y-127445671D01*
X49664169Y-127470815D01*
X49655391Y-127490696D01*
X49641812Y-127504274D01*
X49626777Y-127526777D01*
X49604274Y-127541812D01*
X49590696Y-127555391D01*
X49570815Y-127564169D01*
X49545671Y-127580970D01*
X49522185Y-127585641D01*
X49505040Y-127593212D01*
X49454861Y-127599032D01*
X49450000Y-127600000D01*
X48550000Y-127600000D01*
X48545138Y-127599032D01*
X48494959Y-127593212D01*
X48477812Y-127585641D01*
X48454329Y-127580970D01*
X48429186Y-127564170D01*
X48409303Y-127555391D01*
X48395722Y-127541810D01*
X48373223Y-127526777D01*
X48358189Y-127504277D01*
X48344608Y-127490696D01*
X48335827Y-127470810D01*
X48319030Y-127445671D01*
X48314359Y-127422189D01*
X48306787Y-127405040D01*
X48300964Y-127354849D01*
X48300000Y-127350000D01*
X48300000Y-126650000D01*
X48300964Y-126645150D01*
X48306787Y-126594959D01*
X48314359Y-126577808D01*
X48319030Y-126554329D01*
X48335826Y-126529191D01*
X48344608Y-126509303D01*
X48358191Y-126495719D01*
X48373223Y-126473223D01*
X48395719Y-126458191D01*
X48409303Y-126444608D01*
X48429191Y-126435826D01*
X48454329Y-126419030D01*
X48477808Y-126414359D01*
X48494959Y-126406787D01*
X48545151Y-126400964D01*
X48550000Y-126400000D01*
X49450000Y-126400000D01*
X49454850Y-126400964D01*
G37*
G36*
X43454850Y-126400964D02*
G01*
X43505040Y-126406787D01*
X43522189Y-126414359D01*
X43545671Y-126419030D01*
X43570810Y-126435827D01*
X43590696Y-126444608D01*
X43604277Y-126458189D01*
X43626777Y-126473223D01*
X43641810Y-126495722D01*
X43655391Y-126509303D01*
X43664170Y-126529186D01*
X43680970Y-126554329D01*
X43685641Y-126577812D01*
X43693212Y-126594959D01*
X43699033Y-126645139D01*
X43700000Y-126650000D01*
X43700000Y-127300000D01*
X43699032Y-127304863D01*
X43693212Y-127355040D01*
X43685641Y-127372185D01*
X43680970Y-127395671D01*
X43664169Y-127420815D01*
X43655391Y-127440696D01*
X43641812Y-127454274D01*
X43626777Y-127476777D01*
X43604274Y-127491812D01*
X43590696Y-127505391D01*
X43570815Y-127514169D01*
X43545671Y-127530970D01*
X43522185Y-127535641D01*
X43505040Y-127543212D01*
X43454861Y-127549032D01*
X43450000Y-127550000D01*
X42550000Y-127550000D01*
X42545138Y-127549032D01*
X42494959Y-127543212D01*
X42477812Y-127535641D01*
X42454329Y-127530970D01*
X42429186Y-127514170D01*
X42409303Y-127505391D01*
X42395722Y-127491810D01*
X42373223Y-127476777D01*
X42358189Y-127454277D01*
X42344608Y-127440696D01*
X42335827Y-127420810D01*
X42319030Y-127395671D01*
X42314359Y-127372189D01*
X42306787Y-127355040D01*
X42300964Y-127304849D01*
X42300000Y-127300000D01*
X42300000Y-126650000D01*
X42300964Y-126645150D01*
X42306787Y-126594959D01*
X42314359Y-126577808D01*
X42319030Y-126554329D01*
X42335826Y-126529191D01*
X42344608Y-126509303D01*
X42358191Y-126495719D01*
X42373223Y-126473223D01*
X42395719Y-126458191D01*
X42409303Y-126444608D01*
X42429191Y-126435826D01*
X42454329Y-126419030D01*
X42477808Y-126414359D01*
X42494959Y-126406787D01*
X42545151Y-126400964D01*
X42550000Y-126400000D01*
X43450000Y-126400000D01*
X43454850Y-126400964D01*
G37*
G36*
X46479850Y-126375964D02*
G01*
X46530040Y-126381787D01*
X46547189Y-126389359D01*
X46570671Y-126394030D01*
X46595810Y-126410827D01*
X46615696Y-126419608D01*
X46629277Y-126433189D01*
X46651777Y-126448223D01*
X46666810Y-126470722D01*
X46680391Y-126484303D01*
X46689170Y-126504186D01*
X46705970Y-126529329D01*
X46710641Y-126552812D01*
X46718212Y-126569959D01*
X46724033Y-126620139D01*
X46725000Y-126625000D01*
X46725000Y-127300000D01*
X46724032Y-127304863D01*
X46718212Y-127355040D01*
X46710641Y-127372185D01*
X46705970Y-127395671D01*
X46689169Y-127420815D01*
X46680391Y-127440696D01*
X46666812Y-127454274D01*
X46651777Y-127476777D01*
X46629274Y-127491812D01*
X46615696Y-127505391D01*
X46595815Y-127514169D01*
X46570671Y-127530970D01*
X46547185Y-127535641D01*
X46530040Y-127543212D01*
X46479861Y-127549032D01*
X46475000Y-127550000D01*
X45525000Y-127550000D01*
X45520138Y-127549032D01*
X45469959Y-127543212D01*
X45452812Y-127535641D01*
X45429329Y-127530970D01*
X45404186Y-127514170D01*
X45384303Y-127505391D01*
X45370722Y-127491810D01*
X45348223Y-127476777D01*
X45333189Y-127454277D01*
X45319608Y-127440696D01*
X45310827Y-127420810D01*
X45294030Y-127395671D01*
X45289359Y-127372189D01*
X45281787Y-127355040D01*
X45275964Y-127304849D01*
X45275000Y-127300000D01*
X45275000Y-126625000D01*
X45275964Y-126620150D01*
X45281787Y-126569959D01*
X45289359Y-126552808D01*
X45294030Y-126529329D01*
X45310826Y-126504191D01*
X45319608Y-126484303D01*
X45333191Y-126470719D01*
X45348223Y-126448223D01*
X45370719Y-126433191D01*
X45384303Y-126419608D01*
X45404191Y-126410826D01*
X45429329Y-126394030D01*
X45452808Y-126389359D01*
X45469959Y-126381787D01*
X45520151Y-126375964D01*
X45525000Y-126375000D01*
X46475000Y-126375000D01*
X46479850Y-126375964D01*
G37*
G36*
X74861023Y-124265301D02*
G01*
X74866694Y-124267945D01*
X74868852Y-124268260D01*
X74899525Y-124283254D01*
X74963571Y-124313120D01*
X75043580Y-124393129D01*
X75073455Y-124457197D01*
X75088439Y-124487847D01*
X75088753Y-124490002D01*
X75091399Y-124495677D01*
X75102500Y-124580000D01*
X75102500Y-126530000D01*
X75091399Y-126614323D01*
X75088752Y-126619997D01*
X75088439Y-126622152D01*
X75073465Y-126652780D01*
X75043580Y-126716871D01*
X74963571Y-126796880D01*
X74899480Y-126826765D01*
X74868852Y-126841739D01*
X74866697Y-126842052D01*
X74861023Y-126844699D01*
X74776700Y-126855800D01*
X74226700Y-126855800D01*
X74142377Y-126844699D01*
X74136702Y-126842053D01*
X74134547Y-126841739D01*
X74103897Y-126826755D01*
X74039829Y-126796880D01*
X73959820Y-126716871D01*
X73929954Y-126652825D01*
X73914960Y-126622152D01*
X73914645Y-126619994D01*
X73912001Y-126614323D01*
X73900900Y-126530000D01*
X73900900Y-124580000D01*
X73912001Y-124495677D01*
X73914645Y-124490006D01*
X73914960Y-124487847D01*
X73929964Y-124457153D01*
X73959820Y-124393129D01*
X74039829Y-124313120D01*
X74103853Y-124283264D01*
X74134547Y-124268260D01*
X74136706Y-124267945D01*
X74142377Y-124265301D01*
X74226700Y-124254200D01*
X74776700Y-124254200D01*
X74861023Y-124265301D01*
G37*
G36*
X76766023Y-124265301D02*
G01*
X76771694Y-124267945D01*
X76773852Y-124268260D01*
X76804525Y-124283254D01*
X76868571Y-124313120D01*
X76948580Y-124393129D01*
X76978455Y-124457197D01*
X76993439Y-124487847D01*
X76993753Y-124490002D01*
X76996399Y-124495677D01*
X77007500Y-124580000D01*
X77007500Y-126530000D01*
X76996399Y-126614323D01*
X76993752Y-126619997D01*
X76993439Y-126622152D01*
X76978465Y-126652780D01*
X76948580Y-126716871D01*
X76868571Y-126796880D01*
X76804480Y-126826765D01*
X76773852Y-126841739D01*
X76771697Y-126842052D01*
X76766023Y-126844699D01*
X76681700Y-126855800D01*
X76131700Y-126855800D01*
X76047377Y-126844699D01*
X76041702Y-126842053D01*
X76039547Y-126841739D01*
X76008897Y-126826755D01*
X75944829Y-126796880D01*
X75864820Y-126716871D01*
X75834954Y-126652825D01*
X75819960Y-126622152D01*
X75819645Y-126619994D01*
X75817001Y-126614323D01*
X75805900Y-126530000D01*
X75805900Y-124580000D01*
X75817001Y-124495677D01*
X75819645Y-124490006D01*
X75819960Y-124487847D01*
X75834964Y-124457153D01*
X75864820Y-124393129D01*
X75944829Y-124313120D01*
X76008853Y-124283264D01*
X76039547Y-124268260D01*
X76041706Y-124267945D01*
X76047377Y-124265301D01*
X76131700Y-124254200D01*
X76681700Y-124254200D01*
X76766023Y-124265301D01*
G37*
G36*
X56454850Y-125400964D02*
G01*
X56505040Y-125406787D01*
X56522189Y-125414359D01*
X56545671Y-125419030D01*
X56570810Y-125435827D01*
X56590696Y-125444608D01*
X56604277Y-125458189D01*
X56626777Y-125473223D01*
X56641810Y-125495722D01*
X56655391Y-125509303D01*
X56664170Y-125529186D01*
X56680970Y-125554329D01*
X56685641Y-125577812D01*
X56693212Y-125594959D01*
X56699033Y-125645139D01*
X56700000Y-125650000D01*
X56700000Y-126350000D01*
X56699032Y-126354863D01*
X56693212Y-126405040D01*
X56685641Y-126422185D01*
X56680970Y-126445671D01*
X56664169Y-126470815D01*
X56655391Y-126490696D01*
X56641812Y-126504274D01*
X56626777Y-126526777D01*
X56604274Y-126541812D01*
X56590696Y-126555391D01*
X56570815Y-126564169D01*
X56545671Y-126580970D01*
X56522185Y-126585641D01*
X56505040Y-126593212D01*
X56454861Y-126599032D01*
X56450000Y-126600000D01*
X55550000Y-126600000D01*
X55545138Y-126599032D01*
X55494959Y-126593212D01*
X55477812Y-126585641D01*
X55454329Y-126580970D01*
X55429186Y-126564170D01*
X55409303Y-126555391D01*
X55395722Y-126541810D01*
X55373223Y-126526777D01*
X55358189Y-126504277D01*
X55344608Y-126490696D01*
X55335827Y-126470810D01*
X55319030Y-126445671D01*
X55314359Y-126422189D01*
X55306787Y-126405040D01*
X55300964Y-126354849D01*
X55300000Y-126350000D01*
X55300000Y-125650000D01*
X55300964Y-125645150D01*
X55306787Y-125594959D01*
X55314359Y-125577808D01*
X55319030Y-125554329D01*
X55335826Y-125529191D01*
X55344608Y-125509303D01*
X55358191Y-125495719D01*
X55373223Y-125473223D01*
X55395719Y-125458191D01*
X55409303Y-125444608D01*
X55429191Y-125435826D01*
X55454329Y-125419030D01*
X55477808Y-125414359D01*
X55494959Y-125406787D01*
X55545151Y-125400964D01*
X55550000Y-125400000D01*
X56450000Y-125400000D01*
X56454850Y-125400964D01*
G37*
G36*
X58704850Y-125400964D02*
G01*
X58755040Y-125406787D01*
X58772189Y-125414359D01*
X58795671Y-125419030D01*
X58820810Y-125435827D01*
X58840696Y-125444608D01*
X58854277Y-125458189D01*
X58876777Y-125473223D01*
X58891810Y-125495722D01*
X58905391Y-125509303D01*
X58914170Y-125529186D01*
X58930970Y-125554329D01*
X58935641Y-125577812D01*
X58943212Y-125594959D01*
X58949033Y-125645139D01*
X58950000Y-125650000D01*
X58950000Y-126350000D01*
X58949032Y-126354863D01*
X58943212Y-126405040D01*
X58935641Y-126422185D01*
X58930970Y-126445671D01*
X58914169Y-126470815D01*
X58905391Y-126490696D01*
X58891812Y-126504274D01*
X58876777Y-126526777D01*
X58854274Y-126541812D01*
X58840696Y-126555391D01*
X58820815Y-126564169D01*
X58795671Y-126580970D01*
X58772185Y-126585641D01*
X58755040Y-126593212D01*
X58704861Y-126599032D01*
X58700000Y-126600000D01*
X57800000Y-126600000D01*
X57795138Y-126599032D01*
X57744959Y-126593212D01*
X57727812Y-126585641D01*
X57704329Y-126580970D01*
X57679186Y-126564170D01*
X57659303Y-126555391D01*
X57645722Y-126541810D01*
X57623223Y-126526777D01*
X57608189Y-126504277D01*
X57594608Y-126490696D01*
X57585827Y-126470810D01*
X57569030Y-126445671D01*
X57564359Y-126422189D01*
X57556787Y-126405040D01*
X57550964Y-126354849D01*
X57550000Y-126350000D01*
X57550000Y-125650000D01*
X57550964Y-125645150D01*
X57556787Y-125594959D01*
X57564359Y-125577808D01*
X57569030Y-125554329D01*
X57585826Y-125529191D01*
X57594608Y-125509303D01*
X57608191Y-125495719D01*
X57623223Y-125473223D01*
X57645719Y-125458191D01*
X57659303Y-125444608D01*
X57679191Y-125435826D01*
X57704329Y-125419030D01*
X57727808Y-125414359D01*
X57744959Y-125406787D01*
X57795151Y-125400964D01*
X57800000Y-125400000D01*
X58700000Y-125400000D01*
X58704850Y-125400964D01*
G37*
G36*
X32727735Y-125281473D02*
G01*
X32785158Y-125319842D01*
X32823527Y-125377265D01*
X32837000Y-125445000D01*
X32837000Y-125895000D01*
X32823527Y-125962735D01*
X32785158Y-126020158D01*
X32727735Y-126058527D01*
X32660000Y-126072000D01*
X30840000Y-126072000D01*
X30772265Y-126058527D01*
X30714842Y-126020158D01*
X30676473Y-125962735D01*
X30663000Y-125895000D01*
X30663000Y-125445000D01*
X30676473Y-125377265D01*
X30714842Y-125319842D01*
X30772265Y-125281473D01*
X30840000Y-125268000D01*
X32660000Y-125268000D01*
X32727735Y-125281473D01*
G37*
G36*
X37667735Y-125281473D02*
G01*
X37725158Y-125319842D01*
X37763527Y-125377265D01*
X37777000Y-125445000D01*
X37777000Y-125895000D01*
X37763527Y-125962735D01*
X37725158Y-126020158D01*
X37667735Y-126058527D01*
X37600000Y-126072000D01*
X35780000Y-126072000D01*
X35712265Y-126058527D01*
X35654842Y-126020158D01*
X35616473Y-125962735D01*
X35603000Y-125895000D01*
X35603000Y-125445000D01*
X35616473Y-125377265D01*
X35654842Y-125319842D01*
X35712265Y-125281473D01*
X35780000Y-125268000D01*
X37600000Y-125268000D01*
X37667735Y-125281473D01*
G37*
G36*
X32727735Y-124011473D02*
G01*
X32785158Y-124049842D01*
X32823527Y-124107265D01*
X32837000Y-124175000D01*
X32837000Y-124625000D01*
X32823527Y-124692735D01*
X32785158Y-124750158D01*
X32727735Y-124788527D01*
X32660000Y-124802000D01*
X30840000Y-124802000D01*
X30772265Y-124788527D01*
X30714842Y-124750158D01*
X30676473Y-124692735D01*
X30663000Y-124625000D01*
X30663000Y-124175000D01*
X30676473Y-124107265D01*
X30714842Y-124049842D01*
X30772265Y-124011473D01*
X30840000Y-123998000D01*
X32660000Y-123998000D01*
X32727735Y-124011473D01*
G37*
G36*
X37667735Y-124011473D02*
G01*
X37725158Y-124049842D01*
X37763527Y-124107265D01*
X37777000Y-124175000D01*
X37777000Y-124625000D01*
X37763527Y-124692735D01*
X37725158Y-124750158D01*
X37667735Y-124788527D01*
X37600000Y-124802000D01*
X35780000Y-124802000D01*
X35712265Y-124788527D01*
X35654842Y-124750158D01*
X35616473Y-124692735D01*
X35603000Y-124625000D01*
X35603000Y-124175000D01*
X35616473Y-124107265D01*
X35654842Y-124049842D01*
X35712265Y-124011473D01*
X35780000Y-123998000D01*
X37600000Y-123998000D01*
X37667735Y-124011473D01*
G37*
G36*
X58704850Y-123400964D02*
G01*
X58755040Y-123406787D01*
X58772189Y-123414359D01*
X58795671Y-123419030D01*
X58820810Y-123435827D01*
X58840696Y-123444608D01*
X58854277Y-123458189D01*
X58876777Y-123473223D01*
X58891810Y-123495722D01*
X58905391Y-123509303D01*
X58914170Y-123529186D01*
X58930970Y-123554329D01*
X58935641Y-123577812D01*
X58943212Y-123594959D01*
X58949033Y-123645139D01*
X58950000Y-123650000D01*
X58950000Y-124350000D01*
X58949032Y-124354863D01*
X58943212Y-124405040D01*
X58935641Y-124422185D01*
X58930970Y-124445671D01*
X58914169Y-124470815D01*
X58905391Y-124490696D01*
X58891812Y-124504274D01*
X58876777Y-124526777D01*
X58854274Y-124541812D01*
X58840696Y-124555391D01*
X58820815Y-124564169D01*
X58795671Y-124580970D01*
X58772185Y-124585641D01*
X58755040Y-124593212D01*
X58704861Y-124599032D01*
X58700000Y-124600000D01*
X57800000Y-124600000D01*
X57795138Y-124599032D01*
X57744959Y-124593212D01*
X57727812Y-124585641D01*
X57704329Y-124580970D01*
X57679186Y-124564170D01*
X57659303Y-124555391D01*
X57645722Y-124541810D01*
X57623223Y-124526777D01*
X57608189Y-124504277D01*
X57594608Y-124490696D01*
X57585827Y-124470810D01*
X57569030Y-124445671D01*
X57564359Y-124422189D01*
X57556787Y-124405040D01*
X57550964Y-124354849D01*
X57550000Y-124350000D01*
X57550000Y-123650000D01*
X57550964Y-123645150D01*
X57556787Y-123594959D01*
X57564359Y-123577808D01*
X57569030Y-123554329D01*
X57585826Y-123529191D01*
X57594608Y-123509303D01*
X57608191Y-123495719D01*
X57623223Y-123473223D01*
X57645719Y-123458191D01*
X57659303Y-123444608D01*
X57679191Y-123435826D01*
X57704329Y-123419030D01*
X57727808Y-123414359D01*
X57744959Y-123406787D01*
X57795151Y-123400964D01*
X57800000Y-123400000D01*
X58700000Y-123400000D01*
X58704850Y-123400964D01*
G37*
G36*
X32727735Y-122741473D02*
G01*
X32785158Y-122779842D01*
X32823527Y-122837265D01*
X32837000Y-122905000D01*
X32837000Y-123355000D01*
X32823527Y-123422735D01*
X32785158Y-123480158D01*
X32727735Y-123518527D01*
X32660000Y-123532000D01*
X30840000Y-123532000D01*
X30772265Y-123518527D01*
X30714842Y-123480158D01*
X30676473Y-123422735D01*
X30663000Y-123355000D01*
X30663000Y-122905000D01*
X30676473Y-122837265D01*
X30714842Y-122779842D01*
X30772265Y-122741473D01*
X30840000Y-122728000D01*
X32660000Y-122728000D01*
X32727735Y-122741473D01*
G37*
G36*
X37667735Y-122741473D02*
G01*
X37725158Y-122779842D01*
X37763527Y-122837265D01*
X37777000Y-122905000D01*
X37777000Y-123355000D01*
X37763527Y-123422735D01*
X37725158Y-123480158D01*
X37667735Y-123518527D01*
X37600000Y-123532000D01*
X35780000Y-123532000D01*
X35712265Y-123518527D01*
X35654842Y-123480158D01*
X35616473Y-123422735D01*
X35603000Y-123355000D01*
X35603000Y-122905000D01*
X35616473Y-122837265D01*
X35654842Y-122779842D01*
X35712265Y-122741473D01*
X35780000Y-122728000D01*
X37600000Y-122728000D01*
X37667735Y-122741473D01*
G37*
G36*
X46867350Y-122025964D02*
G01*
X46917540Y-122031787D01*
X46934689Y-122039359D01*
X46958171Y-122044030D01*
X46983310Y-122060827D01*
X47003196Y-122069608D01*
X47016777Y-122083189D01*
X47039277Y-122098223D01*
X47054310Y-122120722D01*
X47067891Y-122134303D01*
X47076670Y-122154186D01*
X47093470Y-122179329D01*
X47098141Y-122202812D01*
X47105712Y-122219959D01*
X47111533Y-122270139D01*
X47112500Y-122275000D01*
X47112500Y-123225000D01*
X47111532Y-123229863D01*
X47105712Y-123280040D01*
X47098141Y-123297185D01*
X47093470Y-123320671D01*
X47076669Y-123345815D01*
X47067891Y-123365696D01*
X47054312Y-123379274D01*
X47039277Y-123401777D01*
X47016774Y-123416812D01*
X47003196Y-123430391D01*
X46983315Y-123439169D01*
X46958171Y-123455970D01*
X46934685Y-123460641D01*
X46917540Y-123468212D01*
X46867361Y-123474032D01*
X46862500Y-123475000D01*
X46187500Y-123475000D01*
X46182638Y-123474032D01*
X46132459Y-123468212D01*
X46115312Y-123460641D01*
X46091829Y-123455970D01*
X46066686Y-123439170D01*
X46046803Y-123430391D01*
X46033222Y-123416810D01*
X46010723Y-123401777D01*
X45995689Y-123379277D01*
X45982108Y-123365696D01*
X45973327Y-123345810D01*
X45956530Y-123320671D01*
X45951859Y-123297189D01*
X45944287Y-123280040D01*
X45938464Y-123229849D01*
X45937500Y-123225000D01*
X45937500Y-122275000D01*
X45938464Y-122270150D01*
X45944287Y-122219959D01*
X45951859Y-122202808D01*
X45956530Y-122179329D01*
X45973326Y-122154191D01*
X45982108Y-122134303D01*
X45995691Y-122120719D01*
X46010723Y-122098223D01*
X46033219Y-122083191D01*
X46046803Y-122069608D01*
X46066691Y-122060826D01*
X46091829Y-122044030D01*
X46115308Y-122039359D01*
X46132459Y-122031787D01*
X46182651Y-122025964D01*
X46187500Y-122025000D01*
X46862500Y-122025000D01*
X46867350Y-122025964D01*
G37*
G36*
X48942350Y-122025964D02*
G01*
X48992540Y-122031787D01*
X49009689Y-122039359D01*
X49033171Y-122044030D01*
X49058310Y-122060827D01*
X49078196Y-122069608D01*
X49091777Y-122083189D01*
X49114277Y-122098223D01*
X49129310Y-122120722D01*
X49142891Y-122134303D01*
X49151670Y-122154186D01*
X49168470Y-122179329D01*
X49173141Y-122202812D01*
X49180712Y-122219959D01*
X49186533Y-122270139D01*
X49187500Y-122275000D01*
X49187500Y-123225000D01*
X49186532Y-123229863D01*
X49180712Y-123280040D01*
X49173141Y-123297185D01*
X49168470Y-123320671D01*
X49151669Y-123345815D01*
X49142891Y-123365696D01*
X49129312Y-123379274D01*
X49114277Y-123401777D01*
X49091774Y-123416812D01*
X49078196Y-123430391D01*
X49058315Y-123439169D01*
X49033171Y-123455970D01*
X49009685Y-123460641D01*
X48992540Y-123468212D01*
X48942361Y-123474032D01*
X48937500Y-123475000D01*
X48262500Y-123475000D01*
X48257638Y-123474032D01*
X48207459Y-123468212D01*
X48190312Y-123460641D01*
X48166829Y-123455970D01*
X48141686Y-123439170D01*
X48121803Y-123430391D01*
X48108222Y-123416810D01*
X48085723Y-123401777D01*
X48070689Y-123379277D01*
X48057108Y-123365696D01*
X48048327Y-123345810D01*
X48031530Y-123320671D01*
X48026859Y-123297189D01*
X48019287Y-123280040D01*
X48013464Y-123229849D01*
X48012500Y-123225000D01*
X48012500Y-122275000D01*
X48013464Y-122270150D01*
X48019287Y-122219959D01*
X48026859Y-122202808D01*
X48031530Y-122179329D01*
X48048326Y-122154191D01*
X48057108Y-122134303D01*
X48070691Y-122120719D01*
X48085723Y-122098223D01*
X48108219Y-122083191D01*
X48121803Y-122069608D01*
X48141691Y-122060826D01*
X48166829Y-122044030D01*
X48190308Y-122039359D01*
X48207459Y-122031787D01*
X48257651Y-122025964D01*
X48262500Y-122025000D01*
X48937500Y-122025000D01*
X48942350Y-122025964D01*
G37*
G36*
X67232121Y-120340601D02*
G01*
X67281563Y-120373637D01*
X67314599Y-120423079D01*
X67326200Y-120481400D01*
X67326200Y-122608600D01*
X67314599Y-122666921D01*
X67281563Y-122716363D01*
X67232121Y-122749399D01*
X67230871Y-122749647D01*
X67225972Y-122754546D01*
X67153234Y-122863408D01*
X67047608Y-122969034D01*
X66923404Y-123052024D01*
X66785397Y-123109189D01*
X66638889Y-123138331D01*
X66489511Y-123138331D01*
X66343003Y-123109189D01*
X66204996Y-123052024D01*
X66080792Y-122969034D01*
X65975166Y-122863408D01*
X65902429Y-122754549D01*
X65897527Y-122749647D01*
X65896279Y-122749399D01*
X65846837Y-122716363D01*
X65813801Y-122666921D01*
X65802200Y-122608600D01*
X65802200Y-120481400D01*
X65813801Y-120423079D01*
X65846837Y-120373637D01*
X65896279Y-120340601D01*
X65954600Y-120329000D01*
X67173800Y-120329000D01*
X67232121Y-120340601D01*
G37*
G36*
X69772121Y-120340601D02*
G01*
X69821563Y-120373637D01*
X69854599Y-120423079D01*
X69866200Y-120481400D01*
X69866200Y-122608600D01*
X69854599Y-122666921D01*
X69821563Y-122716363D01*
X69772121Y-122749399D01*
X69770871Y-122749647D01*
X69765972Y-122754546D01*
X69693234Y-122863408D01*
X69587608Y-122969034D01*
X69463404Y-123052024D01*
X69325397Y-123109189D01*
X69178889Y-123138331D01*
X69029511Y-123138331D01*
X68883003Y-123109189D01*
X68744996Y-123052024D01*
X68620792Y-122969034D01*
X68515166Y-122863408D01*
X68442429Y-122754549D01*
X68437527Y-122749647D01*
X68436279Y-122749399D01*
X68386837Y-122716363D01*
X68353801Y-122666921D01*
X68342200Y-122608600D01*
X68342200Y-120481400D01*
X68353801Y-120423079D01*
X68386837Y-120373637D01*
X68436279Y-120340601D01*
X68494600Y-120329000D01*
X69713800Y-120329000D01*
X69772121Y-120340601D01*
G37*
G36*
X72312121Y-120340601D02*
G01*
X72361563Y-120373637D01*
X72394599Y-120423079D01*
X72406200Y-120481400D01*
X72406200Y-122608600D01*
X72394599Y-122666921D01*
X72361563Y-122716363D01*
X72312121Y-122749399D01*
X72310871Y-122749647D01*
X72305972Y-122754546D01*
X72233234Y-122863408D01*
X72127608Y-122969034D01*
X72003404Y-123052024D01*
X71865397Y-123109189D01*
X71718889Y-123138331D01*
X71569511Y-123138331D01*
X71423003Y-123109189D01*
X71284996Y-123052024D01*
X71160792Y-122969034D01*
X71055166Y-122863408D01*
X70982429Y-122754549D01*
X70977527Y-122749647D01*
X70976279Y-122749399D01*
X70926837Y-122716363D01*
X70893801Y-122666921D01*
X70882200Y-122608600D01*
X70882200Y-120481400D01*
X70893801Y-120423079D01*
X70926837Y-120373637D01*
X70976279Y-120340601D01*
X71034600Y-120329000D01*
X72253800Y-120329000D01*
X72312121Y-120340601D01*
G37*
G36*
X74852121Y-120340601D02*
G01*
X74901563Y-120373637D01*
X74934599Y-120423079D01*
X74946200Y-120481400D01*
X74946200Y-122608600D01*
X74934599Y-122666921D01*
X74901563Y-122716363D01*
X74852121Y-122749399D01*
X74850871Y-122749647D01*
X74845972Y-122754546D01*
X74773234Y-122863408D01*
X74667608Y-122969034D01*
X74543404Y-123052024D01*
X74405397Y-123109189D01*
X74258889Y-123138331D01*
X74109511Y-123138331D01*
X73963003Y-123109189D01*
X73824996Y-123052024D01*
X73700792Y-122969034D01*
X73595166Y-122863408D01*
X73522429Y-122754549D01*
X73517527Y-122749647D01*
X73516279Y-122749399D01*
X73466837Y-122716363D01*
X73433801Y-122666921D01*
X73422200Y-122608600D01*
X73422200Y-120481400D01*
X73433801Y-120423079D01*
X73466837Y-120373637D01*
X73516279Y-120340601D01*
X73574600Y-120329000D01*
X74793800Y-120329000D01*
X74852121Y-120340601D01*
G37*
G36*
X77392121Y-120340601D02*
G01*
X77441563Y-120373637D01*
X77474599Y-120423079D01*
X77486200Y-120481400D01*
X77486200Y-122608600D01*
X77474599Y-122666921D01*
X77441563Y-122716363D01*
X77392121Y-122749399D01*
X77390871Y-122749647D01*
X77385972Y-122754546D01*
X77313234Y-122863408D01*
X77207608Y-122969034D01*
X77083404Y-123052024D01*
X76945397Y-123109189D01*
X76798889Y-123138331D01*
X76649511Y-123138331D01*
X76503003Y-123109189D01*
X76364996Y-123052024D01*
X76240792Y-122969034D01*
X76135166Y-122863408D01*
X76062429Y-122754549D01*
X76057527Y-122749647D01*
X76056279Y-122749399D01*
X76006837Y-122716363D01*
X75973801Y-122666921D01*
X75962200Y-122608600D01*
X75962200Y-120481400D01*
X75973801Y-120423079D01*
X76006837Y-120373637D01*
X76056279Y-120340601D01*
X76114600Y-120329000D01*
X77333800Y-120329000D01*
X77392121Y-120340601D01*
G37*
G36*
X79932121Y-120340601D02*
G01*
X79981563Y-120373637D01*
X80014599Y-120423079D01*
X80026200Y-120481400D01*
X80026200Y-122608600D01*
X80014599Y-122666921D01*
X79981563Y-122716363D01*
X79932121Y-122749399D01*
X79930871Y-122749647D01*
X79925972Y-122754546D01*
X79853234Y-122863408D01*
X79747608Y-122969034D01*
X79623404Y-123052024D01*
X79485397Y-123109189D01*
X79338889Y-123138331D01*
X79189511Y-123138331D01*
X79043003Y-123109189D01*
X78904996Y-123052024D01*
X78780792Y-122969034D01*
X78675166Y-122863408D01*
X78602429Y-122754549D01*
X78597527Y-122749647D01*
X78596279Y-122749399D01*
X78546837Y-122716363D01*
X78513801Y-122666921D01*
X78502200Y-122608600D01*
X78502200Y-120481400D01*
X78513801Y-120423079D01*
X78546837Y-120373637D01*
X78596279Y-120340601D01*
X78654600Y-120329000D01*
X79873800Y-120329000D01*
X79932121Y-120340601D01*
G37*
G36*
X82472121Y-120340601D02*
G01*
X82521563Y-120373637D01*
X82554599Y-120423079D01*
X82566200Y-120481400D01*
X82566200Y-122608600D01*
X82554599Y-122666921D01*
X82521563Y-122716363D01*
X82472121Y-122749399D01*
X82470871Y-122749647D01*
X82465972Y-122754546D01*
X82393234Y-122863408D01*
X82287608Y-122969034D01*
X82163404Y-123052024D01*
X82025397Y-123109189D01*
X81878889Y-123138331D01*
X81729511Y-123138331D01*
X81583003Y-123109189D01*
X81444996Y-123052024D01*
X81320792Y-122969034D01*
X81215166Y-122863408D01*
X81142429Y-122754549D01*
X81137527Y-122749647D01*
X81136279Y-122749399D01*
X81086837Y-122716363D01*
X81053801Y-122666921D01*
X81042200Y-122608600D01*
X81042200Y-120481400D01*
X81053801Y-120423079D01*
X81086837Y-120373637D01*
X81136279Y-120340601D01*
X81194600Y-120329000D01*
X82413800Y-120329000D01*
X82472121Y-120340601D01*
G37*
G36*
X58704850Y-121400964D02*
G01*
X58755040Y-121406787D01*
X58772189Y-121414359D01*
X58795671Y-121419030D01*
X58820810Y-121435827D01*
X58840696Y-121444608D01*
X58854277Y-121458189D01*
X58876777Y-121473223D01*
X58891810Y-121495722D01*
X58905391Y-121509303D01*
X58914170Y-121529186D01*
X58930970Y-121554329D01*
X58935641Y-121577812D01*
X58943212Y-121594959D01*
X58949033Y-121645139D01*
X58950000Y-121650000D01*
X58950000Y-122350000D01*
X58949032Y-122354863D01*
X58943212Y-122405040D01*
X58935641Y-122422185D01*
X58930970Y-122445671D01*
X58914169Y-122470815D01*
X58905391Y-122490696D01*
X58891812Y-122504274D01*
X58876777Y-122526777D01*
X58854274Y-122541812D01*
X58840696Y-122555391D01*
X58820815Y-122564169D01*
X58795671Y-122580970D01*
X58772185Y-122585641D01*
X58755040Y-122593212D01*
X58704861Y-122599032D01*
X58700000Y-122600000D01*
X57800000Y-122600000D01*
X57795138Y-122599032D01*
X57744959Y-122593212D01*
X57727812Y-122585641D01*
X57704329Y-122580970D01*
X57679186Y-122564170D01*
X57659303Y-122555391D01*
X57645722Y-122541810D01*
X57623223Y-122526777D01*
X57608189Y-122504277D01*
X57594608Y-122490696D01*
X57585827Y-122470810D01*
X57569030Y-122445671D01*
X57564359Y-122422189D01*
X57556787Y-122405040D01*
X57550964Y-122354849D01*
X57550000Y-122350000D01*
X57550000Y-121650000D01*
X57550964Y-121645150D01*
X57556787Y-121594959D01*
X57564359Y-121577808D01*
X57569030Y-121554329D01*
X57585826Y-121529191D01*
X57594608Y-121509303D01*
X57608191Y-121495719D01*
X57623223Y-121473223D01*
X57645719Y-121458191D01*
X57659303Y-121444608D01*
X57679191Y-121435826D01*
X57704329Y-121419030D01*
X57727808Y-121414359D01*
X57744959Y-121406787D01*
X57795151Y-121400964D01*
X57800000Y-121400000D01*
X58700000Y-121400000D01*
X58704850Y-121400964D01*
G37*
G36*
X32727735Y-121471473D02*
G01*
X32785158Y-121509842D01*
X32823527Y-121567265D01*
X32837000Y-121635000D01*
X32837000Y-122085000D01*
X32823527Y-122152735D01*
X32785158Y-122210158D01*
X32727735Y-122248527D01*
X32660000Y-122262000D01*
X30840000Y-122262000D01*
X30772265Y-122248527D01*
X30714842Y-122210158D01*
X30676473Y-122152735D01*
X30663000Y-122085000D01*
X30663000Y-121635000D01*
X30676473Y-121567265D01*
X30714842Y-121509842D01*
X30772265Y-121471473D01*
X30840000Y-121458000D01*
X32660000Y-121458000D01*
X32727735Y-121471473D01*
G37*
G36*
X37667735Y-121471473D02*
G01*
X37725158Y-121509842D01*
X37763527Y-121567265D01*
X37777000Y-121635000D01*
X37777000Y-122085000D01*
X37763527Y-122152735D01*
X37725158Y-122210158D01*
X37667735Y-122248527D01*
X37600000Y-122262000D01*
X35780000Y-122262000D01*
X35712265Y-122248527D01*
X35654842Y-122210158D01*
X35616473Y-122152735D01*
X35603000Y-122085000D01*
X35603000Y-121635000D01*
X35616473Y-121567265D01*
X35654842Y-121509842D01*
X35712265Y-121471473D01*
X35780000Y-121458000D01*
X37600000Y-121458000D01*
X37667735Y-121471473D01*
G37*
G36*
X51650000Y-120625000D02*
G01*
X51450000Y-120625000D01*
X51450000Y-119775000D01*
X51650000Y-119775000D01*
X51650000Y-120625000D01*
G37*
G36*
X52050000Y-120625000D02*
G01*
X51850000Y-120625000D01*
X51850000Y-119775000D01*
X52050000Y-119775000D01*
X52050000Y-120625000D01*
G37*
G36*
X52450000Y-120625000D02*
G01*
X52250000Y-120625000D01*
X52250000Y-119775000D01*
X52450000Y-119775000D01*
X52450000Y-120625000D01*
G37*
G36*
X52850000Y-120625000D02*
G01*
X52650000Y-120625000D01*
X52650000Y-119775000D01*
X52850000Y-119775000D01*
X52850000Y-120625000D01*
G37*
G36*
X53250000Y-120625000D02*
G01*
X53050000Y-120625000D01*
X53050000Y-119775000D01*
X53250000Y-119775000D01*
X53250000Y-120625000D01*
G37*
G36*
X53650000Y-120625000D02*
G01*
X53450000Y-120625000D01*
X53450000Y-119775000D01*
X53650000Y-119775000D01*
X53650000Y-120625000D01*
G37*
G36*
X54050000Y-120625000D02*
G01*
X53850000Y-120625000D01*
X53850000Y-119775000D01*
X54050000Y-119775000D01*
X54050000Y-120625000D01*
G37*
G36*
X32604850Y-118550964D02*
G01*
X32655040Y-118556787D01*
X32672189Y-118564359D01*
X32695671Y-118569030D01*
X32720810Y-118585827D01*
X32740696Y-118594608D01*
X32754277Y-118608189D01*
X32776777Y-118623223D01*
X32791810Y-118645722D01*
X32805391Y-118659303D01*
X32814170Y-118679186D01*
X32830970Y-118704329D01*
X32835641Y-118727812D01*
X32843212Y-118744959D01*
X32849033Y-118795139D01*
X32850000Y-118800000D01*
X32850000Y-119700000D01*
X32849032Y-119704863D01*
X32843212Y-119755040D01*
X32835641Y-119772185D01*
X32830970Y-119795671D01*
X32814169Y-119820815D01*
X32805391Y-119840696D01*
X32791812Y-119854274D01*
X32776777Y-119876777D01*
X32754274Y-119891812D01*
X32740696Y-119905391D01*
X32720815Y-119914169D01*
X32695671Y-119930970D01*
X32672185Y-119935641D01*
X32655040Y-119943212D01*
X32604861Y-119949032D01*
X32600000Y-119950000D01*
X31900000Y-119950000D01*
X31895138Y-119949032D01*
X31844959Y-119943212D01*
X31827812Y-119935641D01*
X31804329Y-119930970D01*
X31779186Y-119914170D01*
X31759303Y-119905391D01*
X31745722Y-119891810D01*
X31723223Y-119876777D01*
X31708189Y-119854277D01*
X31694608Y-119840696D01*
X31685827Y-119820810D01*
X31669030Y-119795671D01*
X31664359Y-119772189D01*
X31656787Y-119755040D01*
X31650964Y-119704849D01*
X31650000Y-119700000D01*
X31650000Y-118800000D01*
X31650964Y-118795150D01*
X31656787Y-118744959D01*
X31664359Y-118727808D01*
X31669030Y-118704329D01*
X31685826Y-118679191D01*
X31694608Y-118659303D01*
X31708191Y-118645719D01*
X31723223Y-118623223D01*
X31745719Y-118608191D01*
X31759303Y-118594608D01*
X31779191Y-118585826D01*
X31804329Y-118569030D01*
X31827808Y-118564359D01*
X31844959Y-118556787D01*
X31895151Y-118550964D01*
X31900000Y-118550000D01*
X32600000Y-118550000D01*
X32604850Y-118550964D01*
G37*
G36*
X34604850Y-118550964D02*
G01*
X34655040Y-118556787D01*
X34672189Y-118564359D01*
X34695671Y-118569030D01*
X34720810Y-118585827D01*
X34740696Y-118594608D01*
X34754277Y-118608189D01*
X34776777Y-118623223D01*
X34791810Y-118645722D01*
X34805391Y-118659303D01*
X34814170Y-118679186D01*
X34830970Y-118704329D01*
X34835641Y-118727812D01*
X34843212Y-118744959D01*
X34849033Y-118795139D01*
X34850000Y-118800000D01*
X34850000Y-119700000D01*
X34849032Y-119704863D01*
X34843212Y-119755040D01*
X34835641Y-119772185D01*
X34830970Y-119795671D01*
X34814169Y-119820815D01*
X34805391Y-119840696D01*
X34791812Y-119854274D01*
X34776777Y-119876777D01*
X34754274Y-119891812D01*
X34740696Y-119905391D01*
X34720815Y-119914169D01*
X34695671Y-119930970D01*
X34672185Y-119935641D01*
X34655040Y-119943212D01*
X34604861Y-119949032D01*
X34600000Y-119950000D01*
X33900000Y-119950000D01*
X33895138Y-119949032D01*
X33844959Y-119943212D01*
X33827812Y-119935641D01*
X33804329Y-119930970D01*
X33779186Y-119914170D01*
X33759303Y-119905391D01*
X33745722Y-119891810D01*
X33723223Y-119876777D01*
X33708189Y-119854277D01*
X33694608Y-119840696D01*
X33685827Y-119820810D01*
X33669030Y-119795671D01*
X33664359Y-119772189D01*
X33656787Y-119755040D01*
X33650964Y-119704849D01*
X33650000Y-119700000D01*
X33650000Y-118800000D01*
X33650964Y-118795150D01*
X33656787Y-118744959D01*
X33664359Y-118727808D01*
X33669030Y-118704329D01*
X33685826Y-118679191D01*
X33694608Y-118659303D01*
X33708191Y-118645719D01*
X33723223Y-118623223D01*
X33745719Y-118608191D01*
X33759303Y-118594608D01*
X33779191Y-118585826D01*
X33804329Y-118569030D01*
X33827808Y-118564359D01*
X33844959Y-118556787D01*
X33895151Y-118550964D01*
X33900000Y-118550000D01*
X34600000Y-118550000D01*
X34604850Y-118550964D01*
G37*
G36*
X36707350Y-118705964D02*
G01*
X36757540Y-118711787D01*
X36774689Y-118719359D01*
X36798171Y-118724030D01*
X36823310Y-118740827D01*
X36843196Y-118749608D01*
X36856777Y-118763189D01*
X36879277Y-118778223D01*
X36894310Y-118800722D01*
X36907891Y-118814303D01*
X36916670Y-118834186D01*
X36933470Y-118859329D01*
X36938141Y-118882812D01*
X36945712Y-118899959D01*
X36951533Y-118950139D01*
X36952500Y-118955000D01*
X36952500Y-119545000D01*
X36951532Y-119549863D01*
X36945712Y-119600040D01*
X36938141Y-119617185D01*
X36933470Y-119640671D01*
X36916669Y-119665815D01*
X36907891Y-119685696D01*
X36894312Y-119699274D01*
X36879277Y-119721777D01*
X36856774Y-119736812D01*
X36843196Y-119750391D01*
X36823315Y-119759169D01*
X36798171Y-119775970D01*
X36774685Y-119780641D01*
X36757540Y-119788212D01*
X36707361Y-119794032D01*
X36702500Y-119795000D01*
X35887500Y-119795000D01*
X35882638Y-119794032D01*
X35832459Y-119788212D01*
X35815312Y-119780641D01*
X35791829Y-119775970D01*
X35766686Y-119759170D01*
X35746803Y-119750391D01*
X35733222Y-119736810D01*
X35710723Y-119721777D01*
X35695689Y-119699277D01*
X35682108Y-119685696D01*
X35673327Y-119665810D01*
X35656530Y-119640671D01*
X35651859Y-119617189D01*
X35644287Y-119600040D01*
X35638464Y-119549849D01*
X35637500Y-119545000D01*
X35637500Y-118955000D01*
X35638464Y-118950150D01*
X35644287Y-118899959D01*
X35651859Y-118882808D01*
X35656530Y-118859329D01*
X35673326Y-118834191D01*
X35682108Y-118814303D01*
X35695691Y-118800719D01*
X35710723Y-118778223D01*
X35733219Y-118763191D01*
X35746803Y-118749608D01*
X35766691Y-118740826D01*
X35791829Y-118724030D01*
X35815308Y-118719359D01*
X35832459Y-118711787D01*
X35882651Y-118705964D01*
X35887500Y-118705000D01*
X36702500Y-118705000D01*
X36707350Y-118705964D01*
G37*
G36*
X38662350Y-118705964D02*
G01*
X38712540Y-118711787D01*
X38729689Y-118719359D01*
X38753171Y-118724030D01*
X38778310Y-118740827D01*
X38798196Y-118749608D01*
X38811777Y-118763189D01*
X38834277Y-118778223D01*
X38849310Y-118800722D01*
X38862891Y-118814303D01*
X38871670Y-118834186D01*
X38888470Y-118859329D01*
X38893141Y-118882812D01*
X38900712Y-118899959D01*
X38906533Y-118950139D01*
X38907500Y-118955000D01*
X38907500Y-119545000D01*
X38906532Y-119549863D01*
X38900712Y-119600040D01*
X38893141Y-119617185D01*
X38888470Y-119640671D01*
X38871669Y-119665815D01*
X38862891Y-119685696D01*
X38849312Y-119699274D01*
X38834277Y-119721777D01*
X38811774Y-119736812D01*
X38798196Y-119750391D01*
X38778315Y-119759169D01*
X38753171Y-119775970D01*
X38729685Y-119780641D01*
X38712540Y-119788212D01*
X38662361Y-119794032D01*
X38657500Y-119795000D01*
X37842500Y-119795000D01*
X37837638Y-119794032D01*
X37787459Y-119788212D01*
X37770312Y-119780641D01*
X37746829Y-119775970D01*
X37721686Y-119759170D01*
X37701803Y-119750391D01*
X37688222Y-119736810D01*
X37665723Y-119721777D01*
X37650689Y-119699277D01*
X37637108Y-119685696D01*
X37628327Y-119665810D01*
X37611530Y-119640671D01*
X37606859Y-119617189D01*
X37599287Y-119600040D01*
X37593464Y-119549849D01*
X37592500Y-119545000D01*
X37592500Y-118955000D01*
X37593464Y-118950150D01*
X37599287Y-118899959D01*
X37606859Y-118882808D01*
X37611530Y-118859329D01*
X37628326Y-118834191D01*
X37637108Y-118814303D01*
X37650691Y-118800719D01*
X37665723Y-118778223D01*
X37688219Y-118763191D01*
X37701803Y-118749608D01*
X37721691Y-118740826D01*
X37746829Y-118724030D01*
X37770308Y-118719359D01*
X37787459Y-118711787D01*
X37837651Y-118705964D01*
X37842500Y-118705000D01*
X38657500Y-118705000D01*
X38662350Y-118705964D01*
G37*
G36*
X51225000Y-119550000D02*
G01*
X50375000Y-119550000D01*
X50375000Y-119350000D01*
X51225000Y-119350000D01*
X51225000Y-119550000D01*
G37*
G36*
X55125000Y-119550000D02*
G01*
X54275000Y-119550000D01*
X54275000Y-119350000D01*
X55125000Y-119350000D01*
X55125000Y-119550000D01*
G37*
G36*
X54000000Y-119500000D02*
G01*
X51500000Y-119500000D01*
X51500000Y-117000000D01*
X54000000Y-117000000D01*
X54000000Y-119500000D01*
G37*
G36*
X68630000Y-119250000D02*
G01*
X67630000Y-119250000D01*
X67630000Y-117350000D01*
X68630000Y-117350000D01*
X68630000Y-119250000D01*
G37*
G36*
X73710000Y-119250000D02*
G01*
X72710000Y-119250000D01*
X72710000Y-117350000D01*
X73710000Y-117350000D01*
X73710000Y-119250000D01*
G37*
G36*
X78790000Y-119250000D02*
G01*
X77790000Y-119250000D01*
X77790000Y-117350000D01*
X78790000Y-117350000D01*
X78790000Y-119250000D01*
G37*
G36*
X51225000Y-119150000D02*
G01*
X50375000Y-119150000D01*
X50375000Y-118950000D01*
X51225000Y-118950000D01*
X51225000Y-119150000D01*
G37*
G36*
X55125000Y-119150000D02*
G01*
X54275000Y-119150000D01*
X54275000Y-118950000D01*
X55125000Y-118950000D01*
X55125000Y-119150000D01*
G37*
G36*
X51225000Y-118750000D02*
G01*
X50375000Y-118750000D01*
X50375000Y-118550000D01*
X51225000Y-118550000D01*
X51225000Y-118750000D01*
G37*
G36*
X55125000Y-118750000D02*
G01*
X54275000Y-118750000D01*
X54275000Y-118550000D01*
X55125000Y-118550000D01*
X55125000Y-118750000D01*
G37*
G36*
X51225000Y-118350000D02*
G01*
X50375000Y-118350000D01*
X50375000Y-118150000D01*
X51225000Y-118150000D01*
X51225000Y-118350000D01*
G37*
G36*
X55125000Y-118350000D02*
G01*
X54275000Y-118350000D01*
X54275000Y-118150000D01*
X55125000Y-118150000D01*
X55125000Y-118350000D01*
G37*
G36*
X51225000Y-117950000D02*
G01*
X50375000Y-117950000D01*
X50375000Y-117750000D01*
X51225000Y-117750000D01*
X51225000Y-117950000D01*
G37*
G36*
X55125000Y-117950000D02*
G01*
X54275000Y-117950000D01*
X54275000Y-117750000D01*
X55125000Y-117750000D01*
X55125000Y-117950000D01*
G37*
G36*
X51225000Y-117550000D02*
G01*
X50375000Y-117550000D01*
X50375000Y-117350000D01*
X51225000Y-117350000D01*
X51225000Y-117550000D01*
G37*
G36*
X55125000Y-117550000D02*
G01*
X54275000Y-117550000D01*
X54275000Y-117350000D01*
X55125000Y-117350000D01*
X55125000Y-117550000D01*
G37*
G36*
X51225000Y-117150000D02*
G01*
X50375000Y-117150000D01*
X50375000Y-116950000D01*
X51225000Y-116950000D01*
X51225000Y-117150000D01*
G37*
G36*
X55125000Y-117150000D02*
G01*
X54275000Y-117150000D01*
X54275000Y-116950000D01*
X55125000Y-116950000D01*
X55125000Y-117150000D01*
G37*
G36*
X51650000Y-116725000D02*
G01*
X51450000Y-116725000D01*
X51450000Y-115875000D01*
X51650000Y-115875000D01*
X51650000Y-116725000D01*
G37*
G36*
X52050000Y-116725000D02*
G01*
X51850000Y-116725000D01*
X51850000Y-115875000D01*
X52050000Y-115875000D01*
X52050000Y-116725000D01*
G37*
G36*
X52450000Y-116725000D02*
G01*
X52250000Y-116725000D01*
X52250000Y-115875000D01*
X52450000Y-115875000D01*
X52450000Y-116725000D01*
G37*
G36*
X52850000Y-116725000D02*
G01*
X52650000Y-116725000D01*
X52650000Y-115875000D01*
X52850000Y-115875000D01*
X52850000Y-116725000D01*
G37*
G36*
X53250000Y-116725000D02*
G01*
X53050000Y-116725000D01*
X53050000Y-115875000D01*
X53250000Y-115875000D01*
X53250000Y-116725000D01*
G37*
G36*
X53650000Y-116725000D02*
G01*
X53450000Y-116725000D01*
X53450000Y-115875000D01*
X53650000Y-115875000D01*
X53650000Y-116725000D01*
G37*
G36*
X54050000Y-116725000D02*
G01*
X53850000Y-116725000D01*
X53850000Y-115875000D01*
X54050000Y-115875000D01*
X54050000Y-116725000D01*
G37*
G36*
X66090000Y-115950000D02*
G01*
X65090000Y-115950000D01*
X65090000Y-114050000D01*
X66090000Y-114050000D01*
X66090000Y-115950000D01*
G37*
G36*
X71170000Y-115950000D02*
G01*
X70170000Y-115950000D01*
X70170000Y-114050000D01*
X71170000Y-114050000D01*
X71170000Y-115950000D01*
G37*
G36*
X76250000Y-115950000D02*
G01*
X75250000Y-115950000D01*
X75250000Y-114050000D01*
X76250000Y-114050000D01*
X76250000Y-115950000D01*
G37*
G36*
X81330000Y-115950000D02*
G01*
X80330000Y-115950000D01*
X80330000Y-114050000D01*
X81330000Y-114050000D01*
X81330000Y-115950000D01*
G37*
G36*
X32438034Y-113966764D02*
G01*
X32471125Y-113988875D01*
X32493236Y-114021966D01*
X32501000Y-114061000D01*
X32501000Y-115439000D01*
X32493236Y-115478034D01*
X32471125Y-115511125D01*
X32438034Y-115533236D01*
X32399000Y-115541000D01*
X31021000Y-115541000D01*
X30981966Y-115533236D01*
X30948875Y-115511125D01*
X30926764Y-115478034D01*
X30919000Y-115439000D01*
X30919000Y-114061000D01*
X30926764Y-114021966D01*
X30948875Y-113988875D01*
X30981966Y-113966764D01*
X31021000Y-113959000D01*
X32399000Y-113959000D01*
X32438034Y-113966764D01*
G37*
G36*
X34479615Y-113993060D02*
G01*
X34622875Y-114052400D01*
X34751805Y-114138549D01*
X34861451Y-114248195D01*
X34947600Y-114377125D01*
X35006940Y-114520385D01*
X35037191Y-114672468D01*
X35037191Y-114827532D01*
X35006940Y-114979615D01*
X34947600Y-115122875D01*
X34861451Y-115251805D01*
X34751805Y-115361451D01*
X34622875Y-115447600D01*
X34479615Y-115506940D01*
X34327532Y-115537191D01*
X34172468Y-115537191D01*
X34020385Y-115506940D01*
X33877125Y-115447600D01*
X33748195Y-115361451D01*
X33638549Y-115251805D01*
X33552400Y-115122875D01*
X33493060Y-114979615D01*
X33462809Y-114827532D01*
X33462809Y-114672468D01*
X33493060Y-114520385D01*
X33552400Y-114377125D01*
X33638549Y-114248195D01*
X33748195Y-114138549D01*
X33877125Y-114052400D01*
X34020385Y-113993060D01*
X34172468Y-113962809D01*
X34327532Y-113962809D01*
X34479615Y-113993060D01*
G37*
G36*
X49604850Y-113300964D02*
G01*
X49655040Y-113306787D01*
X49672189Y-113314359D01*
X49695671Y-113319030D01*
X49720810Y-113335827D01*
X49740696Y-113344608D01*
X49754277Y-113358189D01*
X49776777Y-113373223D01*
X49791810Y-113395722D01*
X49805391Y-113409303D01*
X49814170Y-113429186D01*
X49830970Y-113454329D01*
X49835641Y-113477812D01*
X49843212Y-113494959D01*
X49849033Y-113545139D01*
X49850000Y-113550000D01*
X49850000Y-114450000D01*
X49849032Y-114454863D01*
X49843212Y-114505040D01*
X49835641Y-114522185D01*
X49830970Y-114545671D01*
X49814169Y-114570815D01*
X49805391Y-114590696D01*
X49791812Y-114604274D01*
X49776777Y-114626777D01*
X49754274Y-114641812D01*
X49740696Y-114655391D01*
X49720815Y-114664169D01*
X49695671Y-114680970D01*
X49672185Y-114685641D01*
X49655040Y-114693212D01*
X49604861Y-114699032D01*
X49600000Y-114700000D01*
X48900000Y-114700000D01*
X48895138Y-114699032D01*
X48844959Y-114693212D01*
X48827812Y-114685641D01*
X48804329Y-114680970D01*
X48779186Y-114664170D01*
X48759303Y-114655391D01*
X48745722Y-114641810D01*
X48723223Y-114626777D01*
X48708189Y-114604277D01*
X48694608Y-114590696D01*
X48685827Y-114570810D01*
X48669030Y-114545671D01*
X48664359Y-114522189D01*
X48656787Y-114505040D01*
X48650964Y-114454849D01*
X48650000Y-114450000D01*
X48650000Y-113550000D01*
X48650964Y-113545150D01*
X48656787Y-113494959D01*
X48664359Y-113477808D01*
X48669030Y-113454329D01*
X48685826Y-113429191D01*
X48694608Y-113409303D01*
X48708191Y-113395719D01*
X48723223Y-113373223D01*
X48745719Y-113358191D01*
X48759303Y-113344608D01*
X48779191Y-113335826D01*
X48804329Y-113319030D01*
X48827808Y-113314359D01*
X48844959Y-113306787D01*
X48895151Y-113300964D01*
X48900000Y-113300000D01*
X49600000Y-113300000D01*
X49604850Y-113300964D01*
G37*
G36*
X51604850Y-113300964D02*
G01*
X51655040Y-113306787D01*
X51672189Y-113314359D01*
X51695671Y-113319030D01*
X51720810Y-113335827D01*
X51740696Y-113344608D01*
X51754277Y-113358189D01*
X51776777Y-113373223D01*
X51791810Y-113395722D01*
X51805391Y-113409303D01*
X51814170Y-113429186D01*
X51830970Y-113454329D01*
X51835641Y-113477812D01*
X51843212Y-113494959D01*
X51849033Y-113545139D01*
X51850000Y-113550000D01*
X51850000Y-114450000D01*
X51849032Y-114454863D01*
X51843212Y-114505040D01*
X51835641Y-114522185D01*
X51830970Y-114545671D01*
X51814169Y-114570815D01*
X51805391Y-114590696D01*
X51791812Y-114604274D01*
X51776777Y-114626777D01*
X51754274Y-114641812D01*
X51740696Y-114655391D01*
X51720815Y-114664169D01*
X51695671Y-114680970D01*
X51672185Y-114685641D01*
X51655040Y-114693212D01*
X51604861Y-114699032D01*
X51600000Y-114700000D01*
X50900000Y-114700000D01*
X50895138Y-114699032D01*
X50844959Y-114693212D01*
X50827812Y-114685641D01*
X50804329Y-114680970D01*
X50779186Y-114664170D01*
X50759303Y-114655391D01*
X50745722Y-114641810D01*
X50723223Y-114626777D01*
X50708189Y-114604277D01*
X50694608Y-114590696D01*
X50685827Y-114570810D01*
X50669030Y-114545671D01*
X50664359Y-114522189D01*
X50656787Y-114505040D01*
X50650964Y-114454849D01*
X50650000Y-114450000D01*
X50650000Y-113550000D01*
X50650964Y-113545150D01*
X50656787Y-113494959D01*
X50664359Y-113477808D01*
X50669030Y-113454329D01*
X50685826Y-113429191D01*
X50694608Y-113409303D01*
X50708191Y-113395719D01*
X50723223Y-113373223D01*
X50745719Y-113358191D01*
X50759303Y-113344608D01*
X50779191Y-113335826D01*
X50804329Y-113319030D01*
X50827808Y-113314359D01*
X50844959Y-113306787D01*
X50895151Y-113300964D01*
X50900000Y-113300000D01*
X51600000Y-113300000D01*
X51604850Y-113300964D01*
G37*
G36*
X54017350Y-113150964D02*
G01*
X54067540Y-113156787D01*
X54084689Y-113164359D01*
X54108171Y-113169030D01*
X54133310Y-113185827D01*
X54153196Y-113194608D01*
X54166777Y-113208189D01*
X54189277Y-113223223D01*
X54204310Y-113245722D01*
X54217891Y-113259303D01*
X54226670Y-113279186D01*
X54243470Y-113304329D01*
X54248141Y-113327812D01*
X54255712Y-113344959D01*
X54261533Y-113395139D01*
X54262500Y-113400000D01*
X54262500Y-114350000D01*
X54261532Y-114354863D01*
X54255712Y-114405040D01*
X54248141Y-114422185D01*
X54243470Y-114445671D01*
X54226669Y-114470815D01*
X54217891Y-114490696D01*
X54204312Y-114504274D01*
X54189277Y-114526777D01*
X54166774Y-114541812D01*
X54153196Y-114555391D01*
X54133315Y-114564169D01*
X54108171Y-114580970D01*
X54084685Y-114585641D01*
X54067540Y-114593212D01*
X54017361Y-114599032D01*
X54012500Y-114600000D01*
X53337500Y-114600000D01*
X53332638Y-114599032D01*
X53282459Y-114593212D01*
X53265312Y-114585641D01*
X53241829Y-114580970D01*
X53216686Y-114564170D01*
X53196803Y-114555391D01*
X53183222Y-114541810D01*
X53160723Y-114526777D01*
X53145689Y-114504277D01*
X53132108Y-114490696D01*
X53123327Y-114470810D01*
X53106530Y-114445671D01*
X53101859Y-114422189D01*
X53094287Y-114405040D01*
X53088464Y-114354849D01*
X53087500Y-114350000D01*
X53087500Y-113400000D01*
X53088464Y-113395150D01*
X53094287Y-113344959D01*
X53101859Y-113327808D01*
X53106530Y-113304329D01*
X53123326Y-113279191D01*
X53132108Y-113259303D01*
X53145691Y-113245719D01*
X53160723Y-113223223D01*
X53183219Y-113208191D01*
X53196803Y-113194608D01*
X53216691Y-113185826D01*
X53241829Y-113169030D01*
X53265308Y-113164359D01*
X53282459Y-113156787D01*
X53332651Y-113150964D01*
X53337500Y-113150000D01*
X54012500Y-113150000D01*
X54017350Y-113150964D01*
G37*
G36*
X56092350Y-113150964D02*
G01*
X56142540Y-113156787D01*
X56159689Y-113164359D01*
X56183171Y-113169030D01*
X56208310Y-113185827D01*
X56228196Y-113194608D01*
X56241777Y-113208189D01*
X56264277Y-113223223D01*
X56279310Y-113245722D01*
X56292891Y-113259303D01*
X56301670Y-113279186D01*
X56318470Y-113304329D01*
X56323141Y-113327812D01*
X56330712Y-113344959D01*
X56336533Y-113395139D01*
X56337500Y-113400000D01*
X56337500Y-114350000D01*
X56336532Y-114354863D01*
X56330712Y-114405040D01*
X56323141Y-114422185D01*
X56318470Y-114445671D01*
X56301669Y-114470815D01*
X56292891Y-114490696D01*
X56279312Y-114504274D01*
X56264277Y-114526777D01*
X56241774Y-114541812D01*
X56228196Y-114555391D01*
X56208315Y-114564169D01*
X56183171Y-114580970D01*
X56159685Y-114585641D01*
X56142540Y-114593212D01*
X56092361Y-114599032D01*
X56087500Y-114600000D01*
X55412500Y-114600000D01*
X55407638Y-114599032D01*
X55357459Y-114593212D01*
X55340312Y-114585641D01*
X55316829Y-114580970D01*
X55291686Y-114564170D01*
X55271803Y-114555391D01*
X55258222Y-114541810D01*
X55235723Y-114526777D01*
X55220689Y-114504277D01*
X55207108Y-114490696D01*
X55198327Y-114470810D01*
X55181530Y-114445671D01*
X55176859Y-114422189D01*
X55169287Y-114405040D01*
X55163464Y-114354849D01*
X55162500Y-114350000D01*
X55162500Y-113400000D01*
X55163464Y-113395150D01*
X55169287Y-113344959D01*
X55176859Y-113327808D01*
X55181530Y-113304329D01*
X55198326Y-113279191D01*
X55207108Y-113259303D01*
X55220691Y-113245719D01*
X55235723Y-113223223D01*
X55258219Y-113208191D01*
X55271803Y-113194608D01*
X55291691Y-113185826D01*
X55316829Y-113169030D01*
X55340308Y-113164359D01*
X55357459Y-113156787D01*
X55407651Y-113150964D01*
X55412500Y-113150000D01*
X56087500Y-113150000D01*
X56092350Y-113150964D01*
G37*
G36*
X54017350Y-110900964D02*
G01*
X54067540Y-110906787D01*
X54084689Y-110914359D01*
X54108171Y-110919030D01*
X54133310Y-110935827D01*
X54153196Y-110944608D01*
X54166777Y-110958189D01*
X54189277Y-110973223D01*
X54204310Y-110995722D01*
X54217891Y-111009303D01*
X54226670Y-111029186D01*
X54243470Y-111054329D01*
X54248141Y-111077812D01*
X54255712Y-111094959D01*
X54261533Y-111145139D01*
X54262500Y-111150000D01*
X54262500Y-112100000D01*
X54261532Y-112104863D01*
X54255712Y-112155040D01*
X54248141Y-112172185D01*
X54243470Y-112195671D01*
X54226669Y-112220815D01*
X54217891Y-112240696D01*
X54204312Y-112254274D01*
X54189277Y-112276777D01*
X54166774Y-112291812D01*
X54153196Y-112305391D01*
X54133315Y-112314169D01*
X54108171Y-112330970D01*
X54084685Y-112335641D01*
X54067540Y-112343212D01*
X54017361Y-112349032D01*
X54012500Y-112350000D01*
X53337500Y-112350000D01*
X53332638Y-112349032D01*
X53282459Y-112343212D01*
X53265312Y-112335641D01*
X53241829Y-112330970D01*
X53216686Y-112314170D01*
X53196803Y-112305391D01*
X53183222Y-112291810D01*
X53160723Y-112276777D01*
X53145689Y-112254277D01*
X53132108Y-112240696D01*
X53123327Y-112220810D01*
X53106530Y-112195671D01*
X53101859Y-112172189D01*
X53094287Y-112155040D01*
X53088464Y-112104849D01*
X53087500Y-112100000D01*
X53087500Y-111150000D01*
X53088464Y-111145150D01*
X53094287Y-111094959D01*
X53101859Y-111077808D01*
X53106530Y-111054329D01*
X53123326Y-111029191D01*
X53132108Y-111009303D01*
X53145691Y-110995719D01*
X53160723Y-110973223D01*
X53183219Y-110958191D01*
X53196803Y-110944608D01*
X53216691Y-110935826D01*
X53241829Y-110919030D01*
X53265308Y-110914359D01*
X53282459Y-110906787D01*
X53332651Y-110900964D01*
X53337500Y-110900000D01*
X54012500Y-110900000D01*
X54017350Y-110900964D01*
G37*
G36*
X56092350Y-110900964D02*
G01*
X56142540Y-110906787D01*
X56159689Y-110914359D01*
X56183171Y-110919030D01*
X56208310Y-110935827D01*
X56228196Y-110944608D01*
X56241777Y-110958189D01*
X56264277Y-110973223D01*
X56279310Y-110995722D01*
X56292891Y-111009303D01*
X56301670Y-111029186D01*
X56318470Y-111054329D01*
X56323141Y-111077812D01*
X56330712Y-111094959D01*
X56336533Y-111145139D01*
X56337500Y-111150000D01*
X56337500Y-112100000D01*
X56336532Y-112104863D01*
X56330712Y-112155040D01*
X56323141Y-112172185D01*
X56318470Y-112195671D01*
X56301669Y-112220815D01*
X56292891Y-112240696D01*
X56279312Y-112254274D01*
X56264277Y-112276777D01*
X56241774Y-112291812D01*
X56228196Y-112305391D01*
X56208315Y-112314169D01*
X56183171Y-112330970D01*
X56159685Y-112335641D01*
X56142540Y-112343212D01*
X56092361Y-112349032D01*
X56087500Y-112350000D01*
X55412500Y-112350000D01*
X55407638Y-112349032D01*
X55357459Y-112343212D01*
X55340312Y-112335641D01*
X55316829Y-112330970D01*
X55291686Y-112314170D01*
X55271803Y-112305391D01*
X55258222Y-112291810D01*
X55235723Y-112276777D01*
X55220689Y-112254277D01*
X55207108Y-112240696D01*
X55198327Y-112220810D01*
X55181530Y-112195671D01*
X55176859Y-112172189D01*
X55169287Y-112155040D01*
X55163464Y-112104849D01*
X55162500Y-112100000D01*
X55162500Y-111150000D01*
X55163464Y-111145150D01*
X55169287Y-111094959D01*
X55176859Y-111077808D01*
X55181530Y-111054329D01*
X55198326Y-111029191D01*
X55207108Y-111009303D01*
X55220691Y-110995719D01*
X55235723Y-110973223D01*
X55258219Y-110958191D01*
X55271803Y-110944608D01*
X55291691Y-110935826D01*
X55316829Y-110919030D01*
X55340308Y-110914359D01*
X55357459Y-110906787D01*
X55407651Y-110900964D01*
X55412500Y-110900000D01*
X56087500Y-110900000D01*
X56092350Y-110900964D01*
G37*
G36*
X49604850Y-110800964D02*
G01*
X49655040Y-110806787D01*
X49672189Y-110814359D01*
X49695671Y-110819030D01*
X49720810Y-110835827D01*
X49740696Y-110844608D01*
X49754277Y-110858189D01*
X49776777Y-110873223D01*
X49791810Y-110895722D01*
X49805391Y-110909303D01*
X49814170Y-110929186D01*
X49830970Y-110954329D01*
X49835641Y-110977812D01*
X49843212Y-110994959D01*
X49849033Y-111045139D01*
X49850000Y-111050000D01*
X49850000Y-111950000D01*
X49849032Y-111954863D01*
X49843212Y-112005040D01*
X49835641Y-112022185D01*
X49830970Y-112045671D01*
X49814169Y-112070815D01*
X49805391Y-112090696D01*
X49791812Y-112104274D01*
X49776777Y-112126777D01*
X49754274Y-112141812D01*
X49740696Y-112155391D01*
X49720815Y-112164169D01*
X49695671Y-112180970D01*
X49672185Y-112185641D01*
X49655040Y-112193212D01*
X49604861Y-112199032D01*
X49600000Y-112200000D01*
X48900000Y-112200000D01*
X48895138Y-112199032D01*
X48844959Y-112193212D01*
X48827812Y-112185641D01*
X48804329Y-112180970D01*
X48779186Y-112164170D01*
X48759303Y-112155391D01*
X48745722Y-112141810D01*
X48723223Y-112126777D01*
X48708189Y-112104277D01*
X48694608Y-112090696D01*
X48685827Y-112070810D01*
X48669030Y-112045671D01*
X48664359Y-112022189D01*
X48656787Y-112005040D01*
X48650964Y-111954849D01*
X48650000Y-111950000D01*
X48650000Y-111050000D01*
X48650964Y-111045150D01*
X48656787Y-110994959D01*
X48664359Y-110977808D01*
X48669030Y-110954329D01*
X48685826Y-110929191D01*
X48694608Y-110909303D01*
X48708191Y-110895719D01*
X48723223Y-110873223D01*
X48745719Y-110858191D01*
X48759303Y-110844608D01*
X48779191Y-110835826D01*
X48804329Y-110819030D01*
X48827808Y-110814359D01*
X48844959Y-110806787D01*
X48895151Y-110800964D01*
X48900000Y-110800000D01*
X49600000Y-110800000D01*
X49604850Y-110800964D01*
G37*
G36*
X51604850Y-110800964D02*
G01*
X51655040Y-110806787D01*
X51672189Y-110814359D01*
X51695671Y-110819030D01*
X51720810Y-110835827D01*
X51740696Y-110844608D01*
X51754277Y-110858189D01*
X51776777Y-110873223D01*
X51791810Y-110895722D01*
X51805391Y-110909303D01*
X51814170Y-110929186D01*
X51830970Y-110954329D01*
X51835641Y-110977812D01*
X51843212Y-110994959D01*
X51849033Y-111045139D01*
X51850000Y-111050000D01*
X51850000Y-111950000D01*
X51849032Y-111954863D01*
X51843212Y-112005040D01*
X51835641Y-112022185D01*
X51830970Y-112045671D01*
X51814169Y-112070815D01*
X51805391Y-112090696D01*
X51791812Y-112104274D01*
X51776777Y-112126777D01*
X51754274Y-112141812D01*
X51740696Y-112155391D01*
X51720815Y-112164169D01*
X51695671Y-112180970D01*
X51672185Y-112185641D01*
X51655040Y-112193212D01*
X51604861Y-112199032D01*
X51600000Y-112200000D01*
X50900000Y-112200000D01*
X50895138Y-112199032D01*
X50844959Y-112193212D01*
X50827812Y-112185641D01*
X50804329Y-112180970D01*
X50779186Y-112164170D01*
X50759303Y-112155391D01*
X50745722Y-112141810D01*
X50723223Y-112126777D01*
X50708189Y-112104277D01*
X50694608Y-112090696D01*
X50685827Y-112070810D01*
X50669030Y-112045671D01*
X50664359Y-112022189D01*
X50656787Y-112005040D01*
X50650964Y-111954849D01*
X50650000Y-111950000D01*
X50650000Y-111050000D01*
X50650964Y-111045150D01*
X50656787Y-110994959D01*
X50664359Y-110977808D01*
X50669030Y-110954329D01*
X50685826Y-110929191D01*
X50694608Y-110909303D01*
X50708191Y-110895719D01*
X50723223Y-110873223D01*
X50745719Y-110858191D01*
X50759303Y-110844608D01*
X50779191Y-110835826D01*
X50804329Y-110819030D01*
X50827808Y-110814359D01*
X50844959Y-110806787D01*
X50895151Y-110800964D01*
X50900000Y-110800000D01*
X51600000Y-110800000D01*
X51604850Y-110800964D01*
G37*
G36*
X80555200Y-106799700D02*
G01*
X79793200Y-106799700D01*
X79793200Y-105555100D01*
X80555200Y-105555100D01*
X80555200Y-106799700D01*
G37*
G36*
X82511000Y-106799700D02*
G01*
X81749000Y-106799700D01*
X81749000Y-105555100D01*
X82511000Y-105555100D01*
X82511000Y-106799700D01*
G37*
G36*
X83775200Y-106799700D02*
G01*
X83013200Y-106799700D01*
X83013200Y-105555100D01*
X83775200Y-105555100D01*
X83775200Y-106799700D01*
G37*
G36*
X85731000Y-106799700D02*
G01*
X84969000Y-106799700D01*
X84969000Y-105555100D01*
X85731000Y-105555100D01*
X85731000Y-106799700D01*
G37*
G36*
X28949634Y-106798760D02*
G01*
X28187634Y-106798760D01*
X28187634Y-105554160D01*
X28949634Y-105554160D01*
X28949634Y-106798760D01*
G37*
G36*
X30905434Y-106798760D02*
G01*
X30143434Y-106798760D01*
X30143434Y-105554160D01*
X30905434Y-105554160D01*
X30905434Y-106798760D01*
G37*
G36*
X32174634Y-106798760D02*
G01*
X31412634Y-106798760D01*
X31412634Y-105554160D01*
X32174634Y-105554160D01*
X32174634Y-106798760D01*
G37*
G36*
X34130434Y-106798760D02*
G01*
X33368434Y-106798760D01*
X33368434Y-105554160D01*
X34130434Y-105554160D01*
X34130434Y-106798760D01*
G37*
G36*
X35399634Y-106798760D02*
G01*
X34637634Y-106798760D01*
X34637634Y-105554160D01*
X35399634Y-105554160D01*
X35399634Y-106798760D01*
G37*
G36*
X37355434Y-106798760D02*
G01*
X36593434Y-106798760D01*
X36593434Y-105554160D01*
X37355434Y-105554160D01*
X37355434Y-106798760D01*
G37*
G36*
X38624634Y-106798760D02*
G01*
X37862634Y-106798760D01*
X37862634Y-105554160D01*
X38624634Y-105554160D01*
X38624634Y-106798760D01*
G37*
G36*
X40580434Y-106798760D02*
G01*
X39818434Y-106798760D01*
X39818434Y-105554160D01*
X40580434Y-105554160D01*
X40580434Y-106798760D01*
G37*
G36*
X41852534Y-106798760D02*
G01*
X41090534Y-106798760D01*
X41090534Y-105554160D01*
X41852534Y-105554160D01*
X41852534Y-106798760D01*
G37*
G36*
X43808334Y-106798760D02*
G01*
X43046334Y-106798760D01*
X43046334Y-105554160D01*
X43808334Y-105554160D01*
X43808334Y-106798760D01*
G37*
G36*
X45080434Y-106798760D02*
G01*
X44318434Y-106798760D01*
X44318434Y-105554160D01*
X45080434Y-105554160D01*
X45080434Y-106798760D01*
G37*
G36*
X47036234Y-106798760D02*
G01*
X46274234Y-106798760D01*
X46274234Y-105554160D01*
X47036234Y-105554160D01*
X47036234Y-106798760D01*
G37*
G36*
X48302534Y-106798760D02*
G01*
X47540534Y-106798760D01*
X47540534Y-105554160D01*
X48302534Y-105554160D01*
X48302534Y-106798760D01*
G37*
G36*
X50258334Y-106798760D02*
G01*
X49496334Y-106798760D01*
X49496334Y-105554160D01*
X50258334Y-105554160D01*
X50258334Y-106798760D01*
G37*
G36*
X51527534Y-106798760D02*
G01*
X50765534Y-106798760D01*
X50765534Y-105554160D01*
X51527534Y-105554160D01*
X51527534Y-106798760D01*
G37*
G36*
X53483334Y-106798760D02*
G01*
X52721334Y-106798760D01*
X52721334Y-105554160D01*
X53483334Y-105554160D01*
X53483334Y-106798760D01*
G37*
G36*
X54752534Y-106798760D02*
G01*
X53990534Y-106798760D01*
X53990534Y-105554160D01*
X54752534Y-105554160D01*
X54752534Y-106798760D01*
G37*
G36*
X56708334Y-106798760D02*
G01*
X55946334Y-106798760D01*
X55946334Y-105554160D01*
X56708334Y-105554160D01*
X56708334Y-106798760D01*
G37*
G36*
X58003100Y-106797300D02*
G01*
X57241100Y-106797300D01*
X57241100Y-105552700D01*
X58003100Y-105552700D01*
X58003100Y-106797300D01*
G37*
G36*
X59958900Y-106797300D02*
G01*
X59196900Y-106797300D01*
X59196900Y-105552700D01*
X59958900Y-105552700D01*
X59958900Y-106797300D01*
G37*
G36*
X61228100Y-106797300D02*
G01*
X60466100Y-106797300D01*
X60466100Y-105552700D01*
X61228100Y-105552700D01*
X61228100Y-106797300D01*
G37*
G36*
X63183900Y-106797300D02*
G01*
X62421900Y-106797300D01*
X62421900Y-105552700D01*
X63183900Y-105552700D01*
X63183900Y-106797300D01*
G37*
G36*
X64455200Y-106797300D02*
G01*
X63693200Y-106797300D01*
X63693200Y-105552700D01*
X64455200Y-105552700D01*
X64455200Y-106797300D01*
G37*
G36*
X66411000Y-106797300D02*
G01*
X65649000Y-106797300D01*
X65649000Y-105552700D01*
X66411000Y-105552700D01*
X66411000Y-106797300D01*
G37*
G36*
X67675200Y-106797300D02*
G01*
X66913200Y-106797300D01*
X66913200Y-105552700D01*
X67675200Y-105552700D01*
X67675200Y-106797300D01*
G37*
G36*
X69631000Y-106797300D02*
G01*
X68869000Y-106797300D01*
X68869000Y-105552700D01*
X69631000Y-105552700D01*
X69631000Y-106797300D01*
G37*
G36*
X70895200Y-106797300D02*
G01*
X70133200Y-106797300D01*
X70133200Y-105552700D01*
X70895200Y-105552700D01*
X70895200Y-106797300D01*
G37*
G36*
X72851000Y-106797300D02*
G01*
X72089000Y-106797300D01*
X72089000Y-105552700D01*
X72851000Y-105552700D01*
X72851000Y-106797300D01*
G37*
G36*
X74115200Y-106797300D02*
G01*
X73353200Y-106797300D01*
X73353200Y-105552700D01*
X74115200Y-105552700D01*
X74115200Y-106797300D01*
G37*
G36*
X76071000Y-106797300D02*
G01*
X75309000Y-106797300D01*
X75309000Y-105552700D01*
X76071000Y-105552700D01*
X76071000Y-106797300D01*
G37*
G36*
X77335200Y-106797300D02*
G01*
X76573200Y-106797300D01*
X76573200Y-105552700D01*
X77335200Y-105552700D01*
X77335200Y-106797300D01*
G37*
G36*
X79291000Y-106797300D02*
G01*
X78529000Y-106797300D01*
X78529000Y-105552700D01*
X79291000Y-105552700D01*
X79291000Y-106797300D01*
G37*
G36*
X28974634Y-103573760D02*
G01*
X28212634Y-103573760D01*
X28212634Y-102329160D01*
X28974634Y-102329160D01*
X28974634Y-103573760D01*
G37*
G36*
X30930434Y-103573760D02*
G01*
X30168434Y-103573760D01*
X30168434Y-102329160D01*
X30930434Y-102329160D01*
X30930434Y-103573760D01*
G37*
G36*
X32199634Y-103573760D02*
G01*
X31437634Y-103573760D01*
X31437634Y-102329160D01*
X32199634Y-102329160D01*
X32199634Y-103573760D01*
G37*
G36*
X34155434Y-103573760D02*
G01*
X33393434Y-103573760D01*
X33393434Y-102329160D01*
X34155434Y-102329160D01*
X34155434Y-103573760D01*
G37*
G36*
X35424634Y-103573760D02*
G01*
X34662634Y-103573760D01*
X34662634Y-102329160D01*
X35424634Y-102329160D01*
X35424634Y-103573760D01*
G37*
G36*
X37380434Y-103573760D02*
G01*
X36618434Y-103573760D01*
X36618434Y-102329160D01*
X37380434Y-102329160D01*
X37380434Y-103573760D01*
G37*
G36*
X38649634Y-103573760D02*
G01*
X37887634Y-103573760D01*
X37887634Y-102329160D01*
X38649634Y-102329160D01*
X38649634Y-103573760D01*
G37*
G36*
X40605434Y-103573760D02*
G01*
X39843434Y-103573760D01*
X39843434Y-102329160D01*
X40605434Y-102329160D01*
X40605434Y-103573760D01*
G37*
G36*
X41874634Y-103573760D02*
G01*
X41112634Y-103573760D01*
X41112634Y-102329160D01*
X41874634Y-102329160D01*
X41874634Y-103573760D01*
G37*
G36*
X43830434Y-103573760D02*
G01*
X43068434Y-103573760D01*
X43068434Y-102329160D01*
X43830434Y-102329160D01*
X43830434Y-103573760D01*
G37*
G36*
X45102534Y-103573760D02*
G01*
X44340534Y-103573760D01*
X44340534Y-102329160D01*
X45102534Y-102329160D01*
X45102534Y-103573760D01*
G37*
G36*
X47058334Y-103573760D02*
G01*
X46296334Y-103573760D01*
X46296334Y-102329160D01*
X47058334Y-102329160D01*
X47058334Y-103573760D01*
G37*
G36*
X48330434Y-103573760D02*
G01*
X47568434Y-103573760D01*
X47568434Y-102329160D01*
X48330434Y-102329160D01*
X48330434Y-103573760D01*
G37*
G36*
X50286234Y-103573760D02*
G01*
X49524234Y-103573760D01*
X49524234Y-102329160D01*
X50286234Y-102329160D01*
X50286234Y-103573760D01*
G37*
G36*
X51552534Y-103573760D02*
G01*
X50790534Y-103573760D01*
X50790534Y-102329160D01*
X51552534Y-102329160D01*
X51552534Y-103573760D01*
G37*
G36*
X53508334Y-103573760D02*
G01*
X52746334Y-103573760D01*
X52746334Y-102329160D01*
X53508334Y-102329160D01*
X53508334Y-103573760D01*
G37*
G36*
X54777534Y-103573760D02*
G01*
X54015534Y-103573760D01*
X54015534Y-102329160D01*
X54777534Y-102329160D01*
X54777534Y-103573760D01*
G37*
G36*
X56733334Y-103573760D02*
G01*
X55971334Y-103573760D01*
X55971334Y-102329160D01*
X56733334Y-102329160D01*
X56733334Y-103573760D01*
G37*
G36*
X58003100Y-103572300D02*
G01*
X57241100Y-103572300D01*
X57241100Y-102327700D01*
X58003100Y-102327700D01*
X58003100Y-103572300D01*
G37*
G36*
X59958900Y-103572300D02*
G01*
X59196900Y-103572300D01*
X59196900Y-102327700D01*
X59958900Y-102327700D01*
X59958900Y-103572300D01*
G37*
G36*
X61228100Y-103572300D02*
G01*
X60466100Y-103572300D01*
X60466100Y-102327700D01*
X61228100Y-102327700D01*
X61228100Y-103572300D01*
G37*
G36*
X63183900Y-103572300D02*
G01*
X62421900Y-103572300D01*
X62421900Y-102327700D01*
X63183900Y-102327700D01*
X63183900Y-103572300D01*
G37*
G36*
X64453100Y-103572300D02*
G01*
X63691100Y-103572300D01*
X63691100Y-102327700D01*
X64453100Y-102327700D01*
X64453100Y-103572300D01*
G37*
G36*
X66408900Y-103572300D02*
G01*
X65646900Y-103572300D01*
X65646900Y-102327700D01*
X66408900Y-102327700D01*
X66408900Y-103572300D01*
G37*
G36*
X67678100Y-103572300D02*
G01*
X66916100Y-103572300D01*
X66916100Y-102327700D01*
X67678100Y-102327700D01*
X67678100Y-103572300D01*
G37*
G36*
X69633900Y-103572300D02*
G01*
X68871900Y-103572300D01*
X68871900Y-102327700D01*
X69633900Y-102327700D01*
X69633900Y-103572300D01*
G37*
G36*
X70903100Y-103572300D02*
G01*
X70141100Y-103572300D01*
X70141100Y-102327700D01*
X70903100Y-102327700D01*
X70903100Y-103572300D01*
G37*
G36*
X72858900Y-103572300D02*
G01*
X72096900Y-103572300D01*
X72096900Y-102327700D01*
X72858900Y-102327700D01*
X72858900Y-103572300D01*
G37*
G36*
X74128100Y-103572300D02*
G01*
X73366100Y-103572300D01*
X73366100Y-102327700D01*
X74128100Y-102327700D01*
X74128100Y-103572300D01*
G37*
G36*
X76083900Y-103572300D02*
G01*
X75321900Y-103572300D01*
X75321900Y-102327700D01*
X76083900Y-102327700D01*
X76083900Y-103572300D01*
G37*
G36*
X77353100Y-103572300D02*
G01*
X76591100Y-103572300D01*
X76591100Y-102327700D01*
X77353100Y-102327700D01*
X77353100Y-103572300D01*
G37*
G36*
X79308900Y-103572300D02*
G01*
X78546900Y-103572300D01*
X78546900Y-102327700D01*
X79308900Y-102327700D01*
X79308900Y-103572300D01*
G37*
G36*
X80578100Y-103572300D02*
G01*
X79816100Y-103572300D01*
X79816100Y-102327700D01*
X80578100Y-102327700D01*
X80578100Y-103572300D01*
G37*
G36*
X82533900Y-103572300D02*
G01*
X81771900Y-103572300D01*
X81771900Y-102327700D01*
X82533900Y-102327700D01*
X82533900Y-103572300D01*
G37*
G36*
X83803100Y-103572300D02*
G01*
X83041100Y-103572300D01*
X83041100Y-102327700D01*
X83803100Y-102327700D01*
X83803100Y-103572300D01*
G37*
G36*
X85758900Y-103572300D02*
G01*
X84996900Y-103572300D01*
X84996900Y-102327700D01*
X85758900Y-102327700D01*
X85758900Y-103572300D01*
G37*
G36*
X28977534Y-100348760D02*
G01*
X28215534Y-100348760D01*
X28215534Y-99104160D01*
X28977534Y-99104160D01*
X28977534Y-100348760D01*
G37*
G36*
X30933334Y-100348760D02*
G01*
X30171334Y-100348760D01*
X30171334Y-99104160D01*
X30933334Y-99104160D01*
X30933334Y-100348760D01*
G37*
G36*
X32202534Y-100348760D02*
G01*
X31440534Y-100348760D01*
X31440534Y-99104160D01*
X32202534Y-99104160D01*
X32202534Y-100348760D01*
G37*
G36*
X34158334Y-100348760D02*
G01*
X33396334Y-100348760D01*
X33396334Y-99104160D01*
X34158334Y-99104160D01*
X34158334Y-100348760D01*
G37*
G36*
X35427534Y-100348760D02*
G01*
X34665534Y-100348760D01*
X34665534Y-99104160D01*
X35427534Y-99104160D01*
X35427534Y-100348760D01*
G37*
G36*
X37383334Y-100348760D02*
G01*
X36621334Y-100348760D01*
X36621334Y-99104160D01*
X37383334Y-99104160D01*
X37383334Y-100348760D01*
G37*
G36*
X38652534Y-100348760D02*
G01*
X37890534Y-100348760D01*
X37890534Y-99104160D01*
X38652534Y-99104160D01*
X38652534Y-100348760D01*
G37*
G36*
X40608334Y-100348760D02*
G01*
X39846334Y-100348760D01*
X39846334Y-99104160D01*
X40608334Y-99104160D01*
X40608334Y-100348760D01*
G37*
G36*
X41877534Y-100348760D02*
G01*
X41115534Y-100348760D01*
X41115534Y-99104160D01*
X41877534Y-99104160D01*
X41877534Y-100348760D01*
G37*
G36*
X43833334Y-100348760D02*
G01*
X43071334Y-100348760D01*
X43071334Y-99104160D01*
X43833334Y-99104160D01*
X43833334Y-100348760D01*
G37*
G36*
X45102534Y-100348760D02*
G01*
X44340534Y-100348760D01*
X44340534Y-99104160D01*
X45102534Y-99104160D01*
X45102534Y-100348760D01*
G37*
G36*
X47058334Y-100348760D02*
G01*
X46296334Y-100348760D01*
X46296334Y-99104160D01*
X47058334Y-99104160D01*
X47058334Y-100348760D01*
G37*
G36*
X48330434Y-100348760D02*
G01*
X47568434Y-100348760D01*
X47568434Y-99104160D01*
X48330434Y-99104160D01*
X48330434Y-100348760D01*
G37*
G36*
X50286234Y-100348760D02*
G01*
X49524234Y-100348760D01*
X49524234Y-99104160D01*
X50286234Y-99104160D01*
X50286234Y-100348760D01*
G37*
G36*
X51552534Y-100348760D02*
G01*
X50790534Y-100348760D01*
X50790534Y-99104160D01*
X51552534Y-99104160D01*
X51552534Y-100348760D01*
G37*
G36*
X53508334Y-100348760D02*
G01*
X52746334Y-100348760D01*
X52746334Y-99104160D01*
X53508334Y-99104160D01*
X53508334Y-100348760D01*
G37*
G36*
X54777534Y-100348760D02*
G01*
X54015534Y-100348760D01*
X54015534Y-99104160D01*
X54777534Y-99104160D01*
X54777534Y-100348760D01*
G37*
G36*
X56733334Y-100348760D02*
G01*
X55971334Y-100348760D01*
X55971334Y-99104160D01*
X56733334Y-99104160D01*
X56733334Y-100348760D01*
G37*
G36*
X58003100Y-100347300D02*
G01*
X57241100Y-100347300D01*
X57241100Y-99102700D01*
X58003100Y-99102700D01*
X58003100Y-100347300D01*
G37*
G36*
X59958900Y-100347300D02*
G01*
X59196900Y-100347300D01*
X59196900Y-99102700D01*
X59958900Y-99102700D01*
X59958900Y-100347300D01*
G37*
G36*
X61228100Y-100347300D02*
G01*
X60466100Y-100347300D01*
X60466100Y-99102700D01*
X61228100Y-99102700D01*
X61228100Y-100347300D01*
G37*
G36*
X63183900Y-100347300D02*
G01*
X62421900Y-100347300D01*
X62421900Y-99102700D01*
X63183900Y-99102700D01*
X63183900Y-100347300D01*
G37*
G36*
X64453100Y-100347300D02*
G01*
X63691100Y-100347300D01*
X63691100Y-99102700D01*
X64453100Y-99102700D01*
X64453100Y-100347300D01*
G37*
G36*
X66408900Y-100347300D02*
G01*
X65646900Y-100347300D01*
X65646900Y-99102700D01*
X66408900Y-99102700D01*
X66408900Y-100347300D01*
G37*
G36*
X67678100Y-100347300D02*
G01*
X66916100Y-100347300D01*
X66916100Y-99102700D01*
X67678100Y-99102700D01*
X67678100Y-100347300D01*
G37*
G36*
X69633900Y-100347300D02*
G01*
X68871900Y-100347300D01*
X68871900Y-99102700D01*
X69633900Y-99102700D01*
X69633900Y-100347300D01*
G37*
G36*
X70903100Y-100347300D02*
G01*
X70141100Y-100347300D01*
X70141100Y-99102700D01*
X70903100Y-99102700D01*
X70903100Y-100347300D01*
G37*
G36*
X72858900Y-100347300D02*
G01*
X72096900Y-100347300D01*
X72096900Y-99102700D01*
X72858900Y-99102700D01*
X72858900Y-100347300D01*
G37*
G36*
X74128100Y-100347300D02*
G01*
X73366100Y-100347300D01*
X73366100Y-99102700D01*
X74128100Y-99102700D01*
X74128100Y-100347300D01*
G37*
G36*
X76083900Y-100347300D02*
G01*
X75321900Y-100347300D01*
X75321900Y-99102700D01*
X76083900Y-99102700D01*
X76083900Y-100347300D01*
G37*
G36*
X77353100Y-100347300D02*
G01*
X76591100Y-100347300D01*
X76591100Y-99102700D01*
X77353100Y-99102700D01*
X77353100Y-100347300D01*
G37*
G36*
X79308900Y-100347300D02*
G01*
X78546900Y-100347300D01*
X78546900Y-99102700D01*
X79308900Y-99102700D01*
X79308900Y-100347300D01*
G37*
G36*
X80578100Y-100347300D02*
G01*
X79816100Y-100347300D01*
X79816100Y-99102700D01*
X80578100Y-99102700D01*
X80578100Y-100347300D01*
G37*
G36*
X82533900Y-100347300D02*
G01*
X81771900Y-100347300D01*
X81771900Y-99102700D01*
X82533900Y-99102700D01*
X82533900Y-100347300D01*
G37*
G36*
X83803100Y-100347300D02*
G01*
X83041100Y-100347300D01*
X83041100Y-99102700D01*
X83803100Y-99102700D01*
X83803100Y-100347300D01*
G37*
G36*
X85758900Y-100347300D02*
G01*
X84996900Y-100347300D01*
X84996900Y-99102700D01*
X85758900Y-99102700D01*
X85758900Y-100347300D01*
G37*
G36*
X28977534Y-97123760D02*
G01*
X28215534Y-97123760D01*
X28215534Y-95879160D01*
X28977534Y-95879160D01*
X28977534Y-97123760D01*
G37*
G36*
X30933334Y-97123760D02*
G01*
X30171334Y-97123760D01*
X30171334Y-95879160D01*
X30933334Y-95879160D01*
X30933334Y-97123760D01*
G37*
G36*
X32202534Y-97123760D02*
G01*
X31440534Y-97123760D01*
X31440534Y-95879160D01*
X32202534Y-95879160D01*
X32202534Y-97123760D01*
G37*
G36*
X34158334Y-97123760D02*
G01*
X33396334Y-97123760D01*
X33396334Y-95879160D01*
X34158334Y-95879160D01*
X34158334Y-97123760D01*
G37*
G36*
X35427534Y-97123760D02*
G01*
X34665534Y-97123760D01*
X34665534Y-95879160D01*
X35427534Y-95879160D01*
X35427534Y-97123760D01*
G37*
G36*
X37383334Y-97123760D02*
G01*
X36621334Y-97123760D01*
X36621334Y-95879160D01*
X37383334Y-95879160D01*
X37383334Y-97123760D01*
G37*
G36*
X38652534Y-97123760D02*
G01*
X37890534Y-97123760D01*
X37890534Y-95879160D01*
X38652534Y-95879160D01*
X38652534Y-97123760D01*
G37*
G36*
X40608334Y-97123760D02*
G01*
X39846334Y-97123760D01*
X39846334Y-95879160D01*
X40608334Y-95879160D01*
X40608334Y-97123760D01*
G37*
G36*
X41877534Y-97123760D02*
G01*
X41115534Y-97123760D01*
X41115534Y-95879160D01*
X41877534Y-95879160D01*
X41877534Y-97123760D01*
G37*
G36*
X43833334Y-97123760D02*
G01*
X43071334Y-97123760D01*
X43071334Y-95879160D01*
X43833334Y-95879160D01*
X43833334Y-97123760D01*
G37*
G36*
X45102534Y-97123760D02*
G01*
X44340534Y-97123760D01*
X44340534Y-95879160D01*
X45102534Y-95879160D01*
X45102534Y-97123760D01*
G37*
G36*
X47058334Y-97123760D02*
G01*
X46296334Y-97123760D01*
X46296334Y-95879160D01*
X47058334Y-95879160D01*
X47058334Y-97123760D01*
G37*
G36*
X48330434Y-97123760D02*
G01*
X47568434Y-97123760D01*
X47568434Y-95879160D01*
X48330434Y-95879160D01*
X48330434Y-97123760D01*
G37*
G36*
X50286234Y-97123760D02*
G01*
X49524234Y-97123760D01*
X49524234Y-95879160D01*
X50286234Y-95879160D01*
X50286234Y-97123760D01*
G37*
G36*
X51552534Y-97123760D02*
G01*
X50790534Y-97123760D01*
X50790534Y-95879160D01*
X51552534Y-95879160D01*
X51552534Y-97123760D01*
G37*
G36*
X53508334Y-97123760D02*
G01*
X52746334Y-97123760D01*
X52746334Y-95879160D01*
X53508334Y-95879160D01*
X53508334Y-97123760D01*
G37*
G36*
X54777534Y-97123760D02*
G01*
X54015534Y-97123760D01*
X54015534Y-95879160D01*
X54777534Y-95879160D01*
X54777534Y-97123760D01*
G37*
G36*
X56733334Y-97123760D02*
G01*
X55971334Y-97123760D01*
X55971334Y-95879160D01*
X56733334Y-95879160D01*
X56733334Y-97123760D01*
G37*
G36*
X58003100Y-97122300D02*
G01*
X57241100Y-97122300D01*
X57241100Y-95877700D01*
X58003100Y-95877700D01*
X58003100Y-97122300D01*
G37*
G36*
X59958900Y-97122300D02*
G01*
X59196900Y-97122300D01*
X59196900Y-95877700D01*
X59958900Y-95877700D01*
X59958900Y-97122300D01*
G37*
G36*
X61228100Y-97122300D02*
G01*
X60466100Y-97122300D01*
X60466100Y-95877700D01*
X61228100Y-95877700D01*
X61228100Y-97122300D01*
G37*
G36*
X63183900Y-97122300D02*
G01*
X62421900Y-97122300D01*
X62421900Y-95877700D01*
X63183900Y-95877700D01*
X63183900Y-97122300D01*
G37*
G36*
X64453100Y-97122300D02*
G01*
X63691100Y-97122300D01*
X63691100Y-95877700D01*
X64453100Y-95877700D01*
X64453100Y-97122300D01*
G37*
G36*
X66408900Y-97122300D02*
G01*
X65646900Y-97122300D01*
X65646900Y-95877700D01*
X66408900Y-95877700D01*
X66408900Y-97122300D01*
G37*
G36*
X67678100Y-97122300D02*
G01*
X66916100Y-97122300D01*
X66916100Y-95877700D01*
X67678100Y-95877700D01*
X67678100Y-97122300D01*
G37*
G36*
X69633900Y-97122300D02*
G01*
X68871900Y-97122300D01*
X68871900Y-95877700D01*
X69633900Y-95877700D01*
X69633900Y-97122300D01*
G37*
G36*
X70903100Y-97122300D02*
G01*
X70141100Y-97122300D01*
X70141100Y-95877700D01*
X70903100Y-95877700D01*
X70903100Y-97122300D01*
G37*
G36*
X72858900Y-97122300D02*
G01*
X72096900Y-97122300D01*
X72096900Y-95877700D01*
X72858900Y-95877700D01*
X72858900Y-97122300D01*
G37*
G36*
X74128100Y-97122300D02*
G01*
X73366100Y-97122300D01*
X73366100Y-95877700D01*
X74128100Y-95877700D01*
X74128100Y-97122300D01*
G37*
G36*
X76083900Y-97122300D02*
G01*
X75321900Y-97122300D01*
X75321900Y-95877700D01*
X76083900Y-95877700D01*
X76083900Y-97122300D01*
G37*
G36*
X77353100Y-97122300D02*
G01*
X76591100Y-97122300D01*
X76591100Y-95877700D01*
X77353100Y-95877700D01*
X77353100Y-97122300D01*
G37*
G36*
X79308900Y-97122300D02*
G01*
X78546900Y-97122300D01*
X78546900Y-95877700D01*
X79308900Y-95877700D01*
X79308900Y-97122300D01*
G37*
G36*
X80578100Y-97122300D02*
G01*
X79816100Y-97122300D01*
X79816100Y-95877700D01*
X80578100Y-95877700D01*
X80578100Y-97122300D01*
G37*
G36*
X82533900Y-97122300D02*
G01*
X81771900Y-97122300D01*
X81771900Y-95877700D01*
X82533900Y-95877700D01*
X82533900Y-97122300D01*
G37*
G36*
X83803100Y-97122300D02*
G01*
X83041100Y-97122300D01*
X83041100Y-95877700D01*
X83803100Y-95877700D01*
X83803100Y-97122300D01*
G37*
G36*
X85758900Y-97122300D02*
G01*
X84996900Y-97122300D01*
X84996900Y-95877700D01*
X85758900Y-95877700D01*
X85758900Y-97122300D01*
G37*
G36*
X28977534Y-93898760D02*
G01*
X28215534Y-93898760D01*
X28215534Y-92654160D01*
X28977534Y-92654160D01*
X28977534Y-93898760D01*
G37*
G36*
X30933334Y-93898760D02*
G01*
X30171334Y-93898760D01*
X30171334Y-92654160D01*
X30933334Y-92654160D01*
X30933334Y-93898760D01*
G37*
G36*
X32202534Y-93898760D02*
G01*
X31440534Y-93898760D01*
X31440534Y-92654160D01*
X32202534Y-92654160D01*
X32202534Y-93898760D01*
G37*
G36*
X34158334Y-93898760D02*
G01*
X33396334Y-93898760D01*
X33396334Y-92654160D01*
X34158334Y-92654160D01*
X34158334Y-93898760D01*
G37*
G36*
X35427534Y-93898760D02*
G01*
X34665534Y-93898760D01*
X34665534Y-92654160D01*
X35427534Y-92654160D01*
X35427534Y-93898760D01*
G37*
G36*
X37383334Y-93898760D02*
G01*
X36621334Y-93898760D01*
X36621334Y-92654160D01*
X37383334Y-92654160D01*
X37383334Y-93898760D01*
G37*
G36*
X38652534Y-93898760D02*
G01*
X37890534Y-93898760D01*
X37890534Y-92654160D01*
X38652534Y-92654160D01*
X38652534Y-93898760D01*
G37*
G36*
X40608334Y-93898760D02*
G01*
X39846334Y-93898760D01*
X39846334Y-92654160D01*
X40608334Y-92654160D01*
X40608334Y-93898760D01*
G37*
G36*
X41877534Y-93898760D02*
G01*
X41115534Y-93898760D01*
X41115534Y-92654160D01*
X41877534Y-92654160D01*
X41877534Y-93898760D01*
G37*
G36*
X43833334Y-93898760D02*
G01*
X43071334Y-93898760D01*
X43071334Y-92654160D01*
X43833334Y-92654160D01*
X43833334Y-93898760D01*
G37*
G36*
X45105434Y-93898760D02*
G01*
X44343434Y-93898760D01*
X44343434Y-92654160D01*
X45105434Y-92654160D01*
X45105434Y-93898760D01*
G37*
G36*
X47061234Y-93898760D02*
G01*
X46299234Y-93898760D01*
X46299234Y-92654160D01*
X47061234Y-92654160D01*
X47061234Y-93898760D01*
G37*
G36*
X48327534Y-93898760D02*
G01*
X47565534Y-93898760D01*
X47565534Y-92654160D01*
X48327534Y-92654160D01*
X48327534Y-93898760D01*
G37*
G36*
X50283334Y-93898760D02*
G01*
X49521334Y-93898760D01*
X49521334Y-92654160D01*
X50283334Y-92654160D01*
X50283334Y-93898760D01*
G37*
G36*
X51552534Y-93898760D02*
G01*
X50790534Y-93898760D01*
X50790534Y-92654160D01*
X51552534Y-92654160D01*
X51552534Y-93898760D01*
G37*
G36*
X53508334Y-93898760D02*
G01*
X52746334Y-93898760D01*
X52746334Y-92654160D01*
X53508334Y-92654160D01*
X53508334Y-93898760D01*
G37*
G36*
X54777534Y-93898760D02*
G01*
X54015534Y-93898760D01*
X54015534Y-92654160D01*
X54777534Y-92654160D01*
X54777534Y-93898760D01*
G37*
G36*
X56733334Y-93898760D02*
G01*
X55971334Y-93898760D01*
X55971334Y-92654160D01*
X56733334Y-92654160D01*
X56733334Y-93898760D01*
G37*
G36*
X58003100Y-93897300D02*
G01*
X57241100Y-93897300D01*
X57241100Y-92652700D01*
X58003100Y-92652700D01*
X58003100Y-93897300D01*
G37*
G36*
X59958900Y-93897300D02*
G01*
X59196900Y-93897300D01*
X59196900Y-92652700D01*
X59958900Y-92652700D01*
X59958900Y-93897300D01*
G37*
G36*
X61228100Y-93897300D02*
G01*
X60466100Y-93897300D01*
X60466100Y-92652700D01*
X61228100Y-92652700D01*
X61228100Y-93897300D01*
G37*
G36*
X63183900Y-93897300D02*
G01*
X62421900Y-93897300D01*
X62421900Y-92652700D01*
X63183900Y-92652700D01*
X63183900Y-93897300D01*
G37*
G36*
X64453100Y-93897300D02*
G01*
X63691100Y-93897300D01*
X63691100Y-92652700D01*
X64453100Y-92652700D01*
X64453100Y-93897300D01*
G37*
G36*
X66408900Y-93897300D02*
G01*
X65646900Y-93897300D01*
X65646900Y-92652700D01*
X66408900Y-92652700D01*
X66408900Y-93897300D01*
G37*
G36*
X67678100Y-93897300D02*
G01*
X66916100Y-93897300D01*
X66916100Y-92652700D01*
X67678100Y-92652700D01*
X67678100Y-93897300D01*
G37*
G36*
X69633900Y-93897300D02*
G01*
X68871900Y-93897300D01*
X68871900Y-92652700D01*
X69633900Y-92652700D01*
X69633900Y-93897300D01*
G37*
G36*
X70903100Y-93897300D02*
G01*
X70141100Y-93897300D01*
X70141100Y-92652700D01*
X70903100Y-92652700D01*
X70903100Y-93897300D01*
G37*
G36*
X72858900Y-93897300D02*
G01*
X72096900Y-93897300D01*
X72096900Y-92652700D01*
X72858900Y-92652700D01*
X72858900Y-93897300D01*
G37*
G36*
X74128100Y-93897300D02*
G01*
X73366100Y-93897300D01*
X73366100Y-92652700D01*
X74128100Y-92652700D01*
X74128100Y-93897300D01*
G37*
G36*
X76083900Y-93897300D02*
G01*
X75321900Y-93897300D01*
X75321900Y-92652700D01*
X76083900Y-92652700D01*
X76083900Y-93897300D01*
G37*
G36*
X77353100Y-93897300D02*
G01*
X76591100Y-93897300D01*
X76591100Y-92652700D01*
X77353100Y-92652700D01*
X77353100Y-93897300D01*
G37*
G36*
X79308900Y-93897300D02*
G01*
X78546900Y-93897300D01*
X78546900Y-92652700D01*
X79308900Y-92652700D01*
X79308900Y-93897300D01*
G37*
G36*
X80578100Y-93897300D02*
G01*
X79816100Y-93897300D01*
X79816100Y-92652700D01*
X80578100Y-92652700D01*
X80578100Y-93897300D01*
G37*
G36*
X82533900Y-93897300D02*
G01*
X81771900Y-93897300D01*
X81771900Y-92652700D01*
X82533900Y-92652700D01*
X82533900Y-93897300D01*
G37*
G36*
X83803100Y-93897300D02*
G01*
X83041100Y-93897300D01*
X83041100Y-92652700D01*
X83803100Y-92652700D01*
X83803100Y-93897300D01*
G37*
G36*
X85758900Y-93897300D02*
G01*
X84996900Y-93897300D01*
X84996900Y-92652700D01*
X85758900Y-92652700D01*
X85758900Y-93897300D01*
G37*
G36*
X28977534Y-90673760D02*
G01*
X28215534Y-90673760D01*
X28215534Y-89429160D01*
X28977534Y-89429160D01*
X28977534Y-90673760D01*
G37*
G36*
X30933334Y-90673760D02*
G01*
X30171334Y-90673760D01*
X30171334Y-89429160D01*
X30933334Y-89429160D01*
X30933334Y-90673760D01*
G37*
G36*
X32202534Y-90673760D02*
G01*
X31440534Y-90673760D01*
X31440534Y-89429160D01*
X32202534Y-89429160D01*
X32202534Y-90673760D01*
G37*
G36*
X34158334Y-90673760D02*
G01*
X33396334Y-90673760D01*
X33396334Y-89429160D01*
X34158334Y-89429160D01*
X34158334Y-90673760D01*
G37*
G36*
X35427534Y-90673760D02*
G01*
X34665534Y-90673760D01*
X34665534Y-89429160D01*
X35427534Y-89429160D01*
X35427534Y-90673760D01*
G37*
G36*
X37383334Y-90673760D02*
G01*
X36621334Y-90673760D01*
X36621334Y-89429160D01*
X37383334Y-89429160D01*
X37383334Y-90673760D01*
G37*
G36*
X38652534Y-90673760D02*
G01*
X37890534Y-90673760D01*
X37890534Y-89429160D01*
X38652534Y-89429160D01*
X38652534Y-90673760D01*
G37*
G36*
X40608334Y-90673760D02*
G01*
X39846334Y-90673760D01*
X39846334Y-89429160D01*
X40608334Y-89429160D01*
X40608334Y-90673760D01*
G37*
G36*
X41877534Y-90673760D02*
G01*
X41115534Y-90673760D01*
X41115534Y-89429160D01*
X41877534Y-89429160D01*
X41877534Y-90673760D01*
G37*
G36*
X43833334Y-90673760D02*
G01*
X43071334Y-90673760D01*
X43071334Y-89429160D01*
X43833334Y-89429160D01*
X43833334Y-90673760D01*
G37*
G36*
X45102534Y-90673760D02*
G01*
X44340534Y-90673760D01*
X44340534Y-89429160D01*
X45102534Y-89429160D01*
X45102534Y-90673760D01*
G37*
G36*
X47058334Y-90673760D02*
G01*
X46296334Y-90673760D01*
X46296334Y-89429160D01*
X47058334Y-89429160D01*
X47058334Y-90673760D01*
G37*
G36*
X48330434Y-90673760D02*
G01*
X47568434Y-90673760D01*
X47568434Y-89429160D01*
X48330434Y-89429160D01*
X48330434Y-90673760D01*
G37*
G36*
X50286234Y-90673760D02*
G01*
X49524234Y-90673760D01*
X49524234Y-89429160D01*
X50286234Y-89429160D01*
X50286234Y-90673760D01*
G37*
G36*
X51552534Y-90673760D02*
G01*
X50790534Y-90673760D01*
X50790534Y-89429160D01*
X51552534Y-89429160D01*
X51552534Y-90673760D01*
G37*
G36*
X53508334Y-90673760D02*
G01*
X52746334Y-90673760D01*
X52746334Y-89429160D01*
X53508334Y-89429160D01*
X53508334Y-90673760D01*
G37*
G36*
X54777534Y-90673760D02*
G01*
X54015534Y-90673760D01*
X54015534Y-89429160D01*
X54777534Y-89429160D01*
X54777534Y-90673760D01*
G37*
G36*
X56733334Y-90673760D02*
G01*
X55971334Y-90673760D01*
X55971334Y-89429160D01*
X56733334Y-89429160D01*
X56733334Y-90673760D01*
G37*
G36*
X58003100Y-90672300D02*
G01*
X57241100Y-90672300D01*
X57241100Y-89427700D01*
X58003100Y-89427700D01*
X58003100Y-90672300D01*
G37*
G36*
X59958900Y-90672300D02*
G01*
X59196900Y-90672300D01*
X59196900Y-89427700D01*
X59958900Y-89427700D01*
X59958900Y-90672300D01*
G37*
G36*
X61228100Y-90672300D02*
G01*
X60466100Y-90672300D01*
X60466100Y-89427700D01*
X61228100Y-89427700D01*
X61228100Y-90672300D01*
G37*
G36*
X63183900Y-90672300D02*
G01*
X62421900Y-90672300D01*
X62421900Y-89427700D01*
X63183900Y-89427700D01*
X63183900Y-90672300D01*
G37*
G36*
X64453100Y-90672300D02*
G01*
X63691100Y-90672300D01*
X63691100Y-89427700D01*
X64453100Y-89427700D01*
X64453100Y-90672300D01*
G37*
G36*
X66408900Y-90672300D02*
G01*
X65646900Y-90672300D01*
X65646900Y-89427700D01*
X66408900Y-89427700D01*
X66408900Y-90672300D01*
G37*
G36*
X67678100Y-90672300D02*
G01*
X66916100Y-90672300D01*
X66916100Y-89427700D01*
X67678100Y-89427700D01*
X67678100Y-90672300D01*
G37*
G36*
X69633900Y-90672300D02*
G01*
X68871900Y-90672300D01*
X68871900Y-89427700D01*
X69633900Y-89427700D01*
X69633900Y-90672300D01*
G37*
G36*
X70903100Y-90672300D02*
G01*
X70141100Y-90672300D01*
X70141100Y-89427700D01*
X70903100Y-89427700D01*
X70903100Y-90672300D01*
G37*
G36*
X72858900Y-90672300D02*
G01*
X72096900Y-90672300D01*
X72096900Y-89427700D01*
X72858900Y-89427700D01*
X72858900Y-90672300D01*
G37*
G36*
X74128100Y-90672300D02*
G01*
X73366100Y-90672300D01*
X73366100Y-89427700D01*
X74128100Y-89427700D01*
X74128100Y-90672300D01*
G37*
G36*
X76083900Y-90672300D02*
G01*
X75321900Y-90672300D01*
X75321900Y-89427700D01*
X76083900Y-89427700D01*
X76083900Y-90672300D01*
G37*
G36*
X77353100Y-90672300D02*
G01*
X76591100Y-90672300D01*
X76591100Y-89427700D01*
X77353100Y-89427700D01*
X77353100Y-90672300D01*
G37*
G36*
X79308900Y-90672300D02*
G01*
X78546900Y-90672300D01*
X78546900Y-89427700D01*
X79308900Y-89427700D01*
X79308900Y-90672300D01*
G37*
G36*
X80578100Y-90672300D02*
G01*
X79816100Y-90672300D01*
X79816100Y-89427700D01*
X80578100Y-89427700D01*
X80578100Y-90672300D01*
G37*
G36*
X82533900Y-90672300D02*
G01*
X81771900Y-90672300D01*
X81771900Y-89427700D01*
X82533900Y-89427700D01*
X82533900Y-90672300D01*
G37*
G36*
X83803100Y-90672300D02*
G01*
X83041100Y-90672300D01*
X83041100Y-89427700D01*
X83803100Y-89427700D01*
X83803100Y-90672300D01*
G37*
G36*
X85758900Y-90672300D02*
G01*
X84996900Y-90672300D01*
X84996900Y-89427700D01*
X85758900Y-89427700D01*
X85758900Y-90672300D01*
G37*
G36*
X28977534Y-87448760D02*
G01*
X28215534Y-87448760D01*
X28215534Y-86204160D01*
X28977534Y-86204160D01*
X28977534Y-87448760D01*
G37*
G36*
X30933334Y-87448760D02*
G01*
X30171334Y-87448760D01*
X30171334Y-86204160D01*
X30933334Y-86204160D01*
X30933334Y-87448760D01*
G37*
G36*
X32202534Y-87448760D02*
G01*
X31440534Y-87448760D01*
X31440534Y-86204160D01*
X32202534Y-86204160D01*
X32202534Y-87448760D01*
G37*
G36*
X34158334Y-87448760D02*
G01*
X33396334Y-87448760D01*
X33396334Y-86204160D01*
X34158334Y-86204160D01*
X34158334Y-87448760D01*
G37*
G36*
X35427534Y-87448760D02*
G01*
X34665534Y-87448760D01*
X34665534Y-86204160D01*
X35427534Y-86204160D01*
X35427534Y-87448760D01*
G37*
G36*
X37383334Y-87448760D02*
G01*
X36621334Y-87448760D01*
X36621334Y-86204160D01*
X37383334Y-86204160D01*
X37383334Y-87448760D01*
G37*
G36*
X38652534Y-87448760D02*
G01*
X37890534Y-87448760D01*
X37890534Y-86204160D01*
X38652534Y-86204160D01*
X38652534Y-87448760D01*
G37*
G36*
X40608334Y-87448760D02*
G01*
X39846334Y-87448760D01*
X39846334Y-86204160D01*
X40608334Y-86204160D01*
X40608334Y-87448760D01*
G37*
G36*
X41877534Y-87448760D02*
G01*
X41115534Y-87448760D01*
X41115534Y-86204160D01*
X41877534Y-86204160D01*
X41877534Y-87448760D01*
G37*
G36*
X43833334Y-87448760D02*
G01*
X43071334Y-87448760D01*
X43071334Y-86204160D01*
X43833334Y-86204160D01*
X43833334Y-87448760D01*
G37*
G36*
X45102534Y-87448760D02*
G01*
X44340534Y-87448760D01*
X44340534Y-86204160D01*
X45102534Y-86204160D01*
X45102534Y-87448760D01*
G37*
G36*
X47058334Y-87448760D02*
G01*
X46296334Y-87448760D01*
X46296334Y-86204160D01*
X47058334Y-86204160D01*
X47058334Y-87448760D01*
G37*
G36*
X48330434Y-87448760D02*
G01*
X47568434Y-87448760D01*
X47568434Y-86204160D01*
X48330434Y-86204160D01*
X48330434Y-87448760D01*
G37*
G36*
X50286234Y-87448760D02*
G01*
X49524234Y-87448760D01*
X49524234Y-86204160D01*
X50286234Y-86204160D01*
X50286234Y-87448760D01*
G37*
G36*
X51552534Y-87448760D02*
G01*
X50790534Y-87448760D01*
X50790534Y-86204160D01*
X51552534Y-86204160D01*
X51552534Y-87448760D01*
G37*
G36*
X53508334Y-87448760D02*
G01*
X52746334Y-87448760D01*
X52746334Y-86204160D01*
X53508334Y-86204160D01*
X53508334Y-87448760D01*
G37*
G36*
X54777534Y-87448760D02*
G01*
X54015534Y-87448760D01*
X54015534Y-86204160D01*
X54777534Y-86204160D01*
X54777534Y-87448760D01*
G37*
G36*
X56733334Y-87448760D02*
G01*
X55971334Y-87448760D01*
X55971334Y-86204160D01*
X56733334Y-86204160D01*
X56733334Y-87448760D01*
G37*
G36*
X58003100Y-87447300D02*
G01*
X57241100Y-87447300D01*
X57241100Y-86202700D01*
X58003100Y-86202700D01*
X58003100Y-87447300D01*
G37*
G36*
X59958900Y-87447300D02*
G01*
X59196900Y-87447300D01*
X59196900Y-86202700D01*
X59958900Y-86202700D01*
X59958900Y-87447300D01*
G37*
G36*
X61228100Y-87447300D02*
G01*
X60466100Y-87447300D01*
X60466100Y-86202700D01*
X61228100Y-86202700D01*
X61228100Y-87447300D01*
G37*
G36*
X63183900Y-87447300D02*
G01*
X62421900Y-87447300D01*
X62421900Y-86202700D01*
X63183900Y-86202700D01*
X63183900Y-87447300D01*
G37*
G36*
X64453100Y-87447300D02*
G01*
X63691100Y-87447300D01*
X63691100Y-86202700D01*
X64453100Y-86202700D01*
X64453100Y-87447300D01*
G37*
G36*
X66408900Y-87447300D02*
G01*
X65646900Y-87447300D01*
X65646900Y-86202700D01*
X66408900Y-86202700D01*
X66408900Y-87447300D01*
G37*
G36*
X67678100Y-87447300D02*
G01*
X66916100Y-87447300D01*
X66916100Y-86202700D01*
X67678100Y-86202700D01*
X67678100Y-87447300D01*
G37*
G36*
X69633900Y-87447300D02*
G01*
X68871900Y-87447300D01*
X68871900Y-86202700D01*
X69633900Y-86202700D01*
X69633900Y-87447300D01*
G37*
G36*
X70903100Y-87447300D02*
G01*
X70141100Y-87447300D01*
X70141100Y-86202700D01*
X70903100Y-86202700D01*
X70903100Y-87447300D01*
G37*
G36*
X72858900Y-87447300D02*
G01*
X72096900Y-87447300D01*
X72096900Y-86202700D01*
X72858900Y-86202700D01*
X72858900Y-87447300D01*
G37*
G36*
X74128100Y-87447300D02*
G01*
X73366100Y-87447300D01*
X73366100Y-86202700D01*
X74128100Y-86202700D01*
X74128100Y-87447300D01*
G37*
G36*
X76083900Y-87447300D02*
G01*
X75321900Y-87447300D01*
X75321900Y-86202700D01*
X76083900Y-86202700D01*
X76083900Y-87447300D01*
G37*
G36*
X77353100Y-87447300D02*
G01*
X76591100Y-87447300D01*
X76591100Y-86202700D01*
X77353100Y-86202700D01*
X77353100Y-87447300D01*
G37*
G36*
X79308900Y-87447300D02*
G01*
X78546900Y-87447300D01*
X78546900Y-86202700D01*
X79308900Y-86202700D01*
X79308900Y-87447300D01*
G37*
G36*
X80578100Y-87447300D02*
G01*
X79816100Y-87447300D01*
X79816100Y-86202700D01*
X80578100Y-86202700D01*
X80578100Y-87447300D01*
G37*
G36*
X82533900Y-87447300D02*
G01*
X81771900Y-87447300D01*
X81771900Y-86202700D01*
X82533900Y-86202700D01*
X82533900Y-87447300D01*
G37*
G36*
X83803100Y-87447300D02*
G01*
X83041100Y-87447300D01*
X83041100Y-86202700D01*
X83803100Y-86202700D01*
X83803100Y-87447300D01*
G37*
G36*
X85758900Y-87447300D02*
G01*
X84996900Y-87447300D01*
X84996900Y-86202700D01*
X85758900Y-86202700D01*
X85758900Y-87447300D01*
G37*
G36*
X35427534Y-84225260D02*
G01*
X34665534Y-84225260D01*
X34665534Y-82980660D01*
X35427534Y-82980660D01*
X35427534Y-84225260D01*
G37*
G36*
X37383334Y-84225260D02*
G01*
X36621334Y-84225260D01*
X36621334Y-82980660D01*
X37383334Y-82980660D01*
X37383334Y-84225260D01*
G37*
G36*
X38652534Y-84225093D02*
G01*
X37890534Y-84225093D01*
X37890534Y-82980493D01*
X38652534Y-82980493D01*
X38652534Y-84225093D01*
G37*
G36*
X40608334Y-84225093D02*
G01*
X39846334Y-84225093D01*
X39846334Y-82980493D01*
X40608334Y-82980493D01*
X40608334Y-84225093D01*
G37*
G36*
X45102534Y-84224927D02*
G01*
X44340534Y-84224927D01*
X44340534Y-82980327D01*
X45102534Y-82980327D01*
X45102534Y-84224927D01*
G37*
G36*
X47058334Y-84224927D02*
G01*
X46296334Y-84224927D01*
X46296334Y-82980327D01*
X47058334Y-82980327D01*
X47058334Y-84224927D01*
G37*
G36*
X28977534Y-84224760D02*
G01*
X28215534Y-84224760D01*
X28215534Y-82980160D01*
X28977534Y-82980160D01*
X28977534Y-84224760D01*
G37*
G36*
X30933334Y-84224760D02*
G01*
X30171334Y-84224760D01*
X30171334Y-82980160D01*
X30933334Y-82980160D01*
X30933334Y-84224760D01*
G37*
G36*
X54777534Y-84224427D02*
G01*
X54015534Y-84224427D01*
X54015534Y-82979827D01*
X54777534Y-82979827D01*
X54777534Y-84224427D01*
G37*
G36*
X56733334Y-84224427D02*
G01*
X55971334Y-84224427D01*
X55971334Y-82979827D01*
X56733334Y-82979827D01*
X56733334Y-84224427D01*
G37*
G36*
X48327534Y-84224260D02*
G01*
X47565534Y-84224260D01*
X47565534Y-82979660D01*
X48327534Y-82979660D01*
X48327534Y-84224260D01*
G37*
G36*
X50283334Y-84224260D02*
G01*
X49521334Y-84224260D01*
X49521334Y-82979660D01*
X50283334Y-82979660D01*
X50283334Y-84224260D01*
G37*
G36*
X41877534Y-84224093D02*
G01*
X41115534Y-84224093D01*
X41115534Y-82979493D01*
X41877534Y-82979493D01*
X41877534Y-84224093D01*
G37*
G36*
X43833334Y-84224093D02*
G01*
X43071334Y-84224093D01*
X43071334Y-82979493D01*
X43833334Y-82979493D01*
X43833334Y-84224093D01*
G37*
G36*
X51552534Y-84223760D02*
G01*
X50790534Y-84223760D01*
X50790534Y-82979160D01*
X51552534Y-82979160D01*
X51552534Y-84223760D01*
G37*
G36*
X53508334Y-84223760D02*
G01*
X52746334Y-84223760D01*
X52746334Y-82979160D01*
X53508334Y-82979160D01*
X53508334Y-84223760D01*
G37*
G36*
X32202534Y-84223593D02*
G01*
X31440534Y-84223593D01*
X31440534Y-82978993D01*
X32202534Y-82978993D01*
X32202534Y-84223593D01*
G37*
G36*
X34158334Y-84223593D02*
G01*
X33396334Y-84223593D01*
X33396334Y-82978993D01*
X34158334Y-82978993D01*
X34158334Y-84223593D01*
G37*
G36*
X64453100Y-84222467D02*
G01*
X63691100Y-84222467D01*
X63691100Y-82977867D01*
X64453100Y-82977867D01*
X64453100Y-84222467D01*
G37*
G36*
X66408900Y-84222467D02*
G01*
X65646900Y-84222467D01*
X65646900Y-82977867D01*
X66408900Y-82977867D01*
X66408900Y-84222467D01*
G37*
G36*
X67678100Y-84222300D02*
G01*
X66916100Y-84222300D01*
X66916100Y-82977700D01*
X67678100Y-82977700D01*
X67678100Y-84222300D01*
G37*
G36*
X69633900Y-84222300D02*
G01*
X68871900Y-84222300D01*
X68871900Y-82977700D01*
X69633900Y-82977700D01*
X69633900Y-84222300D01*
G37*
G36*
X70903100Y-84222300D02*
G01*
X70141100Y-84222300D01*
X70141100Y-82977700D01*
X70903100Y-82977700D01*
X70903100Y-84222300D01*
G37*
G36*
X72858900Y-84222300D02*
G01*
X72096900Y-84222300D01*
X72096900Y-82977700D01*
X72858900Y-82977700D01*
X72858900Y-84222300D01*
G37*
G36*
X74128100Y-84222300D02*
G01*
X73366100Y-84222300D01*
X73366100Y-82977700D01*
X74128100Y-82977700D01*
X74128100Y-84222300D01*
G37*
G36*
X76083900Y-84222300D02*
G01*
X75321900Y-84222300D01*
X75321900Y-82977700D01*
X76083900Y-82977700D01*
X76083900Y-84222300D01*
G37*
G36*
X77353100Y-84222300D02*
G01*
X76591100Y-84222300D01*
X76591100Y-82977700D01*
X77353100Y-82977700D01*
X77353100Y-84222300D01*
G37*
G36*
X79308900Y-84222300D02*
G01*
X78546900Y-84222300D01*
X78546900Y-82977700D01*
X79308900Y-82977700D01*
X79308900Y-84222300D01*
G37*
G36*
X80578100Y-84222300D02*
G01*
X79816100Y-84222300D01*
X79816100Y-82977700D01*
X80578100Y-82977700D01*
X80578100Y-84222300D01*
G37*
G36*
X82533900Y-84222300D02*
G01*
X81771900Y-84222300D01*
X81771900Y-82977700D01*
X82533900Y-82977700D01*
X82533900Y-84222300D01*
G37*
G36*
X83803100Y-84222300D02*
G01*
X83041100Y-84222300D01*
X83041100Y-82977700D01*
X83803100Y-82977700D01*
X83803100Y-84222300D01*
G37*
G36*
X85758900Y-84222300D02*
G01*
X84996900Y-84222300D01*
X84996900Y-82977700D01*
X85758900Y-82977700D01*
X85758900Y-84222300D01*
G37*
G36*
X61228100Y-84221967D02*
G01*
X60466100Y-84221967D01*
X60466100Y-82977367D01*
X61228100Y-82977367D01*
X61228100Y-84221967D01*
G37*
G36*
X63183900Y-84221967D02*
G01*
X62421900Y-84221967D01*
X62421900Y-82977367D01*
X63183900Y-82977367D01*
X63183900Y-84221967D01*
G37*
G36*
X58003100Y-84221800D02*
G01*
X57241100Y-84221800D01*
X57241100Y-82977200D01*
X58003100Y-82977200D01*
X58003100Y-84221800D01*
G37*
G36*
X59958900Y-84221800D02*
G01*
X59196900Y-84221800D01*
X59196900Y-82977200D01*
X59958900Y-82977200D01*
X59958900Y-84221800D01*
G37*
M02*
