G04 #@! TF.GenerationSoftware,KiCad,Pcbnew,9.0.3*
G04 #@! TF.CreationDate,2025-09-22T20:46:44+01:00*
G04 #@! TF.ProjectId,led_matrix,6c65645f-6d61-4747-9269-782e6b696361,rev?*
G04 #@! TF.SameCoordinates,Original*
G04 #@! TF.FileFunction,Copper,L1,Top*
G04 #@! TF.FilePolarity,Positive*
%FSLAX46Y46*%
G04 Gerber Fmt 4.6, Leading zero omitted, Abs format (unit mm)*
G04 Created by KiCad (PCBNEW 9.0.3) date 2025-09-22 20:46:44*
%MOMM*%
%LPD*%
G01*
G04 APERTURE LIST*
G04 Aperture macros list*
%AMRoundRect*
0 Rectangle with rounded corners*
0 $1 Rounding radius*
0 $2 $3 $4 $5 $6 $7 $8 $9 X,Y pos of 4 corners*
0 Add a 4 corners polygon primitive as box body*
4,1,4,$2,$3,$4,$5,$6,$7,$8,$9,$2,$3,0*
0 Add four circle primitives for the rounded corners*
1,1,$1+$1,$2,$3*
1,1,$1+$1,$4,$5*
1,1,$1+$1,$6,$7*
1,1,$1+$1,$8,$9*
0 Add four rect primitives between the rounded corners*
20,1,$1+$1,$2,$3,$4,$5,0*
20,1,$1+$1,$4,$5,$6,$7,0*
20,1,$1+$1,$6,$7,$8,$9,0*
20,1,$1+$1,$8,$9,$2,$3,0*%
G04 Aperture macros list end*
G04 #@! TA.AperFunction,SMDPad,CuDef*
%ADD10R,0.762000X1.244600*%
G04 #@! TD*
G04 #@! TA.AperFunction,SMDPad,CuDef*
%ADD11RoundRect,0.250000X-0.450000X0.350000X-0.450000X-0.350000X0.450000X-0.350000X0.450000X0.350000X0*%
G04 #@! TD*
G04 #@! TA.AperFunction,SMDPad,CuDef*
%ADD12RoundRect,0.250000X-0.337500X-0.475000X0.337500X-0.475000X0.337500X0.475000X-0.337500X0.475000X0*%
G04 #@! TD*
G04 #@! TA.AperFunction,SMDPad,CuDef*
%ADD13RoundRect,0.250000X0.450000X-0.350000X0.450000X0.350000X-0.450000X0.350000X-0.450000X-0.350000X0*%
G04 #@! TD*
G04 #@! TA.AperFunction,SMDPad,CuDef*
%ADD14RoundRect,0.250000X-0.450000X0.325000X-0.450000X-0.325000X0.450000X-0.325000X0.450000X0.325000X0*%
G04 #@! TD*
G04 #@! TA.AperFunction,SMDPad,CuDef*
%ADD15RoundRect,0.250000X-0.475000X0.337500X-0.475000X-0.337500X0.475000X-0.337500X0.475000X0.337500X0*%
G04 #@! TD*
G04 #@! TA.AperFunction,SMDPad,CuDef*
%ADD16R,2.510000X1.000000*%
G04 #@! TD*
G04 #@! TA.AperFunction,SMDPad,CuDef*
%ADD17RoundRect,0.250000X-0.350000X-0.450000X0.350000X-0.450000X0.350000X0.450000X-0.350000X0.450000X0*%
G04 #@! TD*
G04 #@! TA.AperFunction,SMDPad,CuDef*
%ADD18R,1.000000X1.900000*%
G04 #@! TD*
G04 #@! TA.AperFunction,SMDPad,CuDef*
%ADD19RoundRect,0.250000X0.475000X-0.337500X0.475000X0.337500X-0.475000X0.337500X-0.475000X-0.337500X0*%
G04 #@! TD*
G04 #@! TA.AperFunction,SMDPad,CuDef*
%ADD20RoundRect,0.075000X0.910000X0.225000X-0.910000X0.225000X-0.910000X-0.225000X0.910000X-0.225000X0*%
G04 #@! TD*
G04 #@! TA.AperFunction,SMDPad,CuDef*
%ADD21RoundRect,0.250000X0.350000X0.450000X-0.350000X0.450000X-0.350000X-0.450000X0.350000X-0.450000X0*%
G04 #@! TD*
G04 #@! TA.AperFunction,SMDPad,CuDef*
%ADD22RoundRect,0.250000X0.337500X0.475000X-0.337500X0.475000X-0.337500X-0.475000X0.337500X-0.475000X0*%
G04 #@! TD*
G04 #@! TA.AperFunction,SMDPad,CuDef*
%ADD23R,0.200000X0.850000*%
G04 #@! TD*
G04 #@! TA.AperFunction,SMDPad,CuDef*
%ADD24R,0.850000X0.200000*%
G04 #@! TD*
G04 #@! TA.AperFunction,SMDPad,CuDef*
%ADD25R,2.500000X2.500000*%
G04 #@! TD*
G04 #@! TA.AperFunction,ComponentPad*
%ADD26RoundRect,0.250000X0.750000X-0.750000X0.750000X0.750000X-0.750000X0.750000X-0.750000X-0.750000X0*%
G04 #@! TD*
G04 #@! TA.AperFunction,ComponentPad*
%ADD27C,2.000000*%
G04 #@! TD*
G04 #@! TA.AperFunction,SMDPad,CuDef*
%ADD28RoundRect,0.250000X0.407500X0.295000X-0.407500X0.295000X-0.407500X-0.295000X0.407500X-0.295000X0*%
G04 #@! TD*
G04 #@! TA.AperFunction,SMDPad,CuDef*
%ADD29RoundRect,0.250000X0.295000X-0.407500X0.295000X0.407500X-0.295000X0.407500X-0.295000X-0.407500X0*%
G04 #@! TD*
G04 #@! TA.AperFunction,SMDPad,CuDef*
%ADD30RoundRect,0.152400X0.609600X-1.063600X0.609600X1.063600X-0.609600X1.063600X-0.609600X-1.063600X0*%
G04 #@! TD*
G04 #@! TA.AperFunction,ComponentPad*
%ADD31C,1.524000*%
G04 #@! TD*
G04 #@! TA.AperFunction,SMDPad,CuDef*
%ADD32RoundRect,0.152400X-0.609600X1.063600X-0.609600X-1.063600X0.609600X-1.063600X0.609600X1.063600X0*%
G04 #@! TD*
G04 #@! TA.AperFunction,ComponentPad*
%ADD33RoundRect,0.275000X0.275000X-0.975000X0.275000X0.975000X-0.275000X0.975000X-0.275000X-0.975000X0*%
G04 #@! TD*
G04 #@! TA.AperFunction,ComponentPad*
%ADD34RoundRect,0.275000X0.975000X0.275000X-0.975000X0.275000X-0.975000X-0.275000X0.975000X-0.275000X0*%
G04 #@! TD*
G04 #@! TA.AperFunction,ComponentPad*
%ADD35C,1.700000*%
G04 #@! TD*
G04 #@! TA.AperFunction,SMDPad,CuDef*
%ADD36RoundRect,0.250000X-0.407500X-0.295000X0.407500X-0.295000X0.407500X0.295000X-0.407500X0.295000X0*%
G04 #@! TD*
G04 #@! TA.AperFunction,SMDPad,CuDef*
%ADD37R,1.240000X0.440000*%
G04 #@! TD*
G04 #@! TA.AperFunction,SMDPad,CuDef*
%ADD38R,1.116164X0.160418*%
G04 #@! TD*
G04 #@! TA.AperFunction,SMDPad,CuDef*
%ADD39R,3.040000X0.440000*%
G04 #@! TD*
G04 #@! TA.AperFunction,SMDPad,CuDef*
%ADD40R,0.600000X0.250000*%
G04 #@! TD*
G04 #@! TA.AperFunction,SMDPad,CuDef*
%ADD41R,0.250000X0.600000*%
G04 #@! TD*
G04 #@! TA.AperFunction,SMDPad,CuDef*
%ADD42R,1.590000X0.440000*%
G04 #@! TD*
G04 #@! TA.AperFunction,SMDPad,CuDef*
%ADD43R,3.500000X1.000000*%
G04 #@! TD*
G04 #@! TA.AperFunction,SMDPad,CuDef*
%ADD44R,3.400000X1.500000*%
G04 #@! TD*
G04 #@! TA.AperFunction,ComponentPad*
%ADD45R,1.378000X1.378000*%
G04 #@! TD*
G04 #@! TA.AperFunction,ComponentPad*
%ADD46C,1.378000*%
G04 #@! TD*
G04 #@! TA.AperFunction,ViaPad*
%ADD47C,0.600000*%
G04 #@! TD*
G04 #@! TA.AperFunction,Conductor*
%ADD48C,0.150000*%
G04 #@! TD*
G04 #@! TA.AperFunction,Conductor*
%ADD49C,0.600000*%
G04 #@! TD*
G04 #@! TA.AperFunction,Conductor*
%ADD50C,0.127000*%
G04 #@! TD*
G04 #@! TA.AperFunction,Conductor*
%ADD51C,0.200000*%
G04 #@! TD*
G04 #@! TA.AperFunction,Conductor*
%ADD52C,0.400000*%
G04 #@! TD*
G04 APERTURE END LIST*
D10*
X72477900Y-93275000D03*
X70522100Y-93275000D03*
X72477900Y-99725000D03*
X70522100Y-99725000D03*
D11*
X58250000Y-122000000D03*
X58250000Y-124000000D03*
D12*
X29462500Y-128500000D03*
X31537500Y-128500000D03*
D10*
X69252900Y-83600000D03*
X67297100Y-83600000D03*
X59577900Y-106175000D03*
X57622100Y-106175000D03*
X62802900Y-106175000D03*
X60847100Y-106175000D03*
X46677334Y-96501460D03*
X44721534Y-96501460D03*
X40227334Y-83602793D03*
X38271534Y-83602793D03*
X66027900Y-102950000D03*
X64072100Y-102950000D03*
X56352334Y-90051460D03*
X54396534Y-90051460D03*
X40227334Y-93276460D03*
X38271534Y-93276460D03*
D13*
X58250000Y-128000000D03*
X58250000Y-126000000D03*
D10*
X82152900Y-90050000D03*
X80197100Y-90050000D03*
X66027900Y-83600167D03*
X64072100Y-83600167D03*
X30552334Y-96501460D03*
X28596534Y-96501460D03*
X56352334Y-86826460D03*
X54396534Y-86826460D03*
X49905234Y-96501460D03*
X47949434Y-96501460D03*
X72477900Y-96500000D03*
X70522100Y-96500000D03*
D12*
X53675000Y-113875000D03*
X55750000Y-113875000D03*
X53675000Y-111625000D03*
X55750000Y-111625000D03*
D10*
X33774434Y-102951460D03*
X31818634Y-102951460D03*
X75702900Y-102950000D03*
X73747100Y-102950000D03*
X85377900Y-102950000D03*
X83422100Y-102950000D03*
X75690000Y-106175000D03*
X73734200Y-106175000D03*
X62802900Y-102950000D03*
X60847100Y-102950000D03*
X37002334Y-93276460D03*
X35046534Y-93276460D03*
X85377900Y-86825000D03*
X83422100Y-86825000D03*
X43452334Y-96501460D03*
X41496534Y-96501460D03*
D14*
X43000000Y-126975000D03*
X43000000Y-129025000D03*
D15*
X46000000Y-126962500D03*
X46000000Y-129037500D03*
D10*
X72477900Y-86825000D03*
X70522100Y-86825000D03*
X56352334Y-99726460D03*
X54396534Y-99726460D03*
X33777334Y-86826460D03*
X31821534Y-86826460D03*
X78927900Y-96500000D03*
X76972100Y-96500000D03*
X72477900Y-83600000D03*
X70522100Y-83600000D03*
X62802900Y-90050000D03*
X60847100Y-90050000D03*
D16*
X55595000Y-137940000D03*
X58905000Y-140480000D03*
X55595000Y-143020000D03*
X58905000Y-145560000D03*
D10*
X66027900Y-99725000D03*
X64072100Y-99725000D03*
X75702900Y-83600000D03*
X73747100Y-83600000D03*
X36974434Y-106176460D03*
X35018634Y-106176460D03*
X62802900Y-86825000D03*
X60847100Y-86825000D03*
X62802900Y-83599667D03*
X60847100Y-83599667D03*
D11*
X46000000Y-142500000D03*
X46000000Y-144500000D03*
D10*
X40227334Y-96501460D03*
X38271534Y-96501460D03*
X33777334Y-96501460D03*
X31821534Y-96501460D03*
X56352334Y-93276460D03*
X54396534Y-93276460D03*
X43452334Y-83601793D03*
X41496534Y-83601793D03*
X69250000Y-106175000D03*
X67294200Y-106175000D03*
X69252900Y-99725000D03*
X67297100Y-99725000D03*
X59577900Y-86825000D03*
X57622100Y-86825000D03*
X78927900Y-83600000D03*
X76972100Y-83600000D03*
X62802900Y-96500000D03*
X60847100Y-96500000D03*
D17*
X32250000Y-119250000D03*
X34250000Y-119250000D03*
D10*
X69252900Y-96500000D03*
X67297100Y-96500000D03*
X53127334Y-86826460D03*
X51171534Y-86826460D03*
X40224434Y-102951460D03*
X38268634Y-102951460D03*
D17*
X29500000Y-131500000D03*
X31500000Y-131500000D03*
D18*
X80830000Y-115000000D03*
X78290000Y-118300000D03*
X75750000Y-115000000D03*
X73210000Y-118300000D03*
X70670000Y-115000000D03*
X68130000Y-118300000D03*
X65590000Y-115000000D03*
D10*
X49905234Y-90051460D03*
X47949434Y-90051460D03*
D19*
X46000000Y-134537500D03*
X46000000Y-132462500D03*
X46000000Y-140012500D03*
X46000000Y-137937500D03*
X43000000Y-134537500D03*
X43000000Y-132462500D03*
D20*
X36690000Y-125670000D03*
X36690000Y-124400000D03*
X36690000Y-123130000D03*
X36690000Y-121860000D03*
X31750000Y-121860000D03*
X31750000Y-123130000D03*
X31750000Y-124400000D03*
X31750000Y-125670000D03*
D10*
X40199434Y-106176460D03*
X38243634Y-106176460D03*
X30552334Y-83602460D03*
X28596534Y-83602460D03*
X33777334Y-99726460D03*
X31821534Y-99726460D03*
X59577900Y-99725000D03*
X57622100Y-99725000D03*
D21*
X51250000Y-114000000D03*
X49250000Y-114000000D03*
D10*
X33777334Y-83601293D03*
X31821534Y-83601293D03*
X30552334Y-93276460D03*
X28596534Y-93276460D03*
X49905234Y-102951460D03*
X47949434Y-102951460D03*
X43427334Y-106176460D03*
X41471534Y-106176460D03*
X59577900Y-96500000D03*
X57622100Y-96500000D03*
X30552334Y-90051460D03*
X28596534Y-90051460D03*
X37002334Y-83602960D03*
X35046534Y-83602960D03*
X46655234Y-106176460D03*
X44699434Y-106176460D03*
X85377900Y-96500000D03*
X83422100Y-96500000D03*
X43449434Y-102951460D03*
X41493634Y-102951460D03*
X53102334Y-106176460D03*
X51146534Y-106176460D03*
D22*
X48600000Y-122750000D03*
X46525000Y-122750000D03*
D10*
X53127334Y-102951460D03*
X51171534Y-102951460D03*
D23*
X53950000Y-116300000D03*
X53550000Y-116300000D03*
X53150000Y-116300000D03*
X52750000Y-116300000D03*
X52350000Y-116300000D03*
X51950000Y-116300000D03*
X51550000Y-116300000D03*
D24*
X50800000Y-117050000D03*
X50800000Y-117450000D03*
X50800000Y-117850000D03*
X50800000Y-118250000D03*
X50800000Y-118650000D03*
X50800000Y-119050000D03*
X50800000Y-119450000D03*
D23*
X51550000Y-120200000D03*
X51950000Y-120200000D03*
X52350000Y-120200000D03*
X52750000Y-120200000D03*
X53150000Y-120200000D03*
X53550000Y-120200000D03*
X53950000Y-120200000D03*
D24*
X54700000Y-119450000D03*
X54700000Y-119050000D03*
X54700000Y-118650000D03*
X54700000Y-118250000D03*
X54700000Y-117850000D03*
X54700000Y-117450000D03*
X54700000Y-117050000D03*
D25*
X52750000Y-118250000D03*
D10*
X37002334Y-99726460D03*
X35046534Y-99726460D03*
X59577900Y-83599500D03*
X57622100Y-83599500D03*
D17*
X49250000Y-111500000D03*
X51250000Y-111500000D03*
D10*
X78927900Y-93275000D03*
X76972100Y-93275000D03*
X66027900Y-93275000D03*
X64072100Y-93275000D03*
D13*
X56000000Y-128000000D03*
X56000000Y-126000000D03*
D10*
X30552334Y-86826460D03*
X28596534Y-86826460D03*
X66027900Y-90050000D03*
X64072100Y-90050000D03*
X82152900Y-96500000D03*
X80197100Y-96500000D03*
X69252900Y-102950000D03*
X67297100Y-102950000D03*
X82152900Y-102950000D03*
X80197100Y-102950000D03*
X85350000Y-106177400D03*
X83394200Y-106177400D03*
D26*
X84750000Y-145500000D03*
D27*
X84750000Y-141000000D03*
D10*
X46677334Y-99726460D03*
X44721534Y-99726460D03*
X78927900Y-90050000D03*
X76972100Y-90050000D03*
D28*
X38250000Y-119250000D03*
X36295000Y-119250000D03*
D10*
X46677334Y-90051460D03*
X44721534Y-90051460D03*
X85377900Y-90050000D03*
X83422100Y-90050000D03*
D11*
X49000000Y-127000000D03*
X49000000Y-129000000D03*
D10*
X56352334Y-83602127D03*
X54396534Y-83602127D03*
X37002334Y-86826460D03*
X35046534Y-86826460D03*
X37002334Y-90051460D03*
X35046534Y-90051460D03*
X82152900Y-93275000D03*
X80197100Y-93275000D03*
X72470000Y-106175000D03*
X70514200Y-106175000D03*
X59577900Y-90050000D03*
X57622100Y-90050000D03*
X40227334Y-99726460D03*
X38271534Y-99726460D03*
X75702900Y-93275000D03*
X73747100Y-93275000D03*
X82152900Y-99725000D03*
X80197100Y-99725000D03*
D17*
X34477500Y-131500000D03*
X36477500Y-131500000D03*
D10*
X37002334Y-96501460D03*
X35046534Y-96501460D03*
X46677334Y-102951460D03*
X44721534Y-102951460D03*
X53127334Y-83601460D03*
X51171534Y-83601460D03*
X78910000Y-106175000D03*
X76954200Y-106175000D03*
X33777334Y-93276460D03*
X31821534Y-93276460D03*
X33777334Y-90051460D03*
X31821534Y-90051460D03*
X82130000Y-106177400D03*
X80174200Y-106177400D03*
X49902334Y-93276460D03*
X47946534Y-93276460D03*
X53127334Y-96501460D03*
X51171534Y-96501460D03*
X62802900Y-93275000D03*
X60847100Y-93275000D03*
X43452334Y-99726460D03*
X41496534Y-99726460D03*
X46680234Y-93276460D03*
X44724434Y-93276460D03*
X40227334Y-86826460D03*
X38271534Y-86826460D03*
D29*
X51750000Y-129000000D03*
X51750000Y-127045000D03*
D30*
X81804200Y-121545000D03*
D31*
X81804200Y-122380000D03*
D30*
X79264200Y-121545000D03*
D31*
X79264200Y-122380000D03*
D30*
X76724200Y-121545000D03*
D31*
X76724200Y-122380000D03*
D30*
X74184200Y-121545000D03*
D31*
X74184200Y-122380000D03*
D30*
X71644200Y-121545000D03*
D31*
X71644200Y-122380000D03*
D30*
X69104200Y-121545000D03*
D31*
X69104200Y-122380000D03*
D30*
X66564200Y-121545000D03*
D31*
X66564200Y-122380000D03*
X66564200Y-137620000D03*
D32*
X66564200Y-138455000D03*
D31*
X69104200Y-137620000D03*
D32*
X69104200Y-138455000D03*
D31*
X71644200Y-137620000D03*
D32*
X71644200Y-138455000D03*
D31*
X74184200Y-137620000D03*
D32*
X74184200Y-138455000D03*
D31*
X76724200Y-137620000D03*
D32*
X76724200Y-138455000D03*
D31*
X79264200Y-137620000D03*
D32*
X79264200Y-138455000D03*
D31*
X81804200Y-137620000D03*
D32*
X81804200Y-138455000D03*
D33*
X74501700Y-125555000D03*
X76406700Y-125555000D03*
D34*
X64951300Y-133810000D03*
X64951300Y-135715000D03*
D35*
X82756700Y-128730000D03*
X82756700Y-131270000D03*
X80216700Y-128730000D03*
X80216700Y-131270000D03*
D14*
X49000000Y-137950000D03*
X49000000Y-140000000D03*
D10*
X56352334Y-102951460D03*
X54396534Y-102951460D03*
X66027900Y-86825000D03*
X64072100Y-86825000D03*
X33749434Y-106176460D03*
X31793634Y-106176460D03*
X78927900Y-102950000D03*
X76972100Y-102950000D03*
X46677334Y-86826460D03*
X44721534Y-86826460D03*
X49905234Y-99726460D03*
X47949434Y-99726460D03*
X66027900Y-96500000D03*
X64072100Y-96500000D03*
X69252900Y-86825000D03*
X67297100Y-86825000D03*
X75702900Y-96500000D03*
X73747100Y-96500000D03*
X78927900Y-86825000D03*
X76972100Y-86825000D03*
D18*
X65590000Y-145150000D03*
X68130000Y-141850000D03*
X70670000Y-145150000D03*
X73210000Y-141850000D03*
X75750000Y-145150000D03*
X78290000Y-141850000D03*
X80830000Y-145150000D03*
D36*
X34500000Y-128500000D03*
X36455000Y-128500000D03*
D10*
X59577900Y-93275000D03*
X57622100Y-93275000D03*
X82152900Y-83600000D03*
X80197100Y-83600000D03*
X43452334Y-90051460D03*
X41496534Y-90051460D03*
X43452334Y-86826460D03*
X41496534Y-86826460D03*
X43452334Y-93276460D03*
X41496534Y-93276460D03*
X30552334Y-99726460D03*
X28596534Y-99726460D03*
X53127334Y-99726460D03*
X51171534Y-99726460D03*
X75702900Y-90050000D03*
X73747100Y-90050000D03*
X69252900Y-93275000D03*
X67297100Y-93275000D03*
X85377900Y-99725000D03*
X83422100Y-99725000D03*
X49902334Y-83601960D03*
X47946534Y-83601960D03*
X56327334Y-106176460D03*
X54371534Y-106176460D03*
X40227334Y-90051460D03*
X38271534Y-90051460D03*
X53127334Y-93276460D03*
X51171534Y-93276460D03*
X49905234Y-86826460D03*
X47949434Y-86826460D03*
X72477900Y-90050000D03*
X70522100Y-90050000D03*
X78927900Y-99725000D03*
X76972100Y-99725000D03*
X75702900Y-99725000D03*
X73747100Y-99725000D03*
X53127334Y-90051460D03*
X51171534Y-90051460D03*
D37*
X40893708Y-139580000D03*
D38*
X41793126Y-140470209D03*
D39*
X41793708Y-140180000D03*
D40*
X40643708Y-140825000D03*
D41*
X41043708Y-141500000D03*
X41543708Y-141500000D03*
X42043708Y-141500000D03*
X42543708Y-141500000D03*
D40*
X42943708Y-140825000D03*
D42*
X42518708Y-139580000D03*
D43*
X36043708Y-140200000D03*
X36043708Y-142200000D03*
D44*
X30293708Y-137850000D03*
X30293708Y-144550000D03*
D10*
X75702900Y-86825000D03*
X73747100Y-86825000D03*
X69252900Y-90050000D03*
X67297100Y-90050000D03*
X46677334Y-83602627D03*
X44721534Y-83602627D03*
X36999434Y-102951460D03*
X35043634Y-102951460D03*
X56352334Y-96501460D03*
X54396534Y-96501460D03*
X49877334Y-106176460D03*
X47921534Y-106176460D03*
X30524434Y-106176460D03*
X28568634Y-106176460D03*
X85377900Y-83600000D03*
X83422100Y-83600000D03*
X30549434Y-102951460D03*
X28593634Y-102951460D03*
X82152900Y-86825000D03*
X80197100Y-86825000D03*
X62802900Y-99725000D03*
X60847100Y-99725000D03*
D45*
X31710000Y-114750000D03*
D46*
X34250000Y-114750000D03*
D10*
X66030000Y-106175000D03*
X64074200Y-106175000D03*
X85377900Y-93275000D03*
X83422100Y-93275000D03*
X72477900Y-102950000D03*
X70522100Y-102950000D03*
D19*
X40000000Y-134537500D03*
X40000000Y-132462500D03*
D10*
X59577900Y-102950000D03*
X57622100Y-102950000D03*
D47*
X59750000Y-131750000D03*
X67627900Y-85175000D03*
X64427900Y-85175000D03*
X59000000Y-85200000D03*
X70827900Y-85175000D03*
X79800000Y-85200000D03*
X74027900Y-85175000D03*
X77227900Y-85175000D03*
X61227900Y-85175000D03*
X73734200Y-107250000D03*
X76954200Y-107250000D03*
X82750000Y-107250000D03*
X80174200Y-107250000D03*
X70514200Y-107250000D03*
X62250000Y-107250000D03*
X67294200Y-107250000D03*
X64000000Y-107250000D03*
X67627900Y-88375000D03*
X64427900Y-88375000D03*
X82800000Y-88400000D03*
X74027900Y-88375000D03*
X61227900Y-88375000D03*
X78927900Y-88419500D03*
X70827900Y-88375000D03*
X58977900Y-88375000D03*
X67627900Y-91575000D03*
X70827900Y-91575000D03*
X75702900Y-91647400D03*
X61227900Y-91575000D03*
X82800000Y-91600000D03*
X58977900Y-91575000D03*
X64427900Y-91575000D03*
X80400000Y-91600000D03*
X61227900Y-94775000D03*
X80400000Y-94800000D03*
X82800000Y-94800000D03*
X58977900Y-94775000D03*
X64427900Y-94775000D03*
X72477900Y-94775000D03*
X67627900Y-94775000D03*
X77227900Y-94825000D03*
X77200000Y-98000000D03*
X69252900Y-97984318D03*
X64427900Y-97975000D03*
X61227900Y-97975000D03*
X74000000Y-98000000D03*
X82800000Y-98000000D03*
X80400000Y-98000000D03*
X58977900Y-97975000D03*
X70813950Y-101213950D03*
X66027900Y-101238097D03*
X82800000Y-101200000D03*
X74013950Y-101213950D03*
X58977900Y-101175000D03*
X77200000Y-101200000D03*
X80400000Y-101200000D03*
X61227900Y-101175000D03*
X74013950Y-104413950D03*
X77200000Y-104400000D03*
X58915250Y-104437650D03*
X67613950Y-104413950D03*
X80400000Y-104400000D03*
X82800000Y-104400000D03*
X62802900Y-104401460D03*
X70807705Y-104407705D03*
X32077334Y-85226460D03*
X38599434Y-85201460D03*
X45077334Y-85226460D03*
X30000000Y-85201460D03*
X41827334Y-85226460D03*
X35327334Y-85226460D03*
X50649434Y-85201460D03*
X48327334Y-85226460D03*
X41799434Y-88401460D03*
X38599434Y-88401460D03*
X32077334Y-88401460D03*
X45152334Y-88401460D03*
X53629334Y-88401460D03*
X35327334Y-88401460D03*
X30000000Y-88401460D03*
X49877334Y-88401460D03*
X53629334Y-91601460D03*
X50649434Y-91601460D03*
X38599434Y-91601460D03*
X35299434Y-91651460D03*
X41799434Y-91601460D03*
X30000000Y-91601460D03*
X32149434Y-91601460D03*
X46649434Y-91601460D03*
X32049434Y-94851460D03*
X43499434Y-94851460D03*
X50649434Y-94851460D03*
X38599434Y-94851460D03*
X53629334Y-94851460D03*
X47399434Y-94851460D03*
X35249434Y-94851460D03*
X30000000Y-94851460D03*
X35249434Y-98101460D03*
X32049434Y-98101460D03*
X30000000Y-98101460D03*
X44149434Y-98101460D03*
X53629334Y-98101460D03*
X40199434Y-98101460D03*
X50649434Y-98101460D03*
X47399434Y-98101460D03*
X31999434Y-101351460D03*
X44149434Y-101351460D03*
X47399434Y-101351460D03*
X30000000Y-101351460D03*
X50649434Y-101351460D03*
X36999434Y-101351460D03*
X53629334Y-101351460D03*
X40899434Y-101351460D03*
X38065222Y-107250000D03*
X54500000Y-107250000D03*
X48000000Y-107250000D03*
X44750000Y-107250000D03*
X41471534Y-107250000D03*
X32000000Y-107250000D03*
X51250000Y-107250000D03*
X35000000Y-107250000D03*
X50649434Y-104601460D03*
X33699434Y-104601460D03*
X30000000Y-104601460D03*
X40899434Y-104601460D03*
X44149434Y-104601460D03*
X47399434Y-104601460D03*
X53604334Y-104601460D03*
X37649434Y-104601460D03*
X85735100Y-114003904D03*
X62000000Y-139000000D03*
X44000000Y-147000000D03*
X46000000Y-138000000D03*
X45000000Y-122000000D03*
X35000000Y-136000000D03*
X28000000Y-136000000D03*
X51000000Y-140000000D03*
X28500000Y-98000000D03*
X34000000Y-147000000D03*
X85735100Y-122003904D03*
X61000000Y-125000000D03*
X54000000Y-140000000D03*
X74000000Y-147000000D03*
X34000000Y-117000000D03*
X78250000Y-114500000D03*
X38000000Y-133000000D03*
X56250000Y-135000000D03*
X79000000Y-147000000D03*
X85735100Y-118003904D03*
X78300000Y-141950000D03*
X63000000Y-123000000D03*
X68000000Y-147000000D03*
X85735100Y-110003904D03*
X35000000Y-138000000D03*
X36500000Y-128550000D03*
X36000000Y-117000000D03*
X51000000Y-146000000D03*
X49250000Y-114000000D03*
X31550000Y-128500000D03*
X40000000Y-124000000D03*
X54000000Y-123000000D03*
X53550000Y-119100000D03*
X58950000Y-145650000D03*
X28500000Y-94750000D03*
X78000000Y-132000000D03*
X28000000Y-125000000D03*
X41000000Y-139000000D03*
X73000000Y-132000000D03*
X42950000Y-132550000D03*
X38000000Y-129000000D03*
X56500000Y-115250000D03*
X39000000Y-138000000D03*
X85735100Y-126003904D03*
X54000000Y-127000000D03*
X68000000Y-132000000D03*
X28500000Y-85000000D03*
X39000000Y-142000000D03*
X58350000Y-124050000D03*
X55000000Y-146000000D03*
X45000000Y-124000000D03*
X33000000Y-130000000D03*
X43200000Y-140850000D03*
X39000000Y-147000000D03*
X51850000Y-119100000D03*
X46000000Y-131000000D03*
X43000000Y-131000000D03*
X36500000Y-131550000D03*
X40000000Y-131000000D03*
X49000000Y-147000000D03*
X28500000Y-101250000D03*
X28000000Y-112000000D03*
X29000000Y-147000000D03*
X49250000Y-136000000D03*
X28000000Y-127000000D03*
X46000000Y-132500000D03*
X39000000Y-136000000D03*
X55750000Y-111625000D03*
X53550000Y-117500000D03*
X82000000Y-126000000D03*
X28500000Y-104500000D03*
X41300000Y-141500000D03*
X46512500Y-122750000D03*
X36700000Y-121850000D03*
X28500000Y-91500000D03*
X85735100Y-134003904D03*
X33000000Y-127000000D03*
X28000000Y-117000000D03*
X79000000Y-126000000D03*
X55750000Y-114000000D03*
X28000000Y-131000000D03*
X85735100Y-130003904D03*
X40000000Y-132500000D03*
X48775453Y-143000000D03*
X28000000Y-121000000D03*
X36050000Y-142250000D03*
X51900000Y-117450000D03*
X28500000Y-88250000D03*
X62000000Y-145000000D03*
X40000000Y-122000000D03*
X46000000Y-144600000D03*
X49250000Y-116000000D03*
X49250000Y-120252000D03*
X57500000Y-120255000D03*
X52000000Y-109500000D03*
X57500000Y-116248000D03*
X51250000Y-111000000D03*
X52500000Y-111000000D03*
X53750000Y-109750000D03*
X56250000Y-120255000D03*
X56250000Y-116248000D03*
X59250000Y-138250000D03*
D48*
X50924000Y-147424000D02*
X46000000Y-142500000D01*
X64576000Y-147424000D02*
X50924000Y-147424000D01*
X65590000Y-145150000D02*
X65590000Y-146410000D01*
X65590000Y-146410000D02*
X64576000Y-147424000D01*
D49*
X64245000Y-126255000D02*
X74501700Y-126255000D01*
X62000000Y-128500000D02*
X64245000Y-126255000D01*
X60529548Y-128500000D02*
X62000000Y-128500000D01*
X50920132Y-138109416D02*
X60529548Y-128500000D01*
D48*
X82756700Y-128256700D02*
X82756700Y-128730000D01*
X81750000Y-127250000D02*
X82756700Y-128256700D01*
X66250000Y-127250000D02*
X81750000Y-127250000D01*
X55595000Y-137905000D02*
X66250000Y-127250000D01*
X55595000Y-137940000D02*
X55595000Y-137905000D01*
X56857000Y-138643000D02*
X55595000Y-139905000D01*
X57053000Y-138643000D02*
X56857000Y-138643000D01*
X57053000Y-138447000D02*
X57053000Y-138643000D01*
X66770000Y-128730000D02*
X57053000Y-138447000D01*
X55595000Y-139905000D02*
X55595000Y-143020000D01*
X80216700Y-128730000D02*
X66770000Y-128730000D01*
X66750000Y-130000000D02*
X81486700Y-130000000D01*
X81486700Y-130000000D02*
X82756700Y-131270000D01*
X62000000Y-134750000D02*
X66750000Y-130000000D01*
X62000000Y-137385000D02*
X62000000Y-134750000D01*
X58905000Y-140480000D02*
X62000000Y-137385000D01*
X57900000Y-82497400D02*
X60624000Y-82497400D01*
X76972100Y-82769500D02*
X77244200Y-82497400D01*
X73747100Y-82744500D02*
X73747100Y-83600000D01*
X85377900Y-83600000D02*
X85350000Y-83627900D01*
X67297100Y-82744500D02*
X67544200Y-82497400D01*
X64072100Y-83600167D02*
X64072100Y-82825300D01*
X85216372Y-82497400D02*
X85377900Y-82658928D01*
X60847100Y-82750300D02*
X61100000Y-82497400D01*
X76700000Y-82497400D02*
X76972100Y-82769500D01*
X77244200Y-82497400D02*
X80000000Y-82497400D01*
X67544200Y-82497400D02*
X70244200Y-82497400D01*
X63844200Y-82497400D02*
X64072100Y-82725300D01*
X64300000Y-82497400D02*
X67050000Y-82497400D01*
X70800000Y-82497400D02*
X73500000Y-82497400D01*
X70522100Y-83600000D02*
X70522100Y-82775300D01*
X73747100Y-82744500D02*
X73994200Y-82497400D01*
X57622100Y-82775300D02*
X57900000Y-82497400D01*
X70450000Y-83527900D02*
X70522100Y-83600000D01*
X70522100Y-82775300D02*
X70800000Y-82497400D01*
X80197100Y-82700300D02*
X80197100Y-83600000D01*
X57622100Y-83599500D02*
X57622100Y-82775300D01*
X80400000Y-82497400D02*
X85216372Y-82497400D01*
X85377900Y-82658928D02*
X85377900Y-83600000D01*
X85350000Y-83627900D02*
X85350000Y-106177400D01*
X73500000Y-82497400D02*
X73747100Y-82744500D01*
X60847100Y-82720500D02*
X60847100Y-83599667D01*
X76972100Y-82769500D02*
X76972100Y-83600000D01*
X64072100Y-82725300D02*
X64300000Y-82497400D01*
X80200000Y-82697400D02*
X80197100Y-82700300D01*
X80000000Y-82497400D02*
X80200000Y-82697400D01*
X60624000Y-82497400D02*
X60847100Y-82720500D01*
X80197100Y-82700300D02*
X80400000Y-82497400D01*
X61100000Y-82497400D02*
X63844200Y-82497400D01*
X60847100Y-83599667D02*
X60847100Y-82750300D01*
X67297100Y-82744500D02*
X67297100Y-83600000D01*
X67050000Y-82497400D02*
X67297100Y-82744500D01*
X73994200Y-82497400D02*
X76700000Y-82497400D01*
X70244200Y-82497400D02*
X70522100Y-82775300D01*
X64072100Y-82825300D02*
X64072100Y-82725300D01*
X83422100Y-83600000D02*
X82152900Y-83600000D01*
X67627900Y-85175000D02*
X67200000Y-85602900D01*
X74027900Y-85175000D02*
X73600000Y-85602900D01*
X63250000Y-113500000D02*
X64750000Y-112000000D01*
X82152900Y-106175000D02*
X82152900Y-83600000D01*
X60800000Y-85602900D02*
X60800000Y-86800000D01*
X81600000Y-85200000D02*
X82152900Y-85752900D01*
X67200000Y-85602900D02*
X67200000Y-86800000D01*
X57622100Y-85777900D02*
X57622100Y-86825000D01*
X61227900Y-85175000D02*
X60800000Y-85602900D01*
X73600000Y-85602900D02*
X73600000Y-86800000D01*
X70827900Y-85175000D02*
X70400000Y-85602900D01*
X82130000Y-106948770D02*
X82130000Y-106177400D01*
X58200000Y-85200000D02*
X57622100Y-85777900D01*
X64750000Y-112000000D02*
X77078770Y-112000000D01*
X62050000Y-119450000D02*
X63250000Y-118250000D01*
X54700000Y-119450000D02*
X62050000Y-119450000D01*
X77227900Y-85175000D02*
X76800000Y-85602900D01*
X64427900Y-85175000D02*
X64000000Y-85602900D01*
X77078770Y-112000000D02*
X82130000Y-106948770D01*
X79800000Y-85200000D02*
X81600000Y-85200000D01*
X59000000Y-85200000D02*
X58200000Y-85200000D01*
X64000000Y-85602900D02*
X64000000Y-86800000D01*
X76800000Y-85602900D02*
X76800000Y-86800000D01*
X63250000Y-118250000D02*
X63250000Y-113500000D01*
X81774200Y-106533200D02*
X82130000Y-106177400D01*
X70400000Y-85602900D02*
X70400000Y-86800000D01*
X59577900Y-106175000D02*
X59577900Y-102950000D01*
X67294200Y-107250000D02*
X67294200Y-106175000D01*
X55328000Y-116747000D02*
X54397000Y-116747000D01*
X64000000Y-107250000D02*
X64074200Y-107175800D01*
X73734200Y-107250000D02*
X73734200Y-106175000D01*
X55328000Y-116750000D02*
X55328000Y-116747000D01*
X80174200Y-107250000D02*
X80174200Y-106177400D01*
X70514200Y-107250000D02*
X70514200Y-106175000D01*
X60847100Y-107000000D02*
X60847100Y-106669500D01*
X62250000Y-107250000D02*
X59250000Y-110250000D01*
X61097100Y-107250000D02*
X60847100Y-107000000D01*
X59577900Y-83599500D02*
X59577900Y-102950000D01*
X54397000Y-116747000D02*
X53950000Y-116300000D01*
X57750000Y-116750000D02*
X55328000Y-116750000D01*
X76954200Y-107250000D02*
X76954200Y-106175000D01*
X64074200Y-107175800D02*
X64074200Y-106175000D01*
X60847100Y-106175000D02*
X59577900Y-106175000D01*
X82750000Y-107250000D02*
X83394200Y-106605800D01*
X62250000Y-107250000D02*
X61097100Y-107250000D01*
X83394200Y-106605800D02*
X83394200Y-106177400D01*
X59250000Y-115250000D02*
X57750000Y-116750000D01*
X59250000Y-110250000D02*
X59250000Y-115250000D01*
X58177900Y-88375000D02*
X57600000Y-88952900D01*
X54700000Y-119050000D02*
X61450000Y-119050000D01*
X64000000Y-88802900D02*
X64000000Y-90000000D01*
X73600000Y-88802900D02*
X73600000Y-90000000D01*
X78910000Y-106840000D02*
X78910000Y-106175000D01*
X82800000Y-88400000D02*
X83200000Y-88400000D01*
X67200000Y-88802900D02*
X67200000Y-90000000D01*
X62750000Y-113000000D02*
X64500000Y-111250000D01*
X64500000Y-111250000D02*
X74500000Y-111250000D01*
X67627900Y-88375000D02*
X67200000Y-88802900D01*
X61227900Y-88375000D02*
X60800000Y-88802900D01*
X62750000Y-117750000D02*
X62750000Y-113000000D01*
X78927900Y-106175000D02*
X78927900Y-83600000D01*
X70400000Y-88802900D02*
X70400000Y-90000000D01*
X83200000Y-88400000D02*
X83422100Y-88177900D01*
X60800000Y-88802900D02*
X60800000Y-90000000D01*
X74027900Y-88375000D02*
X73600000Y-88802900D01*
X74500000Y-111250000D02*
X78910000Y-106840000D01*
X58977900Y-88375000D02*
X58177900Y-88375000D01*
X61450000Y-119050000D02*
X62750000Y-117750000D01*
X64427900Y-88375000D02*
X64000000Y-88802900D01*
D50*
X80197100Y-86825000D02*
X78927900Y-86825000D01*
D48*
X70827900Y-88375000D02*
X70400000Y-88802900D01*
X83422100Y-88177900D02*
X83422100Y-86825000D01*
X57600000Y-88952900D02*
X57600000Y-90000000D01*
X57600000Y-92152900D02*
X57600000Y-93200000D01*
X64427900Y-91575000D02*
X64000000Y-92002900D01*
X80400000Y-91600000D02*
X79972100Y-91172100D01*
X83200000Y-91600000D02*
X83422100Y-91377900D01*
X60800000Y-92002900D02*
X60800000Y-93200000D01*
X75702900Y-83600000D02*
X75702900Y-106175000D01*
X82800000Y-91600000D02*
X83200000Y-91600000D01*
X70827900Y-91575000D02*
X70400000Y-92002900D01*
X75690000Y-107060000D02*
X75690000Y-106175000D01*
X54700000Y-118650000D02*
X60850000Y-118650000D01*
X64250000Y-110500000D02*
X72250000Y-110500000D01*
X62250000Y-117250000D02*
X62250000Y-112500000D01*
X83422100Y-91377900D02*
X83422100Y-90050000D01*
X64000000Y-92002900D02*
X64000000Y-93200000D01*
X62250000Y-112500000D02*
X64250000Y-110500000D01*
X60850000Y-118650000D02*
X62250000Y-117250000D01*
X67200000Y-92002900D02*
X67200000Y-93200000D01*
X58977900Y-91575000D02*
X58177900Y-91575000D01*
X58177900Y-91575000D02*
X57600000Y-92152900D01*
X72250000Y-110500000D02*
X75690000Y-107060000D01*
X67627900Y-91575000D02*
X67200000Y-92002900D01*
X79972100Y-91172100D02*
X79972100Y-89975000D01*
X61227900Y-91575000D02*
X60800000Y-92002900D01*
X70400000Y-92002900D02*
X70400000Y-93200000D01*
D50*
X76972100Y-90050000D02*
X75702900Y-90050000D01*
D48*
X83422100Y-94577900D02*
X83422100Y-93275000D01*
X67200000Y-95202900D02*
X67200000Y-96400000D01*
X69500000Y-109750000D02*
X72470000Y-106780000D01*
X82800000Y-94800000D02*
X83200000Y-94800000D01*
X64000000Y-109750000D02*
X69500000Y-109750000D01*
X79972100Y-94372100D02*
X79972100Y-93175000D01*
X60250000Y-118250000D02*
X61750000Y-116750000D01*
X72477900Y-83600000D02*
X72477900Y-106175000D01*
X58177900Y-94775000D02*
X57600000Y-95352900D01*
X61750000Y-116750000D02*
X61750000Y-112000000D01*
X67627900Y-94775000D02*
X67200000Y-95202900D01*
X54700000Y-118250000D02*
X60250000Y-118250000D01*
D50*
X73747100Y-93275000D02*
X72477900Y-93275000D01*
D48*
X76800000Y-94397100D02*
X76800000Y-93200000D01*
X61227900Y-94775000D02*
X60800000Y-95202900D01*
X58977900Y-94775000D02*
X58177900Y-94775000D01*
X57600000Y-95352900D02*
X57600000Y-96400000D01*
X64000000Y-95202900D02*
X64000000Y-96400000D01*
X80400000Y-94800000D02*
X79972100Y-94372100D01*
X61750000Y-112000000D02*
X64000000Y-109750000D01*
X72470000Y-106780000D02*
X72470000Y-106175000D01*
X83200000Y-94800000D02*
X83422100Y-94577900D01*
X64427900Y-94775000D02*
X64000000Y-95202900D01*
X60800000Y-95202900D02*
X60800000Y-96400000D01*
X77227900Y-94825000D02*
X76800000Y-94397100D01*
X61222000Y-116278000D02*
X61222000Y-111528000D01*
X69250000Y-106875000D02*
X69250000Y-106175000D01*
D51*
X69252900Y-106416300D02*
X69252900Y-106175000D01*
D48*
X69252900Y-83947100D02*
X69252900Y-97984318D01*
X80400000Y-98000000D02*
X79972100Y-97572100D01*
X64000000Y-98402900D02*
X64000000Y-99600000D01*
X83400000Y-96522100D02*
X83422100Y-96500000D01*
X63750000Y-109000000D02*
X67125000Y-109000000D01*
X58977900Y-97975000D02*
X58177900Y-97975000D01*
D50*
X70522100Y-96500000D02*
X69252900Y-96500000D01*
D48*
X64427900Y-97975000D02*
X64000000Y-98402900D01*
X60800000Y-98402900D02*
X60800000Y-99600000D01*
X82800000Y-98000000D02*
X83200000Y-98000000D01*
X83400000Y-97800000D02*
X83400000Y-96522100D01*
X59650000Y-117850000D02*
X61222000Y-116278000D01*
X57600000Y-98552900D02*
X57600000Y-99600000D01*
X61222000Y-111528000D02*
X63750000Y-109000000D01*
X61227900Y-97975000D02*
X60800000Y-98402900D01*
X54700000Y-117850000D02*
X59650000Y-117850000D01*
X69252900Y-97984318D02*
X69252900Y-106175000D01*
X79972100Y-97572100D02*
X79972100Y-96375000D01*
X73600000Y-96647100D02*
X73600000Y-97600000D01*
X73600000Y-97600000D02*
X74000000Y-98000000D01*
X77200000Y-98000000D02*
X76800000Y-97600000D01*
X76800000Y-97600000D02*
X76800000Y-96672100D01*
X58177900Y-97975000D02*
X57600000Y-98552900D01*
X83200000Y-98000000D02*
X83400000Y-97800000D01*
X67125000Y-109000000D02*
X69250000Y-106875000D01*
D50*
X66027900Y-99725000D02*
X67297100Y-99725000D01*
D48*
X60750000Y-111000000D02*
X63528000Y-108222000D01*
X70386050Y-100786050D02*
X70386050Y-99588950D01*
X77200000Y-101200000D02*
X76800000Y-100800000D01*
X54700000Y-117450000D02*
X59050000Y-117450000D01*
X58177900Y-101175000D02*
X57600000Y-101752900D01*
X80400000Y-101200000D02*
X79972100Y-100772100D01*
X57600000Y-101752900D02*
X57600000Y-102800000D01*
X60800000Y-101602900D02*
X60800000Y-102800000D01*
X63528000Y-108222000D02*
X65528000Y-108222000D01*
X65750000Y-108000000D02*
X65750000Y-106455000D01*
X58977900Y-101175000D02*
X58177900Y-101175000D01*
X83200000Y-101200000D02*
X83400000Y-101000000D01*
X65750000Y-106455000D02*
X66030000Y-106175000D01*
X66027900Y-106175000D02*
X66027900Y-101238097D01*
X59050000Y-117450000D02*
X60750000Y-115750000D01*
X73586050Y-100786050D02*
X73586050Y-99588950D01*
X83400000Y-101000000D02*
X83400000Y-99722100D01*
X83400000Y-99722100D02*
X83422100Y-99700000D01*
X76800000Y-100800000D02*
X76800000Y-99872100D01*
X82800000Y-101200000D02*
X83200000Y-101200000D01*
X79972100Y-100772100D02*
X79972100Y-99575000D01*
X60750000Y-115750000D02*
X60750000Y-111000000D01*
X61227900Y-101175000D02*
X60800000Y-101602900D01*
D51*
X66027900Y-87472100D02*
X66027900Y-86825000D01*
D48*
X65528000Y-108222000D02*
X65750000Y-108000000D01*
X66027900Y-83600167D02*
X66027900Y-101238097D01*
X70813950Y-101213950D02*
X70386050Y-100786050D01*
D51*
X66027900Y-106416300D02*
X66027900Y-106175000D01*
D48*
X74013950Y-101213950D02*
X73586050Y-100786050D01*
X73586050Y-103986050D02*
X73586050Y-102788950D01*
X79972100Y-103972100D02*
X79972100Y-102775000D01*
X83400000Y-102922100D02*
X83422100Y-102900000D01*
X62802900Y-102401460D02*
X62802900Y-102950000D01*
X70807705Y-104407705D02*
X70386050Y-103986050D01*
X54700000Y-117050000D02*
X58450000Y-117050000D01*
X62802900Y-83599667D02*
X62802900Y-106175000D01*
X62802900Y-107697100D02*
X62802900Y-106175000D01*
X58915250Y-104437650D02*
X58115250Y-104437650D01*
X62802900Y-102950000D02*
X64072100Y-102950000D01*
X83400000Y-104200000D02*
X83400000Y-102922100D01*
X80400000Y-104400000D02*
X79972100Y-103972100D01*
X77200000Y-104400000D02*
X76800000Y-104000000D01*
X82800000Y-104400000D02*
X83200000Y-104400000D01*
X83422100Y-102950000D02*
X83400000Y-102972100D01*
X76800000Y-104000000D02*
X76800000Y-103072100D01*
X83200000Y-104400000D02*
X83400000Y-104200000D01*
X67613950Y-104413950D02*
X67186050Y-103986050D01*
X67186050Y-103986050D02*
X67186050Y-102788950D01*
X58115250Y-104437650D02*
X57600000Y-104952900D01*
X58450000Y-117050000D02*
X60000000Y-115500000D01*
D51*
X62802900Y-106416300D02*
X62802900Y-106175000D01*
D48*
X57600000Y-104952900D02*
X57600000Y-106000000D01*
X60000000Y-115500000D02*
X60000000Y-110500000D01*
X74013950Y-104413950D02*
X73586050Y-103986050D01*
X60000000Y-110500000D02*
X62802900Y-107697100D01*
X70386050Y-103986050D02*
X70386050Y-102788950D01*
X84750000Y-141000000D02*
X84750000Y-137750000D01*
X84750000Y-137750000D02*
X80810000Y-133810000D01*
X80810000Y-133810000D02*
X65651300Y-133810000D01*
X83250000Y-137500000D02*
X81465000Y-135715000D01*
X81465000Y-135715000D02*
X64251300Y-135715000D01*
X83250000Y-144000000D02*
X83250000Y-137500000D01*
X84750000Y-145500000D02*
X83250000Y-144000000D01*
X64286300Y-135750000D02*
X64251300Y-135715000D01*
X35046534Y-82695960D02*
X35046534Y-82995960D01*
X51103000Y-116747000D02*
X50172000Y-116747000D01*
X56149434Y-82498860D02*
X56352334Y-82701760D01*
X56327334Y-106176460D02*
X56327334Y-102976460D01*
X47500000Y-111788650D02*
X47500000Y-111750000D01*
X38493634Y-82498860D02*
X41249434Y-82498860D01*
X28838634Y-82498860D02*
X31649434Y-82498860D01*
X56352334Y-82898860D02*
X56352334Y-82801760D01*
X51171534Y-82720960D02*
X51393634Y-82498860D01*
X56352334Y-82701760D02*
X56352334Y-82801760D01*
X47497000Y-115747000D02*
X47497000Y-111791651D01*
X47946534Y-82695960D02*
X47946534Y-83601960D01*
X31821534Y-83601293D02*
X31821534Y-82670960D01*
X38271534Y-82720960D02*
X38271534Y-82776760D01*
X38271534Y-83602793D02*
X38271534Y-82776760D01*
X56352334Y-83602127D02*
X56352334Y-82898860D01*
X48500000Y-116750000D02*
X47497000Y-115747000D01*
X44721534Y-82726760D02*
X44949434Y-82498860D01*
X41249434Y-82498860D02*
X41496534Y-82745960D01*
X38049434Y-82498860D02*
X38271534Y-82720960D01*
X56327334Y-106422666D02*
X56327334Y-106176460D01*
X56352334Y-102951460D02*
X56352334Y-83602127D01*
X35252334Y-82498860D02*
X38049434Y-82498860D01*
X28596534Y-82740960D02*
X28838634Y-82498860D01*
X51171534Y-82720960D02*
X51171534Y-83601460D01*
X44449434Y-82498860D02*
X44721534Y-82770960D01*
X41496534Y-82745960D02*
X41496534Y-83601793D01*
X44949434Y-82498860D02*
X47749434Y-82498860D01*
X44721534Y-82770960D02*
X44721534Y-83602627D01*
X41743634Y-82498860D02*
X44449434Y-82498860D01*
X28596534Y-83602460D02*
X28596534Y-82740960D01*
X35046534Y-82704660D02*
X35252334Y-82498860D01*
X56327334Y-102976460D02*
X56352334Y-102951460D01*
X44721534Y-83602627D02*
X44721534Y-82726760D01*
X31821534Y-82670960D02*
X31649434Y-82498860D01*
X47749434Y-82498860D02*
X47946534Y-82695960D01*
X38271534Y-82720960D02*
X38493634Y-82498860D01*
X51550000Y-116300000D02*
X51103000Y-116747000D01*
X34849434Y-82498860D02*
X35046534Y-82695960D01*
X31821534Y-82670960D02*
X31993634Y-82498860D01*
X35046534Y-83602960D02*
X35046534Y-82704660D01*
X47946534Y-82695960D02*
X48143634Y-82498860D01*
X56352334Y-82801760D02*
X56349434Y-82798860D01*
X54000000Y-108750000D02*
X56327334Y-106422666D01*
X47500000Y-111750000D02*
X50500000Y-108750000D01*
X51393634Y-82498860D02*
X56149434Y-82498860D01*
X31993634Y-82498860D02*
X34849434Y-82498860D01*
X41496534Y-82745960D02*
X41743634Y-82498860D01*
X50500000Y-108750000D02*
X54000000Y-108750000D01*
X47497000Y-111791651D02*
X47500000Y-111788650D01*
X50172000Y-116747000D02*
X50172000Y-116750000D01*
X50172000Y-116750000D02*
X48500000Y-116750000D01*
X48143634Y-82498860D02*
X50949434Y-82498860D01*
X50949434Y-82498860D02*
X51171534Y-82720960D01*
X47899434Y-85654360D02*
X47899434Y-86851460D01*
X53127334Y-83602293D02*
X53127334Y-85201460D01*
X53102334Y-102976460D02*
X53127334Y-102951460D01*
X35327334Y-85226460D02*
X34899434Y-85654360D01*
X45077334Y-85226460D02*
X44649434Y-85654360D01*
X28952334Y-86249126D02*
X28649434Y-86552026D01*
X38599434Y-85201460D02*
X38199434Y-85601460D01*
X53127334Y-83602293D02*
X54396368Y-83602293D01*
X54396368Y-83602293D02*
X54396534Y-83602127D01*
X47800000Y-117050000D02*
X46750000Y-116000000D01*
X53127334Y-84373560D02*
X53127334Y-83601460D01*
X28649434Y-86552026D02*
X28649434Y-86851460D01*
X53127334Y-85201460D02*
X53127334Y-102951460D01*
X52299434Y-85201460D02*
X53127334Y-84373560D01*
X44649434Y-85654360D02*
X44649434Y-86851460D01*
X31649434Y-85654360D02*
X31649434Y-86851460D01*
X48327334Y-85226460D02*
X47899434Y-85654360D01*
X29022500Y-86178960D02*
X28996854Y-86178960D01*
X46750000Y-116000000D02*
X46750000Y-111250000D01*
X52676040Y-106823960D02*
X52702014Y-106823960D01*
X32077334Y-85226460D02*
X31649434Y-85654360D01*
X38199434Y-85601460D02*
X38199434Y-86901460D01*
X50800000Y-117050000D02*
X47800000Y-117050000D01*
X52702014Y-106823960D02*
X52746534Y-106779440D01*
X41827334Y-85226460D02*
X41399434Y-85654360D01*
X53102334Y-106397666D02*
X53102334Y-106176460D01*
X51500000Y-108000000D02*
X52676040Y-106823960D01*
X50000000Y-108000000D02*
X51500000Y-108000000D01*
X46750000Y-111250000D02*
X50000000Y-108000000D01*
X53102334Y-106176460D02*
X53102334Y-102976460D01*
X52746534Y-106753466D02*
X53102334Y-106397666D01*
X30000000Y-85201460D02*
X29022500Y-86178960D01*
X52746534Y-106779440D02*
X52746534Y-106753466D01*
X28952334Y-86223480D02*
X28952334Y-86249126D01*
X34899434Y-85654360D02*
X34899434Y-86851460D01*
X28996854Y-86178960D02*
X28952334Y-86223480D01*
X50649434Y-85201460D02*
X52299434Y-85201460D01*
X41399434Y-85654360D02*
X41399434Y-86851460D01*
X49905234Y-86826460D02*
X49905234Y-83604860D01*
X54396534Y-88101460D02*
X54396534Y-86826460D01*
X49877334Y-106372666D02*
X49877334Y-106176460D01*
X54096534Y-88401460D02*
X54396534Y-88101460D01*
X49426040Y-106823960D02*
X49477014Y-106823960D01*
X49521534Y-106779440D02*
X49521534Y-106728466D01*
X46000000Y-110250000D02*
X49426040Y-106823960D01*
X38599434Y-88401460D02*
X38199434Y-88801460D01*
X45152334Y-88401460D02*
X44649434Y-88904360D01*
X50800000Y-117450000D02*
X47200000Y-117450000D01*
X49477014Y-106823960D02*
X49521534Y-106779440D01*
X31649434Y-88829360D02*
X31649434Y-90101460D01*
X35327334Y-88401460D02*
X34899434Y-88829360D01*
X49877334Y-106176460D02*
X49877334Y-88401460D01*
X30000000Y-88401460D02*
X28596534Y-89804926D01*
X46000000Y-116250000D02*
X46000000Y-110250000D01*
X49521534Y-106728466D02*
X49877334Y-106372666D01*
X49877334Y-88401460D02*
X49877334Y-88351460D01*
X49905234Y-83604860D02*
X49902334Y-83601960D01*
X49877334Y-86854360D02*
X49905234Y-86826460D01*
X28596534Y-89804926D02*
X28596534Y-90048560D01*
X44649434Y-88904360D02*
X44649434Y-90101460D01*
X31649434Y-88829360D02*
X32077334Y-88401460D01*
X53629334Y-88401460D02*
X54096534Y-88401460D01*
X51171534Y-86826460D02*
X49905234Y-86826460D01*
X47200000Y-117450000D02*
X46000000Y-116250000D01*
X38199434Y-88801460D02*
X38199434Y-90101460D01*
X34899434Y-88829360D02*
X34899434Y-90101460D01*
X41399434Y-88801460D02*
X41399434Y-90101460D01*
X49877334Y-88351460D02*
X49877334Y-86854360D01*
X41799434Y-88401460D02*
X41399434Y-88801460D01*
X46655234Y-83624727D02*
X46677334Y-83602627D01*
X46655234Y-106176460D02*
X46655234Y-83624727D01*
X38599434Y-91601460D02*
X38199434Y-92001460D01*
X38199434Y-92001460D02*
X38199434Y-93301460D01*
X34899434Y-92051460D02*
X34899434Y-93351460D01*
X41799434Y-91601460D02*
X41399434Y-92001460D01*
X30000000Y-91601460D02*
X28549434Y-93052026D01*
X44750000Y-108500000D02*
X46655234Y-106594766D01*
X50649434Y-91601460D02*
X50846534Y-91601460D01*
X41399434Y-92001460D02*
X41399434Y-93351460D01*
X35299434Y-91651460D02*
X34899434Y-92051460D01*
X54396534Y-91301460D02*
X54396534Y-90026460D01*
X46655234Y-106594766D02*
X46655234Y-106176460D01*
X46655234Y-102973560D02*
X46677334Y-102951460D01*
X46600000Y-117850000D02*
X44750000Y-116000000D01*
X44750000Y-116000000D02*
X44750000Y-108500000D01*
X31749434Y-92001460D02*
X31749434Y-93301460D01*
X32149434Y-91601460D02*
X31749434Y-92001460D01*
X51146534Y-91301460D02*
X51146534Y-90026460D01*
X50800000Y-117850000D02*
X46600000Y-117850000D01*
X53629334Y-91601460D02*
X54096534Y-91601460D01*
X47949434Y-90051460D02*
X46677334Y-90051460D01*
X28549434Y-93052026D02*
X28549434Y-93301460D01*
X54096534Y-91601460D02*
X54396534Y-91301460D01*
X50846534Y-91601460D02*
X51146534Y-91301460D01*
X28549434Y-96302026D02*
X28549434Y-96551460D01*
X47896534Y-94551460D02*
X47896534Y-93276460D01*
X43427334Y-102973560D02*
X43449434Y-102951460D01*
X54096534Y-94851460D02*
X54396534Y-94551460D01*
X50846534Y-94851460D02*
X51146534Y-94551460D01*
X43427334Y-106176460D02*
X43427334Y-102973560D01*
X43427334Y-115677334D02*
X46000000Y-118250000D01*
X46000000Y-118250000D02*
X50800000Y-118250000D01*
X43452334Y-83601793D02*
X43452334Y-102948560D01*
X47399434Y-94851460D02*
X47596534Y-94851460D01*
X47596534Y-94851460D02*
X47896534Y-94551460D01*
X44724434Y-93276460D02*
X43452334Y-93276460D01*
X30000000Y-94851460D02*
X28549434Y-96302026D01*
X54396534Y-94551460D02*
X54396534Y-93276460D01*
X43250000Y-106353794D02*
X43427334Y-106176460D01*
X34849434Y-95251460D02*
X34849434Y-96551460D01*
X32049434Y-94851460D02*
X31649434Y-95251460D01*
X50649434Y-94851460D02*
X50846534Y-94851460D01*
X51146534Y-94551460D02*
X51146534Y-93276460D01*
X31649434Y-95251460D02*
X31649434Y-96551460D01*
X43452334Y-102948560D02*
X43449434Y-102951460D01*
X38199434Y-95251460D02*
X38199434Y-96551460D01*
X35249434Y-94851460D02*
X34849434Y-95251460D01*
X43427334Y-106176460D02*
X43427334Y-115677334D01*
X38599434Y-94851460D02*
X38199434Y-95251460D01*
X53629334Y-94851460D02*
X54096534Y-94851460D01*
X40227334Y-86826460D02*
X40227334Y-106148560D01*
X45400000Y-118650000D02*
X50800000Y-118650000D01*
X41496534Y-96501460D02*
X40227334Y-96501460D01*
X44646534Y-97801460D02*
X44646534Y-96526460D01*
X47596534Y-98101460D02*
X47896534Y-97801460D01*
X51146534Y-97801460D02*
X51146534Y-96526460D01*
X28549434Y-99450566D02*
X28549434Y-99801460D01*
X44149434Y-98101460D02*
X44346534Y-98101460D01*
X40227334Y-83602793D02*
X40227334Y-86826460D01*
X35249434Y-98101460D02*
X34849434Y-98501460D01*
X54396534Y-97801460D02*
X54396534Y-96526460D01*
X40199434Y-113449434D02*
X45400000Y-118650000D01*
X44346534Y-98101460D02*
X44646534Y-97801460D01*
X50649434Y-98101460D02*
X50846534Y-98101460D01*
X50846534Y-98101460D02*
X51146534Y-97801460D01*
X29898540Y-98101460D02*
X28549434Y-99450566D01*
X47399434Y-98101460D02*
X47596534Y-98101460D01*
X47896534Y-97801460D02*
X47896534Y-96526460D01*
X54096534Y-98101460D02*
X54396534Y-97801460D01*
X31649434Y-98501460D02*
X31649434Y-99801460D01*
X30000000Y-98101460D02*
X29898540Y-98101460D01*
X53629334Y-98101460D02*
X54096534Y-98101460D01*
X34849434Y-98501460D02*
X34849434Y-99801460D01*
X32049434Y-98101460D02*
X31649434Y-98501460D01*
X40199434Y-106176460D02*
X40199434Y-113449434D01*
X36999434Y-102951460D02*
X36999434Y-102251460D01*
X47596534Y-101351460D02*
X47896534Y-101051460D01*
X44149434Y-101351460D02*
X44346534Y-101351460D01*
X37002334Y-99726460D02*
X38271534Y-99726460D01*
X36974434Y-111224434D02*
X44800000Y-119050000D01*
X31999434Y-101351460D02*
X31599434Y-101751460D01*
X28593634Y-102656366D02*
X29898540Y-101351460D01*
X50846534Y-101351460D02*
X51146534Y-101051460D01*
X36999434Y-102251460D02*
X37002334Y-102248560D01*
X44346534Y-101351460D02*
X44646534Y-101051460D01*
X37002334Y-102248560D02*
X37002334Y-83602960D01*
X29898540Y-101351460D02*
X30000000Y-101351460D01*
X44646534Y-101051460D02*
X44646534Y-99776460D01*
X54396534Y-101051460D02*
X54396534Y-99776460D01*
X28549434Y-102802026D02*
X28549434Y-103001460D01*
X36974434Y-106176460D02*
X36974434Y-102976460D01*
X44800000Y-119050000D02*
X50800000Y-119050000D01*
X47399434Y-101351460D02*
X47596534Y-101351460D01*
X50649434Y-101351460D02*
X50846534Y-101351460D01*
X31599434Y-101751460D02*
X31599434Y-103051460D01*
X40899434Y-101351460D02*
X41096534Y-101351460D01*
X54096534Y-101351460D02*
X54396534Y-101051460D01*
X36974434Y-106176460D02*
X36974434Y-111224434D01*
X36974434Y-102976460D02*
X36999434Y-102951460D01*
X28949434Y-102402026D02*
X28549434Y-102802026D01*
X51146534Y-101051460D02*
X51146534Y-99776460D01*
X47896534Y-101051460D02*
X47896534Y-99776460D01*
X28593634Y-102951460D02*
X28593634Y-102656366D01*
X41096534Y-101351460D02*
X41396534Y-101051460D01*
X41396534Y-101051460D02*
X41396534Y-99776460D01*
X53629334Y-101351460D02*
X54096534Y-101351460D01*
X30524434Y-106176460D02*
X31793634Y-106176460D01*
X48000000Y-106254926D02*
X47921534Y-106176460D01*
X35000000Y-106195094D02*
X35018634Y-106176460D01*
X51250000Y-106279926D02*
X51146534Y-106176460D01*
X32000000Y-108255372D02*
X32000000Y-107250000D01*
X30524434Y-101776460D02*
X30524434Y-106176460D01*
X49459350Y-119750000D02*
X49458350Y-119749000D01*
X44249000Y-119749000D02*
X44246999Y-119747000D01*
X54500000Y-107250000D02*
X54500000Y-106304926D01*
X38065222Y-106354872D02*
X38243634Y-106176460D01*
X32000000Y-107250000D02*
X32000000Y-106382826D01*
X30549434Y-101751460D02*
X30549434Y-83605360D01*
X51250000Y-107250000D02*
X51250000Y-106279926D01*
X32000000Y-106382826D02*
X31793634Y-106176460D01*
X44246999Y-119747000D02*
X43491628Y-119747000D01*
X51550000Y-120200000D02*
X51103000Y-119753000D01*
X43491628Y-119747000D02*
X32000000Y-108255372D01*
X49458350Y-119749000D02*
X44249000Y-119749000D01*
X30549434Y-101751460D02*
X30524434Y-101776460D01*
X48000000Y-107250000D02*
X48000000Y-106254926D01*
X30549434Y-102951460D02*
X30549434Y-101751460D01*
X35000000Y-107250000D02*
X35000000Y-106195094D01*
X54500000Y-106304926D02*
X54371534Y-106176460D01*
X50172000Y-119750000D02*
X49459350Y-119750000D01*
X41471534Y-107250000D02*
X41471534Y-106176460D01*
X38065222Y-107250000D02*
X38065222Y-106354872D01*
X44750000Y-106227026D02*
X44699434Y-106176460D01*
X50172000Y-119753000D02*
X50172000Y-119750000D01*
X51103000Y-119753000D02*
X50172000Y-119753000D01*
X44750000Y-107250000D02*
X44750000Y-106227026D01*
X54096534Y-104601460D02*
X54396534Y-104301460D01*
X41396534Y-104301460D02*
X41396534Y-103026460D01*
X33774434Y-102951460D02*
X33774434Y-83604193D01*
X47399434Y-104601460D02*
X47596534Y-104601460D01*
X38146534Y-104301460D02*
X38146534Y-103026460D01*
X51146534Y-104301460D02*
X51146534Y-103026460D01*
X54396534Y-104301460D02*
X54396534Y-103026460D01*
X47596534Y-104601460D02*
X47896534Y-104301460D01*
X40899434Y-104601460D02*
X41096534Y-104601460D01*
X47896534Y-104301460D02*
X47896534Y-103026460D01*
X30000000Y-104601460D02*
X29798540Y-104601460D01*
X44646534Y-104301460D02*
X44646534Y-103026460D01*
X33749434Y-108999434D02*
X44200000Y-119450000D01*
X44149434Y-104601460D02*
X44346534Y-104601460D01*
X53604334Y-104601460D02*
X54096534Y-104601460D01*
X44346534Y-104601460D02*
X44646534Y-104301460D01*
X33749434Y-106176460D02*
X33749434Y-108999434D01*
X50649434Y-104601460D02*
X50846534Y-104601460D01*
X33749434Y-106176460D02*
X33749434Y-102976460D01*
X44200000Y-119450000D02*
X50800000Y-119450000D01*
X37649434Y-104601460D02*
X37846534Y-104601460D01*
X28499434Y-105900566D02*
X28499434Y-106251460D01*
X33749434Y-102976460D02*
X33774434Y-102951460D01*
X50846534Y-104601460D02*
X51146534Y-104301460D01*
X37846534Y-104601460D02*
X38146534Y-104301460D01*
X41096534Y-104601460D02*
X41396534Y-104301460D01*
X33774434Y-102951460D02*
X35043634Y-102951460D01*
X29798540Y-104601460D02*
X28499434Y-105900566D01*
X31710000Y-116710000D02*
X34250000Y-119250000D01*
X31710000Y-114750000D02*
X31710000Y-116710000D01*
X36772500Y-119250000D02*
X34250000Y-119250000D01*
X52350000Y-117000000D02*
X51900000Y-117450000D01*
X52350000Y-116300000D02*
X52350000Y-117000000D01*
X52750000Y-120200000D02*
X52750000Y-118250000D01*
D49*
X33500000Y-144000000D02*
X40271708Y-144000000D01*
X49250000Y-120252000D02*
X49002000Y-120500000D01*
X29500000Y-131500000D02*
X29500000Y-128537500D01*
X50962500Y-134537500D02*
X49000000Y-134537500D01*
X56000000Y-128000000D02*
X56000000Y-129500000D01*
X42265899Y-120500000D02*
X34765899Y-113000000D01*
X42500000Y-139513292D02*
X42518708Y-139532000D01*
X53637500Y-113250000D02*
X53637500Y-114912500D01*
X41537500Y-134537500D02*
X42500000Y-135500000D01*
X56000000Y-129500000D02*
X50962500Y-134537500D01*
X31750000Y-125670000D02*
X29830000Y-125670000D01*
X29462500Y-114287500D02*
X29462500Y-121500000D01*
X49250000Y-111500000D02*
X50500000Y-110250000D01*
X48500000Y-111500000D02*
X49250000Y-111500000D01*
X33000000Y-143500000D02*
X33500000Y-144000000D01*
X33000000Y-134537500D02*
X40000000Y-134537500D01*
D48*
X42043708Y-141500000D02*
X42043708Y-141956292D01*
D49*
X58250000Y-128000000D02*
X56000000Y-128000000D01*
D52*
X42043708Y-141956292D02*
X42000000Y-142000000D01*
D49*
X29500000Y-131500000D02*
X29500000Y-133500000D01*
X29462500Y-119787500D02*
X30000000Y-119250000D01*
X30750000Y-113000000D02*
X29462500Y-114287500D01*
X29462500Y-121500000D02*
X29462500Y-119787500D01*
X53675000Y-111625000D02*
X53675000Y-113875000D01*
X49250000Y-116000000D02*
X48000000Y-114750000D01*
D48*
X53550000Y-115000000D02*
X53637500Y-114912500D01*
D49*
X30000000Y-119250000D02*
X31727500Y-119250000D01*
X48000000Y-112000000D02*
X48500000Y-111500000D01*
X48000000Y-114750000D02*
X48000000Y-112000000D01*
X31727500Y-119250000D02*
X32000000Y-119522500D01*
X33000000Y-134537500D02*
X33000000Y-143500000D01*
X29500000Y-128537500D02*
X29462500Y-128500000D01*
X34765899Y-113000000D02*
X30750000Y-113000000D01*
X29462500Y-126037500D02*
X29462500Y-128500000D01*
X40271708Y-144000000D02*
X42043708Y-142228000D01*
X29500000Y-133500000D02*
X30537500Y-134537500D01*
X29462500Y-121500000D02*
X29462500Y-126037500D01*
X49002000Y-120500000D02*
X42265899Y-120500000D01*
X42500000Y-135500000D02*
X42500000Y-139513292D01*
X30537500Y-134537500D02*
X33000000Y-134537500D01*
X29830000Y-125670000D02*
X29462500Y-126037500D01*
X50500000Y-110250000D02*
X52687500Y-110250000D01*
D48*
X53550000Y-116300000D02*
X53550000Y-115000000D01*
D49*
X53675000Y-111062500D02*
X53675000Y-111625000D01*
X40000000Y-134537500D02*
X41537500Y-134537500D01*
X52862500Y-110250000D02*
X53675000Y-111062500D01*
X49000000Y-134537500D02*
X40000000Y-134537500D01*
D50*
X52350000Y-120668624D02*
X52350000Y-120200000D01*
X51000000Y-122018624D02*
X52350000Y-120668624D01*
X51000000Y-126295000D02*
X51000000Y-122018624D01*
X51750000Y-127045000D02*
X51000000Y-126295000D01*
D48*
X41793708Y-140180000D02*
X45832500Y-140180000D01*
D49*
X50839584Y-138109416D02*
X49000000Y-138109416D01*
D51*
X40643708Y-140500000D02*
X40643708Y-140825000D01*
D49*
X49000000Y-140000000D02*
X46012500Y-140000000D01*
X49000000Y-137950000D02*
X49000000Y-140000000D01*
X36043708Y-140200000D02*
X39500000Y-140200000D01*
D50*
X41793126Y-140470209D02*
X41793126Y-140180582D01*
D49*
X46012500Y-140000000D02*
X46000000Y-140012500D01*
D50*
X41793126Y-140180582D02*
X41793708Y-140180000D01*
D48*
X45832500Y-140180000D02*
X46000000Y-140012500D01*
D51*
X39543000Y-140157000D02*
X41793708Y-140157000D01*
D52*
X40343708Y-140200000D02*
X40571854Y-140428146D01*
D51*
X40571854Y-140428146D02*
X40643708Y-140500000D01*
D52*
X39500000Y-140200000D02*
X40343708Y-140200000D01*
D48*
X54889612Y-121266500D02*
X56000000Y-122376888D01*
X64000000Y-125500000D02*
X68524200Y-125500000D01*
X53687612Y-121266500D02*
X54889612Y-121266500D01*
X56000000Y-126000000D02*
X56803000Y-126803000D01*
X68524200Y-125500000D02*
X71644200Y-122380000D01*
X70670000Y-115000000D02*
X70670000Y-120570800D01*
X53150000Y-120728888D02*
X53687612Y-121266500D01*
X70670000Y-120570800D02*
X71644200Y-121545000D01*
X56000000Y-122376888D02*
X56000000Y-124110624D01*
X53150000Y-120200000D02*
X53150000Y-120728888D01*
X56803000Y-126803000D02*
X62697000Y-126803000D01*
D50*
X56000000Y-124110624D02*
X56000000Y-126000000D01*
D48*
X62697000Y-126803000D02*
X64000000Y-125500000D01*
X52750000Y-115643152D02*
X52750000Y-116300000D01*
X64500000Y-119446574D02*
X64500000Y-114250000D01*
X54832066Y-109247000D02*
X57500000Y-111914934D01*
X65250000Y-113500000D02*
X71750000Y-113500000D01*
X52253000Y-109247000D02*
X54832066Y-109247000D01*
X57500000Y-120255000D02*
X63691574Y-120255000D01*
X71750000Y-113500000D02*
X73210000Y-114960000D01*
X73210000Y-118300000D02*
X73210000Y-120570800D01*
X73210000Y-120570800D02*
X74184200Y-121545000D01*
X52500000Y-112750000D02*
X52500000Y-115393152D01*
X52000000Y-109500000D02*
X52253000Y-109247000D01*
X63691574Y-120255000D02*
X64500000Y-119446574D01*
X73210000Y-114960000D02*
X73210000Y-118300000D01*
X57500000Y-111914934D02*
X57500000Y-116248000D01*
X51250000Y-111500000D02*
X52500000Y-112750000D01*
X52500000Y-115393152D02*
X52750000Y-115643152D01*
X64500000Y-114250000D02*
X65250000Y-113500000D01*
X51250000Y-111500000D02*
X51250000Y-111000000D01*
D50*
X63250000Y-125000000D02*
X67750000Y-125000000D01*
X69104200Y-123645800D02*
X69104200Y-122380000D01*
X53550000Y-120200000D02*
X53550000Y-120752000D01*
X57000000Y-124750000D02*
X58250000Y-126000000D01*
X67750000Y-125000000D02*
X69104200Y-123645800D01*
D48*
X69104200Y-121545000D02*
X69104200Y-119274200D01*
D50*
X58250000Y-126000000D02*
X62250000Y-126000000D01*
X62250000Y-126000000D02*
X63250000Y-125000000D01*
D48*
X58250000Y-126000000D02*
X57700000Y-125450000D01*
X58250000Y-126000000D02*
X58750000Y-126000000D01*
D50*
X53550000Y-120752000D02*
X53798000Y-121000000D01*
D48*
X69104200Y-119274200D02*
X68130000Y-118300000D01*
D50*
X57000000Y-123000000D02*
X57000000Y-124750000D01*
X53798000Y-121000000D02*
X55000000Y-121000000D01*
X55000000Y-121000000D02*
X57000000Y-123000000D01*
D48*
X75750000Y-115000000D02*
X75750000Y-120570800D01*
X75750000Y-120570800D02*
X76724200Y-121545000D01*
X65590000Y-145150000D02*
X65590000Y-139429200D01*
X45000000Y-141500000D02*
X46000000Y-142500000D01*
X65590000Y-139429200D02*
X66564200Y-138455000D01*
X42543708Y-141500000D02*
X45000000Y-141500000D01*
D50*
X49750000Y-127000000D02*
X49000000Y-127000000D01*
X51750000Y-129000000D02*
X49750000Y-127000000D01*
D48*
X78290000Y-118300000D02*
X78290000Y-120570800D01*
X78290000Y-120570800D02*
X79264200Y-121545000D01*
X80830000Y-120570800D02*
X81804200Y-121545000D01*
X80830000Y-115000000D02*
X80830000Y-120570800D01*
X53750000Y-109750000D02*
X54709500Y-110709500D01*
X65130000Y-122380000D02*
X66564200Y-122380000D01*
X53150000Y-116300000D02*
X53150000Y-115650000D01*
X55748000Y-116248000D02*
X56250000Y-116248000D01*
X55000000Y-115500000D02*
X55748000Y-116248000D01*
X58250000Y-122000000D02*
X64750000Y-122000000D01*
X52778000Y-115278000D02*
X52778000Y-111278000D01*
X64750000Y-122000000D02*
X65130000Y-122380000D01*
X52778000Y-111278000D02*
X52500000Y-111000000D01*
X66564200Y-121545000D02*
X65590000Y-120570800D01*
X57250000Y-122000000D02*
X58250000Y-122000000D01*
X53150000Y-115650000D02*
X52778000Y-115278000D01*
X56250000Y-121000000D02*
X57250000Y-122000000D01*
X65590000Y-115000000D02*
X65590000Y-120570800D01*
X56250000Y-120255000D02*
X56250000Y-121000000D01*
X54709500Y-110709500D02*
X54709500Y-115209500D01*
X54709500Y-115209500D02*
X55000000Y-115500000D01*
X80830000Y-139429200D02*
X81804200Y-138455000D01*
X80830000Y-145150000D02*
X80830000Y-139429200D01*
X75750000Y-145150000D02*
X75750000Y-139429200D01*
X75750000Y-139429200D02*
X76724200Y-138455000D01*
X70670000Y-145150000D02*
X70670000Y-139429200D01*
X70670000Y-139429200D02*
X71644200Y-138455000D01*
X68130000Y-139429200D02*
X69104200Y-138455000D01*
X68130000Y-141850000D02*
X68130000Y-139429200D01*
X73210000Y-139429200D02*
X74184200Y-138455000D01*
X73210000Y-141850000D02*
X73210000Y-139429200D01*
X31500000Y-131500000D02*
X34477500Y-131500000D01*
X34500000Y-131477500D02*
X34477500Y-131500000D01*
X35705001Y-123130000D02*
X36690000Y-123130000D01*
X34500000Y-128500000D02*
X34500000Y-131477500D01*
X34500000Y-128500000D02*
X34500000Y-124335001D01*
X34500000Y-124335001D02*
X35705001Y-123130000D01*
X36690000Y-124400000D02*
X38150000Y-124400000D01*
D50*
X40712500Y-126962500D02*
X41462500Y-126962500D01*
D48*
X38150000Y-124400000D02*
X38250000Y-124500000D01*
D50*
X38250000Y-124500000D02*
X40712500Y-126962500D01*
D48*
X41462500Y-126962500D02*
X46000000Y-126962500D01*
D50*
X38250000Y-119250000D02*
X38250000Y-124500000D01*
D48*
X40000000Y-129000000D02*
X49000000Y-129000000D01*
X39500000Y-128480000D02*
X39500000Y-128500000D01*
X39500000Y-128500000D02*
X40000000Y-129000000D01*
X36690000Y-125670000D02*
X39500000Y-128480000D01*
X51950000Y-120200000D02*
X51950000Y-120691736D01*
X51950000Y-120691736D02*
X49891736Y-122750000D01*
X49891736Y-122750000D02*
X48600000Y-122750000D01*
X51950000Y-114700000D02*
X51950000Y-116300000D01*
X51250000Y-114000000D02*
X51950000Y-114700000D01*
X54397000Y-119753000D02*
X53950000Y-120200000D01*
X62747000Y-119753000D02*
X54397000Y-119753000D01*
X65000000Y-112750000D02*
X63750000Y-114000000D01*
X63750000Y-118750000D02*
X62747000Y-119753000D01*
X79549700Y-112750000D02*
X65000000Y-112750000D01*
X85350000Y-106949700D02*
X79549700Y-112750000D01*
X63750000Y-114000000D02*
X63750000Y-118750000D01*
X85350000Y-106177400D02*
X85350000Y-106949700D01*
G04 #@! TA.AperFunction,Conductor*
G36*
X28067435Y-82270185D02*
G01*
X28113190Y-82322989D01*
X28123134Y-82392147D01*
X28107780Y-82436506D01*
X28093521Y-82461200D01*
X28042951Y-82509413D01*
X28029474Y-82515375D01*
X27987713Y-82530952D01*
X27979799Y-82533904D01*
X27973198Y-82536366D01*
X27857989Y-82622612D01*
X27857986Y-82622615D01*
X27771740Y-82737824D01*
X27771736Y-82737831D01*
X27721442Y-82872677D01*
X27715035Y-82932276D01*
X27715034Y-82932295D01*
X27715034Y-84272630D01*
X27715035Y-84272636D01*
X27721442Y-84332243D01*
X27771736Y-84467088D01*
X27771740Y-84467095D01*
X27857986Y-84582304D01*
X27857989Y-84582307D01*
X27973198Y-84668553D01*
X27973205Y-84668557D01*
X28108051Y-84718851D01*
X28108050Y-84718851D01*
X28111148Y-84719184D01*
X28167661Y-84725260D01*
X29025406Y-84725259D01*
X29085017Y-84718851D01*
X29111930Y-84708812D01*
X29181622Y-84703828D01*
X29242945Y-84737312D01*
X29276431Y-84798635D01*
X29271447Y-84868326D01*
X29269827Y-84872446D01*
X29230263Y-84967963D01*
X29230262Y-84967966D01*
X29230262Y-84967967D01*
X29230261Y-84967970D01*
X29199500Y-85122613D01*
X29199500Y-85136717D01*
X29179815Y-85203756D01*
X29163181Y-85224398D01*
X28720237Y-85667341D01*
X28658914Y-85700826D01*
X28632556Y-85703660D01*
X28167663Y-85703660D01*
X28167657Y-85703661D01*
X28108050Y-85710068D01*
X27973205Y-85760362D01*
X27973198Y-85760366D01*
X27857989Y-85846612D01*
X27857986Y-85846615D01*
X27771740Y-85961824D01*
X27771736Y-85961831D01*
X27721442Y-86096677D01*
X27715035Y-86156276D01*
X27715034Y-86156295D01*
X27715034Y-87496630D01*
X27715035Y-87496636D01*
X27721442Y-87556243D01*
X27771736Y-87691088D01*
X27771740Y-87691095D01*
X27857986Y-87806304D01*
X27857989Y-87806307D01*
X27973198Y-87892553D01*
X27973205Y-87892557D01*
X28108051Y-87942851D01*
X28108050Y-87942851D01*
X28114978Y-87943595D01*
X28167661Y-87949260D01*
X29025406Y-87949259D01*
X29085017Y-87942851D01*
X29100173Y-87937197D01*
X29169864Y-87932212D01*
X29231187Y-87965696D01*
X29264674Y-88027018D01*
X29259691Y-88096710D01*
X29258069Y-88100831D01*
X29230264Y-88167958D01*
X29230261Y-88167970D01*
X29199500Y-88322613D01*
X29199500Y-88336717D01*
X29179815Y-88403756D01*
X29163181Y-88424398D01*
X28695237Y-88892341D01*
X28633914Y-88925826D01*
X28607556Y-88928660D01*
X28167663Y-88928660D01*
X28167657Y-88928661D01*
X28108050Y-88935068D01*
X27973205Y-88985362D01*
X27973198Y-88985366D01*
X27857989Y-89071612D01*
X27857986Y-89071615D01*
X27771740Y-89186824D01*
X27771736Y-89186831D01*
X27721442Y-89321677D01*
X27715035Y-89381276D01*
X27715034Y-89381295D01*
X27715034Y-90721630D01*
X27715035Y-90721636D01*
X27721442Y-90781243D01*
X27771736Y-90916088D01*
X27771740Y-90916095D01*
X27857986Y-91031304D01*
X27857989Y-91031307D01*
X27973198Y-91117553D01*
X27973205Y-91117557D01*
X28108051Y-91167851D01*
X28108050Y-91167851D01*
X28114978Y-91168595D01*
X28167661Y-91174260D01*
X29025406Y-91174259D01*
X29085017Y-91167851D01*
X29087921Y-91166767D01*
X29090334Y-91166594D01*
X29092565Y-91166068D01*
X29092650Y-91166429D01*
X29157610Y-91161779D01*
X29218935Y-91195260D01*
X29252424Y-91256581D01*
X29247445Y-91326273D01*
X29245822Y-91330397D01*
X29230264Y-91367958D01*
X29230261Y-91367970D01*
X29199500Y-91522613D01*
X29199500Y-91536717D01*
X29179815Y-91603756D01*
X29163181Y-91624398D01*
X28670237Y-92117341D01*
X28608914Y-92150826D01*
X28582556Y-92153660D01*
X28167663Y-92153660D01*
X28167657Y-92153661D01*
X28108050Y-92160068D01*
X27973205Y-92210362D01*
X27973198Y-92210366D01*
X27857989Y-92296612D01*
X27857986Y-92296615D01*
X27771740Y-92411824D01*
X27771736Y-92411831D01*
X27721442Y-92546677D01*
X27715035Y-92606276D01*
X27715034Y-92606295D01*
X27715034Y-93946630D01*
X27715035Y-93946636D01*
X27721442Y-94006243D01*
X27771736Y-94141088D01*
X27771740Y-94141095D01*
X27857986Y-94256304D01*
X27857989Y-94256307D01*
X27973198Y-94342553D01*
X27973205Y-94342557D01*
X28108051Y-94392851D01*
X28108050Y-94392851D01*
X28112199Y-94393297D01*
X28167661Y-94399260D01*
X29025406Y-94399259D01*
X29085017Y-94392851D01*
X29100173Y-94387197D01*
X29169864Y-94382212D01*
X29231187Y-94415696D01*
X29264674Y-94477018D01*
X29259691Y-94546710D01*
X29258069Y-94550831D01*
X29230264Y-94617958D01*
X29230261Y-94617970D01*
X29199500Y-94772613D01*
X29199500Y-94786717D01*
X29179815Y-94853756D01*
X29163181Y-94874398D01*
X28695237Y-95342341D01*
X28633914Y-95375826D01*
X28607556Y-95378660D01*
X28167663Y-95378660D01*
X28167657Y-95378661D01*
X28108050Y-95385068D01*
X27973205Y-95435362D01*
X27973198Y-95435366D01*
X27857989Y-95521612D01*
X27857986Y-95521615D01*
X27771740Y-95636824D01*
X27771736Y-95636831D01*
X27721442Y-95771677D01*
X27715035Y-95831276D01*
X27715034Y-95831295D01*
X27715034Y-97171630D01*
X27715035Y-97171636D01*
X27721442Y-97231243D01*
X27771736Y-97366088D01*
X27771740Y-97366095D01*
X27857986Y-97481304D01*
X27857989Y-97481307D01*
X27973198Y-97567553D01*
X27973205Y-97567557D01*
X28108051Y-97617851D01*
X28108050Y-97617851D01*
X28114978Y-97618595D01*
X28167661Y-97624260D01*
X29025406Y-97624259D01*
X29085017Y-97617851D01*
X29112421Y-97607629D01*
X29127301Y-97606565D01*
X29141016Y-97600690D01*
X29161445Y-97604122D01*
X29182111Y-97602644D01*
X29195207Y-97609795D01*
X29209920Y-97612267D01*
X29225249Y-97626198D01*
X29243435Y-97636128D01*
X29250586Y-97649224D01*
X29261627Y-97659258D01*
X29266991Y-97679266D01*
X29276921Y-97697451D01*
X29276159Y-97713463D01*
X29279720Y-97726744D01*
X29274310Y-97752357D01*
X29273873Y-97761550D01*
X29272296Y-97766484D01*
X29230263Y-97867963D01*
X29214409Y-97947662D01*
X29212277Y-97954336D01*
X29196466Y-97977703D01*
X29183391Y-98002700D01*
X29181840Y-98004278D01*
X28618777Y-98567341D01*
X28557454Y-98600826D01*
X28531096Y-98603660D01*
X28167664Y-98603660D01*
X28167657Y-98603661D01*
X28108050Y-98610068D01*
X27973205Y-98660362D01*
X27973198Y-98660366D01*
X27857989Y-98746612D01*
X27857986Y-98746615D01*
X27771740Y-98861824D01*
X27771736Y-98861831D01*
X27721442Y-98996677D01*
X27715035Y-99056276D01*
X27715034Y-99056295D01*
X27715034Y-100396630D01*
X27715035Y-100396636D01*
X27721442Y-100456243D01*
X27771736Y-100591088D01*
X27771740Y-100591095D01*
X27857986Y-100706304D01*
X27857989Y-100706307D01*
X27973198Y-100792553D01*
X27973205Y-100792557D01*
X28108051Y-100842851D01*
X28108050Y-100842851D01*
X28114978Y-100843595D01*
X28167661Y-100849260D01*
X29025406Y-100849259D01*
X29085017Y-100842851D01*
X29124668Y-100828061D01*
X29140241Y-100826947D01*
X29154665Y-100820962D01*
X29174379Y-100824505D01*
X29194358Y-100823076D01*
X29208063Y-100830559D01*
X29223433Y-100833322D01*
X29238103Y-100846962D01*
X29255682Y-100856561D01*
X29263165Y-100870265D01*
X29274602Y-100880899D01*
X29279568Y-100900303D01*
X29289168Y-100917883D01*
X29288289Y-100934377D01*
X29291926Y-100948587D01*
X29286104Y-100975391D01*
X29285682Y-100983324D01*
X29284266Y-100987584D01*
X29230263Y-101117963D01*
X29214272Y-101198350D01*
X29211839Y-101205678D01*
X29196153Y-101228301D01*
X29183391Y-101252700D01*
X29181840Y-101254278D01*
X28643777Y-101792341D01*
X28582454Y-101825826D01*
X28556096Y-101828660D01*
X28164763Y-101828660D01*
X28164757Y-101828661D01*
X28105150Y-101835068D01*
X27970305Y-101885362D01*
X27970298Y-101885366D01*
X27855089Y-101971612D01*
X27855086Y-101971615D01*
X27768840Y-102086824D01*
X27768836Y-102086831D01*
X27718542Y-102221677D01*
X27712135Y-102281276D01*
X27712134Y-102281295D01*
X27712134Y-103621630D01*
X27712135Y-103621636D01*
X27718542Y-103681243D01*
X27768836Y-103816088D01*
X27768840Y-103816095D01*
X27855086Y-103931304D01*
X27855089Y-103931307D01*
X27970298Y-104017553D01*
X27970305Y-104017557D01*
X28105151Y-104067851D01*
X28105150Y-104067851D01*
X28111950Y-104068582D01*
X28164761Y-104074260D01*
X29022506Y-104074259D01*
X29082117Y-104067851D01*
X29138319Y-104046888D01*
X29158590Y-104045439D01*
X29177907Y-104039128D01*
X29192728Y-104042997D01*
X29208009Y-104041905D01*
X29225846Y-104051644D01*
X29245511Y-104056779D01*
X29255887Y-104068047D01*
X29269332Y-104075389D01*
X29279072Y-104093227D01*
X29292839Y-104108178D01*
X29295475Y-104123267D01*
X29302817Y-104136712D01*
X29301367Y-104156983D01*
X29304866Y-104177005D01*
X29298464Y-104197577D01*
X29297833Y-104206404D01*
X29295949Y-104211154D01*
X29292393Y-104219605D01*
X29290606Y-104222281D01*
X29248176Y-104324714D01*
X29247998Y-104325139D01*
X29247120Y-104326215D01*
X29221381Y-104364737D01*
X28568777Y-105017341D01*
X28507454Y-105050826D01*
X28481096Y-105053660D01*
X28139764Y-105053660D01*
X28139757Y-105053661D01*
X28080150Y-105060068D01*
X27945305Y-105110362D01*
X27945298Y-105110366D01*
X27830089Y-105196612D01*
X27830086Y-105196615D01*
X27743840Y-105311824D01*
X27743836Y-105311831D01*
X27693542Y-105446677D01*
X27687135Y-105506276D01*
X27687134Y-105506295D01*
X27687134Y-106846630D01*
X27687135Y-106846636D01*
X27693542Y-106906243D01*
X27743836Y-107041088D01*
X27743840Y-107041095D01*
X27830086Y-107156304D01*
X27830089Y-107156307D01*
X27945298Y-107242553D01*
X27945305Y-107242557D01*
X28080151Y-107292851D01*
X28080150Y-107292851D01*
X28087078Y-107293595D01*
X28139761Y-107299260D01*
X28997506Y-107299259D01*
X29057117Y-107292851D01*
X29191965Y-107242556D01*
X29307180Y-107156306D01*
X29393430Y-107041091D01*
X29430352Y-106942098D01*
X29472223Y-106886164D01*
X29537687Y-106861747D01*
X29605960Y-106876598D01*
X29655366Y-106926003D01*
X29662716Y-106942098D01*
X29699636Y-107041088D01*
X29699640Y-107041095D01*
X29785886Y-107156304D01*
X29785889Y-107156307D01*
X29901098Y-107242553D01*
X29901105Y-107242557D01*
X30035951Y-107292851D01*
X30035950Y-107292851D01*
X30042878Y-107293595D01*
X30095561Y-107299260D01*
X30953306Y-107299259D01*
X31012917Y-107292851D01*
X31026789Y-107287677D01*
X31043424Y-107281473D01*
X31113115Y-107276488D01*
X31174439Y-107309972D01*
X31207924Y-107371295D01*
X31208375Y-107373462D01*
X31230261Y-107483491D01*
X31230264Y-107483501D01*
X31290602Y-107629172D01*
X31290609Y-107629185D01*
X31378210Y-107760288D01*
X31378212Y-107760291D01*
X31388178Y-107770256D01*
X31421665Y-107831578D01*
X31424500Y-107857940D01*
X31424500Y-108179606D01*
X31424500Y-108331138D01*
X31443955Y-108403745D01*
X31463719Y-108477508D01*
X31489906Y-108522864D01*
X31539485Y-108608737D01*
X31539486Y-108608738D01*
X31539487Y-108608739D01*
X34918567Y-111987819D01*
X34952052Y-112049142D01*
X34947068Y-112118834D01*
X34905196Y-112174767D01*
X34839732Y-112199184D01*
X34830886Y-112199500D01*
X30671155Y-112199500D01*
X30516510Y-112230261D01*
X30516498Y-112230264D01*
X30370827Y-112290602D01*
X30370814Y-112290609D01*
X30239711Y-112378210D01*
X30239707Y-112378213D01*
X29272737Y-113345185D01*
X28952211Y-113665711D01*
X28896460Y-113721462D01*
X28840709Y-113777212D01*
X28753109Y-113908314D01*
X28753102Y-113908327D01*
X28692764Y-114053998D01*
X28692761Y-114054010D01*
X28662000Y-114208653D01*
X28662000Y-127375270D01*
X28642315Y-127442309D01*
X28625681Y-127462951D01*
X28532289Y-127556342D01*
X28440187Y-127705663D01*
X28440185Y-127705668D01*
X28429803Y-127736999D01*
X28385001Y-127872203D01*
X28385001Y-127872204D01*
X28385000Y-127872204D01*
X28374500Y-127974983D01*
X28374500Y-129025001D01*
X28374501Y-129025019D01*
X28385000Y-129127796D01*
X28385001Y-129127799D01*
X28440185Y-129294331D01*
X28440187Y-129294336D01*
X28443989Y-129300500D01*
X28532096Y-129443345D01*
X28532289Y-129443657D01*
X28661451Y-129572819D01*
X28659559Y-129574710D01*
X28692774Y-129621583D01*
X28699500Y-129661867D01*
X28699500Y-130387769D01*
X28679815Y-130454808D01*
X28663182Y-130475450D01*
X28557287Y-130581345D01*
X28465187Y-130730663D01*
X28465185Y-130730668D01*
X28458254Y-130751585D01*
X28410001Y-130897203D01*
X28410001Y-130897204D01*
X28410000Y-130897204D01*
X28399500Y-130999983D01*
X28399500Y-132000001D01*
X28399501Y-132000019D01*
X28410000Y-132102796D01*
X28410001Y-132102799D01*
X28446353Y-132212500D01*
X28465186Y-132269334D01*
X28557096Y-132418345D01*
X28557289Y-132418657D01*
X28663181Y-132524549D01*
X28696666Y-132585872D01*
X28699500Y-132612230D01*
X28699500Y-133578846D01*
X28730261Y-133733489D01*
X28730264Y-133733501D01*
X28790602Y-133879172D01*
X28790609Y-133879185D01*
X28878210Y-134010288D01*
X28878213Y-134010292D01*
X30027207Y-135159286D01*
X30027211Y-135159289D01*
X30158314Y-135246890D01*
X30158318Y-135246892D01*
X30158321Y-135246894D01*
X30304003Y-135307238D01*
X30458653Y-135337999D01*
X30458657Y-135338000D01*
X30458658Y-135338000D01*
X32075500Y-135338000D01*
X32142539Y-135357685D01*
X32188294Y-135410489D01*
X32199500Y-135462000D01*
X32199500Y-136478432D01*
X32179815Y-136545471D01*
X32127011Y-136591226D01*
X32062248Y-136601722D01*
X32041581Y-136599500D01*
X32041576Y-136599500D01*
X28545837Y-136599500D01*
X28545831Y-136599501D01*
X28486224Y-136605908D01*
X28351379Y-136656202D01*
X28351372Y-136656206D01*
X28236163Y-136742452D01*
X28236160Y-136742455D01*
X28149914Y-136857664D01*
X28149910Y-136857671D01*
X28099616Y-136992517D01*
X28093209Y-137052116D01*
X28093208Y-137052135D01*
X28093208Y-138647870D01*
X28093209Y-138647876D01*
X28099616Y-138707483D01*
X28149910Y-138842328D01*
X28149914Y-138842335D01*
X28236160Y-138957544D01*
X28236163Y-138957547D01*
X28351372Y-139043793D01*
X28351379Y-139043797D01*
X28486225Y-139094091D01*
X28486224Y-139094091D01*
X28493152Y-139094835D01*
X28545835Y-139100500D01*
X32041580Y-139100499D01*
X32041582Y-139100498D01*
X32041595Y-139100498D01*
X32062244Y-139098278D01*
X32131004Y-139110683D01*
X32182141Y-139158293D01*
X32199500Y-139221567D01*
X32199500Y-143178432D01*
X32179815Y-143245471D01*
X32127011Y-143291226D01*
X32062248Y-143301722D01*
X32041581Y-143299500D01*
X32041576Y-143299500D01*
X28545837Y-143299500D01*
X28545831Y-143299501D01*
X28486224Y-143305908D01*
X28351379Y-143356202D01*
X28351372Y-143356206D01*
X28236163Y-143442452D01*
X28236160Y-143442455D01*
X28149914Y-143557664D01*
X28149910Y-143557671D01*
X28099616Y-143692517D01*
X28093209Y-143752116D01*
X28093208Y-143752135D01*
X28093208Y-145347870D01*
X28093209Y-145347876D01*
X28099616Y-145407483D01*
X28149910Y-145542328D01*
X28149914Y-145542335D01*
X28236160Y-145657544D01*
X28236163Y-145657547D01*
X28351372Y-145743793D01*
X28351379Y-145743797D01*
X28486225Y-145794091D01*
X28486224Y-145794091D01*
X28493152Y-145794835D01*
X28545835Y-145800500D01*
X32041580Y-145800499D01*
X32101191Y-145794091D01*
X32236039Y-145743796D01*
X32351254Y-145657546D01*
X32437504Y-145542331D01*
X32487799Y-145407483D01*
X32494208Y-145347873D01*
X32494208Y-144899986D01*
X44800001Y-144899986D01*
X44810494Y-145002697D01*
X44865641Y-145169119D01*
X44865643Y-145169124D01*
X44957684Y-145318345D01*
X45081654Y-145442315D01*
X45230875Y-145534356D01*
X45230880Y-145534358D01*
X45397302Y-145589505D01*
X45397309Y-145589506D01*
X45500019Y-145599999D01*
X45749999Y-145599999D01*
X45750000Y-145599998D01*
X45750000Y-144750000D01*
X44800001Y-144750000D01*
X44800001Y-144899986D01*
X32494208Y-144899986D01*
X32494207Y-144425646D01*
X32513891Y-144358608D01*
X32566695Y-144312853D01*
X32635854Y-144302909D01*
X32699410Y-144331934D01*
X32705888Y-144337966D01*
X32989707Y-144621786D01*
X32989711Y-144621789D01*
X33120814Y-144709390D01*
X33120818Y-144709392D01*
X33120821Y-144709394D01*
X33266503Y-144769738D01*
X33421153Y-144800499D01*
X33421157Y-144800500D01*
X33421158Y-144800500D01*
X40350552Y-144800500D01*
X40350553Y-144800499D01*
X40505205Y-144769737D01*
X40650887Y-144709394D01*
X40781997Y-144621789D01*
X40787141Y-144616645D01*
X40792830Y-144610957D01*
X42665493Y-142738293D01*
X42665496Y-142738290D01*
X42753097Y-142607185D01*
X42753097Y-142607184D01*
X42753101Y-142607179D01*
X42813445Y-142461498D01*
X42838907Y-142333491D01*
X42871291Y-142271581D01*
X42880993Y-142262547D01*
X42897288Y-142248924D01*
X42911039Y-142243796D01*
X43026254Y-142157546D01*
X43059132Y-142113626D01*
X43070212Y-142104364D01*
X43089536Y-142095949D01*
X43106409Y-142083318D01*
X43127125Y-142079580D01*
X43134271Y-142076469D01*
X43139594Y-142077330D01*
X43149743Y-142075500D01*
X44675500Y-142075500D01*
X44742539Y-142095185D01*
X44788294Y-142147989D01*
X44799500Y-142199500D01*
X44799500Y-142900001D01*
X44799501Y-142900019D01*
X44810000Y-143002796D01*
X44810001Y-143002799D01*
X44865185Y-143169331D01*
X44865187Y-143169336D01*
X44871651Y-143179815D01*
X44946089Y-143300500D01*
X44957289Y-143318657D01*
X45051304Y-143412672D01*
X45084789Y-143473995D01*
X45079805Y-143543687D01*
X45051305Y-143588034D01*
X44957682Y-143681657D01*
X44865643Y-143830875D01*
X44865641Y-143830880D01*
X44810494Y-143997302D01*
X44810493Y-143997309D01*
X44800001Y-144100009D01*
X44800000Y-144100026D01*
X44800000Y-144250000D01*
X45876000Y-144250000D01*
X45943039Y-144269685D01*
X45988794Y-144322489D01*
X46000000Y-144374000D01*
X46000000Y-144500000D01*
X46126000Y-144500000D01*
X46193039Y-144519685D01*
X46238794Y-144572489D01*
X46250000Y-144624000D01*
X46250000Y-145599999D01*
X46499972Y-145599999D01*
X46499986Y-145599998D01*
X46602697Y-145589505D01*
X46769119Y-145534358D01*
X46769124Y-145534356D01*
X46918345Y-145442315D01*
X47042315Y-145318345D01*
X47134356Y-145169124D01*
X47134358Y-145169119D01*
X47189505Y-145002697D01*
X47189506Y-145002690D01*
X47199999Y-144899986D01*
X47199999Y-144813242D01*
X47219683Y-144746203D01*
X47272486Y-144700447D01*
X47341645Y-144690503D01*
X47405201Y-144719527D01*
X47411680Y-144725560D01*
X49973939Y-147287819D01*
X50007424Y-147349142D01*
X50002440Y-147418834D01*
X49960568Y-147474767D01*
X49895104Y-147499184D01*
X49886258Y-147499500D01*
X27576606Y-147499500D01*
X27509567Y-147479815D01*
X27463812Y-147427011D01*
X27452606Y-147375696D01*
X27349692Y-82374696D01*
X27369271Y-82307626D01*
X27422002Y-82261787D01*
X27473692Y-82250500D01*
X28000396Y-82250500D01*
X28067435Y-82270185D01*
G37*
G04 #@! TD.AperFunction*
G04 #@! TA.AperFunction,Conductor*
G36*
X78011957Y-139806136D02*
G01*
X78016681Y-139805636D01*
X78043947Y-139819333D01*
X78072158Y-139830971D01*
X78076046Y-139835458D01*
X78079115Y-139837000D01*
X78101222Y-139864513D01*
X78135003Y-139921634D01*
X78135010Y-139921643D01*
X78251556Y-140038189D01*
X78251565Y-140038196D01*
X78393442Y-140122102D01*
X78520995Y-140159159D01*
X78579881Y-140196766D01*
X78609088Y-140260238D01*
X78599342Y-140329425D01*
X78574083Y-140365917D01*
X78540000Y-140400000D01*
X78540000Y-141600000D01*
X79290000Y-141600000D01*
X79290000Y-140852172D01*
X79289999Y-140852155D01*
X79283598Y-140792627D01*
X79283596Y-140792620D01*
X79233354Y-140657913D01*
X79233350Y-140657906D01*
X79147190Y-140542812D01*
X79147187Y-140542809D01*
X79032093Y-140456649D01*
X79032088Y-140456646D01*
X78910190Y-140411181D01*
X78854257Y-140369309D01*
X78829840Y-140303845D01*
X78844692Y-140235572D01*
X78894097Y-140186167D01*
X78953524Y-140170999D01*
X79939670Y-140170999D01*
X79939691Y-140170998D01*
X79976670Y-140168088D01*
X80095905Y-140133448D01*
X80165775Y-140133647D01*
X80224445Y-140171589D01*
X80253288Y-140235228D01*
X80254500Y-140252524D01*
X80254500Y-143607884D01*
X80234815Y-143674923D01*
X80182011Y-143720678D01*
X80173834Y-143724066D01*
X80087669Y-143756203D01*
X80087664Y-143756206D01*
X79972455Y-143842452D01*
X79972452Y-143842455D01*
X79886206Y-143957664D01*
X79886202Y-143957671D01*
X79835908Y-144092517D01*
X79832278Y-144126285D01*
X79829501Y-144152123D01*
X79829500Y-144152135D01*
X79829500Y-146147870D01*
X79829501Y-146147876D01*
X79835908Y-146207483D01*
X79886202Y-146342328D01*
X79886206Y-146342335D01*
X79972452Y-146457544D01*
X79972455Y-146457547D01*
X80087664Y-146543793D01*
X80087671Y-146543797D01*
X80222517Y-146594091D01*
X80222516Y-146594091D01*
X80229444Y-146594835D01*
X80282127Y-146600500D01*
X81377872Y-146600499D01*
X81437483Y-146594091D01*
X81572331Y-146543796D01*
X81687546Y-146457546D01*
X81773796Y-146342331D01*
X81824091Y-146207483D01*
X81830500Y-146147873D01*
X81830499Y-144152128D01*
X81824091Y-144092517D01*
X81817843Y-144075766D01*
X81773797Y-143957671D01*
X81773793Y-143957664D01*
X81687547Y-143842455D01*
X81687544Y-143842452D01*
X81572335Y-143756206D01*
X81572330Y-143756203D01*
X81486166Y-143724066D01*
X81430233Y-143682194D01*
X81405816Y-143616730D01*
X81405500Y-143607884D01*
X81405500Y-140295500D01*
X81425185Y-140228461D01*
X81477989Y-140182706D01*
X81529500Y-140171500D01*
X82479726Y-140171500D01*
X82479734Y-140171500D01*
X82516748Y-140168587D01*
X82516751Y-140168586D01*
X82522978Y-140167449D01*
X82523234Y-140168854D01*
X82585767Y-140169029D01*
X82644440Y-140206967D01*
X82673287Y-140270604D01*
X82674500Y-140287908D01*
X82674500Y-143924234D01*
X82674500Y-144075766D01*
X82688036Y-144126285D01*
X82713719Y-144222136D01*
X82729807Y-144250000D01*
X82789485Y-144353365D01*
X82789487Y-144353367D01*
X83213181Y-144777061D01*
X83246666Y-144838384D01*
X83249500Y-144864742D01*
X83249500Y-146300001D01*
X83249501Y-146300018D01*
X83260000Y-146402796D01*
X83260001Y-146402799D01*
X83315185Y-146569331D01*
X83315187Y-146569336D01*
X83330456Y-146594091D01*
X83407288Y-146718656D01*
X83531344Y-146842712D01*
X83680666Y-146934814D01*
X83847203Y-146989999D01*
X83949991Y-147000500D01*
X85550008Y-147000499D01*
X85652797Y-146989999D01*
X85819334Y-146934814D01*
X85968656Y-146842712D01*
X86092712Y-146718656D01*
X86169963Y-146593411D01*
X86221907Y-146546689D01*
X86290869Y-146535466D01*
X86354952Y-146563309D01*
X86393809Y-146621377D01*
X86399499Y-146658510D01*
X86399500Y-147375500D01*
X86379816Y-147442539D01*
X86327012Y-147488294D01*
X86275500Y-147499500D01*
X65613742Y-147499500D01*
X65546703Y-147479815D01*
X65500948Y-147427011D01*
X65491004Y-147357853D01*
X65520029Y-147294297D01*
X65526061Y-147287819D01*
X66050515Y-146763365D01*
X66076328Y-146718656D01*
X66113698Y-146653928D01*
X66164265Y-146605714D01*
X66192569Y-146595252D01*
X66197478Y-146594091D01*
X66197483Y-146594091D01*
X66332331Y-146543796D01*
X66447546Y-146457546D01*
X66533796Y-146342331D01*
X66584091Y-146207483D01*
X66590500Y-146147873D01*
X66590499Y-144152128D01*
X66584091Y-144092517D01*
X66577843Y-144075766D01*
X66533797Y-143957671D01*
X66533793Y-143957664D01*
X66447547Y-143842455D01*
X66447544Y-143842452D01*
X66332335Y-143756206D01*
X66332330Y-143756203D01*
X66246166Y-143724066D01*
X66190233Y-143682194D01*
X66165816Y-143616730D01*
X66165500Y-143607884D01*
X66165500Y-140295500D01*
X66185185Y-140228461D01*
X66237989Y-140182706D01*
X66289500Y-140171500D01*
X67239726Y-140171500D01*
X67239734Y-140171500D01*
X67276748Y-140168587D01*
X67276750Y-140168586D01*
X67276752Y-140168586D01*
X67395905Y-140133969D01*
X67422158Y-140134043D01*
X67448147Y-140130307D01*
X67456543Y-140134141D01*
X67465774Y-140134168D01*
X67487819Y-140148424D01*
X67511703Y-140159332D01*
X67516693Y-140167097D01*
X67524444Y-140172110D01*
X67535282Y-140196022D01*
X67549477Y-140218110D01*
X67551420Y-140231628D01*
X67553288Y-140235748D01*
X67554500Y-140253045D01*
X67554500Y-140307884D01*
X67534815Y-140374923D01*
X67482011Y-140420678D01*
X67473834Y-140424066D01*
X67387669Y-140456203D01*
X67387664Y-140456206D01*
X67272455Y-140542452D01*
X67272452Y-140542455D01*
X67186206Y-140657664D01*
X67186202Y-140657671D01*
X67135908Y-140792517D01*
X67129501Y-140852116D01*
X67129501Y-140852123D01*
X67129500Y-140852135D01*
X67129500Y-142847870D01*
X67129501Y-142847876D01*
X67135908Y-142907483D01*
X67186202Y-143042328D01*
X67186206Y-143042335D01*
X67272452Y-143157544D01*
X67272455Y-143157547D01*
X67387664Y-143243793D01*
X67387671Y-143243797D01*
X67522517Y-143294091D01*
X67522516Y-143294091D01*
X67529444Y-143294835D01*
X67582127Y-143300500D01*
X68677872Y-143300499D01*
X68737483Y-143294091D01*
X68872331Y-143243796D01*
X68987546Y-143157546D01*
X69073796Y-143042331D01*
X69124091Y-142907483D01*
X69130500Y-142847873D01*
X69130499Y-140852128D01*
X69124214Y-140793657D01*
X69124091Y-140792516D01*
X69073797Y-140657671D01*
X69073793Y-140657664D01*
X68987547Y-140542455D01*
X68987544Y-140542452D01*
X68872335Y-140456206D01*
X68872330Y-140456203D01*
X68786166Y-140424066D01*
X68768439Y-140410795D01*
X68748297Y-140401597D01*
X68741014Y-140390265D01*
X68730233Y-140382194D01*
X68722495Y-140361448D01*
X68710523Y-140342819D01*
X68707371Y-140320900D01*
X68705816Y-140316730D01*
X68705500Y-140307884D01*
X68705500Y-140295500D01*
X68725185Y-140228461D01*
X68777989Y-140182706D01*
X68829500Y-140171500D01*
X69779726Y-140171500D01*
X69779734Y-140171500D01*
X69816748Y-140168587D01*
X69816750Y-140168586D01*
X69816752Y-140168586D01*
X69935905Y-140133969D01*
X70005774Y-140134168D01*
X70064444Y-140172110D01*
X70093288Y-140235748D01*
X70094500Y-140253045D01*
X70094500Y-143607884D01*
X70074815Y-143674923D01*
X70022011Y-143720678D01*
X70013834Y-143724066D01*
X69927669Y-143756203D01*
X69927664Y-143756206D01*
X69812455Y-143842452D01*
X69812452Y-143842455D01*
X69726206Y-143957664D01*
X69726202Y-143957671D01*
X69675908Y-144092517D01*
X69672278Y-144126285D01*
X69669501Y-144152123D01*
X69669500Y-144152135D01*
X69669500Y-146147870D01*
X69669501Y-146147876D01*
X69675908Y-146207483D01*
X69726202Y-146342328D01*
X69726206Y-146342335D01*
X69812452Y-146457544D01*
X69812455Y-146457547D01*
X69927664Y-146543793D01*
X69927671Y-146543797D01*
X70062517Y-146594091D01*
X70062516Y-146594091D01*
X70069444Y-146594835D01*
X70122127Y-146600500D01*
X71217872Y-146600499D01*
X71277483Y-146594091D01*
X71412331Y-146543796D01*
X71527546Y-146457546D01*
X71613796Y-146342331D01*
X71664091Y-146207483D01*
X71670500Y-146147873D01*
X71670499Y-144152128D01*
X71664091Y-144092517D01*
X71657843Y-144075766D01*
X71613797Y-143957671D01*
X71613793Y-143957664D01*
X71527547Y-143842455D01*
X71527544Y-143842452D01*
X71412335Y-143756206D01*
X71412330Y-143756203D01*
X71326166Y-143724066D01*
X71270233Y-143682194D01*
X71245816Y-143616730D01*
X71245500Y-143607884D01*
X71245500Y-140295500D01*
X71265185Y-140228461D01*
X71317989Y-140182706D01*
X71369500Y-140171500D01*
X72319726Y-140171500D01*
X72319734Y-140171500D01*
X72356748Y-140168587D01*
X72356750Y-140168586D01*
X72356752Y-140168586D01*
X72475905Y-140133969D01*
X72502158Y-140134043D01*
X72528147Y-140130307D01*
X72536543Y-140134141D01*
X72545774Y-140134168D01*
X72567819Y-140148424D01*
X72591703Y-140159332D01*
X72596693Y-140167097D01*
X72604444Y-140172110D01*
X72615282Y-140196022D01*
X72629477Y-140218110D01*
X72631420Y-140231628D01*
X72633288Y-140235748D01*
X72634500Y-140253045D01*
X72634500Y-140307884D01*
X72614815Y-140374923D01*
X72562011Y-140420678D01*
X72553834Y-140424066D01*
X72467669Y-140456203D01*
X72467664Y-140456206D01*
X72352455Y-140542452D01*
X72352452Y-140542455D01*
X72266206Y-140657664D01*
X72266202Y-140657671D01*
X72215908Y-140792517D01*
X72209501Y-140852116D01*
X72209501Y-140852123D01*
X72209500Y-140852135D01*
X72209500Y-142847870D01*
X72209501Y-142847876D01*
X72215908Y-142907483D01*
X72266202Y-143042328D01*
X72266206Y-143042335D01*
X72352452Y-143157544D01*
X72352455Y-143157547D01*
X72467664Y-143243793D01*
X72467671Y-143243797D01*
X72602517Y-143294091D01*
X72602516Y-143294091D01*
X72609444Y-143294835D01*
X72662127Y-143300500D01*
X73757872Y-143300499D01*
X73817483Y-143294091D01*
X73952331Y-143243796D01*
X74067546Y-143157546D01*
X74153796Y-143042331D01*
X74204091Y-142907483D01*
X74210500Y-142847873D01*
X74210499Y-140852128D01*
X74204214Y-140793657D01*
X74204091Y-140792516D01*
X74153797Y-140657671D01*
X74153793Y-140657664D01*
X74067547Y-140542455D01*
X74067544Y-140542452D01*
X73952335Y-140456206D01*
X73952330Y-140456203D01*
X73866166Y-140424066D01*
X73848439Y-140410795D01*
X73828297Y-140401597D01*
X73821014Y-140390265D01*
X73810233Y-140382194D01*
X73802495Y-140361448D01*
X73790523Y-140342819D01*
X73787371Y-140320900D01*
X73785816Y-140316730D01*
X73785500Y-140307884D01*
X73785500Y-140295500D01*
X73805185Y-140228461D01*
X73857989Y-140182706D01*
X73909500Y-140171500D01*
X74859726Y-140171500D01*
X74859734Y-140171500D01*
X74896748Y-140168587D01*
X74896750Y-140168586D01*
X74896752Y-140168586D01*
X75015905Y-140133969D01*
X75085774Y-140134168D01*
X75144444Y-140172110D01*
X75173288Y-140235748D01*
X75174500Y-140253045D01*
X75174500Y-143607884D01*
X75154815Y-143674923D01*
X75102011Y-143720678D01*
X75093834Y-143724066D01*
X75007669Y-143756203D01*
X75007664Y-143756206D01*
X74892455Y-143842452D01*
X74892452Y-143842455D01*
X74806206Y-143957664D01*
X74806202Y-143957671D01*
X74755908Y-144092517D01*
X74752278Y-144126285D01*
X74749501Y-144152123D01*
X74749500Y-144152135D01*
X74749500Y-146147870D01*
X74749501Y-146147876D01*
X74755908Y-146207483D01*
X74806202Y-146342328D01*
X74806206Y-146342335D01*
X74892452Y-146457544D01*
X74892455Y-146457547D01*
X75007664Y-146543793D01*
X75007671Y-146543797D01*
X75142517Y-146594091D01*
X75142516Y-146594091D01*
X75149444Y-146594835D01*
X75202127Y-146600500D01*
X76297872Y-146600499D01*
X76357483Y-146594091D01*
X76492331Y-146543796D01*
X76607546Y-146457546D01*
X76693796Y-146342331D01*
X76744091Y-146207483D01*
X76750500Y-146147873D01*
X76750499Y-144152128D01*
X76744091Y-144092517D01*
X76737843Y-144075766D01*
X76693797Y-143957671D01*
X76693793Y-143957664D01*
X76607547Y-143842455D01*
X76607544Y-143842452D01*
X76492335Y-143756206D01*
X76492330Y-143756203D01*
X76406166Y-143724066D01*
X76350233Y-143682194D01*
X76325816Y-143616730D01*
X76325500Y-143607884D01*
X76325500Y-142847844D01*
X77290000Y-142847844D01*
X77296401Y-142907372D01*
X77296403Y-142907379D01*
X77346645Y-143042086D01*
X77346649Y-143042093D01*
X77432809Y-143157187D01*
X77432812Y-143157190D01*
X77547906Y-143243350D01*
X77547913Y-143243354D01*
X77682620Y-143293596D01*
X77682627Y-143293598D01*
X77742155Y-143299999D01*
X77742172Y-143300000D01*
X78040000Y-143300000D01*
X78540000Y-143300000D01*
X78837828Y-143300000D01*
X78837844Y-143299999D01*
X78897372Y-143293598D01*
X78897379Y-143293596D01*
X79032086Y-143243354D01*
X79032093Y-143243350D01*
X79147187Y-143157190D01*
X79147190Y-143157187D01*
X79233350Y-143042093D01*
X79233354Y-143042086D01*
X79283596Y-142907379D01*
X79283598Y-142907372D01*
X79289999Y-142847844D01*
X79290000Y-142847827D01*
X79290000Y-142100000D01*
X78540000Y-142100000D01*
X78540000Y-143300000D01*
X78040000Y-143300000D01*
X78040000Y-142100000D01*
X77290000Y-142100000D01*
X77290000Y-142847844D01*
X76325500Y-142847844D01*
X76325500Y-140852155D01*
X77290000Y-140852155D01*
X77290000Y-141600000D01*
X78040000Y-141600000D01*
X78040000Y-140400000D01*
X77742155Y-140400000D01*
X77682627Y-140406401D01*
X77682620Y-140406403D01*
X77547913Y-140456645D01*
X77547906Y-140456649D01*
X77432812Y-140542809D01*
X77432809Y-140542812D01*
X77346649Y-140657906D01*
X77346645Y-140657913D01*
X77296403Y-140792620D01*
X77296401Y-140792627D01*
X77290000Y-140852155D01*
X76325500Y-140852155D01*
X76325500Y-140295500D01*
X76345185Y-140228461D01*
X76397989Y-140182706D01*
X76449500Y-140171500D01*
X77399726Y-140171500D01*
X77399734Y-140171500D01*
X77436748Y-140168587D01*
X77436750Y-140168586D01*
X77436752Y-140168586D01*
X77523510Y-140143380D01*
X77595159Y-140122564D01*
X77737147Y-140038592D01*
X77853792Y-139921947D01*
X77853978Y-139921634D01*
X77887758Y-139864514D01*
X77891228Y-139861273D01*
X77892735Y-139856769D01*
X77916523Y-139837655D01*
X77938826Y-139816830D01*
X77943498Y-139815980D01*
X77947201Y-139813005D01*
X77977549Y-139809786D01*
X78007568Y-139804326D01*
X78011957Y-139806136D01*
G37*
G04 #@! TD.AperFunction*
G04 #@! TA.AperFunction,Conductor*
G36*
X65398297Y-127075185D02*
G01*
X65444052Y-127127989D01*
X65453996Y-127197147D01*
X65424971Y-127260703D01*
X65418939Y-127267181D01*
X55782937Y-136903181D01*
X55721614Y-136936666D01*
X55695256Y-136939500D01*
X54292129Y-136939500D01*
X54292123Y-136939501D01*
X54232516Y-136945908D01*
X54097671Y-136996202D01*
X54097664Y-136996206D01*
X53982455Y-137082452D01*
X53982452Y-137082455D01*
X53896206Y-137197664D01*
X53896202Y-137197671D01*
X53845908Y-137332517D01*
X53839501Y-137392116D01*
X53839500Y-137392135D01*
X53839500Y-138487870D01*
X53839501Y-138487876D01*
X53845908Y-138547483D01*
X53896202Y-138682328D01*
X53896206Y-138682335D01*
X53982452Y-138797544D01*
X53982455Y-138797547D01*
X54097664Y-138883793D01*
X54097671Y-138883797D01*
X54232517Y-138934091D01*
X54232516Y-138934091D01*
X54237707Y-138934649D01*
X54292127Y-138940500D01*
X55446258Y-138940499D01*
X55513297Y-138960184D01*
X55559052Y-139012987D01*
X55568996Y-139082146D01*
X55539971Y-139145702D01*
X55533939Y-139152180D01*
X55241635Y-139444485D01*
X55134487Y-139551632D01*
X55134485Y-139551635D01*
X55058719Y-139682863D01*
X55019500Y-139829234D01*
X55019500Y-141895500D01*
X54999815Y-141962539D01*
X54947011Y-142008294D01*
X54895500Y-142019500D01*
X54292129Y-142019500D01*
X54292123Y-142019501D01*
X54232516Y-142025908D01*
X54097671Y-142076202D01*
X54097664Y-142076206D01*
X53982455Y-142162452D01*
X53982452Y-142162455D01*
X53896206Y-142277664D01*
X53896202Y-142277671D01*
X53845908Y-142412517D01*
X53840422Y-142463553D01*
X53839501Y-142472123D01*
X53839500Y-142472135D01*
X53839500Y-143567870D01*
X53839501Y-143567876D01*
X53845908Y-143627483D01*
X53896202Y-143762328D01*
X53896206Y-143762335D01*
X53982452Y-143877544D01*
X53982455Y-143877547D01*
X54097664Y-143963793D01*
X54097671Y-143963797D01*
X54232517Y-144014091D01*
X54232516Y-144014091D01*
X54239444Y-144014835D01*
X54292127Y-144020500D01*
X56897872Y-144020499D01*
X56957483Y-144014091D01*
X57092331Y-143963796D01*
X57207546Y-143877546D01*
X57293796Y-143762331D01*
X57344091Y-143627483D01*
X57350500Y-143567873D01*
X57350499Y-142472128D01*
X57344091Y-142412517D01*
X57324213Y-142359222D01*
X57293797Y-142277671D01*
X57293793Y-142277664D01*
X57207547Y-142162455D01*
X57207544Y-142162452D01*
X57092335Y-142076206D01*
X57092328Y-142076202D01*
X56957482Y-142025908D01*
X56957483Y-142025908D01*
X56897883Y-142019501D01*
X56897881Y-142019500D01*
X56897873Y-142019500D01*
X56897865Y-142019500D01*
X56294500Y-142019500D01*
X56227461Y-141999815D01*
X56181706Y-141947011D01*
X56170500Y-141895500D01*
X56170500Y-140194742D01*
X56190185Y-140127703D01*
X56206819Y-140107061D01*
X56632120Y-139681760D01*
X57060556Y-139253323D01*
X57121877Y-139219840D01*
X57127272Y-139218899D01*
X57128761Y-139218500D01*
X57128766Y-139218500D01*
X57275135Y-139179281D01*
X57406365Y-139103515D01*
X57513515Y-138996365D01*
X57589281Y-138865135D01*
X57628500Y-138718766D01*
X57628500Y-138718764D01*
X57630603Y-138710916D01*
X57632741Y-138711489D01*
X57656323Y-138658165D01*
X57663313Y-138650565D01*
X61212819Y-135101060D01*
X61274142Y-135067575D01*
X61343834Y-135072559D01*
X61399767Y-135114431D01*
X61424184Y-135179895D01*
X61424500Y-135188741D01*
X61424500Y-137095257D01*
X61404815Y-137162296D01*
X61388181Y-137182938D01*
X59127937Y-139443181D01*
X59066614Y-139476666D01*
X59040256Y-139479500D01*
X57602129Y-139479500D01*
X57602123Y-139479501D01*
X57542516Y-139485908D01*
X57407671Y-139536202D01*
X57407664Y-139536206D01*
X57292455Y-139622452D01*
X57292452Y-139622455D01*
X57206206Y-139737664D01*
X57206202Y-139737671D01*
X57155908Y-139872517D01*
X57150594Y-139921952D01*
X57149501Y-139932123D01*
X57149500Y-139932135D01*
X57149500Y-141027870D01*
X57149501Y-141027876D01*
X57155908Y-141087483D01*
X57206202Y-141222328D01*
X57206206Y-141222335D01*
X57292452Y-141337544D01*
X57292455Y-141337547D01*
X57407664Y-141423793D01*
X57407671Y-141423797D01*
X57542517Y-141474091D01*
X57542516Y-141474091D01*
X57549444Y-141474835D01*
X57602127Y-141480500D01*
X60207872Y-141480499D01*
X60267483Y-141474091D01*
X60402331Y-141423796D01*
X60517546Y-141337546D01*
X60603796Y-141222331D01*
X60654091Y-141087483D01*
X60660500Y-141027873D01*
X60660499Y-139932128D01*
X60654091Y-139872517D01*
X60649897Y-139861273D01*
X60603797Y-139737671D01*
X60599546Y-139729886D01*
X60602063Y-139728511D01*
X60582727Y-139676697D01*
X60597568Y-139608422D01*
X60618725Y-139580153D01*
X62460515Y-137738365D01*
X62536281Y-137607135D01*
X62575500Y-137460766D01*
X62575500Y-137309233D01*
X62575500Y-135039741D01*
X62595185Y-134972702D01*
X62611815Y-134952064D01*
X63111944Y-134451934D01*
X63173267Y-134418450D01*
X63242959Y-134423434D01*
X63298892Y-134465306D01*
X63304619Y-134473644D01*
X63366153Y-134571576D01*
X63469396Y-134674819D01*
X63502881Y-134736142D01*
X63497897Y-134805834D01*
X63469396Y-134850181D01*
X63366153Y-134953423D01*
X63273177Y-135101395D01*
X63215459Y-135266341D01*
X63215457Y-135266351D01*
X63200800Y-135396441D01*
X63200800Y-136033558D01*
X63215457Y-136163648D01*
X63215459Y-136163658D01*
X63263029Y-136299603D01*
X63273178Y-136328606D01*
X63366153Y-136476576D01*
X63489724Y-136600147D01*
X63637694Y-136693122D01*
X63802643Y-136750841D01*
X63802649Y-136750841D01*
X63802651Y-136750842D01*
X63844050Y-136755506D01*
X63932742Y-136765499D01*
X63932745Y-136765500D01*
X63932748Y-136765500D01*
X65357798Y-136765500D01*
X65424837Y-136785185D01*
X65470592Y-136837989D01*
X65480536Y-136907147D01*
X65451511Y-136970703D01*
X65445479Y-136977181D01*
X65434612Y-136988047D01*
X65434605Y-136988056D01*
X65350635Y-137130042D01*
X65350634Y-137130045D01*
X65304613Y-137288447D01*
X65304612Y-137288453D01*
X65301700Y-137325458D01*
X65301700Y-138852258D01*
X65282015Y-138919297D01*
X65265381Y-138939939D01*
X65129487Y-139075832D01*
X65129485Y-139075835D01*
X65053719Y-139207063D01*
X65014500Y-139353434D01*
X65014500Y-143607884D01*
X64994815Y-143674923D01*
X64942011Y-143720678D01*
X64933834Y-143724066D01*
X64847669Y-143756203D01*
X64847664Y-143756206D01*
X64732455Y-143842452D01*
X64732452Y-143842455D01*
X64646206Y-143957664D01*
X64646202Y-143957671D01*
X64595908Y-144092517D01*
X64592278Y-144126285D01*
X64589501Y-144152123D01*
X64589500Y-144152135D01*
X64589500Y-146147870D01*
X64589501Y-146147876D01*
X64595908Y-146207483D01*
X64646202Y-146342328D01*
X64646206Y-146342334D01*
X64666401Y-146369312D01*
X64690818Y-146434776D01*
X64675966Y-146503049D01*
X64654815Y-146531303D01*
X64373937Y-146812182D01*
X64312617Y-146845666D01*
X64286258Y-146848500D01*
X51213742Y-146848500D01*
X51146703Y-146828815D01*
X51126061Y-146812181D01*
X50421724Y-146107844D01*
X57150000Y-146107844D01*
X57156401Y-146167372D01*
X57156403Y-146167379D01*
X57206645Y-146302086D01*
X57206649Y-146302093D01*
X57292809Y-146417187D01*
X57292812Y-146417190D01*
X57407906Y-146503350D01*
X57407913Y-146503354D01*
X57542620Y-146553596D01*
X57542627Y-146553598D01*
X57602155Y-146559999D01*
X57602172Y-146560000D01*
X58655000Y-146560000D01*
X59155000Y-146560000D01*
X60207828Y-146560000D01*
X60207844Y-146559999D01*
X60267372Y-146553598D01*
X60267379Y-146553596D01*
X60402086Y-146503354D01*
X60402093Y-146503350D01*
X60517187Y-146417190D01*
X60517190Y-146417187D01*
X60603350Y-146302093D01*
X60603354Y-146302086D01*
X60653596Y-146167379D01*
X60653598Y-146167372D01*
X60659999Y-146107844D01*
X60660000Y-146107827D01*
X60660000Y-145810000D01*
X59155000Y-145810000D01*
X59155000Y-146560000D01*
X58655000Y-146560000D01*
X58655000Y-145810000D01*
X57150000Y-145810000D01*
X57150000Y-146107844D01*
X50421724Y-146107844D01*
X49326035Y-145012155D01*
X57150000Y-145012155D01*
X57150000Y-145310000D01*
X58655000Y-145310000D01*
X59155000Y-145310000D01*
X60660000Y-145310000D01*
X60660000Y-145012172D01*
X60659999Y-145012155D01*
X60653598Y-144952627D01*
X60653596Y-144952620D01*
X60603354Y-144817913D01*
X60603350Y-144817906D01*
X60517190Y-144702812D01*
X60517187Y-144702809D01*
X60402093Y-144616649D01*
X60402086Y-144616645D01*
X60267379Y-144566403D01*
X60267372Y-144566401D01*
X60207844Y-144560000D01*
X59155000Y-144560000D01*
X59155000Y-145310000D01*
X58655000Y-145310000D01*
X58655000Y-144560000D01*
X57602155Y-144560000D01*
X57542627Y-144566401D01*
X57542620Y-144566403D01*
X57407913Y-144616645D01*
X57407906Y-144616649D01*
X57292812Y-144702809D01*
X57292809Y-144702812D01*
X57206649Y-144817906D01*
X57206645Y-144817913D01*
X57156403Y-144952620D01*
X57156401Y-144952627D01*
X57150000Y-145012155D01*
X49326035Y-145012155D01*
X47236818Y-142922938D01*
X47203333Y-142861615D01*
X47200499Y-142835257D01*
X47200499Y-142099998D01*
X47200498Y-142099981D01*
X47189999Y-141997203D01*
X47189998Y-141997200D01*
X47160232Y-141907372D01*
X47134814Y-141830666D01*
X47042712Y-141681344D01*
X46918656Y-141557288D01*
X46794162Y-141480500D01*
X46769336Y-141465187D01*
X46769331Y-141465185D01*
X46767862Y-141464698D01*
X46602797Y-141410001D01*
X46602795Y-141410000D01*
X46500016Y-141399500D01*
X46500009Y-141399500D01*
X45764742Y-141399500D01*
X45735301Y-141390855D01*
X45705315Y-141384332D01*
X45700299Y-141380577D01*
X45697703Y-141379815D01*
X45677061Y-141363181D01*
X45626060Y-141312180D01*
X45592575Y-141250857D01*
X45597559Y-141181165D01*
X45639431Y-141125232D01*
X45704895Y-141100815D01*
X45713719Y-141100499D01*
X46525008Y-141100499D01*
X46525016Y-141100498D01*
X46525019Y-141100498D01*
X46598908Y-141092950D01*
X46627797Y-141089999D01*
X46794334Y-141034814D01*
X46943656Y-140942712D01*
X47049550Y-140836818D01*
X47110873Y-140803334D01*
X47137231Y-140800500D01*
X47912770Y-140800500D01*
X47979809Y-140820185D01*
X48000450Y-140836818D01*
X48081344Y-140917712D01*
X48230666Y-141009814D01*
X48397203Y-141064999D01*
X48499991Y-141075500D01*
X49500008Y-141075499D01*
X49500016Y-141075498D01*
X49500019Y-141075498D01*
X49556302Y-141069748D01*
X49602797Y-141064999D01*
X49769334Y-141009814D01*
X49918656Y-140917712D01*
X50042712Y-140793656D01*
X50134814Y-140644334D01*
X50189999Y-140477797D01*
X50200500Y-140375009D01*
X50200499Y-139624992D01*
X50200464Y-139624653D01*
X50189999Y-139522203D01*
X50189998Y-139522200D01*
X50175849Y-139479501D01*
X50134814Y-139355666D01*
X50042712Y-139206344D01*
X49957965Y-139121597D01*
X49924480Y-139060274D01*
X49929464Y-138990582D01*
X49971336Y-138934649D01*
X50036800Y-138910232D01*
X50045646Y-138909916D01*
X50998976Y-138909916D01*
X50998977Y-138909915D01*
X51153629Y-138879153D01*
X51299311Y-138818810D01*
X51430421Y-138731205D01*
X60824807Y-129336819D01*
X60886130Y-129303334D01*
X60912488Y-129300500D01*
X62078844Y-129300500D01*
X62078845Y-129300499D01*
X62233497Y-129269737D01*
X62379179Y-129209394D01*
X62510289Y-129121789D01*
X64540259Y-127091819D01*
X64601582Y-127058334D01*
X64627940Y-127055500D01*
X65331258Y-127055500D01*
X65398297Y-127075185D01*
G37*
G04 #@! TD.AperFunction*
G04 #@! TA.AperFunction,Conductor*
G36*
X39777224Y-140981109D02*
G01*
X39832401Y-141023972D01*
X39848006Y-141053166D01*
X39899910Y-141192328D01*
X39899914Y-141192335D01*
X39986160Y-141307544D01*
X39986163Y-141307547D01*
X40101372Y-141393793D01*
X40101379Y-141393797D01*
X40116670Y-141399500D01*
X40236225Y-141444091D01*
X40295835Y-141450500D01*
X40295861Y-141450499D01*
X40299161Y-141450678D01*
X40299100Y-141451803D01*
X40361700Y-141470153D01*
X40407479Y-141522936D01*
X40418708Y-141574499D01*
X40418708Y-141847844D01*
X40425109Y-141907372D01*
X40425111Y-141907379D01*
X40475353Y-142042086D01*
X40475357Y-142042093D01*
X40561517Y-142157187D01*
X40561520Y-142157190D01*
X40683719Y-142248669D01*
X40682312Y-142250548D01*
X40722716Y-142290950D01*
X40737570Y-142359222D01*
X40713155Y-142424687D01*
X40701567Y-142438061D01*
X39976449Y-143163181D01*
X39915126Y-143196666D01*
X39888768Y-143199500D01*
X38292085Y-143199500D01*
X38225046Y-143179815D01*
X38179291Y-143127011D01*
X38169347Y-143057853D01*
X38192819Y-143001188D01*
X38237060Y-142942089D01*
X38237062Y-142942086D01*
X38287304Y-142807379D01*
X38287306Y-142807372D01*
X38293707Y-142747844D01*
X38293708Y-142747827D01*
X38293708Y-142450000D01*
X36167708Y-142450000D01*
X36100669Y-142430315D01*
X36054914Y-142377511D01*
X36043708Y-142326000D01*
X36043708Y-142074000D01*
X36063393Y-142006961D01*
X36116197Y-141961206D01*
X36167708Y-141950000D01*
X38293708Y-141950000D01*
X38293708Y-141652172D01*
X38293707Y-141652155D01*
X38287306Y-141592627D01*
X38287304Y-141592620D01*
X38237062Y-141457913D01*
X38237058Y-141457906D01*
X38150898Y-141342812D01*
X38150895Y-141342809D01*
X38093146Y-141299578D01*
X38079658Y-141281561D01*
X38062737Y-141266718D01*
X38059123Y-141254129D01*
X38051275Y-141243645D01*
X38049669Y-141221195D01*
X38043459Y-141199560D01*
X38047225Y-141187015D01*
X38046291Y-141173953D01*
X38057077Y-141154199D01*
X38063550Y-141132641D01*
X38076258Y-141119074D01*
X38079777Y-141112630D01*
X38086824Y-141106108D01*
X38089895Y-141103479D01*
X38151254Y-141057546D01*
X38164979Y-141039210D01*
X38175395Y-141030296D01*
X38195261Y-141021368D01*
X38212693Y-141008319D01*
X38232087Y-141004819D01*
X38239125Y-141001657D01*
X38244853Y-141002516D01*
X38256028Y-141000500D01*
X39578844Y-141000500D01*
X39707632Y-140974882D01*
X39777224Y-140981109D01*
G37*
G04 #@! TD.AperFunction*
G04 #@! TA.AperFunction,Conductor*
G36*
X86363181Y-107026742D02*
G01*
X86396665Y-107088066D01*
X86399499Y-107114423D01*
X86399499Y-140438013D01*
X86379814Y-140505052D01*
X86327010Y-140550807D01*
X86257852Y-140560751D01*
X86194296Y-140531726D01*
X86157568Y-140476331D01*
X86140568Y-140424008D01*
X86033343Y-140213567D01*
X85894517Y-140022490D01*
X85727510Y-139855483D01*
X85536433Y-139716657D01*
X85519513Y-139708036D01*
X85393205Y-139643678D01*
X85342409Y-139595703D01*
X85325500Y-139533193D01*
X85325500Y-137674236D01*
X85325500Y-137674234D01*
X85305375Y-137599127D01*
X85286281Y-137527865D01*
X85226449Y-137424234D01*
X85210515Y-137396635D01*
X85103365Y-137289485D01*
X81163365Y-133349485D01*
X81097750Y-133311602D01*
X81032136Y-133273719D01*
X80958950Y-133254109D01*
X80885766Y-133234500D01*
X80885765Y-133234500D01*
X66721898Y-133234500D01*
X66654859Y-133214815D01*
X66616904Y-133176472D01*
X66580867Y-133119119D01*
X66536447Y-133048424D01*
X66412876Y-132924853D01*
X66264906Y-132831878D01*
X66264905Y-132831877D01*
X66264904Y-132831877D01*
X66099958Y-132774159D01*
X66099948Y-132774157D01*
X65969858Y-132759500D01*
X65969852Y-132759500D01*
X65103742Y-132759500D01*
X65036703Y-132739815D01*
X64990948Y-132687011D01*
X64981004Y-132617853D01*
X65010029Y-132554297D01*
X65016061Y-132547819D01*
X66952061Y-130611819D01*
X67013384Y-130578334D01*
X67039742Y-130575500D01*
X78853075Y-130575500D01*
X78920114Y-130595185D01*
X78965869Y-130647989D01*
X78975813Y-130717147D01*
X78966406Y-130746829D01*
X78967473Y-130747271D01*
X78965608Y-130751773D01*
X78899942Y-130953869D01*
X78899942Y-130953872D01*
X78866700Y-131163753D01*
X78866700Y-131376246D01*
X78899942Y-131586127D01*
X78899942Y-131586130D01*
X78965604Y-131788217D01*
X79062075Y-131977550D01*
X79101428Y-132031716D01*
X79816700Y-131316444D01*
X79816700Y-131322661D01*
X79843959Y-131424394D01*
X79896620Y-131515606D01*
X79971094Y-131590080D01*
X80062306Y-131642741D01*
X80164039Y-131670000D01*
X80170254Y-131670000D01*
X79454982Y-132385269D01*
X79454982Y-132385270D01*
X79509149Y-132424624D01*
X79698482Y-132521095D01*
X79900570Y-132586757D01*
X80110454Y-132620000D01*
X80322946Y-132620000D01*
X80532827Y-132586757D01*
X80532830Y-132586757D01*
X80734917Y-132521095D01*
X80924254Y-132424622D01*
X80978416Y-132385270D01*
X80978417Y-132385270D01*
X80263146Y-131670000D01*
X80269361Y-131670000D01*
X80371094Y-131642741D01*
X80462306Y-131590080D01*
X80536780Y-131515606D01*
X80589441Y-131424394D01*
X80616700Y-131322661D01*
X80616700Y-131316447D01*
X81331970Y-132031717D01*
X81331970Y-132031716D01*
X81371322Y-131977555D01*
X81375932Y-131968507D01*
X81423905Y-131917709D01*
X81491725Y-131900912D01*
X81557861Y-131923447D01*
X81596904Y-131968504D01*
X81601649Y-131977817D01*
X81726590Y-132149786D01*
X81876913Y-132300109D01*
X82048879Y-132425048D01*
X82048881Y-132425049D01*
X82048884Y-132425051D01*
X82238288Y-132521557D01*
X82440457Y-132587246D01*
X82650413Y-132620500D01*
X82650414Y-132620500D01*
X82862986Y-132620500D01*
X82862987Y-132620500D01*
X83072943Y-132587246D01*
X83275112Y-132521557D01*
X83464516Y-132425051D01*
X83519272Y-132385269D01*
X83636486Y-132300109D01*
X83636488Y-132300106D01*
X83636492Y-132300104D01*
X83786804Y-132149792D01*
X83786806Y-132149788D01*
X83786809Y-132149786D01*
X83911748Y-131977820D01*
X83911750Y-131977817D01*
X83911751Y-131977816D01*
X84008257Y-131788412D01*
X84073946Y-131586243D01*
X84107200Y-131376287D01*
X84107200Y-131163713D01*
X84073946Y-130953757D01*
X84008257Y-130751588D01*
X83911751Y-130562184D01*
X83911749Y-130562181D01*
X83911748Y-130562179D01*
X83786809Y-130390213D01*
X83636486Y-130239890D01*
X83464520Y-130114951D01*
X83463815Y-130114591D01*
X83455754Y-130110485D01*
X83404959Y-130062512D01*
X83388163Y-129994692D01*
X83410699Y-129928556D01*
X83455754Y-129889515D01*
X83464516Y-129885051D01*
X83486489Y-129869086D01*
X83636486Y-129760109D01*
X83636488Y-129760106D01*
X83636492Y-129760104D01*
X83786804Y-129609792D01*
X83786806Y-129609788D01*
X83786809Y-129609786D01*
X83911748Y-129437820D01*
X83911747Y-129437820D01*
X83911751Y-129437816D01*
X84008257Y-129248412D01*
X84073946Y-129046243D01*
X84107200Y-128836287D01*
X84107200Y-128623713D01*
X84073946Y-128413757D01*
X84008257Y-128211588D01*
X83911751Y-128022184D01*
X83911749Y-128022181D01*
X83911748Y-128022179D01*
X83786809Y-127850213D01*
X83636486Y-127699890D01*
X83464520Y-127574951D01*
X83275114Y-127478444D01*
X83275113Y-127478443D01*
X83275112Y-127478443D01*
X83072943Y-127412754D01*
X83072941Y-127412753D01*
X83072940Y-127412753D01*
X82911657Y-127387208D01*
X82862987Y-127379500D01*
X82862986Y-127379500D01*
X82744742Y-127379500D01*
X82677703Y-127359815D01*
X82657061Y-127343181D01*
X82103367Y-126789487D01*
X82103365Y-126789485D01*
X82028589Y-126746313D01*
X81972136Y-126713719D01*
X81880635Y-126689202D01*
X81825766Y-126674500D01*
X81825765Y-126674500D01*
X77580700Y-126674500D01*
X77513661Y-126654815D01*
X77467906Y-126602011D01*
X77456700Y-126550500D01*
X77456700Y-124858552D01*
X77456699Y-124858551D01*
X76671156Y-125644094D01*
X76609833Y-125677579D01*
X76540141Y-125672595D01*
X76495794Y-125644094D01*
X76317604Y-125465904D01*
X76284119Y-125404581D01*
X76289103Y-125334889D01*
X76317604Y-125290542D01*
X76353334Y-125254811D01*
X76354039Y-125255000D01*
X76459361Y-125255000D01*
X76561094Y-125227741D01*
X76652306Y-125175080D01*
X76726780Y-125100606D01*
X76779441Y-125009394D01*
X76806700Y-124907661D01*
X76806700Y-124802339D01*
X76806511Y-124801634D01*
X77377487Y-124230659D01*
X77291456Y-124093740D01*
X77167962Y-123970246D01*
X77020088Y-123877331D01*
X76961347Y-123856777D01*
X76904571Y-123816055D01*
X76878824Y-123751102D01*
X76892280Y-123682541D01*
X76940667Y-123632138D01*
X76982900Y-123617263D01*
X77019836Y-123611413D01*
X77208832Y-123550005D01*
X77385894Y-123459787D01*
X77546664Y-123342981D01*
X77687181Y-123202464D01*
X77744962Y-123122933D01*
X77750239Y-123116175D01*
X77753737Y-123112000D01*
X77853792Y-123011947D01*
X77892639Y-122946259D01*
X77899162Y-122938477D01*
X77920127Y-122924509D01*
X77938537Y-122907321D01*
X77948705Y-122905471D01*
X77957310Y-122899739D01*
X77982499Y-122899324D01*
X78007279Y-122894817D01*
X78016834Y-122898759D01*
X78027170Y-122898589D01*
X78048579Y-122911854D01*
X78071868Y-122921462D01*
X78080891Y-122931875D01*
X78086563Y-122935390D01*
X78089775Y-122942128D01*
X78100931Y-122955003D01*
X78112867Y-122975185D01*
X78127542Y-123000000D01*
X78134608Y-123011947D01*
X78230808Y-123108147D01*
X78243440Y-123122938D01*
X78301219Y-123202464D01*
X78441736Y-123342981D01*
X78602506Y-123459787D01*
X78635688Y-123476694D01*
X78779567Y-123550005D01*
X78779570Y-123550006D01*
X78818236Y-123562569D01*
X78968564Y-123611413D01*
X79164839Y-123642500D01*
X79164840Y-123642500D01*
X79363560Y-123642500D01*
X79363561Y-123642500D01*
X79559836Y-123611413D01*
X79748832Y-123550005D01*
X79925894Y-123459787D01*
X80086664Y-123342981D01*
X80227181Y-123202464D01*
X80284962Y-123122933D01*
X80290239Y-123116175D01*
X80293737Y-123112000D01*
X80393792Y-123011947D01*
X80432639Y-122946259D01*
X80439162Y-122938477D01*
X80460127Y-122924509D01*
X80478537Y-122907321D01*
X80488705Y-122905471D01*
X80497310Y-122899739D01*
X80522499Y-122899324D01*
X80547279Y-122894817D01*
X80556834Y-122898759D01*
X80567170Y-122898589D01*
X80588579Y-122911854D01*
X80611868Y-122921462D01*
X80620891Y-122931875D01*
X80626563Y-122935390D01*
X80629775Y-122942128D01*
X80640931Y-122955003D01*
X80652867Y-122975185D01*
X80667542Y-123000000D01*
X80674608Y-123011947D01*
X80770808Y-123108147D01*
X80783440Y-123122938D01*
X80841219Y-123202464D01*
X80981736Y-123342981D01*
X81142506Y-123459787D01*
X81175688Y-123476694D01*
X81319567Y-123550005D01*
X81319570Y-123550006D01*
X81358236Y-123562569D01*
X81508564Y-123611413D01*
X81704839Y-123642500D01*
X81704840Y-123642500D01*
X81903560Y-123642500D01*
X81903561Y-123642500D01*
X82099836Y-123611413D01*
X82288832Y-123550005D01*
X82465894Y-123459787D01*
X82626664Y-123342981D01*
X82767181Y-123202464D01*
X82824960Y-123122936D01*
X82837589Y-123108148D01*
X82933792Y-123011947D01*
X83017764Y-122869959D01*
X83063787Y-122711548D01*
X83066700Y-122674534D01*
X83066700Y-120415466D01*
X83063787Y-120378452D01*
X83059826Y-120364819D01*
X83017765Y-120220045D01*
X83017764Y-120220042D01*
X83017764Y-120220041D01*
X82954473Y-120113022D01*
X82933794Y-120078056D01*
X82933787Y-120078047D01*
X82817152Y-119961412D01*
X82817143Y-119961405D01*
X82675157Y-119877435D01*
X82675154Y-119877434D01*
X82516752Y-119831413D01*
X82516746Y-119831412D01*
X82479741Y-119828500D01*
X82479734Y-119828500D01*
X81529500Y-119828500D01*
X81462461Y-119808815D01*
X81416706Y-119756011D01*
X81405500Y-119704500D01*
X81405500Y-116542115D01*
X81425185Y-116475076D01*
X81477989Y-116429321D01*
X81486167Y-116425933D01*
X81572331Y-116393796D01*
X81687546Y-116307546D01*
X81773796Y-116192331D01*
X81824091Y-116057483D01*
X81830500Y-115997873D01*
X81830499Y-114002128D01*
X81824091Y-113942517D01*
X81819361Y-113929836D01*
X81773797Y-113807671D01*
X81773793Y-113807664D01*
X81687547Y-113692455D01*
X81687544Y-113692452D01*
X81572335Y-113606206D01*
X81572328Y-113606202D01*
X81437482Y-113555908D01*
X81437483Y-113555908D01*
X81377883Y-113549501D01*
X81377881Y-113549500D01*
X81377873Y-113549500D01*
X81377864Y-113549500D01*
X80282129Y-113549500D01*
X80282123Y-113549501D01*
X80222516Y-113555908D01*
X80087671Y-113606202D01*
X80087664Y-113606206D01*
X79972455Y-113692452D01*
X79972452Y-113692455D01*
X79886206Y-113807664D01*
X79886202Y-113807671D01*
X79835908Y-113942517D01*
X79830010Y-113997385D01*
X79829501Y-114002123D01*
X79829500Y-114002135D01*
X79829500Y-115997870D01*
X79829501Y-115997876D01*
X79835908Y-116057483D01*
X79886202Y-116192328D01*
X79886206Y-116192335D01*
X79972452Y-116307544D01*
X79972455Y-116307547D01*
X80087664Y-116393793D01*
X80087671Y-116393797D01*
X80173833Y-116425933D01*
X80229766Y-116467804D01*
X80254184Y-116533268D01*
X80254500Y-116542115D01*
X80254500Y-119746954D01*
X80234815Y-119813993D01*
X80182011Y-119859748D01*
X80112853Y-119869692D01*
X80095906Y-119866031D01*
X79976746Y-119831412D01*
X79939741Y-119828500D01*
X79939734Y-119828500D01*
X79224946Y-119828500D01*
X79157907Y-119808815D01*
X79112152Y-119756011D01*
X79102208Y-119686853D01*
X79131233Y-119623297D01*
X79141342Y-119613884D01*
X79141275Y-119613817D01*
X79147542Y-119607548D01*
X79147546Y-119607546D01*
X79233796Y-119492331D01*
X79284091Y-119357483D01*
X79290500Y-119297873D01*
X79290499Y-117302128D01*
X79284091Y-117242517D01*
X79276743Y-117222817D01*
X79233797Y-117107671D01*
X79233793Y-117107664D01*
X79147547Y-116992455D01*
X79147544Y-116992452D01*
X79032335Y-116906206D01*
X79032328Y-116906202D01*
X78897482Y-116855908D01*
X78897483Y-116855908D01*
X78837883Y-116849501D01*
X78837881Y-116849500D01*
X78837873Y-116849500D01*
X78837864Y-116849500D01*
X77742129Y-116849500D01*
X77742123Y-116849501D01*
X77682516Y-116855908D01*
X77547671Y-116906202D01*
X77547664Y-116906206D01*
X77432455Y-116992452D01*
X77432452Y-116992455D01*
X77346206Y-117107664D01*
X77346202Y-117107671D01*
X77295908Y-117242517D01*
X77295104Y-117250000D01*
X77289501Y-117302123D01*
X77289500Y-117302135D01*
X77289500Y-119297870D01*
X77289501Y-119297876D01*
X77295908Y-119357483D01*
X77346202Y-119492328D01*
X77346206Y-119492335D01*
X77432452Y-119607544D01*
X77438725Y-119613817D01*
X77437047Y-119615494D01*
X77471237Y-119661169D01*
X77476220Y-119730861D01*
X77442733Y-119792183D01*
X77381409Y-119825667D01*
X77355054Y-119828500D01*
X76449500Y-119828500D01*
X76382461Y-119808815D01*
X76336706Y-119756011D01*
X76325500Y-119704500D01*
X76325500Y-116542115D01*
X76345185Y-116475076D01*
X76397989Y-116429321D01*
X76406167Y-116425933D01*
X76492331Y-116393796D01*
X76607546Y-116307546D01*
X76693796Y-116192331D01*
X76744091Y-116057483D01*
X76750500Y-115997873D01*
X76750499Y-114002128D01*
X76744091Y-113942517D01*
X76739361Y-113929836D01*
X76693797Y-113807671D01*
X76693793Y-113807664D01*
X76607547Y-113692455D01*
X76607544Y-113692452D01*
X76492335Y-113606206D01*
X76492328Y-113606202D01*
X76383686Y-113565682D01*
X76327752Y-113523811D01*
X76303335Y-113458347D01*
X76318186Y-113390074D01*
X76367591Y-113340668D01*
X76427019Y-113325500D01*
X79625464Y-113325500D01*
X79625466Y-113325500D01*
X79771835Y-113286281D01*
X79903065Y-113210515D01*
X85789596Y-107323983D01*
X85833943Y-107295484D01*
X85838481Y-107293791D01*
X85838483Y-107293791D01*
X85952759Y-107251169D01*
X85973326Y-107243498D01*
X85973326Y-107243497D01*
X85973331Y-107243496D01*
X86088546Y-107157246D01*
X86174796Y-107042031D01*
X86174796Y-107042029D01*
X86176232Y-107040112D01*
X86232166Y-106998241D01*
X86301858Y-106993257D01*
X86363181Y-107026742D01*
G37*
G04 #@! TD.AperFunction*
G04 #@! TA.AperFunction,Conductor*
G36*
X57204808Y-128820185D02*
G01*
X57225450Y-128836818D01*
X57331344Y-128942712D01*
X57480666Y-129034814D01*
X57647203Y-129089999D01*
X57749991Y-129100500D01*
X58497607Y-129100499D01*
X58564646Y-129120183D01*
X58610401Y-129172987D01*
X58620345Y-129242146D01*
X58591320Y-129305702D01*
X58585288Y-129312180D01*
X50624873Y-137272597D01*
X50563550Y-137306082D01*
X50537192Y-137308916D01*
X50206026Y-137308916D01*
X50138987Y-137289231D01*
X50100487Y-137250013D01*
X50092029Y-137236300D01*
X50042712Y-137156344D01*
X49918656Y-137032288D01*
X49769334Y-136940186D01*
X49602797Y-136885001D01*
X49602795Y-136885000D01*
X49500010Y-136874500D01*
X48499998Y-136874500D01*
X48499980Y-136874501D01*
X48397203Y-136885000D01*
X48397200Y-136885001D01*
X48230668Y-136940185D01*
X48230663Y-136940187D01*
X48081342Y-137032289D01*
X47957289Y-137156342D01*
X47865187Y-137305663D01*
X47865185Y-137305668D01*
X47851466Y-137347070D01*
X47810001Y-137472203D01*
X47810001Y-137472204D01*
X47810000Y-137472204D01*
X47799500Y-137574983D01*
X47799500Y-138325001D01*
X47799501Y-138325019D01*
X47810000Y-138427796D01*
X47810001Y-138427799D01*
X47829909Y-138487876D01*
X47865186Y-138594334D01*
X47957096Y-138743345D01*
X47957289Y-138743657D01*
X48081345Y-138867713D01*
X48081344Y-138867713D01*
X48084179Y-138869461D01*
X48085714Y-138871168D01*
X48087013Y-138872195D01*
X48086837Y-138872416D01*
X48130904Y-138921408D01*
X48142127Y-138990370D01*
X48114284Y-139054453D01*
X48104266Y-139065110D01*
X48095013Y-139073856D01*
X48081344Y-139082288D01*
X47999214Y-139164417D01*
X47997953Y-139165610D01*
X47968318Y-139180726D01*
X47939128Y-139196666D01*
X47936522Y-139196946D01*
X47935713Y-139197359D01*
X47934141Y-139197202D01*
X47912770Y-139199500D01*
X47112230Y-139199500D01*
X47045191Y-139179815D01*
X47024549Y-139163181D01*
X46943657Y-139082289D01*
X46943656Y-139082288D01*
X46940342Y-139080243D01*
X46938546Y-139078248D01*
X46937989Y-139077807D01*
X46938064Y-139077711D01*
X46893618Y-139028297D01*
X46882397Y-138959334D01*
X46910240Y-138895252D01*
X46940348Y-138869165D01*
X46943342Y-138867318D01*
X47067315Y-138743345D01*
X47159356Y-138594124D01*
X47159358Y-138594119D01*
X47214505Y-138427697D01*
X47214506Y-138427690D01*
X47224999Y-138324986D01*
X47225000Y-138324973D01*
X47225000Y-138187500D01*
X44775001Y-138187500D01*
X44775001Y-138324986D01*
X44785494Y-138427697D01*
X44840641Y-138594119D01*
X44840643Y-138594124D01*
X44932684Y-138743345D01*
X45056655Y-138867316D01*
X45056659Y-138867319D01*
X45059656Y-138869168D01*
X45061279Y-138870972D01*
X45062323Y-138871798D01*
X45062181Y-138871976D01*
X45106381Y-138921116D01*
X45117602Y-138990079D01*
X45089759Y-139054161D01*
X45059661Y-139080241D01*
X45056349Y-139082283D01*
X45056343Y-139082288D01*
X44932289Y-139206342D01*
X44840187Y-139355663D01*
X44840185Y-139355668D01*
X44832184Y-139379815D01*
X44785894Y-139519505D01*
X44746123Y-139576949D01*
X44681608Y-139603772D01*
X44668190Y-139604500D01*
X43938208Y-139604500D01*
X43871169Y-139584815D01*
X43825414Y-139532011D01*
X43814208Y-139480501D01*
X43814207Y-139312130D01*
X43814206Y-139312123D01*
X43813453Y-139305121D01*
X43807799Y-139252517D01*
X43796255Y-139221567D01*
X43757505Y-139117671D01*
X43757501Y-139117664D01*
X43671255Y-139002455D01*
X43671252Y-139002452D01*
X43556043Y-138916206D01*
X43556036Y-138916202D01*
X43421191Y-138865908D01*
X43411242Y-138864839D01*
X43346691Y-138838100D01*
X43306845Y-138780706D01*
X43300500Y-138741550D01*
X43300500Y-137550013D01*
X44775000Y-137550013D01*
X44775000Y-137687500D01*
X45750000Y-137687500D01*
X46250000Y-137687500D01*
X47224999Y-137687500D01*
X47224999Y-137550028D01*
X47224998Y-137550013D01*
X47214505Y-137447302D01*
X47159358Y-137280880D01*
X47159356Y-137280875D01*
X47067315Y-137131654D01*
X46943345Y-137007684D01*
X46794124Y-136915643D01*
X46794119Y-136915641D01*
X46627697Y-136860494D01*
X46627690Y-136860493D01*
X46524986Y-136850000D01*
X46250000Y-136850000D01*
X46250000Y-137687500D01*
X45750000Y-137687500D01*
X45750000Y-136850000D01*
X45475029Y-136850000D01*
X45475012Y-136850001D01*
X45372302Y-136860494D01*
X45205880Y-136915641D01*
X45205875Y-136915643D01*
X45056654Y-137007684D01*
X44932684Y-137131654D01*
X44840643Y-137280875D01*
X44840641Y-137280880D01*
X44785494Y-137447302D01*
X44785493Y-137447309D01*
X44775000Y-137550013D01*
X43300500Y-137550013D01*
X43300500Y-135749499D01*
X43320185Y-135682460D01*
X43372989Y-135636705D01*
X43424500Y-135625499D01*
X43525002Y-135625499D01*
X43525008Y-135625499D01*
X43627797Y-135614999D01*
X43794334Y-135559814D01*
X43943656Y-135467712D01*
X44037049Y-135374319D01*
X44098372Y-135340834D01*
X44124730Y-135338000D01*
X44875270Y-135338000D01*
X44942309Y-135357685D01*
X44962951Y-135374319D01*
X45056344Y-135467712D01*
X45205666Y-135559814D01*
X45372203Y-135614999D01*
X45474991Y-135625500D01*
X46525008Y-135625499D01*
X46525016Y-135625498D01*
X46525019Y-135625498D01*
X46581302Y-135619748D01*
X46627797Y-135614999D01*
X46794334Y-135559814D01*
X46943656Y-135467712D01*
X47037049Y-135374319D01*
X47098372Y-135340834D01*
X47124730Y-135338000D01*
X51041344Y-135338000D01*
X51041345Y-135337999D01*
X51195997Y-135307237D01*
X51341679Y-135246894D01*
X51472789Y-135159289D01*
X56621789Y-130010289D01*
X56709394Y-129879179D01*
X56769737Y-129733497D01*
X56800500Y-129578842D01*
X56800500Y-129421157D01*
X56800500Y-129084797D01*
X56820185Y-129017758D01*
X56843980Y-128990497D01*
X56851257Y-128984283D01*
X56918656Y-128942712D01*
X57027995Y-128833372D01*
X57031711Y-128830200D01*
X57059318Y-128817833D01*
X57085873Y-128803334D01*
X57093524Y-128802511D01*
X57095476Y-128801637D01*
X57098044Y-128802025D01*
X57112231Y-128800500D01*
X57137769Y-128800500D01*
X57204808Y-128820185D01*
G37*
G04 #@! TD.AperFunction*
G04 #@! TA.AperFunction,Conductor*
G36*
X38942309Y-135357685D02*
G01*
X38962951Y-135374319D01*
X39056344Y-135467712D01*
X39205666Y-135559814D01*
X39372203Y-135614999D01*
X39474991Y-135625500D01*
X40525008Y-135625499D01*
X40525016Y-135625498D01*
X40525019Y-135625498D01*
X40581302Y-135619748D01*
X40627797Y-135614999D01*
X40794334Y-135559814D01*
X40943656Y-135467712D01*
X41037049Y-135374319D01*
X41063976Y-135359615D01*
X41089795Y-135343023D01*
X41095995Y-135342131D01*
X41098372Y-135340834D01*
X41124730Y-135338000D01*
X41154560Y-135338000D01*
X41221599Y-135357685D01*
X41242241Y-135374319D01*
X41663181Y-135795259D01*
X41696666Y-135856582D01*
X41699500Y-135882940D01*
X41699500Y-138736786D01*
X41679815Y-138803825D01*
X41627011Y-138849580D01*
X41564889Y-138859648D01*
X41564861Y-138860178D01*
X41562426Y-138860047D01*
X41562252Y-138860076D01*
X41561553Y-138860000D01*
X41113708Y-138860000D01*
X41113708Y-139335500D01*
X41111157Y-139344185D01*
X41112446Y-139353147D01*
X41101467Y-139377187D01*
X41094023Y-139402539D01*
X41087182Y-139408466D01*
X41083421Y-139416703D01*
X41061186Y-139430992D01*
X41041219Y-139448294D01*
X41030704Y-139450581D01*
X41024643Y-139454477D01*
X40989708Y-139459500D01*
X40797708Y-139459500D01*
X40730669Y-139439815D01*
X40684914Y-139387011D01*
X40673708Y-139335500D01*
X40673708Y-138860000D01*
X40225863Y-138860000D01*
X40166335Y-138866401D01*
X40166328Y-138866403D01*
X40031621Y-138916645D01*
X40031614Y-138916649D01*
X39916520Y-139002809D01*
X39916519Y-139002811D01*
X39830357Y-139117906D01*
X39830353Y-139117913D01*
X39780111Y-139252620D01*
X39780109Y-139252626D01*
X39774929Y-139300808D01*
X39748190Y-139365358D01*
X39690798Y-139405206D01*
X39627448Y-139409168D01*
X39578844Y-139399500D01*
X39578842Y-139399500D01*
X38256028Y-139399500D01*
X38188989Y-139379815D01*
X38156760Y-139349809D01*
X38151256Y-139342457D01*
X38151254Y-139342454D01*
X38121222Y-139319972D01*
X38036043Y-139256206D01*
X38036036Y-139256202D01*
X37901190Y-139205908D01*
X37901191Y-139205908D01*
X37841591Y-139199501D01*
X37841589Y-139199500D01*
X37841581Y-139199500D01*
X37841572Y-139199500D01*
X34245837Y-139199500D01*
X34245831Y-139199501D01*
X34186224Y-139205908D01*
X34051379Y-139256202D01*
X34051377Y-139256203D01*
X33998811Y-139295555D01*
X33933347Y-139319972D01*
X33865074Y-139305121D01*
X33815668Y-139255716D01*
X33800500Y-139196288D01*
X33800500Y-135462000D01*
X33820185Y-135394961D01*
X33872989Y-135349206D01*
X33924500Y-135338000D01*
X38875270Y-135338000D01*
X38942309Y-135357685D01*
G37*
G04 #@! TD.AperFunction*
G04 #@! TA.AperFunction,Conductor*
G36*
X78583312Y-136292294D02*
G01*
X78589574Y-136291119D01*
X78616433Y-136302020D01*
X78644239Y-136310185D01*
X78648409Y-136314998D01*
X78654315Y-136317395D01*
X78671019Y-136341091D01*
X78689994Y-136362989D01*
X78690900Y-136369293D01*
X78694572Y-136374502D01*
X78695813Y-136403460D01*
X78699938Y-136432147D01*
X78697291Y-136437942D01*
X78697564Y-136444307D01*
X78682954Y-136469336D01*
X78670913Y-136495703D01*
X78664747Y-136500527D01*
X78662342Y-136504649D01*
X78633495Y-136524985D01*
X78602763Y-136540643D01*
X78565483Y-136567729D01*
X78565482Y-136567730D01*
X79180106Y-137182352D01*
X79092629Y-137205792D01*
X78991270Y-137264311D01*
X78908511Y-137347070D01*
X78849992Y-137448429D01*
X78826552Y-137535905D01*
X78207007Y-136916360D01*
X78135010Y-136988357D01*
X78135000Y-136988370D01*
X78101221Y-137045487D01*
X78050152Y-137093170D01*
X77981410Y-137105673D01*
X77916821Y-137079027D01*
X77899420Y-137061975D01*
X77892916Y-137054208D01*
X77853792Y-136988053D01*
X77753718Y-136887979D01*
X77750207Y-136883786D01*
X77749689Y-136882600D01*
X77744958Y-136877060D01*
X77687184Y-136797539D01*
X77546666Y-136657021D01*
X77546664Y-136657019D01*
X77385894Y-136540213D01*
X77356006Y-136524984D01*
X77305211Y-136477011D01*
X77288416Y-136409190D01*
X77310953Y-136343055D01*
X77365668Y-136299603D01*
X77412302Y-136290500D01*
X78577200Y-136290500D01*
X78583312Y-136292294D01*
G37*
G04 #@! TD.AperFunction*
G04 #@! TA.AperFunction,Conductor*
G36*
X81183137Y-136310185D02*
G01*
X81228892Y-136362989D01*
X81238836Y-136432147D01*
X81209811Y-136495703D01*
X81172393Y-136524984D01*
X81162412Y-136530070D01*
X81142505Y-136540213D01*
X80981733Y-136657021D01*
X80841218Y-136797536D01*
X80783439Y-136877061D01*
X80778192Y-136883784D01*
X80774669Y-136887990D01*
X80674608Y-136988053D01*
X80635485Y-137054204D01*
X80628979Y-137061975D01*
X80607998Y-137075964D01*
X80589571Y-137093170D01*
X80579427Y-137095015D01*
X80570847Y-137100736D01*
X80545633Y-137101161D01*
X80520829Y-137105673D01*
X80511297Y-137101740D01*
X80500987Y-137101915D01*
X80479547Y-137088642D01*
X80456240Y-137079027D01*
X80447243Y-137068643D01*
X80441580Y-137065138D01*
X80438361Y-137058393D01*
X80427177Y-137045486D01*
X80393395Y-136988364D01*
X80393392Y-136988360D01*
X80321391Y-136916360D01*
X79701847Y-137535904D01*
X79678408Y-137448429D01*
X79619889Y-137347070D01*
X79537130Y-137264311D01*
X79435771Y-137205792D01*
X79348294Y-137182352D01*
X79962916Y-136567731D01*
X79962915Y-136567730D01*
X79925632Y-136540641D01*
X79894905Y-136524985D01*
X79844109Y-136477011D01*
X79827314Y-136409190D01*
X79849851Y-136343055D01*
X79904566Y-136299603D01*
X79951200Y-136290500D01*
X81116098Y-136290500D01*
X81183137Y-136310185D01*
G37*
G04 #@! TD.AperFunction*
G04 #@! TA.AperFunction,Conductor*
G36*
X52755069Y-121163683D02*
G01*
X52799416Y-121192184D01*
X53227095Y-121619863D01*
X53227097Y-121619865D01*
X53334247Y-121727015D01*
X53462260Y-121800923D01*
X53462265Y-121800929D01*
X53462266Y-121800927D01*
X53462268Y-121800928D01*
X53465477Y-121802781D01*
X53611845Y-121842000D01*
X53611846Y-121842000D01*
X54599870Y-121842000D01*
X54666909Y-121861685D01*
X54687551Y-121878319D01*
X55388181Y-122578949D01*
X55421666Y-122640272D01*
X55424500Y-122666630D01*
X55424500Y-124186389D01*
X55431775Y-124213540D01*
X55436000Y-124245633D01*
X55436000Y-124807604D01*
X55416315Y-124874643D01*
X55363511Y-124920398D01*
X55351004Y-124925310D01*
X55230668Y-124965185D01*
X55230663Y-124965187D01*
X55081342Y-125057289D01*
X54957289Y-125181342D01*
X54865187Y-125330663D01*
X54865185Y-125330668D01*
X54854302Y-125363511D01*
X54810001Y-125497203D01*
X54810001Y-125497204D01*
X54810000Y-125497204D01*
X54799500Y-125599983D01*
X54799500Y-126400001D01*
X54799501Y-126400019D01*
X54810000Y-126502796D01*
X54810001Y-126502799D01*
X54865185Y-126669331D01*
X54865187Y-126669336D01*
X54892563Y-126713719D01*
X54939295Y-126789485D01*
X54957289Y-126818657D01*
X55050951Y-126912319D01*
X55084436Y-126973642D01*
X55079452Y-127043334D01*
X55050951Y-127087681D01*
X54957289Y-127181342D01*
X54865187Y-127330663D01*
X54865185Y-127330668D01*
X54844228Y-127393913D01*
X54810001Y-127497203D01*
X54810001Y-127497204D01*
X54810000Y-127497204D01*
X54799500Y-127599983D01*
X54799500Y-128400001D01*
X54799501Y-128400019D01*
X54810000Y-128502796D01*
X54810001Y-128502799D01*
X54865185Y-128669331D01*
X54865186Y-128669334D01*
X54957288Y-128818656D01*
X55081344Y-128942712D01*
X55140596Y-128979258D01*
X55147420Y-128986844D01*
X55156703Y-128991084D01*
X55170389Y-129012380D01*
X55187321Y-129031204D01*
X55189965Y-129042842D01*
X55194477Y-129049862D01*
X55199500Y-129084797D01*
X55199500Y-129117060D01*
X55179815Y-129184099D01*
X55163181Y-129204741D01*
X50667241Y-133700681D01*
X50605918Y-133734166D01*
X50579560Y-133737000D01*
X47124730Y-133737000D01*
X47057691Y-133717315D01*
X47037049Y-133700681D01*
X46943657Y-133607289D01*
X46943656Y-133607288D01*
X46940342Y-133605243D01*
X46938546Y-133603248D01*
X46937989Y-133602807D01*
X46938064Y-133602711D01*
X46893618Y-133553297D01*
X46882397Y-133484334D01*
X46910240Y-133420252D01*
X46940348Y-133394165D01*
X46943342Y-133392318D01*
X47067315Y-133268345D01*
X47159356Y-133119124D01*
X47159358Y-133119119D01*
X47214505Y-132952697D01*
X47214506Y-132952690D01*
X47224999Y-132849986D01*
X47225000Y-132849973D01*
X47225000Y-132712500D01*
X44775001Y-132712500D01*
X44775001Y-132849986D01*
X44785494Y-132952697D01*
X44840641Y-133119119D01*
X44840643Y-133119124D01*
X44932684Y-133268345D01*
X45056655Y-133392316D01*
X45056659Y-133392319D01*
X45059656Y-133394168D01*
X45061279Y-133395972D01*
X45062323Y-133396798D01*
X45062181Y-133396976D01*
X45106381Y-133446116D01*
X45117602Y-133515079D01*
X45089759Y-133579161D01*
X45079952Y-133589617D01*
X45070612Y-133598487D01*
X45056344Y-133607288D01*
X44961817Y-133701814D01*
X44960663Y-133702911D01*
X44930943Y-133718158D01*
X44901628Y-133734166D01*
X44899242Y-133734422D01*
X44898497Y-133734805D01*
X44897022Y-133734661D01*
X44875270Y-133737000D01*
X44124730Y-133737000D01*
X44057691Y-133717315D01*
X44037049Y-133700681D01*
X43943657Y-133607289D01*
X43943656Y-133607288D01*
X43940342Y-133605243D01*
X43938546Y-133603248D01*
X43937989Y-133602807D01*
X43938064Y-133602711D01*
X43893618Y-133553297D01*
X43882397Y-133484334D01*
X43910240Y-133420252D01*
X43940348Y-133394165D01*
X43943342Y-133392318D01*
X44067315Y-133268345D01*
X44159356Y-133119124D01*
X44159358Y-133119119D01*
X44214505Y-132952697D01*
X44214506Y-132952690D01*
X44224999Y-132849986D01*
X44225000Y-132849973D01*
X44225000Y-132712500D01*
X41775001Y-132712500D01*
X41775001Y-132849986D01*
X41785494Y-132952697D01*
X41840641Y-133119119D01*
X41840643Y-133119124D01*
X41932684Y-133268345D01*
X42056655Y-133392316D01*
X42056659Y-133392319D01*
X42059656Y-133394168D01*
X42061279Y-133395972D01*
X42062323Y-133396798D01*
X42062181Y-133396976D01*
X42106381Y-133446116D01*
X42117602Y-133515079D01*
X42089759Y-133579161D01*
X42079952Y-133589617D01*
X42070612Y-133598487D01*
X42056344Y-133607288D01*
X41961817Y-133701814D01*
X41960663Y-133702911D01*
X41930943Y-133718158D01*
X41901628Y-133734166D01*
X41899242Y-133734422D01*
X41898497Y-133734805D01*
X41897022Y-133734661D01*
X41875270Y-133737000D01*
X41124730Y-133737000D01*
X41057691Y-133717315D01*
X41037049Y-133700681D01*
X40943657Y-133607289D01*
X40943656Y-133607288D01*
X40940342Y-133605243D01*
X40938546Y-133603248D01*
X40937989Y-133602807D01*
X40938064Y-133602711D01*
X40893618Y-133553297D01*
X40882397Y-133484334D01*
X40910240Y-133420252D01*
X40940348Y-133394165D01*
X40943342Y-133392318D01*
X41067315Y-133268345D01*
X41159356Y-133119124D01*
X41159358Y-133119119D01*
X41214505Y-132952697D01*
X41214506Y-132952690D01*
X41224999Y-132849986D01*
X41225000Y-132849973D01*
X41225000Y-132712500D01*
X38775001Y-132712500D01*
X38775001Y-132849986D01*
X38785494Y-132952697D01*
X38840641Y-133119119D01*
X38840643Y-133119124D01*
X38932684Y-133268345D01*
X39056655Y-133392316D01*
X39056659Y-133392319D01*
X39059656Y-133394168D01*
X39061279Y-133395972D01*
X39062323Y-133396798D01*
X39062181Y-133396976D01*
X39106381Y-133446116D01*
X39117602Y-133515079D01*
X39089759Y-133579161D01*
X39079952Y-133589617D01*
X39070612Y-133598487D01*
X39056344Y-133607288D01*
X38961817Y-133701814D01*
X38960663Y-133702911D01*
X38930943Y-133718158D01*
X38901628Y-133734166D01*
X38899242Y-133734422D01*
X38898497Y-133734805D01*
X38897022Y-133734661D01*
X38875270Y-133737000D01*
X30920440Y-133737000D01*
X30853401Y-133717315D01*
X30832759Y-133700681D01*
X30336819Y-133204741D01*
X30303334Y-133143418D01*
X30300500Y-133117060D01*
X30300500Y-132612230D01*
X30309144Y-132582789D01*
X30315668Y-132552803D01*
X30319422Y-132547787D01*
X30320185Y-132545191D01*
X30336819Y-132524549D01*
X30412319Y-132449049D01*
X30473642Y-132415564D01*
X30543334Y-132420548D01*
X30587681Y-132449049D01*
X30681344Y-132542712D01*
X30830666Y-132634814D01*
X30997203Y-132689999D01*
X31099991Y-132700500D01*
X31900008Y-132700499D01*
X31900016Y-132700498D01*
X31900019Y-132700498D01*
X31956302Y-132694748D01*
X32002797Y-132689999D01*
X32169334Y-132634814D01*
X32318656Y-132542712D01*
X32442712Y-132418656D01*
X32534814Y-132269334D01*
X32570879Y-132160494D01*
X32610652Y-132103051D01*
X32675167Y-132076228D01*
X32688585Y-132075500D01*
X33288915Y-132075500D01*
X33355954Y-132095185D01*
X33401709Y-132147989D01*
X33406618Y-132160489D01*
X33442686Y-132269334D01*
X33534788Y-132418656D01*
X33658844Y-132542712D01*
X33808166Y-132634814D01*
X33974703Y-132689999D01*
X34077491Y-132700500D01*
X34877508Y-132700499D01*
X34877516Y-132700498D01*
X34877519Y-132700498D01*
X34933802Y-132694748D01*
X34980297Y-132689999D01*
X35146834Y-132634814D01*
X35296156Y-132542712D01*
X35390175Y-132448692D01*
X35451494Y-132415210D01*
X35521186Y-132420194D01*
X35565534Y-132448695D01*
X35659154Y-132542315D01*
X35808375Y-132634356D01*
X35808380Y-132634358D01*
X35974802Y-132689505D01*
X35974809Y-132689506D01*
X36077519Y-132699999D01*
X36227499Y-132699999D01*
X36727500Y-132699999D01*
X36877472Y-132699999D01*
X36877486Y-132699998D01*
X36980197Y-132689505D01*
X37146619Y-132634358D01*
X37146624Y-132634356D01*
X37295845Y-132542315D01*
X37419815Y-132418345D01*
X37511856Y-132269124D01*
X37511858Y-132269119D01*
X37567005Y-132102697D01*
X37567006Y-132102690D01*
X37569834Y-132075013D01*
X38775000Y-132075013D01*
X38775000Y-132212500D01*
X39750000Y-132212500D01*
X40250000Y-132212500D01*
X41224999Y-132212500D01*
X41224999Y-132075029D01*
X41224998Y-132075013D01*
X41775000Y-132075013D01*
X41775000Y-132212500D01*
X42750000Y-132212500D01*
X43250000Y-132212500D01*
X44224999Y-132212500D01*
X44224999Y-132075029D01*
X44224998Y-132075013D01*
X44775000Y-132075013D01*
X44775000Y-132212500D01*
X45750000Y-132212500D01*
X46250000Y-132212500D01*
X47224999Y-132212500D01*
X47224999Y-132075028D01*
X47224998Y-132075013D01*
X47214505Y-131972302D01*
X47159358Y-131805880D01*
X47159356Y-131805875D01*
X47067315Y-131656654D01*
X46943345Y-131532684D01*
X46794124Y-131440643D01*
X46794119Y-131440641D01*
X46627697Y-131385494D01*
X46627690Y-131385493D01*
X46524986Y-131375000D01*
X46250000Y-131375000D01*
X46250000Y-132212500D01*
X45750000Y-132212500D01*
X45750000Y-131375000D01*
X45475029Y-131375000D01*
X45475012Y-131375001D01*
X45372302Y-131385494D01*
X45205880Y-131440641D01*
X45205875Y-131440643D01*
X45056654Y-131532684D01*
X44932684Y-131656654D01*
X44840643Y-131805875D01*
X44840641Y-131805880D01*
X44785494Y-131972302D01*
X44785493Y-131972309D01*
X44775000Y-132075013D01*
X44224998Y-132075013D01*
X44224998Y-132075012D01*
X44214505Y-131972302D01*
X44159358Y-131805880D01*
X44159356Y-131805875D01*
X44067315Y-131656654D01*
X43943345Y-131532684D01*
X43794124Y-131440643D01*
X43794119Y-131440641D01*
X43627697Y-131385494D01*
X43627690Y-131385493D01*
X43524986Y-131375000D01*
X43250000Y-131375000D01*
X43250000Y-132212500D01*
X42750000Y-132212500D01*
X42750000Y-131375000D01*
X42475029Y-131375000D01*
X42475012Y-131375001D01*
X42372302Y-131385494D01*
X42205880Y-131440641D01*
X42205875Y-131440643D01*
X42056654Y-131532684D01*
X41932684Y-131656654D01*
X41840643Y-131805875D01*
X41840641Y-131805880D01*
X41785494Y-131972302D01*
X41785493Y-131972309D01*
X41775000Y-132075013D01*
X41224998Y-132075013D01*
X41224998Y-132075012D01*
X41214505Y-131972302D01*
X41159358Y-131805880D01*
X41159356Y-131805875D01*
X41067315Y-131656654D01*
X40943345Y-131532684D01*
X40794124Y-131440643D01*
X40794119Y-131440641D01*
X40627697Y-131385494D01*
X40627690Y-131385493D01*
X40524986Y-131375000D01*
X40250000Y-131375000D01*
X40250000Y-132212500D01*
X39750000Y-132212500D01*
X39750000Y-131375000D01*
X39475029Y-131375000D01*
X39475012Y-131375001D01*
X39372302Y-131385494D01*
X39205880Y-131440641D01*
X39205875Y-131440643D01*
X39056654Y-131532684D01*
X38932684Y-131656654D01*
X38840643Y-131805875D01*
X38840641Y-131805880D01*
X38785494Y-131972302D01*
X38785493Y-131972309D01*
X38775000Y-132075013D01*
X37569834Y-132075013D01*
X37571444Y-132059260D01*
X37571444Y-132059259D01*
X37577499Y-131999988D01*
X37577500Y-131999973D01*
X37577500Y-131750000D01*
X36727500Y-131750000D01*
X36727500Y-132699999D01*
X36227499Y-132699999D01*
X36227500Y-132699998D01*
X36227500Y-131250000D01*
X36727500Y-131250000D01*
X37577499Y-131250000D01*
X37577499Y-131000028D01*
X37577498Y-131000013D01*
X37567005Y-130897302D01*
X37511858Y-130730880D01*
X37511856Y-130730875D01*
X37419815Y-130581654D01*
X37295845Y-130457684D01*
X37146624Y-130365643D01*
X37146619Y-130365641D01*
X36980197Y-130310494D01*
X36980190Y-130310493D01*
X36877486Y-130300000D01*
X36727500Y-130300000D01*
X36727500Y-131250000D01*
X36227500Y-131250000D01*
X36227500Y-130300000D01*
X36077527Y-130300000D01*
X36077512Y-130300001D01*
X35974802Y-130310494D01*
X35808380Y-130365641D01*
X35808375Y-130365643D01*
X35659157Y-130457682D01*
X35565534Y-130551305D01*
X35504210Y-130584789D01*
X35434519Y-130579805D01*
X35390172Y-130551304D01*
X35296157Y-130457289D01*
X35296156Y-130457288D01*
X35146834Y-130365186D01*
X35146832Y-130365185D01*
X35140687Y-130361395D01*
X35141377Y-130360275D01*
X35094650Y-130319125D01*
X35075500Y-130252925D01*
X35075500Y-129619501D01*
X35095185Y-129552462D01*
X35147989Y-129506707D01*
X35160483Y-129501800D01*
X35226834Y-129479814D01*
X35376156Y-129387712D01*
X35390171Y-129373696D01*
X35451489Y-129340211D01*
X35521180Y-129345192D01*
X35565534Y-129373695D01*
X35579154Y-129387315D01*
X35728375Y-129479356D01*
X35728380Y-129479358D01*
X35894802Y-129534505D01*
X35894809Y-129534506D01*
X35997519Y-129544999D01*
X36204999Y-129544999D01*
X36705000Y-129544999D01*
X36912472Y-129544999D01*
X36912486Y-129544998D01*
X37015197Y-129534505D01*
X37181619Y-129479358D01*
X37181624Y-129479356D01*
X37330845Y-129387315D01*
X37454815Y-129263345D01*
X37546856Y-129114124D01*
X37546858Y-129114119D01*
X37602005Y-128947697D01*
X37602006Y-128947690D01*
X37612499Y-128844986D01*
X37612500Y-128844973D01*
X37612500Y-128750000D01*
X36705000Y-128750000D01*
X36705000Y-129544999D01*
X36204999Y-129544999D01*
X36205000Y-129544998D01*
X36205000Y-128250000D01*
X36705000Y-128250000D01*
X37612499Y-128250000D01*
X37612499Y-128155028D01*
X37612498Y-128155013D01*
X37602005Y-128052302D01*
X37546858Y-127885880D01*
X37546856Y-127885875D01*
X37454815Y-127736654D01*
X37330845Y-127612684D01*
X37181624Y-127520643D01*
X37181619Y-127520641D01*
X37015197Y-127465494D01*
X37015190Y-127465493D01*
X36912486Y-127455000D01*
X36705000Y-127455000D01*
X36705000Y-128250000D01*
X36205000Y-128250000D01*
X36205000Y-127455000D01*
X35997529Y-127455000D01*
X35997512Y-127455001D01*
X35894802Y-127465494D01*
X35728380Y-127520641D01*
X35728375Y-127520643D01*
X35579156Y-127612683D01*
X35565532Y-127626307D01*
X35504208Y-127659790D01*
X35434516Y-127654804D01*
X35390172Y-127626304D01*
X35376157Y-127612289D01*
X35376156Y-127612288D01*
X35226834Y-127520186D01*
X35160495Y-127498203D01*
X35103050Y-127458429D01*
X35076228Y-127393913D01*
X35075500Y-127380497D01*
X35075500Y-126287531D01*
X35095185Y-126220492D01*
X35147989Y-126174737D01*
X35217147Y-126164793D01*
X35280703Y-126193818D01*
X35297870Y-126212037D01*
X35369549Y-126305451D01*
X35489767Y-126397698D01*
X35629764Y-126455687D01*
X35742280Y-126470500D01*
X36625258Y-126470500D01*
X36692297Y-126490185D01*
X36712939Y-126506819D01*
X39000620Y-128794500D01*
X39020326Y-128820181D01*
X39039482Y-128853361D01*
X39039484Y-128853363D01*
X39039485Y-128853365D01*
X39646635Y-129460515D01*
X39760281Y-129526129D01*
X39777149Y-129535868D01*
X39777865Y-129536281D01*
X39924234Y-129575500D01*
X40075767Y-129575500D01*
X41744551Y-129575500D01*
X41811590Y-129595185D01*
X41857345Y-129647989D01*
X41862256Y-129660493D01*
X41862711Y-129661867D01*
X41865186Y-129669334D01*
X41957288Y-129818656D01*
X42081344Y-129942712D01*
X42230666Y-130034814D01*
X42397203Y-130089999D01*
X42499991Y-130100500D01*
X43500008Y-130100499D01*
X43500016Y-130100498D01*
X43500019Y-130100498D01*
X43580154Y-130092312D01*
X43602797Y-130089999D01*
X43769334Y-130034814D01*
X43918656Y-129942712D01*
X44042712Y-129818656D01*
X44134814Y-129669334D01*
X44136757Y-129663468D01*
X44137744Y-129660493D01*
X44177518Y-129603049D01*
X44242035Y-129576228D01*
X44255449Y-129575500D01*
X44711267Y-129575500D01*
X44778306Y-129595185D01*
X44824061Y-129647989D01*
X44828972Y-129660494D01*
X44840184Y-129694328D01*
X44840187Y-129694336D01*
X44859100Y-129724999D01*
X44932288Y-129843656D01*
X45056344Y-129967712D01*
X45205666Y-130059814D01*
X45372203Y-130114999D01*
X45474991Y-130125500D01*
X46525008Y-130125499D01*
X46525016Y-130125498D01*
X46525019Y-130125498D01*
X46581302Y-130119748D01*
X46627797Y-130114999D01*
X46794334Y-130059814D01*
X46943656Y-129967712D01*
X47067712Y-129843656D01*
X47159814Y-129694334D01*
X47171028Y-129660494D01*
X47210801Y-129603050D01*
X47275317Y-129576228D01*
X47288733Y-129575500D01*
X47744551Y-129575500D01*
X47811590Y-129595185D01*
X47857345Y-129647989D01*
X47862256Y-129660493D01*
X47862711Y-129661867D01*
X47865186Y-129669334D01*
X47957288Y-129818656D01*
X48081344Y-129942712D01*
X48230666Y-130034814D01*
X48397203Y-130089999D01*
X48499991Y-130100500D01*
X49500008Y-130100499D01*
X49500016Y-130100498D01*
X49500019Y-130100498D01*
X49580154Y-130092312D01*
X49602797Y-130089999D01*
X49769334Y-130034814D01*
X49918656Y-129942712D01*
X50042712Y-129818656D01*
X50134814Y-129669334D01*
X50189999Y-129502797D01*
X50200500Y-129400009D01*
X50200499Y-128599992D01*
X50195884Y-128554820D01*
X50208653Y-128486131D01*
X50256533Y-128435246D01*
X50324322Y-128418324D01*
X50390499Y-128440739D01*
X50406923Y-128454539D01*
X50668181Y-128715797D01*
X50701666Y-128777120D01*
X50704500Y-128803478D01*
X50704500Y-129457501D01*
X50704501Y-129457519D01*
X50715000Y-129560296D01*
X50715001Y-129560299D01*
X50759417Y-129694336D01*
X50770186Y-129726834D01*
X50862288Y-129876156D01*
X50986344Y-130000212D01*
X51135666Y-130092314D01*
X51302203Y-130147499D01*
X51404991Y-130158000D01*
X52095008Y-130157999D01*
X52095016Y-130157998D01*
X52095019Y-130157998D01*
X52151302Y-130152248D01*
X52197797Y-130147499D01*
X52364334Y-130092314D01*
X52513656Y-130000212D01*
X52637712Y-129876156D01*
X52729814Y-129726834D01*
X52784999Y-129560297D01*
X52795500Y-129457509D01*
X52795499Y-128542492D01*
X52784999Y-128439703D01*
X52729814Y-128273166D01*
X52637712Y-128123844D01*
X52624049Y-128110181D01*
X52590564Y-128048858D01*
X52595548Y-127979166D01*
X52624049Y-127934819D01*
X52637712Y-127921156D01*
X52729814Y-127771834D01*
X52784999Y-127605297D01*
X52795500Y-127502509D01*
X52795499Y-126587492D01*
X52784999Y-126484703D01*
X52729814Y-126318166D01*
X52637712Y-126168844D01*
X52513656Y-126044788D01*
X52420888Y-125987569D01*
X52364336Y-125952687D01*
X52364331Y-125952685D01*
X52362862Y-125952198D01*
X52197797Y-125897501D01*
X52197795Y-125897500D01*
X52095016Y-125887000D01*
X52095009Y-125887000D01*
X51688000Y-125887000D01*
X51620961Y-125867315D01*
X51575206Y-125814511D01*
X51564000Y-125763000D01*
X51564000Y-122303601D01*
X51583685Y-122236562D01*
X51600314Y-122215924D01*
X52624056Y-121192182D01*
X52685377Y-121158699D01*
X52755069Y-121163683D01*
G37*
G04 #@! TD.AperFunction*
G04 #@! TA.AperFunction,Conductor*
G36*
X31232241Y-120070185D02*
G01*
X31270739Y-120109401D01*
X31307288Y-120168656D01*
X31431344Y-120292712D01*
X31580666Y-120384814D01*
X31747203Y-120439999D01*
X31849991Y-120450500D01*
X32650008Y-120450499D01*
X32650016Y-120450498D01*
X32650019Y-120450498D01*
X32706302Y-120444748D01*
X32752797Y-120439999D01*
X32919334Y-120384814D01*
X33068656Y-120292712D01*
X33162319Y-120199049D01*
X33223642Y-120165564D01*
X33293334Y-120170548D01*
X33337681Y-120199049D01*
X33431344Y-120292712D01*
X33580666Y-120384814D01*
X33747203Y-120439999D01*
X33849991Y-120450500D01*
X34650008Y-120450499D01*
X34650016Y-120450498D01*
X34650019Y-120450498D01*
X34706302Y-120444748D01*
X34752797Y-120439999D01*
X34919334Y-120384814D01*
X35068656Y-120292712D01*
X35192712Y-120168656D01*
X35208458Y-120143127D01*
X35260401Y-120096405D01*
X35329363Y-120085181D01*
X35393446Y-120113022D01*
X35401676Y-120120544D01*
X35418844Y-120137712D01*
X35568166Y-120229814D01*
X35734703Y-120284999D01*
X35837491Y-120295500D01*
X36752508Y-120295499D01*
X36752516Y-120295498D01*
X36752519Y-120295498D01*
X36808802Y-120289748D01*
X36855297Y-120284999D01*
X37021834Y-120229814D01*
X37171156Y-120137712D01*
X37184819Y-120124049D01*
X37246142Y-120090564D01*
X37315834Y-120095548D01*
X37360181Y-120124049D01*
X37373844Y-120137712D01*
X37523166Y-120229814D01*
X37601004Y-120255606D01*
X37658448Y-120295377D01*
X37685272Y-120359892D01*
X37686000Y-120373312D01*
X37686000Y-120936000D01*
X37666315Y-121003039D01*
X37613511Y-121048794D01*
X37562000Y-121060000D01*
X36940000Y-121060000D01*
X36940000Y-121736000D01*
X36920315Y-121803039D01*
X36867511Y-121848794D01*
X36816000Y-121860000D01*
X36690000Y-121860000D01*
X36690000Y-121986000D01*
X36670315Y-122053039D01*
X36617511Y-122098794D01*
X36566000Y-122110000D01*
X35205000Y-122110000D01*
X35205000Y-122122697D01*
X35219800Y-122235104D01*
X35219801Y-122235108D01*
X35277737Y-122374981D01*
X35311594Y-122419104D01*
X35336788Y-122484274D01*
X35322749Y-122552718D01*
X35311594Y-122570076D01*
X35277302Y-122614766D01*
X35277300Y-122614769D01*
X35219313Y-122754762D01*
X35219311Y-122754769D01*
X35217673Y-122767212D01*
X35189404Y-122831108D01*
X35182416Y-122838703D01*
X34146635Y-123874486D01*
X34039487Y-123981633D01*
X34039485Y-123981636D01*
X33963719Y-124112864D01*
X33924500Y-124259235D01*
X33924500Y-127380497D01*
X33904815Y-127447536D01*
X33852011Y-127493291D01*
X33839505Y-127498203D01*
X33773166Y-127520186D01*
X33623842Y-127612289D01*
X33499789Y-127736342D01*
X33407687Y-127885663D01*
X33407685Y-127885668D01*
X33402361Y-127901735D01*
X33352501Y-128052203D01*
X33352501Y-128052204D01*
X33352500Y-128052204D01*
X33342000Y-128154983D01*
X33342000Y-128845001D01*
X33342001Y-128845019D01*
X33352500Y-128947796D01*
X33352501Y-128947799D01*
X33407685Y-129114331D01*
X33407687Y-129114336D01*
X33412282Y-129121786D01*
X33499788Y-129263656D01*
X33623844Y-129387712D01*
X33773166Y-129479814D01*
X33839505Y-129501796D01*
X33896948Y-129541567D01*
X33923772Y-129606082D01*
X33924500Y-129619501D01*
X33924500Y-130237095D01*
X33904815Y-130304134D01*
X33852011Y-130349889D01*
X33839506Y-130354800D01*
X33808168Y-130365184D01*
X33658842Y-130457289D01*
X33534789Y-130581342D01*
X33442687Y-130730663D01*
X33442685Y-130730668D01*
X33406621Y-130839504D01*
X33366848Y-130896949D01*
X33302333Y-130923772D01*
X33288915Y-130924500D01*
X32688585Y-130924500D01*
X32621546Y-130904815D01*
X32575791Y-130852011D01*
X32570879Y-130839504D01*
X32534814Y-130730666D01*
X32442712Y-130581344D01*
X32318656Y-130457288D01*
X32225888Y-130400069D01*
X32169336Y-130365187D01*
X32169331Y-130365185D01*
X32167862Y-130364698D01*
X32002797Y-130310001D01*
X32002795Y-130310000D01*
X31900010Y-130299500D01*
X31099998Y-130299500D01*
X31099980Y-130299501D01*
X30997203Y-130310000D01*
X30997200Y-130310001D01*
X30830668Y-130365185D01*
X30830663Y-130365187D01*
X30681345Y-130457287D01*
X30587681Y-130550951D01*
X30579734Y-130555289D01*
X30574310Y-130562536D01*
X30549550Y-130571770D01*
X30526357Y-130584435D01*
X30517328Y-130583789D01*
X30508846Y-130586953D01*
X30483025Y-130581336D01*
X30456666Y-130579451D01*
X30447612Y-130573632D01*
X30440573Y-130572101D01*
X30412319Y-130550950D01*
X30336819Y-130475450D01*
X30303334Y-130414127D01*
X30300500Y-130387769D01*
X30300500Y-129587230D01*
X30320185Y-129520191D01*
X30336819Y-129499549D01*
X30357012Y-129479356D01*
X30392712Y-129443656D01*
X30394752Y-129440347D01*
X30396745Y-129438555D01*
X30397193Y-129437989D01*
X30397289Y-129438065D01*
X30446694Y-129393623D01*
X30515656Y-129382395D01*
X30579740Y-129410234D01*
X30605829Y-129440339D01*
X30607681Y-129443341D01*
X30607683Y-129443344D01*
X30731654Y-129567315D01*
X30880875Y-129659356D01*
X30880880Y-129659358D01*
X31047302Y-129714505D01*
X31047309Y-129714506D01*
X31150019Y-129724999D01*
X31287499Y-129724999D01*
X31787500Y-129724999D01*
X31924972Y-129724999D01*
X31924986Y-129724998D01*
X32027697Y-129714505D01*
X32194119Y-129659358D01*
X32194124Y-129659356D01*
X32343345Y-129567315D01*
X32467315Y-129443345D01*
X32559356Y-129294124D01*
X32559358Y-129294119D01*
X32614505Y-129127697D01*
X32614506Y-129127690D01*
X32624999Y-129024986D01*
X32625000Y-129024973D01*
X32625000Y-128750000D01*
X31787500Y-128750000D01*
X31787500Y-129724999D01*
X31287499Y-129724999D01*
X31287500Y-129724998D01*
X31287500Y-128250000D01*
X31787500Y-128250000D01*
X32624999Y-128250000D01*
X32624999Y-127975028D01*
X32624998Y-127975013D01*
X32614505Y-127872302D01*
X32559358Y-127705880D01*
X32559356Y-127705875D01*
X32467315Y-127556654D01*
X32343345Y-127432684D01*
X32194124Y-127340643D01*
X32194119Y-127340641D01*
X32027697Y-127285494D01*
X32027690Y-127285493D01*
X31924986Y-127275000D01*
X31787500Y-127275000D01*
X31787500Y-128250000D01*
X31287500Y-128250000D01*
X31287500Y-127275000D01*
X31150027Y-127275000D01*
X31150012Y-127275001D01*
X31047302Y-127285494D01*
X30880880Y-127340641D01*
X30880875Y-127340643D01*
X30731654Y-127432684D01*
X30607683Y-127556655D01*
X30607679Y-127556660D01*
X30605826Y-127559665D01*
X30604018Y-127561290D01*
X30603202Y-127562323D01*
X30603025Y-127562183D01*
X30553874Y-127606385D01*
X30484911Y-127617601D01*
X30420831Y-127589752D01*
X30410381Y-127579951D01*
X30401514Y-127570615D01*
X30392712Y-127556344D01*
X30298183Y-127461815D01*
X30297088Y-127460662D01*
X30281837Y-127430936D01*
X30265834Y-127401628D01*
X30265577Y-127399242D01*
X30265195Y-127398497D01*
X30265338Y-127397022D01*
X30263000Y-127375270D01*
X30263000Y-126594500D01*
X30282685Y-126527461D01*
X30335489Y-126481706D01*
X30387000Y-126470500D01*
X32697713Y-126470500D01*
X32697720Y-126470500D01*
X32810236Y-126455687D01*
X32950233Y-126397698D01*
X33070451Y-126305451D01*
X33162698Y-126185233D01*
X33220687Y-126045236D01*
X33235500Y-125932720D01*
X33235500Y-125407280D01*
X33220687Y-125294764D01*
X33162698Y-125154767D01*
X33128720Y-125110486D01*
X33103526Y-125045317D01*
X33117564Y-124976872D01*
X33128720Y-124959514D01*
X33134598Y-124951853D01*
X33162698Y-124915233D01*
X33220687Y-124775236D01*
X33235500Y-124662720D01*
X33235500Y-124137280D01*
X33220687Y-124024764D01*
X33162698Y-123884767D01*
X33128720Y-123840486D01*
X33103526Y-123775317D01*
X33117564Y-123706872D01*
X33128720Y-123689514D01*
X33146099Y-123666865D01*
X33162698Y-123645233D01*
X33220687Y-123505236D01*
X33235500Y-123392720D01*
X33235500Y-122867280D01*
X33220687Y-122754764D01*
X33173263Y-122640272D01*
X33162699Y-122614769D01*
X33162697Y-122614766D01*
X33128720Y-122570486D01*
X33103526Y-122505317D01*
X33117564Y-122436872D01*
X33128720Y-122419514D01*
X33141927Y-122402302D01*
X33162698Y-122375233D01*
X33220687Y-122235236D01*
X33235500Y-122122720D01*
X33235500Y-121597302D01*
X35205000Y-121597302D01*
X35205000Y-121610000D01*
X36440000Y-121610000D01*
X36440000Y-121060000D01*
X35742302Y-121060000D01*
X35629895Y-121074800D01*
X35629891Y-121074801D01*
X35490021Y-121132736D01*
X35369905Y-121224905D01*
X35277736Y-121345021D01*
X35219801Y-121484891D01*
X35219800Y-121484895D01*
X35205000Y-121597302D01*
X33235500Y-121597302D01*
X33235500Y-121597280D01*
X33220687Y-121484764D01*
X33162698Y-121344767D01*
X33070451Y-121224549D01*
X32950233Y-121132302D01*
X32950229Y-121132300D01*
X32863510Y-121096380D01*
X32810236Y-121074313D01*
X32796171Y-121072461D01*
X32697727Y-121059500D01*
X32697720Y-121059500D01*
X30802280Y-121059500D01*
X30802272Y-121059500D01*
X30689764Y-121074313D01*
X30689763Y-121074313D01*
X30549769Y-121132300D01*
X30549766Y-121132302D01*
X30462486Y-121199275D01*
X30397317Y-121224469D01*
X30328872Y-121210431D01*
X30278883Y-121161617D01*
X30263000Y-121100899D01*
X30263000Y-120174500D01*
X30282685Y-120107461D01*
X30335489Y-120061706D01*
X30387000Y-120050500D01*
X31165202Y-120050500D01*
X31232241Y-120070185D01*
G37*
G04 #@! TD.AperFunction*
G04 #@! TA.AperFunction,Conductor*
G36*
X39613202Y-118979827D02*
G01*
X39619680Y-118985859D01*
X41755606Y-121121786D01*
X41755610Y-121121789D01*
X41886713Y-121209390D01*
X41886717Y-121209392D01*
X41886720Y-121209394D01*
X42032402Y-121269738D01*
X42187052Y-121300499D01*
X42187056Y-121300500D01*
X45975544Y-121300500D01*
X46042583Y-121320185D01*
X46088338Y-121372989D01*
X46098282Y-121442147D01*
X46069257Y-121505703D01*
X46014548Y-121542206D01*
X45868380Y-121590641D01*
X45868375Y-121590643D01*
X45719154Y-121682684D01*
X45595184Y-121806654D01*
X45503143Y-121955875D01*
X45503141Y-121955880D01*
X45447994Y-122122302D01*
X45447993Y-122122309D01*
X45437500Y-122225013D01*
X45437500Y-122500000D01*
X46401000Y-122500000D01*
X46468039Y-122519685D01*
X46513794Y-122572489D01*
X46525000Y-122624000D01*
X46525000Y-122750000D01*
X46651000Y-122750000D01*
X46718039Y-122769685D01*
X46763794Y-122822489D01*
X46775000Y-122874000D01*
X46775000Y-123974999D01*
X46912472Y-123974999D01*
X46912486Y-123974998D01*
X47015197Y-123964505D01*
X47181619Y-123909358D01*
X47181624Y-123909356D01*
X47330845Y-123817315D01*
X47454818Y-123693342D01*
X47456665Y-123690348D01*
X47458469Y-123688724D01*
X47459298Y-123687677D01*
X47459476Y-123687818D01*
X47508610Y-123643621D01*
X47577573Y-123632396D01*
X47641656Y-123660236D01*
X47667743Y-123690341D01*
X47669788Y-123693656D01*
X47793844Y-123817712D01*
X47943166Y-123909814D01*
X48109703Y-123964999D01*
X48212491Y-123975500D01*
X48987508Y-123975499D01*
X48987516Y-123975498D01*
X48987519Y-123975498D01*
X49043802Y-123969748D01*
X49090297Y-123964999D01*
X49256834Y-123909814D01*
X49406156Y-123817712D01*
X49530212Y-123693656D01*
X49622314Y-123544334D01*
X49666664Y-123410494D01*
X49706436Y-123353051D01*
X49770951Y-123326228D01*
X49784369Y-123325500D01*
X49967500Y-123325500D01*
X49967502Y-123325500D01*
X50113871Y-123286281D01*
X50245101Y-123210515D01*
X50245103Y-123210512D01*
X50249999Y-123207686D01*
X50317899Y-123191213D01*
X50383926Y-123214065D01*
X50427117Y-123268986D01*
X50436000Y-123315073D01*
X50436000Y-126369252D01*
X50457988Y-126451314D01*
X50457988Y-126451315D01*
X50474433Y-126512693D01*
X50474434Y-126512694D01*
X50474435Y-126512696D01*
X50548687Y-126641304D01*
X50548689Y-126641306D01*
X50660761Y-126753378D01*
X50660767Y-126753383D01*
X50668181Y-126760797D01*
X50701666Y-126822120D01*
X50704500Y-126848478D01*
X50704500Y-126857522D01*
X50684815Y-126924561D01*
X50632011Y-126970316D01*
X50562853Y-126980260D01*
X50499297Y-126951235D01*
X50492819Y-126945203D01*
X50236818Y-126689202D01*
X50235458Y-126686711D01*
X50233030Y-126685243D01*
X50218814Y-126656230D01*
X50203333Y-126627879D01*
X50202886Y-126623723D01*
X50202287Y-126622501D01*
X50202128Y-126616674D01*
X50200673Y-126603140D01*
X50200659Y-126603141D01*
X50200646Y-126602890D01*
X50200499Y-126601521D01*
X50200499Y-126599998D01*
X50200498Y-126599981D01*
X50189999Y-126497203D01*
X50189998Y-126497200D01*
X50176242Y-126455687D01*
X50134814Y-126330666D01*
X50042712Y-126181344D01*
X49918656Y-126057288D01*
X49769334Y-125965186D01*
X49602797Y-125910001D01*
X49602795Y-125910000D01*
X49500010Y-125899500D01*
X48499998Y-125899500D01*
X48499980Y-125899501D01*
X48397203Y-125910000D01*
X48397200Y-125910001D01*
X48230668Y-125965185D01*
X48230663Y-125965187D01*
X48081342Y-126057289D01*
X47957289Y-126181342D01*
X47865187Y-126330663D01*
X47865185Y-126330668D01*
X47850554Y-126374821D01*
X47810001Y-126497203D01*
X47810001Y-126497204D01*
X47810000Y-126497204D01*
X47799500Y-126599983D01*
X47799500Y-127400001D01*
X47799501Y-127400019D01*
X47810000Y-127502796D01*
X47810001Y-127502799D01*
X47865185Y-127669331D01*
X47865187Y-127669336D01*
X47887728Y-127705880D01*
X47939984Y-127790602D01*
X47957289Y-127818657D01*
X48050951Y-127912319D01*
X48084436Y-127973642D01*
X48079452Y-128043334D01*
X48050951Y-128087681D01*
X47957289Y-128181342D01*
X47865185Y-128330667D01*
X47862256Y-128339507D01*
X47822482Y-128396951D01*
X47757965Y-128423772D01*
X47744551Y-128424500D01*
X47256058Y-128424500D01*
X47189019Y-128404815D01*
X47150519Y-128365597D01*
X47134427Y-128339507D01*
X47067712Y-128231344D01*
X46943656Y-128107288D01*
X46940819Y-128105538D01*
X46939283Y-128103830D01*
X46937989Y-128102807D01*
X46938163Y-128102585D01*
X46894096Y-128053594D01*
X46882872Y-127984632D01*
X46910713Y-127920549D01*
X46940817Y-127894462D01*
X46943656Y-127892712D01*
X47067712Y-127768656D01*
X47159814Y-127619334D01*
X47214999Y-127452797D01*
X47225500Y-127350009D01*
X47225499Y-126574992D01*
X47217552Y-126497200D01*
X47214999Y-126472203D01*
X47214998Y-126472200D01*
X47208077Y-126451313D01*
X47159814Y-126305666D01*
X47067712Y-126156344D01*
X46943656Y-126032288D01*
X46824282Y-125958658D01*
X46794336Y-125940187D01*
X46794331Y-125940185D01*
X46771782Y-125932713D01*
X46627797Y-125885001D01*
X46627795Y-125885000D01*
X46525010Y-125874500D01*
X45474998Y-125874500D01*
X45474980Y-125874501D01*
X45372203Y-125885000D01*
X45372200Y-125885001D01*
X45205668Y-125940185D01*
X45205663Y-125940187D01*
X45056342Y-126032289D01*
X44932289Y-126156342D01*
X44840182Y-126305671D01*
X44837131Y-126312216D01*
X44835012Y-126311228D01*
X44801628Y-126359448D01*
X44737113Y-126386272D01*
X44723693Y-126387000D01*
X44238768Y-126387000D01*
X44171729Y-126367315D01*
X44133229Y-126328097D01*
X44123434Y-126312216D01*
X44042712Y-126181344D01*
X43918656Y-126057288D01*
X43769334Y-125965186D01*
X43602797Y-125910001D01*
X43602795Y-125910000D01*
X43500010Y-125899500D01*
X42499998Y-125899500D01*
X42499980Y-125899501D01*
X42397203Y-125910000D01*
X42397200Y-125910001D01*
X42230668Y-125965185D01*
X42230663Y-125965187D01*
X42081342Y-126057289D01*
X41957289Y-126181342D01*
X41957288Y-126181344D01*
X41877176Y-126311228D01*
X41866771Y-126328097D01*
X41814823Y-126374821D01*
X41761232Y-126387000D01*
X41386734Y-126387000D01*
X41359582Y-126394275D01*
X41327491Y-126398500D01*
X40997478Y-126398500D01*
X40930439Y-126378815D01*
X40909797Y-126362181D01*
X38850319Y-124302703D01*
X38816834Y-124241380D01*
X38814000Y-124215022D01*
X38814000Y-123274986D01*
X45437501Y-123274986D01*
X45447994Y-123377697D01*
X45503141Y-123544119D01*
X45503143Y-123544124D01*
X45595184Y-123693345D01*
X45719154Y-123817315D01*
X45868375Y-123909356D01*
X45868380Y-123909358D01*
X46034802Y-123964505D01*
X46034809Y-123964506D01*
X46137519Y-123974999D01*
X46274999Y-123974999D01*
X46275000Y-123974998D01*
X46275000Y-123000000D01*
X45437501Y-123000000D01*
X45437501Y-123274986D01*
X38814000Y-123274986D01*
X38814000Y-120373312D01*
X38833685Y-120306273D01*
X38886489Y-120260518D01*
X38898983Y-120255610D01*
X38976834Y-120229814D01*
X39126156Y-120137712D01*
X39250212Y-120013656D01*
X39342314Y-119864334D01*
X39397499Y-119697797D01*
X39408000Y-119595009D01*
X39407999Y-119073539D01*
X39427683Y-119006501D01*
X39480487Y-118960746D01*
X39549646Y-118950802D01*
X39613202Y-118979827D01*
G37*
G04 #@! TD.AperFunction*
G04 #@! TA.AperFunction,Conductor*
G36*
X64527297Y-122595185D02*
G01*
X64547939Y-122611819D01*
X64669483Y-122733363D01*
X64669485Y-122733365D01*
X64776635Y-122840515D01*
X64893288Y-122907865D01*
X64907865Y-122916281D01*
X65054233Y-122955500D01*
X65054234Y-122955500D01*
X65330497Y-122955500D01*
X65397536Y-122975185D01*
X65419583Y-122993246D01*
X65429771Y-123003769D01*
X65434608Y-123011947D01*
X65531537Y-123108876D01*
X65532208Y-123109569D01*
X65532504Y-123110133D01*
X65543440Y-123122938D01*
X65601219Y-123202464D01*
X65741736Y-123342981D01*
X65902506Y-123459787D01*
X65935688Y-123476694D01*
X66079567Y-123550005D01*
X66079570Y-123550006D01*
X66118236Y-123562569D01*
X66268564Y-123611413D01*
X66464839Y-123642500D01*
X66464840Y-123642500D01*
X66663560Y-123642500D01*
X66663561Y-123642500D01*
X66859836Y-123611413D01*
X67048832Y-123550005D01*
X67225894Y-123459787D01*
X67386664Y-123342981D01*
X67527181Y-123202464D01*
X67584962Y-123122933D01*
X67590239Y-123116175D01*
X67593737Y-123112000D01*
X67693792Y-123011947D01*
X67732639Y-122946259D01*
X67739162Y-122938477D01*
X67760127Y-122924509D01*
X67778537Y-122907321D01*
X67788705Y-122905471D01*
X67797310Y-122899739D01*
X67822499Y-122899324D01*
X67847279Y-122894817D01*
X67856834Y-122898759D01*
X67867170Y-122898589D01*
X67888579Y-122911854D01*
X67911868Y-122921462D01*
X67920891Y-122931875D01*
X67926563Y-122935390D01*
X67929775Y-122942128D01*
X67940931Y-122955003D01*
X67952867Y-122975185D01*
X67967542Y-123000000D01*
X67974608Y-123011947D01*
X68070808Y-123108147D01*
X68083440Y-123122938D01*
X68141219Y-123202464D01*
X68281736Y-123342981D01*
X68350186Y-123392713D01*
X68354060Y-123395527D01*
X68396726Y-123450856D01*
X68402705Y-123520470D01*
X68370100Y-123582265D01*
X68368856Y-123583526D01*
X67552703Y-124399681D01*
X67491380Y-124433166D01*
X67465022Y-124436000D01*
X63331865Y-124436000D01*
X63331849Y-124435999D01*
X63324253Y-124435999D01*
X63175748Y-124435999D01*
X63044063Y-124471284D01*
X63032300Y-124474436D01*
X62903699Y-124548684D01*
X62903693Y-124548689D01*
X62052703Y-125399681D01*
X61991380Y-125433166D01*
X61965022Y-125436000D01*
X59509259Y-125436000D01*
X59442220Y-125416315D01*
X59396465Y-125363511D01*
X59391553Y-125351004D01*
X59386213Y-125334889D01*
X59384814Y-125330666D01*
X59292712Y-125181344D01*
X59198695Y-125087327D01*
X59165210Y-125026004D01*
X59170194Y-124956312D01*
X59198695Y-124911964D01*
X59292317Y-124818342D01*
X59384356Y-124669124D01*
X59384358Y-124669119D01*
X59439505Y-124502697D01*
X59439506Y-124502690D01*
X59449999Y-124399986D01*
X59450000Y-124399973D01*
X59450000Y-124250000D01*
X58374000Y-124250000D01*
X58306961Y-124230315D01*
X58261206Y-124177511D01*
X58250000Y-124126000D01*
X58250000Y-123874000D01*
X58269685Y-123806961D01*
X58322489Y-123761206D01*
X58374000Y-123750000D01*
X59449999Y-123750000D01*
X59449999Y-123600028D01*
X59449998Y-123600013D01*
X59439505Y-123497302D01*
X59384358Y-123330880D01*
X59384356Y-123330875D01*
X59292315Y-123181654D01*
X59198695Y-123088034D01*
X59165210Y-123026711D01*
X59170194Y-122957019D01*
X59198691Y-122912676D01*
X59292712Y-122818656D01*
X59384814Y-122669334D01*
X59387744Y-122660493D01*
X59427518Y-122603049D01*
X59492035Y-122576228D01*
X59505449Y-122575500D01*
X64460258Y-122575500D01*
X64527297Y-122595185D01*
G37*
G04 #@! TD.AperFunction*
G04 #@! TA.AperFunction,Conductor*
G36*
X33844644Y-114917904D02*
G01*
X33901913Y-115017097D01*
X33982903Y-115098087D01*
X34082096Y-115155356D01*
X34173662Y-115179890D01*
X33603544Y-115750007D01*
X33603545Y-115750008D01*
X33626824Y-115766921D01*
X33793584Y-115851891D01*
X33971573Y-115909722D01*
X34156419Y-115939000D01*
X34343581Y-115939000D01*
X34528426Y-115909722D01*
X34706415Y-115851891D01*
X34873165Y-115766927D01*
X34873173Y-115766922D01*
X34896453Y-115750008D01*
X34896453Y-115750007D01*
X34326337Y-115179890D01*
X34417904Y-115155356D01*
X34517097Y-115098087D01*
X34598087Y-115017097D01*
X34655356Y-114917904D01*
X34679890Y-114826336D01*
X35250007Y-115396453D01*
X35250008Y-115396453D01*
X35266922Y-115373173D01*
X35266927Y-115373165D01*
X35351892Y-115206413D01*
X35409121Y-115030276D01*
X35448557Y-114972600D01*
X35512916Y-114945401D01*
X35581762Y-114957315D01*
X35614733Y-114980912D01*
X38626640Y-117992819D01*
X38660125Y-118054142D01*
X38655141Y-118123834D01*
X38613269Y-118179767D01*
X38547805Y-118204184D01*
X38538959Y-118204500D01*
X37792498Y-118204500D01*
X37792480Y-118204501D01*
X37689703Y-118215000D01*
X37689700Y-118215001D01*
X37523168Y-118270185D01*
X37523163Y-118270187D01*
X37373842Y-118362289D01*
X37360181Y-118375951D01*
X37298858Y-118409436D01*
X37229166Y-118404452D01*
X37184819Y-118375951D01*
X37171157Y-118362289D01*
X37171156Y-118362288D01*
X37021834Y-118270186D01*
X36855297Y-118215001D01*
X36855295Y-118215000D01*
X36752510Y-118204500D01*
X35837498Y-118204500D01*
X35837480Y-118204501D01*
X35734703Y-118215000D01*
X35734700Y-118215001D01*
X35568168Y-118270185D01*
X35568163Y-118270187D01*
X35418842Y-118362289D01*
X35401674Y-118379457D01*
X35340350Y-118412941D01*
X35270659Y-118407955D01*
X35214726Y-118366082D01*
X35208464Y-118356882D01*
X35192712Y-118331344D01*
X35068656Y-118207288D01*
X34919334Y-118115186D01*
X34752797Y-118060001D01*
X34752795Y-118060000D01*
X34650016Y-118049500D01*
X34650009Y-118049500D01*
X33914742Y-118049500D01*
X33847703Y-118029815D01*
X33827061Y-118013181D01*
X32321819Y-116507939D01*
X32288334Y-116446616D01*
X32285500Y-116420258D01*
X32285500Y-116063499D01*
X32305185Y-115996460D01*
X32357989Y-115950705D01*
X32409500Y-115939499D01*
X32446871Y-115939499D01*
X32446872Y-115939499D01*
X32506483Y-115933091D01*
X32641331Y-115882796D01*
X32756546Y-115796546D01*
X32842796Y-115681331D01*
X32842798Y-115681326D01*
X32850972Y-115659413D01*
X32850972Y-115659412D01*
X32893090Y-115546485D01*
X32893091Y-115546483D01*
X32893148Y-115545949D01*
X32899500Y-115486873D01*
X32899499Y-115224178D01*
X32919183Y-115157142D01*
X32971987Y-115111387D01*
X33041146Y-115101443D01*
X33104701Y-115130468D01*
X33141429Y-115185860D01*
X33148107Y-115206414D01*
X33233074Y-115373168D01*
X33249991Y-115396453D01*
X33820108Y-114826335D01*
X33844644Y-114917904D01*
G37*
G04 #@! TD.AperFunction*
G04 #@! TA.AperFunction,Conductor*
G36*
X55943039Y-111644685D02*
G01*
X55988794Y-111697489D01*
X56000000Y-111749000D01*
X56000000Y-115099999D01*
X56137472Y-115099999D01*
X56137486Y-115099998D01*
X56240197Y-115089505D01*
X56406619Y-115034358D01*
X56406624Y-115034356D01*
X56555845Y-114942315D01*
X56679816Y-114818344D01*
X56679820Y-114818339D01*
X56694961Y-114793792D01*
X56746908Y-114747066D01*
X56815870Y-114735843D01*
X56879953Y-114763686D01*
X56918810Y-114821754D01*
X56924500Y-114858887D01*
X56924500Y-115503945D01*
X56904815Y-115570984D01*
X56852011Y-115616739D01*
X56782853Y-115626683D01*
X56731609Y-115607047D01*
X56629185Y-115538609D01*
X56629172Y-115538602D01*
X56483501Y-115478264D01*
X56483489Y-115478261D01*
X56328845Y-115447500D01*
X56328842Y-115447500D01*
X56171158Y-115447500D01*
X56171155Y-115447500D01*
X56016510Y-115478261D01*
X56016503Y-115478263D01*
X55934401Y-115512270D01*
X55904402Y-115515494D01*
X55874771Y-115521108D01*
X55870025Y-115519190D01*
X55864932Y-115519738D01*
X55837948Y-115506230D01*
X55809989Y-115494934D01*
X55807032Y-115490754D01*
X55802453Y-115488462D01*
X55799269Y-115485389D01*
X55536319Y-115222439D01*
X55502834Y-115161116D01*
X55500000Y-115134758D01*
X55500000Y-111749000D01*
X55519685Y-111681961D01*
X55572489Y-111636206D01*
X55624000Y-111625000D01*
X55876000Y-111625000D01*
X55943039Y-111644685D01*
G37*
G04 #@! TD.AperFunction*
M02*
